<svg xmlns="http://www.w3.org/2000/svg" viewBox="0 0 40 40"><path d="M36.7 33.429h-.01a33.211 33.211 0 0 0-8.725-19.573l3.508-3.533 1.638 1.577 3.725-8.77-8.77 3.735 1.577 1.628-3.518 3.528a33.299 33.299 0 0 0-19.32-8.73l-.941-.122v.061a31.036 31.036 0 0 0-2.396-.101v3.058c.809 0 1.608.035 2.396.106v21.676l-2.699 2.386 2.699.941v.971l-2.426 2.442 1.83 1.83 2.366-2.371h1.112l.92 2.704 2.386-2.704h21.681c.066.799.111 1.607.111 2.416l2.992-.046c0-.794-.03-1.588-.076-2.371h.076l-.136-.738zM7.218 26.786L6.854 6.384a30.233 30.233 0 0 1 17.121 7.774l-8.305 8.3-2.765-.677-5.687 5.005zm6.127 5.915l4.904-5.581-.698-2.871 8.26-8.244a30.269 30.269 0 0 1 7.856 17.328l-20.322-.632z" fill="none" stroke="#fff" stroke-width="2" stroke-miterlimit="10"/></svg>