<svg xmlns="http://www.w3.org/2000/svg" viewBox="0 0 110 40"><path d="M107.901 5.246l-.212-.001V3.59c-.884 0-1.599-.703-1.599-1.565h-3.803c-.002.812-.637 1.467-1.447 1.546V2.065c-.884 0-1.599-.701-1.599-1.564h-.477V.5L10.632.501c0 .862-.716 1.565-1.601 1.564v1.509c-.811-.078-1.445-.737-1.445-1.549H3.608c-.003.863-.717 1.559-1.599 1.561v1.661h-.036c0 .862-.587 1.564-1.472 1.564v26.381c.884-.002 1.599.7 1.599 1.564l.212.001v1.654c.884 0 1.599.703 1.599 1.565h3.803c.002-.812.637-1.467 1.447-1.546v1.506c.884 0 1.599.701 1.599 1.564h.477l88.131-.001c0-.862.716-1.565 1.601-1.564v-1.509c.811.078 1.445.737 1.445 1.549H106.392c.003-.862.717-1.559 1.599-1.561v-1.661h.036c0-.862.587-1.564 1.472-1.564V6.809c-.883.002-1.598-.7-1.598-1.563zm-3.474-.801a1.571 1.571 0 0 1 1.098 1.367l-.035.001h-2.16a1.568 1.568 0 0 1 1.097-1.368zM5.355 4.42c.645.169 1.132.72 1.183 1.393H4.168A1.577 1.577 0 0 1 5.355 4.42zm.218 31.135a1.571 1.571 0 0 1-1.098-1.367l.035-.001h2.16a1.568 1.568 0 0 1-1.097 1.368zm99.072.025a1.575 1.575 0 0 1-1.183-1.393h2.371a1.579 1.579 0 0 1-1.188 1.393z" fill="black" stroke="#ffffff" stroke-width=".245" stroke-miterlimit="10"/></svg>