<svg xmlns="http://www.w3.org/2000/svg" viewBox="0 0 100 100"><g fill="#fff"><path d="M71.466 32.898c.099-.126-.018.109.012.116a.398.398 0 0 0 .006.04c.033-.328.035-.144-.025-.153-.069.05-.108.061-.099.058.017-.001.131-.08.106-.061zM69.344 40.699l-.291.018 1.269.704zM66.227 40.34c.315-.136.505-.411.63-.773l.677-1.956 1.615.816c.922.466 2.522.518 3.434 1.179l.139.306.933-.495c-1.376-.456-3.171-.802-4.379-1.298l-2.152-.884-.588 2.248c-.087.332-.187.62-.309.857zM62.975 44.11c.451-.168.081 1.022.384-.977-.067.087-.099.11-.144.156a8.6 8.6 0 0 1-.24.821zM63.215 43.289c.197-.861-.468.475 0 0zM62.397 47.291l-.045-1.213c-.287.176-.6 1.165-.667.749-.116 1.203.17 1.024.712.464zM62.83 48.547l.009-.621c-.12.077-.194.222-.009.621zM62.86 46.61l-.021 1.316c.201-.121.522-.055.039-.596.265.175.05-.142-.018-.72zM63.193 45.949c.379-.575.727-1.356.769-.139.43-2.186-.34-2.051-.769.139z"/><path d="M67.13 41.021l.507-.769-.083-.502-.102-.614 1.424-.044.317-.01a.723.723 0 0 1-.282-.074l-1.113-.475-.331 1.193c-.139.498-.598 1.271-.337 1.295zM59.843 53.39c.17.151.681-.134.968-.106l.11-.888c-.308.348-.762 1.065-1.078.994z"/><path d="M60.811 53.284l-.165 1.328c.492-1.04.412-1.302.165-1.328zM63.864 49.033l-.214-2.241.121 2.637zM57.891 57.895l-.171-.865.182 1.489zM66.155 60.415c.328.593.802-.628.967-.025.06-.886-.177-1.686-.388-2.407.067.742-.095 1.497-.579 2.432zM66.447 56.785c.043.371.162.767.287 1.197a3.995 3.995 0 0 0-.287-1.197zM59.689 56.584c-.159.04-.548.082-.963.688l.755-.227.208-.461zM59.507 57.037l-.025.008-.459.992.484-1zM59.742 56.468l-.053.117c.074-.023.104-.041.053-.117zM62.541 51.75c.014.827-.27 2.418.804 1.22-.17-.661-.783.025-.804-1.22zM60.685 56.187l.663-1.201c-.157-.04-.47.096-.476-.315l-.187 1.516zM60.599 56.876l.086-.689-.246.445zM65.534 59.01c-.171-.622-.096-1.263-.029-1.99-.235.754-.42 1.543-.534 2.302.172.135.459.519.563-.312zM58.239 59.834l-.008.058 6.694 1.905-.009-.075a.317.317 0 0 0-.048.067l-6.585-1.874c.027-.035.022-.064-.044-.081zM66.738 50.53l-.142.077.092.056.05-.133zM64.84 59.436c-.204.561-.111.93.024 1.29.006-.442.037-.909.107-1.403-.078-.062-.133-.08-.131.113zM66.468 54.762c-.172.284-.329.61-.482.956.234-.266.622-.824.482-.956zM65.112 61.551l.013.092c.158-.172.091-.159-.013-.092zM65.112 61.551c-.042-.311-.154-.569-.249-.825-.007.359.008.699.053.996a.852.852 0 0 1 .196-.171z"/><path d="M63.716 47.256c.501.274.516 1.901-.47 2.982-.01.709.516.922 1.181.962.654.068 1.506-.222 2.17-.594-.22-.116-.434-.186-.331-1.572-.438.355-1.612 2.625-1.74 1.385.28-1.789.643-1.331 1.195-2.065-.894.484-.262-2.477-1.361-2.427l-.142 1.602c-.161-.022-.228-.64-.502-.273zM66.02 52.559l-.015.557c.078-.246.171-.46.293-.683.06-.104.131-.242.202-.33.064-.035.132-.069.211-.098l.26-.046c.002-.896-.119-1.193-.282-1.296l-.267.745-.123.341-.06.144-.025.111-.037.186-.103.567-.054-.198zM65.632 55.581c-.539-.52-.595-1.877-1.37-1.17-.204 1.619.332 1.206.447 2.21.247-2.624.222.798.851-1.029a9.8 9.8 0 0 1-.055 1.428c.145-.457.305-.895.482-1.302l-.047.054.002.013-.011-.003c-.092.101-.143.129-.08.01-.008-.009-.006-.04-.005-.054a.64.64 0 0 1-.21-.154c.239-.733.175-.094.21.154.029.011.053.037.085.045a.034.034 0 0 0 .009-.009l.066-2.656c-.169.537-.257 1.229-.374 2.463zM64.001 54.778c-.081.054-.12.034-.163.021.001.187.023.266.163-.021z"/><path d="M63.236 55.629c-.002-.21-.165-.452.137-1 .381-.425.268.118.466.17-.003-.408.111-1.38-.624-.413l.004.202c-.609.893-1.845 1.848-1.85 1.646.627-.069 1.094-.167 1.867-.605zM63.244 61.279l.034-2.214-.69 1.025.322-.009c-.311 1.216.116 1.009.334 1.198zM67.104 50.386l.523.477-.472-1.488zM67.915 47.651l.501.276-.088-.822zM14.773 71.046l.321-.408.222-.287c.027-.05.019-.061.023-.065.009.017-.073.112-.143.196l-.177.221a4.4 4.4 0 0 0-.246.343zM12.577 75.899l.376.039c-.273-.047-.431-.07-.376-.039zM42.64 60.532c-.478.177-1.042.336-1.424.503-.204.1-.393.246-.466.345-.068.096-.045.178.1.248l.708.091c.402-.675.716-.939 1.082-1.187zM37.628 58.852l.148-.052.009-.003.043-.089.001-.001.002-.002.003-.004.013-.014c.009-.016.018-.005.027-.043a.606.606 0 0 0 .016-.216c-.329-.228-.588-.226-.85-.307.125.079.259.163.39.26.067.054.132.089.193.176.025.066.067.069.029.168l-.024.127zM39.57 60.3s-.083-.028.003 0c.042.012.028.002-.003.005-.023.012-.049-.038-.087.1l-.202.559-.1.253c.099-.169.195-.398.292-.672l.07-.2c.023-.059.039-.02.055-.034.096.017-.15-.046-.028-.011zM23.83 55.477l-.946-.535c.599 1.268.625.57.946.535zM56.264 35.537a5.623 5.623 0 0 0-1.356-.436c.72.452 1.235.957 1.356.436zM19.461 75.595c-.004-.165-.064-.279-.202-.337-.04.189.02.308.202.337zM52.77 34.759c.132.085.279.142.408.218.594-.001 1.149.009 1.73.124-.544-.333-1.248-.621-2.138-.342zM57.333 27c-.047-.014-.084-.01-.134-.028.071.076.104.064.134.028zM71.188 34.187a8.271 8.271 0 0 1-.194.453c-.042.082-.076.184-.132.264l-.215.202-.479-.021c.126.023.278.041.5.055.071-.086.202-.142.271-.324l.249-.629zM62.74 35.727c.598-.085.091-.076 0 0zM65.851 37.935c-.124.079-.215.173-.22.316a.502.502 0 0 1 .22-.316zM46.714 39.41l-.024.046c.167-.062.136-.052.024-.046zM63.666 35.938a4.836 4.836 0 0 0-.785-.125c.13.039.369.081.785.125zM63.524 35.657l.531.02c.067-.107-.004-.167-.531-.02zM63.994 43.063l-.098.047-1.888-7.298c.309-.024.595-.017.873.002-.12-.034-.173-.064-.141-.086l-.731.082 1.889 7.303.096-.05zM45.393 21.062c.032.017.068.028.107.052.292-.276.136-.223-.107-.052zM44.383 76.996c.02-.028.019-.05.035-.078l-.096.066.061.012zM42.74 78.229c.168-.687.511-.803 1.03-.963.165-.078.359-.131.552-.281-.506-.09-1.029-.293-1.553-.517l-.563-.268.251.932.283 1.097z"/><path d="M21.146 60.918a7.785 7.785 0 0 0-.744.381l-.731.511-.69.567c.085-.258.246-.612.401-.887l.475-.774c.689-.893 1.489-1.453 1.489-1.585.049-.095.025-.152-.101-.176-.121-.024-.325-.038-.936.188.158.372-.121.845-.572 1.446-.966 1.355-1.98 2.932-2.499 4.171-.54 1.26-.722 2.183-.06 2.573l-.383.358-.376.336c.127-.225.042-.32.168-.549-.795.646-.597 1.004-.381 1.527.222.462.461 1.179-.166 1.715l-.171.107-.342.232c-.23.146-.433.258-.587.323-.304.131-.426.067-.167-.336 0 0-.494.613-.872 1.229-.392.614-.637 1.242-.637 1.242-.431.682-.682.426-.222-.285 0 0-.145.233-.316.597a8.964 8.964 0 0 0-.26.638c-.032.123-.075.246-.1.377l-.04.198-.005.025v.002c.038.006-.085-.011.085.014v.022l-.002.052-.004.102c.022.265.114.364.187.44a.741.741 0 0 0 .219.156c.132.071.226.085.225.091l-.079-.008c.521.101 1.676.171 2.294.164.011-.059-.538.001-.786-.031 0 0 .392.006.825-.034.215-.006.44-.054.611-.071.171-.015.291-.066.29-.059-.244-.167-.827-.155-1.336-.035-.516.091-.953.158-1.15.165-1.127-.099-.967-.171-.347-.322l.49-.227c.086-.072.175-.194.259-.3l.122-.173.245-.374a23.4 23.4 0 0 0 .73-1.195l.046-.082c-.015-.018.059-.019.126-.022l.193-.01.782-.042 1.607-.089a4477.918 4477.918 0 0 1 4.314-.252l.458-.028c.127-.004.145.019.224.031.261.057.541.143.823.267a4.505 4.505 0 0 1 1.535 1.111c.102.113.196.227.281.34.051.074.072.09.089.092l.061.033.246.137.504.299c.003.015-.11-.111-.295-.281l-.331-.293c-.258-.422-.776-1.064-1.435-1.48a4.758 4.758 0 0 0-1.514-.652c-.305-.004-.757.027-1.121.038l-4.235.177a2675.879 2675.879 0 0 1-3.302.139l-.03.047-.048.073-.04.061.003-.214c-.023-.022.039-.029.108-.035l.185-.021.375-.042 1.569-.165 3.439-.324 1.857-.159.96-.079.243-.02a.646.646 0 0 1 .184-.005l.203.034a5.081 5.081 0 0 1 1.73.68 5.45 5.45 0 0 1 1.424 1.299c.08.094.198.289.227.299l.107.069.21.145c.274.179.554.494.75.505.865.345 1.67.323 2.896.239-.385.044-1.694.136-2.767.088-.531.006-1.022-.093-1.265-.047-.251.012-.247.173.099.253.667.039 1.408.044 1.987-.009.342-.049.708-.083 1.124-.165.103-.023.212-.044.316-.098.051-.026.111-.05.142-.124l.01-.03-.376-.614-.331-.538-.008-.004a.094.094 0 0 0-.034-.014c-.097-.027-.216-.034-.335-.049l.885-.393c-.531.07-1.051.263-1.858.377-.495-.134.527-.415 1.46-.611-.038-.067-.012-.092-.204-.065a4.853 4.853 0 0 0-.742.152c-.274.088-.496.159-.752.191-.121.014-.269.023-.366-.024-.086-.054-.054-.091.013-.172.79-.364.83-.565.914-1.037.032-.204.066-.46.165-.796.372-.149.45-.027.512.097.057.129.099.268.272.279 0 0-.083-.176-.131-.378-.051-.199-.07-.426-.07-.426.117-.075.227.123.292.214-.002-.09.067-.272.046-.386-.01-.123-.061-.225-.099-.338-.07-.224-.112-.488.405-1.037-.29-1.06 3.353-.642 4.304-2.72.547-.083.135.59.462.785.888-1.105 1.29-1.598 1.614-2.067.18-.26.269-.434.524-.84.242-.385.519-.866.793-1.533 0 0 .539-.352.935-.863.413-.498.638-1.106.638-1.106-.523.829-.833.493-1.068-.152a18.59 18.59 0 0 1-.406-1.135c-.125-.299-.158-.681-.079-1.079-.537.178-.989.562-1.179.873 0 0-.005-.185.047-.475.051-.284.167-.678.343-1.009l.031-.065.016-.033.008-.016.001-.002v-.001l.667.521-.01-.006-.019-.012c-.077-.025-.041-.078-.227-.08a.58.58 0 0 0-.392.166c-.068.042-.07.135-.178.155l-.01-.006-.019-.012c-.008-.003-.03-.026-.05-.045l-.241-.24-.265-.263c-.041-.328.356-.296.888-.179a5.33 5.33 0 0 0-.425-.246c-.203-.917.485-.819 1.248-.589.022.368.025.676.027 1.142.078.091.097.31.127.308l.011.017.003.004v.001l-.078.166v.003l.002.009.008.035.016.07c.023.092.049.178.079.26.071.164.156.303.264.414.216.223.483.328.739.403-.081-.063-.151-.175-.081-.349.08.151.169.247.264.273.05.013.046-.024.018-.105l-.006-.016-.003-.008-.002-.005-.001-.002v-.001l.363-.765-.001-.002c-.006-.025-.018-.025-.021-.072a2.335 2.335 0 0 0-.151-1.252l-.04-.088-.012-.014-.024-.029a1.75 1.75 0 0 0-.382-.367l.246-.556.253-.534-.412.106a6.86 6.86 0 0 1-.246-.653c-.026-.087-.051-.184-.021-.184-1.172.585-2.203 1.043-2.409.885l-2.77.005c.003.339.05.696.138 1.031.074.258.141.418.23.628.098.225.157.324.228.456l.215.367c.252.398.484.718.69.995.337.153.706.305.856.252a6.04 6.04 0 0 1 .675.032c.483.053 1.06.157 1.62.432.293.134.489.351.582.6.135.249.197.528.257.845.08.626.004 1.385-.261 2.235-.168-.548-.454-.657-.771-.724-.321-.06-.68-.077-1.081-.255.548-.104.663-.629.576-1.121-.117-.492-.23-1.001-.572-1.4.241.472-.334.506-.522.465 0 0 .121.05.228.172.082.121.195.302.262.506.159.404.186.92.186.92-.349-.1-.509-.038-.645.067-.067.054-.126.123-.195.193-.068.064-.209.256-.351.387.767.035.755.635.469 1.444-.284.801-.834 1.827-.946 2.573-.472-.112-.751-.693.127-2.131-.897.574-.818 1.323-.692 2.091.121.766.295 1.49-.464 2.308.139-.447.297-.642.134-.903.008.584-.289 1.447-.495 2.217-.228.741-.411 1.363-.605.976l.04-.554c-.037.26-.072.542-.104.877l4.607-.381-.122-.751-1.578-9.679-2.962 9.415a10.623 10.623 0 0 0-.453 2.165 7.09 7.09 0 0 0-.016 1.351c.03.277.066.57.199.976a3.01 3.01 0 0 0 1.081 1.511l1.666-1.567a.26.26 0 0 1 .126.123l.012.035.003.017v.003l.769 1.346-.003.004-.005.008-.043.067-.083.128c.013.026.142.004.206.008l.897-.016c.552-.009 1.007-.053 1.342-.131.675-.155.916-.404.773-.697.166.142.82 1.454.786 1.731.327-.487.457-.985.586-1.398.13-.41.272-.714.432-1.063.136-.35-.312-1.583-1.306-2.281.412.287.907.578 1.428.858l1.173.607c.368.204.775.432 1.12.729.346.295.629.682.349 1.43.075-.195.288-.323.375-.522.05-.088.07-.166.101-.253.005-.065.018-.146.01-.212-.033-.266-.241-.499-.677-.919-.025.052-.362-.067-.702-.218-.344-.152-.714-.359-.947-.552.192-.075.319-.089.362-.226.025-.057.052-.143.137-.321l.081-.166.119-.283.17-.435c-.008-.018.053-.049-.012-.057l-.205-.025-.435-.051-.849-.091.448.044c.151.013.262.019.336.019.149.001.148-.023.042-.066-.212-.086-.838-.25-1.469-.459-.435-.107-.333-.202-.407-.33a1.632 1.632 0 0 1-.078-.368 1.015 1.015 0 0 1 .17-.698c.12.265 1.399.786 1.347 1.185l.003-1.487.027-1.5c-.11.69 1.069.833 1.754.612-.406.044 1.235-1.795 1.486-2.413l-.905.659c.9-1.096.84-1.974.78-2.842-.05-.878-.003-1.825.896-2.948.06.455 1.054 1.992 2.181.787a51.997 51.997 0 0 0-.831-3.125l-.304-.995c-.103-.33-.215-.638-.254-1.041-.044-.846-.189-1.22-.159-1.64l.307-.095.315-.115s.015-.338-.017-.638c-.024-.304-.117-.574-.117-.574.654.237 1.421 1.009 1.681 2.512.082.352.099.826.176 1.181.039.178.076.355.125.514l.073.234.043.296c.108.788.11 1.55.049 2.158.482-.476.644-.507.801-.625.144-.105.339-.376.673-1.255.135-.037.225-.006.288.059a.358.358 0 0 1 .074.119c.007.074-.008.195-.025.308-.066.471-.29 1.071-.422 1.353l.381-.676c.112-.206.235-.45.361-.717.08-.174.085-.157.121-.223l.117-.196.071-.118c.035-.061.027-.036.099-.173l.293-.526.51-.942c.293-.556.462-.935.462-.935-.447.034-.361-.753-.335-1.599.05-.854-.066-1.776-.307-2.155-.114-.198-.232-.266-.367-.197l.065.264c.339 1.664-.068 3.53-.773 5.552-.429-.063-.607-.903-.686-1.89-.085-1.009-.052-2.118-.092-3.319a7.423 7.423 0 0 0-.196-1.279c.053-.437.479-.491.954-.397.468.089.94.349 1.084.264-.195-.192-.566-1.012-1.125-1.673-.54-.678-1.214-1.15-1.255-1.328 0 0 .406.142.791.346.389.196.738.463.738.463-.502-.967-1.49-1.304-2.444-1.52-.989-.233-1.894-.31-3.023-.989-.221-.058-.478-.187-.757-.352l-.213-.13c-.082-.046-.144-.09-.159-.126-.056-.077-.127-.154-.162-.225-.094-.142-.129-.256-.161-.297-.01-.017-.003-.064-.118.208.039-.102.024-.049.02-.037l-.014.054-.028.118a1.35 1.35 0 0 0-.043.278l-.054.676a16.12 16.12 0 0 1-.171 1.577c-.174 1.066-.513 2.067-1.048 2.339-.067-.045-.323-.182-.746-.493-.211-.164-.47-.353-.781-.731l-.054-.066-.069-.076-.002-.005-.004-.009-.008-.019-.031-.076-.064-.156c-.098-.191-.216-.417-.255-.593a2.737 2.737 0 0 1 .144-1.942c.227-.477.513-.753.706-.881.61-.333.872.303 1.259.714.38.459.875.538 1.245.515-.269-.024-.511-.36-.531-.561.185-.141.353-.009.5.048.075.029.143.042.214.001.09-.073.087-.046.318-.465-.643-.781 1.547-2.46-.328-1.035.427-1.208.81-1.192 1.465-2.017.095-.114.195-.262.307-.422-.463.104-.571-.6-.735-1.399-.179-.714-.325-1.823-.093-2.628.151.253.515.178.689.168.165-.302.365-.562.613-.746.25-.187.553-.254.84-.277a7.56 7.56 0 0 1 1.622.136c1.019.183 1.858.469 3.212.703.192.277 1.473.746.854 1.076.43-.119.826-.377 1.715-.359.881.419.37.471-.207.493-.573.031-1.178.017-.557.593.083-.274.675-.396 1.435-.583.756-.175 1.692-.481 2.288-.884l.046-.033a.18.18 0 0 0-.08-.06c-.382-.263-1.068-.042-1.884.112-.808.179-1.725.35-2.343.446.062-.522.536-.983 1.209-1.429.673-.444 1.524-.898 2.167-1.464.276-.189.632-.409.996-.575 2.278-.864 1.168.521 1.539.252 2.128-.302 2.95-.866 3.734-1.4.779-.51 1.491-.944 3.317-.584.104.05.195.101.251.153l5.678 5.22-4.696-.954c-1.172-.238-.458-1.325-.927-1.671l.119-.079 1.228-.814-1.364.226c-1.699.281-2.685-.364-3.883-.216l1.538.225c-.558.291-1.722.593-2.396.462.651.285 2.588.079 4.752.047l-.092-.4c-1.721.767-3.598 1.591-5.065 1.945l-.258.28-1.507 1.636 1.715-.835c.514-.25 1.069-.512.676-.732l-.721.13.09.349.241-.143c.478.074.281.381.008.682l-.383-1.479c.46-.241 1.032-.429.303-.538 1.192-.48 2.502-1.173 4.17-1.146l3.355.055-1.177 2.725a6.116 6.116 0 0 1-.232.477l-.936.07c.146.024.417-.321.603-.731l.866-1.913-2.435-.089c-.326-.012-.668.031-.885.16.208-.121.525-.105.894-.041l2.354.404-.906 1.444c-.528.84-1.5 1.885-.909 2.743l.986-1.081c-.006 1.427.351 3.307-.433 4.824 1.054-.464.028-.401 1.354-1.228-1.509.599 1.388-4.082-.377-2.904.878-.476 1.113-1.041 1.455-1.677l2.195-4.076-5.878-.627c-.495-.053-1.043-.14-1.73-.499.07.283.61.505-.812.469-.057.088-.201.206-.293.275a7.467 7.467 0 0 1-.097-.014l.08.028c-.057.047-.062.057.031.009.345.1.629.23.752.382-.421.457-1.505.679-2.414.886l1.18 4.563c.433-.284.817-.545 1.011-.767.821-.228-.18.448.365.532l.819-.939c.369.53 2.468.025.828 1.193l1.629-.72a7.13 7.13 0 0 0 1.256-.256l18.895-5.602-20.653-2.029c-.911-.09-1.716-.034-2.325.178-.914-.079-2.204.908-1.47.331l-1.478.365c-.741.195-1.489.423-1.489.423l-.054-.152c-1.139.171-2.301.55-3.581 1.141-.497.468-2.094.556-3.869-.524l-.74-.005c-.198.008-.732-.052-1.142-.075-.882-.065-1.871-.151-3.103-.147l-.318-.242-.33-.236a7.22 7.22 0 0 0-.767.199c-.277.072-.578.141-.875.264a5.34 5.34 0 0 0-1.689 1.038c-.956.856-1.504 2.005-1.428 2.571a2.001 2.001 0 0 0-.537.472 4.776 4.776 0 0 0-.263.356c-.042.06-.11.187-.165.284-.059.107-.127.241-.129.203-.145.027-.224.04-.285.084-.887 1.066-1.438 2.275-1.809 3.036l-.131.268-.058.117-.028.056-.076.132c-.212.365-.404.743-.578 1.139a9.9 9.9 0 0 0-.757 2.591l.348.137.35.127a5.56 5.56 0 0 0 .588 2.979l.197.359a6.785 6.785 0 0 0 .594.801l.099.096.318.317c.14.124.286.244.437.356.292.212.503.318.755.451.864.396 1.445.48 1.997.565l.2.024.101.012.03-.006.124-.024.278-.055.204-.606c.486-.18 1.03.009 1.356.412.359.387.398 1.041.372 1.545-.276-.007-.199-.253-.093-.504-.185.268-.317.467-.416.634-.3.473-.142.801-.151 1.416v.109c-.009.055-.047.168-.069.248l-.172.577-.087.294-.043.175a2.742 2.742 0 0 1-.111.339c-.175.439-.46.823-.893 1.086-.091.571-.406.867-.774 1.093a.351.351 0 0 0 .059-.134 1.956 1.956 0 0 0-.15.184c-.242.139-.51.273-.778.444.282-.103.53-.212.702-.34a14.72 14.72 0 0 0-1.019 1.665c.014-.019-.756-.152-.765-.139l-.125.189c-.72.534-.148.733.526.689-.171.411-.274.784-.303 1.111-1.275-.117-.863 1.885-2.3 1.922.178.745-1.763 3.474-.955 4.493-.145-.061-.329.094-.121-.264l-.21.245c-.041.064-.053.03-.117.174l-.148.341c-.138.301-.103.286-.116.364-.013.066.027.122.043.185.116.234.362.425.741.69l-.8-.366 1.132.708c.606.375 1.252.867 1.252.867-.054.091-.468.212-.864.015-.396-.165-.567-.496-1.123-1.059.243.243.293.478.318.628.017.156-.011.23-.03.297-.122.205-.288.203-.427.27-.154.06-.255.167-.572.444l-.357-.541c-.237-.033-.434.096-.703.18-.261.088-.58.146-.815-.037-.005-.068-.295.005-.527.049-.152-.048-.794.35-1.13.802l1.94.706a.318.318 0 0 1 .123-.115c.093-.08.175-.112.307-.164.159-.079.31-.119.501-.159.195-.062.512-.118.628-.119.037-.022.063-.179.106-.374a14.8 14.8 0 0 1 .399-1.515l-4.501-.261.13.749 3.588 20.695 1.045-21.078c.04-.815.431-1.999 1.106-3.218.655-1.219 1.51-2.469 2.357-3.679-.964.102-.558-.271.044-1.177.292-.422.574-.932.719-1.358.112-.432.092-.766-.218-.832.478-.351.774-1.381 1.01-.241.015-.916.02-1.696-.15-2.392-.144-.707-.479-1.247-.815-1.756a5.87 5.87 0 0 0-1.272-1.319 6.016 6.016 0 0 0-.797-.511c-.13-.065-.313-.172-.408-.188a2.065 2.065 0 0 0-.311-.046c.106-.438.697-.131.714-.435-.193-.057-.665-.166-.551-.392.131-.208.291-.151.657-.045a2.048 2.048 0 0 0-.282-.22c-.051-.033-.054-.025-.075-.026l-.031.003-.307.229-.239.202a6.688 6.688 0 0 1-.927.646c-.182.096-.277.166-.362.226a2.327 2.327 0 0 1-.292.161c-.494.179-.548.251-.805.23l-3.368-2.183c-.263.36-.489.82-.607 1.298-.06.238-.095.478-.107.707-.015.218.01.497.01.497.035.241.09.475.162.694.031.094.086.249.107.282l.067.111.137.206c.103.156.16.183.229.243.067.054.134.102.198.143.23.104.445.146.636.129.392-.015.742-.17 1.086-.314.071.354.145.63.22.848a2.677 2.677 0 0 0 .136.329 7.13 7.13 0 0 1 .384-.203l.424-.193.215-.087c.051-.037.07-.085.112-.121.14-.153.382-.214.533-.162l.105.065.013.008.007.004.003.002.002.001-1.527-1.172-.007.013-.014.027-.104.218a2.542 2.542 0 0 0-.124 1.567c-.274.343-.471.481-.63.47-.078-.006-.15-.038-.196-.149-.059-.008-.049-.543.193-1.198-.579 1.292-.329 1.686-.875 2.273-.232.245-.46.462-.595.688-.241.3-.368.586-.242.774-.336-.024-.934.64-1.052.854-1.537 1.063-1.73 1.081-3.217 2.257l.513-.187c.032 1.328-1.136 1.104-2.3 2.177l-.034-.118c-.41.208-.687.346-1.002.558a6.45 6.45 0 0 0-.715.542c-.362.307-.509.518-.645.705-.134.19-.248.364-.529.635-.294.272-.702.641-1.636 1.255a8.863 8.863 0 0 0-.543.351l.992.006c.717.346-.145.867-1.214 1.661-.538.391-1.086.831-1.501 1.222a5.681 5.681 0 0 0-.292.283c-.084.086-.177.222-.118.38.127.259.358.353.61.449.006.016-.128-.414-.11-.471.622.363.775.591.595 1.113-.138.472-.499 1.246-.011 1.673.087.235-.713-.12-1.087-.285.305.577.778.924 1.131 1.043.368.123.61.038.834-.093.228-.13.467-.299.877-.35.05-.007.109-.008.167-.009l.091.002c-.017.05.084-.134.138-.224l.193-.331.399-.686c.395-.686.251-.418.286-.467l.011.01c.004.004.004.014.004.014-.007.017-.064.03-.181.048l-1.279.17c-.213.026-.234.02-.659.031l-1.389.031c-.033-.011.122-.021-.59-.033-.496-.01-.866-.013-1.103-.094-.062-.026-.131-.051-.183-.122-.068-.084.058-.206.077-.295.081-.19.071-.371-.095-.626a.65.65 0 0 1 .387.026c.027-.134.107-.299.211-.491l.168-.311c.003-.025.126-.197.2-.311l.242-.376c.6-1.018.826-1.95.732-2.431 1.351.011 1.88-1.945 2.23-3.417.189-.749.385-1.427.668-1.793.297-.394.547-.38.949-.016l.112-.136c.218-.276 1.33-.944 2.181-1.503l.033.238c2.034-1.044 2.504-1.947 2.929-2.859.567-.211.33.198.352.321.17-.094.315-.16.487-.268l.244-.149.118-.073.213-.166a5.97 5.97 0 0 0 .413-.374l.196-.195.034-.033.017-.016.008-.008.198-.3.009-.017.019-.035a3.39 3.39 0 0 0 .243-.585c.072-.237.07-.287.097-.428.019-.121.033-.244.041-.36.023-.722-.064-1.008-.125-1.346a5.703 5.703 0 0 0-.232-.773c-.17-.446-.363-.8-.616-1.163a4.749 4.749 0 0 0-1.062-1.131c-.306-.153-.675-.387-1.14-.724l.49-.572c-.342-.177-.597-1.277-.898-2.648-.305-1.377-.645-3.008-1.347-4.328.084.011.231.041.378.24-.197-.366-.308-.752-.391-1.155-.044-.2-.05-.397-.064-.582a1.464 1.464 0 0 1 .023-.384c.06-.482.347-.899.742-1.101l.415-.403c.139-.149.326-.415.471-.614.307-.425.564-.846.723-1.276.35-.835.34-1.629-.1-2.234 0 0 .036-.173.067-.434l.119-.946.068-.926.015-.409c-.578 1.564-.822 1.349-.993.905-.178-.446-.322-1.094-.722-.539.23-1.221 1.6-2.869 1.34-1.372l-.185.194c.571.456.94-.495 1.27-1.389.327-.89.73-1.676 1.126-1.439a7.324 7.324 0 0 1 1.655-2.218c.731-.671 1.516-1.291 2.365-1.753.847-.48 1.768-.862 2.783-1.245l1.573-.587 1.593-.626c.155-.055.314-.092.473-.111.131-.018.364-.036.639-.054l.871-.033 1.266-.029s-.292-.25-.55-.5c-.288-.25-.424-.503-.424-.503l1.314-.016c.692-.007 1.374-.059 1.374-.059.398.084.73.236.709.41-.022.166-.416.384-1.509.421.643.263 1.564.053 2.162-.306.614-.352.918-.826.875-.923.905-.21 1.284-.367 1.427-.294.14.064.025.323-.2.593-.435.544-1.402 1.048-.793.865 0 0 .389-.16.752-.355.358-.203.69-.45.69-.45.003.009-.398.108-.398.108.421-.507.543-.896.727-1.377.079-.246.171-.52.232-.854l.169-1.255c.188-.655.337-.821.481-.85.143-.032.261.052.29-.272.052.022.109-.093.056-.561l-.052-.472s-.011-.264.022-.58l.043-.564c.018-.166.04-.259.06-.396.08-.508.207-.984.207-.984s-.248.145-.479.319l-.472.355c-.268-1.018.477-1.966-.678-1.202.404-.273.75-.837 1.137-1.41.205-.298.36-.52.565-.752.192-.236.434-.441.692-.617l.562-.353c.213-.12.422-.241.629-.342a7.703 7.703 0 0 1 1.18-.481c.733-.219 1.334-.248 1.559-.152.586-.346 1.264-.479 1.989-.46a7.967 7.967 0 0 1 2.304.433c-.342-.256-.374-1.277 1.05-.682-.585.802.001 1.212.386 1.626.445.404.871 1.094.352 1.672.271-.462.638.013.84.611.209.555.172 1.259.941.697-.146.487-.347.45-.555.4-.211-.059-.456-.115-.752.086.04.356-.083.728-.302 1.048-.261.38-.691.784-1.176 1.124-.481.332-1.122.719-1.452.782-.424.141-1.226.318-2.143.683a2.432 2.432 0 0 1-.537.136c-.129.017-.072.018-.397.053l-.917.094c-.009.25 1.001.566-.117 1.012 0 0-.814-.271-1.719-.451-.905-.2-1.826-.218-1.826-.218-.504.244-.492.653-.641.987a1.044 1.044 0 0 1-.405.489c-.232.15-.57.312-1.022.603.34-.105.815-.213.459.389-.43.481-.609 1.07-.735 1.663a7.845 7.845 0 0 0-.109 1.941c.017.345.05.7.089 1.06l.056.541c.003.186.078.348-.019.569-.146.433-.185.804-.238 1.165-.049.367-.108.683-.164.971-.221 1.17.148 2.593 1.069 3.605.881.999 2.008 1.909 3.31 2.189.614.063 1.238.022 1.913-.053a22.536 22.536 0 0 0 2.072-.436l2.014-.474c.501-.109 1.001-.21 1.504-.301a28.573 28.573 0 0 1 3.023-.392 16.256 16.256 0 0 1 1.486-.042c.061 0 .104.018.207-.028.104.018.206.024.305.014.216.052.435.081.654.111.435.062.909.136 1.356.239-2.046-.549-.789-.59.464-.523-.899-.168-.323-.636-.687-.996l.626.148c.323-.009.459-.306.659-.52l.58-.703 1.219-1.524c-.131-.468.075-1.123.386-1.835l-4.278-1.013c.068 1.088-.106 2.454.479 2.688l-.158-1.075c.877 1.194 1.93-.986 3.043-1.6l1.243-.687-3.341.19a1.04 1.04 0 0 1-.663-.178c.17.532-.115.994-.495 1.341a5.254 5.254 0 0 1-.617.466l-.305.212-.143.11c-.048.035-.14-.034-.204-.042-.307-.083-.567-.173-.803-.072a1.139 1.139 0 0 0-.348.234c-.037.051-.158.126-.271.209a3.151 3.151 0 0 0-.31.274c-.647-.142.409-.539.026-.777-.563.717-1.321 1.017-2.847 1.12l.131-.18a36.4 36.4 0 0 1-2.71.657l-.571.106-.335.037c-.219.02-.427.032-.629.037a8.039 8.039 0 0 1-1.151-.044c-.392-.125-.695-.581-.931-1.03l-.275.355-.259.37c-.29-.499-.077-.784.044-1.103-.595.022-.62.417-.42.804.186.36.506.699-.256.993.167-.485.066-.895.056-1.375-.037-.482.144-.967.364-1.397.037-.116.051-.237.066-.352.005-.082.014-.153.013-.278.005-.221.004-.424.035-.591.057-.335.24-.51.65-.404-.012-.301-.202-.385-.419-.448-.196-.062-.442-.107-.372-.521l.249.048.257.067s-.121-.145-.224-.291l-.206-.302c.258-.158.611-.072.878.065.273.137.489.338.626.503-.129-.025-.182.156-.237.222.436.123.66.06.903-.043.237-.1.467-.237.586-.169l-.657-.215c.213-.065.411-.107.701-.16l.605-.095.674-.145c.446-.117.883-.28 1.304-.484 3.072-.837 8.289-4.462 8.091-9.391.011.006-.371.41-.371.41a10.794 10.794 0 0 0-.266-2.412c-.128-.577-.208-1.014-.334-1.46a4.894 4.894 0 0 0-.627-1.483c-.355-.561-.922-1.256-1.979-1.884l.193.04-3.2-1.013c.544-.029.142-.345-.25-.643-.382-.286-.756-.572-.027-.605-1.053-.094-1.664-.066-2.07-.028-.4.037-.621.097-.789.175-.33.168-.538.375-1.799.962l-.302-.256-.316-.244c-.432.268-.647.474-.992.67-.343.194-.822.371-1.708.726.679-.451.349-.555-.006-.675-.341-.116-.719-.255.139-.827a5.826 5.826 0 0 0-2.449.6 5.958 5.958 0 0 0-.9.542l-.386.297-.419.357c-1.553 1.461-1.774 3.031-3.156 3.778.342 1.236.802.365 1.332-.582.548-1.042 1.407-2.046 1.098-1.476.532-.22.387.292.148.976-.247.711-.504 1.578-.769 2.131-.198.548-.737.914-1.298 1.54a4.942 4.942 0 0 0-.806 1.168l-.298.671a2.389 2.389 0 0 0-.152.471c-.015.076-.02.157-.017.243.004-.122-.075-.171-.089-.272a.168.168 0 0 1-.002-.047l-.031.038c-.151.203-.018.469.091.791.12.294.236.718-.304.673.275.497.014.581-.158.64-.18.065-.3.128-.036.68 0 0 .401-.101.736-.32.168-.107.312-.258.374-.407.064-.147.065-.261.065-.261.03.577-.154 1.122-.59 1.507-.432.383-1.282.581-2.31.293.14-.23.617-.541.881-.722-.295-.152-.488-.091-.711-.031-.234.061-.396.117-.855-.033a.544.544 0 0 1 .2-.343.966.966 0 0 1 .186-.118.516.516 0 0 1 .12-.084c.175-.095.4-.123.651-.147.483-.042 1.148-.101 1.121-.641-.347-.146-.48.102-.686.235-.206.133-.354.156-.448-.452.118.777-.352.743-.728.66-.086-.021-.399-.035-.607-.042-.236-.005-.482 0-.745.035-.529.072-1.081.234-1.76.687l.042-.696c-.366.154-.987.539-1.575.914-.201.118-.224.142-.351.198l.089-.213a.664.664 0 0 1 .146-.24c.239-.313.503-.63.802-.916-.327.208-.637.409-.952.584l-.264.149a1.886 1.886 0 0 1-.209.096 3.287 3.287 0 0 1-.446.138c-.31.074-.631.114-.962.163-.657.096-1.338.221-1.92.686 1.57-.732 1.762-.578 1.837-.325.057.266-.06.679.649.634-1.615 1.199-2.381 1.087-3.237.951-.433-.062-.901-.128-1.548.038-.64.165-1.489.563-2.516 1.504.521-.589 2.498-1.306 1.719-.4-.928.447-2.111 1.142-2.812 1.325-1.272 1.35-1.015 1.418-.592 1.237.434-.163 1.047-.463.675.237-.714.161-.969.558-1.096 1.102-.145.523-.16 1.169-.449 1.911l-.601-.328a7.49 7.49 0 0 0-.649 1.127 2.76 2.76 0 0 0-.19.723c-.039.373.094.539.225.693.273.298.489.594-.174 2.011 0 0-.149-.361-.279-.764-.136-.391-.256-.807-.256-.807-.025.037-.233 1.701-.22 1.67l-.665-.518c.11 1.765-.131 2.124-.848 3.277.549-.106 1.121.67.501 1.821-.792.548-.299-.731-1.164.835-.154-.596-.343-1.191.535-1.539-.161-.174-.203-.53-.364-.692-.394.248-.619.654-.874 1.063-.133.222-.184.382-.343.649l-.474.752-.149.233.166-.223c.205-.236.43-.475.603-.575l-.303.756c-.125.296-.242.59-.351.881-.025.329-.17.6-.228.901-.021.314-.035.625-.041.93.024.31.054.615.09.914-.284.68-.49.115-.617-.521-.027.493.061.915.174 1.379.091.445.247 1.026.343 1.51-.292-.104-.579-.12-.849-.314-.28-.229-.55-.732-.67-1.88l.102.8c.054.47.213 1.138.342 1.526.278.878.605 1.656.605 1.656-.198.268-.247 1.819-.546 1.451.081.94.655 1.947 1.3 2.961.646 1.027 1.321 2.062 1.683 3.27.153.068.347.25.683.691.161.348.32.703.514 1.077.168.366.378.742.619 1.122.027.111.035.202.049.304.033.135.11.359.17.518.031.081.062.156.086.194l.018.023c.004.004.008.009.008.003.02-.006-.042.007.045-.014l.195-.045c.258-.059.533-.103.788-.147.237-.051.478-.09.724-.114.265-.016.457-.051.664-.06.203-.011.441.012.575.005.142-.006.359.07.428.069.049.011.099.03.146.059l.017.011.009.006.004.003.002.002c-.018-.126-.009-.037-.015-.066l-.104-.057-.209-.115-.84-.462c-.076-.047-.127-.058-.225-.135l-.299-.261a7.468 7.468 0 0 1-.557-.568l-.257-.306-.123-.158c-.054-.067-.001-.03-.007-.049l.101-.07.106-.059c.014-.001-.007.024-.009.035-.016.007-.263-.107-.64-.155a6.927 6.927 0 0 0-.496-.08l-.233-.034c-1.293 1.086 2.106.161-.124 2-1.653 1.372-1.117-.318-1.901-.17-.259.382-.583.893-1.026 1.41a7.36 7.36 0 0 1-.768.777c-.375.304-.865.68-1.298 1.049-.465.439-1.046.981-1.505 1.352.119-.309.298-.559.531-.868.225-.284.473-.51.709-.767.192-.183.404-.345.613-.529zm5.472 14.638a.768.768 0 0 1-.281-.128l-.176-.1c-.067-.053-.157-.167-.245-.247a3.343 3.343 0 0 0-.289-.252c-.033-.035-.035-.004-.094-.093a4.17 4.17 0 0 0-.679-.783c-.731-.661-1.616-.904-2.097-.893.7.334 1.386.848 1.824 1.389.111.133.21.265.298.393l.124.188c.021.023.036.03.054.046.072.054.154.105.244.156.375.262.808.274 1.317.324zm8.702-17.914c-.203-.16-.495-.463-.542-1.271l1.616.011c.078.067.085.013.298.011.188-.019.265-.097.58-.187.233-.074.641-.267.506-.222l-.006.053c-.01.079.008.225.02.375a1.589 1.589 0 0 1-.19-.263l-.023-.05c-.003-.007-.011-.022-.005-.016l.004.003c-.008.004.036-.011-.067.031a4.548 4.548 0 0 1-.434.153c-.133.046-.185.085-.292.107-.084.026-.218.022-.272.032a.104.104 0 0 1-.12-.025l-1.363-.015c.002.234.049.58.107.75.051.163.13.402.183.523zm31.982-23.727c-.02.012-.035.02-.05.035-1.075-.224-.699-.137.05-.035zm-.258 6.835c-.146.174-.094.254.025.304.058-.217.468-.42.965-.596-.207-.101-.5-.102-.99.292zM52.259 19.913c.012.01-.187.532-.187.532-.048-.441-.084-.7-.088-.821-.002-.209.062-.13.149.04l.126.249z"/><path d="M39.417 60.232l-.357-.113c.101.075.228.087.357.113zM24.004 55.574l-.027-.077a.297.297 0 0 0-.147-.02l.174.097zM45.322 47.586a.683.683 0 0 1-.414.133c.169.023.288.068.414-.133zM70.081 42.876l.237-1.299c-.164.612-.376.78-.578 1.052.16.02.456-.144.341.247zM62.74 52.436c.054.202-.052.401.004.602l.322-.003c.102-.81-.065-1.413-.326-.599zM67.545 43.324c-.58-.079-.648.762-.832 1.668.015-.053.027-.105.051-.155.68.508.731-.505.781-1.513zM66.665 45.201a4.346 4.346 0 0 1-.249.81c.273.203.17-.306.249-.81zM64.848 42.184c-.456.048.06.782-.262.673-.133.868 2.264-2.02.262-.673zM65.512 43.444l.778-.093-.386-.667zM63.95 38.982l1.477.089c-.03-.117.149-.202.375-.271-.904.043-1.901-.024-1.852.182z"/><path d="M65.801 38.8c.389-.016.762-.052 1.015-.141l.746-.261-.093 1.094a.906.906 0 0 0 0 .165l.044-.151.298-1.015-.999.12c-.251.031-.695.091-1.011.189zM65.932 41.471l.276-.367.371-.968zM59.135 37.575c-.387.15-.769.328-1.145.511l-.341.157c-.057.198.142.269.469.194.126-.032.276-.09.434-.172.314-.287.887-.525.583-.69zM64.197 38.709c-.433-.103-.478-.257-.742-.464l.051.879.691-.415zM59.835 39.612c-.123.269-1.698 1.245-.086.693.043-.283 1.458-.799.086-.693zM43.084 48.631a1.477 1.477 0 0 1-.153-.278l-.664.286-.656.307s.395-.01.763-.09c.368-.07.71-.225.71-.225zM47.441 66.288c.706-.589.642-.862.528-1.058-.103-.212-.222-.372.528-.98.025-.576-1.215.965-1.139.391-.231.572-.496.949-.525 1.167-.021.208.125.326.608.48z"/><path d="M47.358 64.641c.077-.185.152-.388.214-.619-.147.333-.196.504-.214.619zM67.455 29.599l-.306 1.219.488-.786zM68.517 31.945l-.922.284.192.17 2.949 3.134c.27-.202.525-.408.767-.616-.188.017-.47.041-.733.026l-2.453-.141.061-2.402c.006-.184.04-.356.139-.455zM30.723 73.264l-.185.099-.054.042-.011.01-.005.005-.002.002s-.015-.02.041.073l.473.796.242.407.123.206c.058.095.013.032.024.055-.054.115-.16.141-.252.189-.194.081-.42.122-.721.168 0 0 .364-.047.724-.125.178-.046.358-.094.478-.18a.154.154 0 0 0 .073-.074l.013-.021.006-.01s.004 0 .001-.008l-.068-.114-.495-.827-.401-.669c-.021-.038-.003-.013-.007-.022l.003-.002zM15.036 69.48l-.096.101.413.138c.211.064.431.117.431.117l-.378-.173-.37-.183zM24.187 56.936c-.477.249-.951.746-1.461 1.01.992-.766 2.12-.196 1.461-1.01z"/></g><g fill="#fff"><path d="M69.95 38.691c-.267.278.269.546.315.663.315-.643-.453-.738-.315-.663zM70.701 34.152l.204.147-.375-.712zM71.805 30.98c-1.054-.025-.224 1.191-.758 1.643l-.249.017.679.523c.12-.736-.095-1.796.328-2.183zM74.432 29.998c-.407-.02-.204-.464-.244.348.053-.024.08-.027.117-.039.017-.069.048-.161.127-.309zM74.305 30.307c-.08.336.386-.11 0 0zM74.586 28.743l.193.533c.25-.015.424-.373.539-.18-.04-.493-.288-.479-.732-.353zM74.02 28.106l.068.267c.105-.007.156-.054-.068-.267zM74.23 28.938l-.143-.565c-.175.009-.488-.088.036.25-.271-.133-.029.05.107.315zM73.996 29.153c-.288.168-.522.435-.713-.102-.138.865.578.962.713.102zM70.865 30.492l-.387.233.228.388c-.113-.194.466-.542.159-.621zM75.968 26.374c-.193-.1-.586-.067-.856-.132l.124.38c.195-.101.427-.339.732-.248zM75.113 26.242l-.184-.573c-.187.383-.048.517.184.573zM72.981 27.67l.478 1.021-.438-1.171zM76.614 24.819l.366.402-.525-.669zM76.947 23.9c.306.307.706.157.866.399.031-.224-.196-.567-.417-.784.099.144-.028.307-.449.385zM77.104 23.1c.05.111.165.264.291.414a2.39 2.39 0 0 0-.291-.414zM75.315 24.981c.134.016.475.081.7-.097l-.625-.066-.075.163zM75.369 24.816l.021.002c.083-.179.146-.295.175-.339l-.196.337z"/><path d="M75.296 25.022l.019-.041c-.061-.006-.084-.004-.019.041zM73.917 26.634c-.224-.378-.357-1.063-1.044-.696.321.334.71.123 1.044.696zM74.509 24.951l-.312.413c.153.048.404.045.512.235l-.2-.648zM74.42 24.655l.089.296.115-.151zM76.382 23.193c-.151-.292-.095-.373-.047-.546-.186.085-.345.167-.452.403.152.12.41.367.499.143zM75.845 23.891l-.015-.054c-.056.002-.08.015.015.054zM70.701 21.171l.114-.015-.102-.025-.012.04z"/><path d="M75.767 23.032c-.185.103-.105.269.016.439.006-.142.037-.285.101-.421-.07-.055-.118-.085-.117-.018zM76.098 22.093c.154.185.325.372.513.556l.123.118-.028-.026-.057-.049c.463.439-.518-.502-.551-.599zM76.01 23.848c.005.013.01.026.013.038.143-.003.081-.023-.013-.038zM76.01 23.848c-.04-.134-.142-.254-.227-.377a.966.966 0 0 0 .048.365.819.819 0 0 1 .179.012zM74.352 22.708c-.547-.173-.901-.837-.247-1.251-.338-.573-2.228-.439-3.29-.301.235.06.477.074.698.605.354-.104.88-.881 1.324-.419.187.683-.298.492-.645.734.744-.13.818 1.047 1.839 1.154l-.217-.683c.157.022.36.298.538.161zM70.974 20.435l-.065-.119c-.053.063-.132.107-.257.157a4.294 4.294 0 0 1-.551.224c.234.289.432.384.613.433-.01.014.214-.812.179-.741l.081.046z"/><path d="M76.371 22.447c-.277-.254-.415-.481-.588-.727l-3.946-1.705c.13.025.271.033.442-.009l3.207 1.385a.927.927 0 0 0-.141-.106c-.191.319.243.464.33.82.103-.269.12-.122.219-.028.085.118.245.247.423.325a.568.568 0 0 1 .052.089.855.855 0 0 1-.034.156c.057-.021.118-.045.176-.051.047.028.093.059.138.096l-.03-.025.002.002-.008-.007c-.06-.049-.097-.077-.06-.05l-.009-.009-.171-.154c.112.058.12.107.171.154l.069.059.006.005-.054-.063a7.579 7.579 0 0 1-.639-.726l-5.169-1.84.153.279c.057-.069.074-.154.073-.283l4.943 1.845.22.272.13.149c.046.052.106.115.087.1l.008.047zM71.826 24.981c.061-.011.102.005.144.018-.047-.088-.086-.129-.144-.018zM72.317 24.715c.053.1.261.243.12.447-.244.133-.275-.103-.468-.162.102.194.238.627.672.304l-.054-.095c.334-.318 1.236-.514 1.287-.417-.552-.093-.958-.143-1.557-.077zM74.301 23.046s.013-.211.036-.408l.043-.408-.652.109.292.125c-.319.337.085.431.281.582zM70.393 21.187l-.624-.194c.013-.024.815.562.815.562l-.191-.368zM70.27 22.125l-.539-.163.268.329zM71.281 43.379c.004-.054.125.381.125.381-.031-.198-.072-.348-.125-.381zM71.519 41.748l-.267-.08c.139.097.246.143.267.08zM60.628 38.27a.598.598 0 0 0-.079.139.656.656 0 0 1-.177.23l-.723 5.72c.256.092.404.065.311-.2l-.323-.566-.091.036.826-4.991a.792.792 0 0 0 .148-.174c.045-.069.011-.054.108-.194zM76.723 39.668l-.028-.213c-.169.159-.32.309-.452.453.14-.078.303-.159.48-.24zM78.129 37.526l.23.33-2.007 3.994a5.138 5.138 0 0 0 .506-1.277l.05-.225.021-.113.001-.007.001-.004-.454 2.098.041.005.083.011.165.021 1.305.169.514.067-.016.001c-.027.006-.03-.004-.04-.01.014.011.017.03.041.032l.034.005a394.19 394.19 0 0 0-1.142-.143l-.669-.085-.172-.022-.087-.011-.044-.006-.022-.003.462-2.131-.001.004-.022.119a5.042 5.042 0 0 1-.556 1.503l2.023-4.021a2.242 2.242 0 0 0-.245-.301zM69.337 54.066l.492.487c.152-.435-.214-.35-.492-.487zM67.183 32.886c-.326.242-.499.464-.593.684.45-.293 1.053-.432.593-.684zM64.869 41.974c.091.179.209.263.345.273-.086-.18-.19-.291-.345-.273zM66.322 34.504c.076-.04.122-.088.189-.132-.031-.263-.042-.525.078-.802-.334.213-.586.503-.267.934zM60.763 46.861c.036-.016.056-.043.094-.056-.077-.032-.092.001-.094.056zM69.716 38.518c.008.111-.037.278-.071.438.062-.065.092-.195.071-.438zM68.849 26.097c.032-.232-.054-.056 0 0zM71.504 25.747a.51.51 0 0 0 .258.177c-.137-.062-.217-.12-.258-.177zM69.437 37.84l-.006.02c.116-.012.095-.011.006-.02zM69.22 25.851a1.081 1.081 0 0 0-.263.226c.06-.031.146-.101.263-.226zM68.929 25.807l.115-.172c-.089-.058-.158-.053-.115.172z"/><path d="M68.781 26.415a.896.896 0 0 1 .176-.338c-.054.03-.093.038-.108.02l-.068.318zM58.53 66.585c.021-.012.036-.027.065-.04-.21-.279-.188-.168-.065.04zM63.535 35.615c-.01.009-.011.026-.019.038.013.002.03.004.043.009l-.024-.047zM64.33 34.912c-.208.848-.439.817-.771.749l.789 1.614-.025-1.179.007-1.184z"/><path d="M70.505 48.09l.666-.465c.734.899.317 1.341 1.197.959-1.863-.494.303-2.308-1.558-2.801l.48-.298c-.043.106.064.148.022.253.527-.273.227-.485-.151-.74-.189-.127-.398-.265-.532-.427-.065-.09-.121-.148-.13-.282a1.06 1.06 0 0 1 .079-.457l.009-.033c.196-.559.486-.625.695-.421l-.398-.749c.062-.199.387-.108.327.088l-.013-1.066.055.016c-.279-.19-.684-.599-.847-.795.318-.204.175.165.424.142l-.349-.631c.533-.085.91.411.776.77.95-.074.895-.174.73-.366-.176-.155-.42-.546.009-.551l-3.284-.71 3.456.774c.051.056.099.086.136.189.195.029.347.018.458.055l.144.04-.695-.268-3.5-.79c.045.327-.055.994-.396 1.899-.172.545-.392.994-.704 1.73-.451.943-.332.69-.387.863l.065-.166.038-.113c.022-.042.018-.016.15-.296.413-.895.755-1.72.944-2.313.097-.263.153-.538.193-.699.043-.142.058-.244.064-.277.005-.034.002.002-.024.124a39.21 39.21 0 0 1-.068.264 4.54 4.54 0 0 1-.141.516l-.304.852-.049.124-.024.066-.002.003-.007.006s.011.012.019.012c.03-.001.133-.04.334-.15-.328.601-.061.552.294.735l-.511.75c.48-.001.719-.394 1.167-.584.659.559.497 1.305.433 1.98.648.534.518.102.461-.327-.06-.431-.035-.851.691-.457.857.999 1.762 1.126 2.891 1.01.651.604-.136.557.094.932 0 0 .163-.135.312-.284.151-.143.287-.294.287-.294.141.061.106.285.086.398.477-.168.005-.946.687-1.017.037-.506.41-.003.982.286.557.241 1.229.23 1.419-.59.281.091.122.608.306.897.426-.794.513-1.112.558-1.459.021-.339.048-.695-.277-1.529 0 0 .075.009.127.056.052.046.103.119.109.114-.127-.162-.281-.419-.483-.746l-.327-.548c-.025-.052-.064-.099-.08-.158-.021-.03.007-.055-.055-.089l-.518-.132-.245-.064-.015-.004-.007-.002-.004-.001.135-.621-.005.03-.011.059-.024.119-.057.238-.032.121.002-.012a.48.48 0 0 1 .026-.095l.634-1.288c-.254.094-.511.18-.739.274.043.386.032.707.047.866 0 0-.241.012-.466.039l-.467.075c-.047-.17.133-.444.405-.741a1.882 1.882 0 0 0-.229.145c-.197-.415.109-.87.539-1.256.062.216.107.441.142.658.432-.423.988-.807 1.179-1.311-.127.053-.324.051-.502.025.131-.109.245-.196.244-.299-.008-.114-.21.023-.483.163l.054-.522.039-.528-.205.351-.645-.539-.637-.497c-1.253.746-2.268 2.087-3.73 2.271.466-.675.269-1.182.428-2.046.232.98 1.165-.21 1.906.123-.38-.171-.217-.565-.086-.69l-.759.292-.736.304c.147-.703-.193-.577-.487-.926.029 1.442-1.113.781-1.688 1.123.052-.475.245-.932.854-.717-.509-1.167-1.171 1.499-1.669.479.149.017.214.104.316-.123-.434.357-1.164-.149-.876-.513l.136.021c-.179-.068-.238-.105-.548-.191a8.577 8.577 0 0 0-.59-.157c-.209-.01-.416-.065-.627-.07a3.716 3.716 0 0 0-1.199.237c-.728.29-1.155.736-1.081 1.231-.046-.148-.195-1.446-.152-1.706 0 0-.094.282-.199.697-.108.415-.214.975-.313 1.526-.19 1.109-.31 2.211-.31 2.211-.14-1.039-1.533-3.19-.813-4.023-.306-.064-.677-.125-1.091.392.215.082.888 1.288.687 1.45-.981-.888-.63-.443-1.703-1.114.318.127.568 1.756.171 1.838-.019-.25-.553-1.505-.469-1.712l-.427 1.831c.142-.352-.393-1.294-.741-1.65.185.267-.776.222-.921.426l.453.248c-.587.046-.509.726-.621 1.402l-.706 2.18c.337-.056.645-.138.911-.167.267-.03.514-.07.764.065-.203.242-1.235 1.741-.313 2.217.159-.17.411-.468.673-.836.25-.384.512-.847.747-1.303.473-.926.821-1.872 1.212-2.216l.205.452.626-.608a12.616 12.616 0 0 1-.87 2.59c-.436.961-1.078 1.859-1.719 2.284.595.425.176.598 1.071.57.316.433-.482.674-.834.658.025.013.588.108 1.145.173l1.018.084c-.142-.937 1.252-1.103 1.049-1.888 0 0-.389.311-.842.603a6.322 6.322 0 0 1-.647.396l-.316.173c-.062-.474.213-1.164.584-1.729.366-.574.837-1.031 1.381-1.031.334.332.057 1.708.117 2.018.111-.344.946-.787 1.075-.574l-.372.579c.712.246.605-1.391 1.887-.676.136.003.375.141.627.283.365.132.755.22.655-.105-.963-.573-2.058-3.911-2.206-4.693.041.03.342.246.765.512.415.261.968.593 1.279.828.117.097.221.202.308.305a1 1 0 0 1 .15.218c.076.149.112.312.14.494.058.353.089.768.432.935-.1-.183-.002-.494.039-.573.353.058.256.53.754.253-.148-.258.044-.303.205-.327.092 0 .151-.02.138-.054-.005-.023-.017.03-.222-.039a24.96 24.96 0 0 0-.238-.065.7.7 0 0 1 .13-.055c.037-.015.083-.012.11-.03a.63.63 0 0 1 .144-.251c.081-.098.166-.203.265-.479-.227-.056-.444-.465-.696-.943-.207-.453-.653-1.111-.704-1.399.211.167.532.24.662.247.052-.166.11-.315.17-.437.152-.387.359-.701.549-1.047.18-.314.347-.633.474-1.045.252-.028.659-.42 1-.103-.123-.188-.404-.409-.333-.717.975-.34-.077.706 1.016.551-.53-.195-.502-.997-.705-1.532-.866-.126-.474.95-.257 1.476-1.152-.333-2.123-1.454-2.322-2.673-.018-.916.851-.123.735-.318.694-1.482-1.559-1.962-.323-2.973.889-.267 1.449.449 2.007.508.058.755-.793.872-.912 1.334l.525-.445c.171.291.209.795-.08.969.788-.213.976-2.547 1.958-3.545-.177-.29-.311-.734-.658-.654l-.019.407c-.696.156-.584-.962-1.009-.576-.247-.634-.734-1.386-.183-1.981l.87.118c-.244-.057-.634.308-.441.583-.276-.399 1.451-.744.449-1.382l-.719.321c-.272-.623-.991-1.464-.583-1.973-.9.053.059.165-1.018.318 1.316-.045-.48 1.503.949 1.274-1.241.11-.697.625-1.828.913.28.067.588-.043.296.425.073.048.158.135.206.188-.011.013-.018.017-.031.028l.041-.018c.034.035.042.039.014-.008a.992.992 0 0 1 .497-.131c.554.448.266 1.273.501 1.656-.23.268-.273-.231-.618-.155l.351.575c-.618-.155-1.275.498-1.39-.349l-.242.649c-.466.276-.775.765-.631 1.184-.234.272.412 1.013.027.585l.034 1.175-.155-.039c-.415 1.027.321 2.462-1.138 3.398.024.206.055.416.043.658a1.641 1.641 0 0 1-.065.375.3.3 0 0 1-.108.134l-.531-.147c.049.064-.002.111-.071.14-.137.064-.331.029.002.305-.8-.478-.732-.398-.659-.195.005.072-.01.195-.133.101l.416.666c-.151-.019-.207.106-.318.315a1.537 1.537 0 0 1-.116.199l.189.612c-.045.14-.136.193-.244.194a2.652 2.652 0 0 1-.595-.072c-.445-.097-.928-.243-1.334-.155.024-.25.24-.215.417-.094-.619-.633-1.07-.305-1.472.028-.415.356-.809.667-.942.137-.038.102-.068.132-.083.119-.008-.007-.012-.024-.013-.049l.002-.042c-.017.046-.016.068-.027.103l.024-.095-.04.155a2.004 2.004 0 0 1-.278.588.722.722 0 0 1-.16.246l-.043.041-.868 4.701.133.254c.044-.017.081-.021.126-.042.603.14.346-.398-.013-.848.248-.16.367-.335.454-.529.619.983.757-.608 1.438.406.045-.614 1.315-.902 1.067-2.091.06.145.166.188.02.248.353.025.705.048.87-.363l.402.778.299-1.323c.565.374.799.629.619 1.38.627-1.258.622-.597 1.142-1.773l.089.555c.193-.072.445-.881.628-.428.206.382.542.484.924.68 1.208.392 2.815.51 3.792 1.288-.077-1.686.703.863.975-.386.036.402.236.66-.1.948.942-.223 1.142.835 1.903-.091-.005.402-.297.52-.273.764.076-.068.325-.277.331-.029.008.243-.174.288-.336.429.702.109 1.069-1.015 1.505-2.067.208.637.299.599.856.05l-.046.222 1.386-2.816c-.23-.313-.523-.62.212-.521l-1.882 3.823a.28.28 0 0 1-.163.04l.084.095 2.02-4.103a3.732 3.732 0 0 0-.461-.173c-.026.002.014-.018-.066.003l-.249.065-.503.132-.906.24c-.003.009-.006.018 0 .026.012.033.035.065.053.103.038.075.078.165.104.281.061.228.082.545.287.963-.137-.177-.155.198-.143.367-.359.296-.419.246-.824.532 0 .006.177.173.176.164.134 1.525-.399.322-.736.311l-.001-.138c-.468-.719-.509-.647-.608-.606-.077.049-.209.05-.497-.688l-.079.771c-.161.777-.363.379-.515-.126-.166-.514-.225-1.094-.569-.992l-.006.232.002.238c-.245.133-.231-.462-.059-1.049.135-.613.184-1.382.035-1.585-.023-.167.255-.079.43-.077-.662-1.441-.603.658-1.569.318.044-.523.88-.916.175-1.397-.051-.139-.289-.202-.688-.241-.21-.02-.453-.035-.808-.047-.334-.002-.846-.04-1.608.1l-2.858.524.022 1.651c.012.889.141 1.487-.397 1.853.406-.132.804-.236.987.253.002.662-1.666 1.551-.57 2.264a.478.478 0 0 1-.301.081c.118.218.189.692.332.819.139.171.25.666.552.855-2.384-.093.514 2.994-1.599 2.521l-.184 1.386-.208-.083c-.33.839.109 1.258.551 1.674-.188.17-.354-.021-.461-.061-.129.239-.201.286-.26.363-.147.112-.269.472-.219.75.041.306.207.669.477 1.244l-.701-.128c.287.415-1.667 1.404-1.322 2.88a.543.543 0 0 1-.249-.237c.297 1.629-2.987 2.587-.751 3.938l.277 1.104c.598-1.088.985.543 1.554.21-.019.504-1.143.917-1.069.314l.152-.044c-1.185-.652-.955 1.277-1.8.942-.706 2.174-2.073 4.057-2.902 6.041l5.802 1.522.075-.35-1.065.078.193-.766c.274-.162.846-.135.709.412.629-.191-.324-1.014-.543-1.068.603-1.012 1.117.631 1.199.302l.004-.464-.138.081c-.354-.438-.79-.548-.624-1.205.278-.386.668-.107.737-.265.071.014.115-.036.072-.249l.257-.963-.875.251c-.321-.502.202-.913-.79-.621 1.524-.418 1.14-3.561 1.649-3.891-.484-.71-.368-1.308-.168-2.038-.201.155-1.126.108-.903-.513 1.829.559 1.015-1.032 2.451-1.315-.973.307.096-1.859-1.297-1.353.244-.508.705.09 1.216-.24-.157-.435-.123-.863-.002-1.294.061-.216.143-.432.235-.651.045-.104.096-.233.141-.317l.116-.157c.06-.073.1-.087.168-.205a6.11 6.11 0 0 0 .204-.404c.124-.275.22-.561.268-.864-.229-.099-.675.042-.924-.398l1.443-.433c-.021-.34-1.285-.709-.286-1.003-.225.015-.563.037-.575-.189 2.1-2.652.931-6.4 3.992-8.882-.584.291-.551-.001-.479-.329-.169.179-.593-.169-.93-.217l1.259-1.06c-.844-.477.309-1.433-.532-1.794l.054.46c-.888-.805-2.476.19-3.77-.241 1.008.911-2.135 1.1-.752 2.536-.328.141-.37-.303-.706-.272.49.405.525.739.112 1.222l-.12-.103c-.313 1.599-1.064 2.107-1.957 3.742l.682.066c-.2.35-.424.368-.639.495.842.728.375-1.039 1.33-.32-1.457.103-.833 2.65-2.421 2.526-.187.575.794.062.606.637l-.448.028.47.308c-.204.352-.765.385-1.109.293.069-.079-.013-.29-.012-.398-.625.342-.275 1.431-.481 1.551l.423-.475a6.03 6.03 0 0 1-.184 1.052c-.097.375-.173.617-.38 1.268l-.16 1.009a8.993 8.993 0 0 0-.075.796c-.023.529.018 1.052.185 1.56l.333-.065c.367 1.307-.511.907-.476 2.279l-.065-.061c.265.319.361.701.261 1.058-.307-.399-.82.506-1.148-.004.393 1.417.375.733 1.384 1.799l-.552.11c.417.375.66.443.679 1.128-.35-.62-.863.285-1.344-.425-1.373 1.192.784 2.262-.982 2.611 1.322.887 1.006-1.064 1.25-.653.521-.218.98.713.76 1.124-.108.438-1.964.436-2.131 1.557.026-.11-.08-.136-.055-.246-.439.354.352.905-.33 1.314.816.438-.165.658.925.932l-.078-1.068c.188.631 1.387 1.4.593 2.247-.209-.112-.453-.448-.583-.673-.375.223.122.576-.264.808-1.092-.275-.024-1.286-.759-2.055-.519.218.597 1.316-.547.795.873.431.552.731.388 1.112l5.617 1.474c.148-.227.236-.501-.103-.943l.616.272c-.059-.15-.273-.493-.183-.698l.686.673c-.493-.835 1.014-.911.831-1.608-.398 1.182-.857-.007-1.496.326-.334-1.751 1.953-.246 2.226-1.977.012.252-.673.691-.845.242.239-.263.628-.584 1.028-.656.25-1.123-.711-.067-.938-.663.903-.092-.127-.64-.206-1.199l.646.225c.849-1.079-1.229-.802-.336-1.728l.728.784-.027-.658.691.379c-.321-.819-.111-.965.312-1.505-.505-.019-1.141-.496-.969-1.045.515-.235.539.425.72-.378.342.317.781.687.067.811.199.109.345.315.539.424.582-.243.456-.966.549-1.247-.062.099-.142.215-.258.247l-.495-1.432c.304-.089.449.119.59.325.011-.251-.23-.512-.167-.864.493.271 1.041.443 1.12 1l-.204-1.268c.253.009.818-.324.963-.118.517-.479-.503-1.806.18-2.443-.087-.076-.155-.192-.171-.385.17-.31.439-.566.648-.856.104-.145.193-.298.248-.47.033-.103.031-.139.066-.312.029-.161.049-.328.052-.502a3.586 3.586 0 0 0-.086-.509c-.001.005.075-.051.178-.089l.373-.103.543-.149c-.067-.755-1.378.425-1.487-.832-.13-.901.898-.129 1.233-.363-.4-.521-1.241-1.459-.281-2.052.123.298-.065.465-.044.717zm-2.034-7.106c.074-.239.151-.57.202-.796.035-.3.075-.465.038-.66l3.16.663c.031.042.002.055-.161.02-.305-.125-.412-.2-.419-.237l-2.581-.445c.04.3-.003.597-.239 1.455zm7.34-3.014c.195-.183.386-.014.55.316-.194-.005-.38-.091-.55-.316zm-7.222-9.266c.008.01.014.018.027.028-.373.282-.231.184-.027-.028zm.53-.664c-.067-.106-.158-.13-.26-.127.147.106.103.28-.007.459.189.001.339-.059.267-.332zm-5.623 36.844l-.202.123c-.133-.381.024-.253.202-.123z"/><path d="M77.946 37.764c.015.137-.027.259-.072.381.141-.056.212-.169.072-.381zM69.247 53.976c-.009.006-.01.016-.018.023a.62.62 0 0 0 .107.068l-.089-.091zM69.346 41.624c-.21.014-.374-.01-.494-.069.061.119.214.165.494.069zM69.233 23.771l.038.51c.032-.232.198-.27.334-.353-.156-.034-.402-.011-.372-.157zM74.229 20.58c-.08-.081-.001-.16-.082-.238l-.319.008c.006.298.25.55.401.23zM71.544 23.956c.568.116.461-.238.442-.598-.003.021-.003.041-.015.059-.757-.299-.579.112-.427.539zM71.987 23.276a.61.61 0 0 1 .066-.311c-.304-.117-.097.107-.066.311zM69.065 26.967c.191-.114-.668-.325-.416-.343-.64-.403.503 1.332.416.343zM73.448 24.184l-.718-.064.497.345zM72.142 26.746l.357-.488c-.116-.027-.163-.117-.187-.218-.126.33-.373.656-.17.706z"/><path d="M72.312 26.041c.068-.17.105-.342.023-.473-.021.098-.062.308-.023.473zM73.437 24.997l-.19.123-.162.375zM70.113 32.575l.007.662c.214.133.406.014.382-.238-.118-.195-.135-.445-.389-.424zM72.544 31.369c-.193.115-.346.077-.598.095l.831.29-.233-.385zM72.183 33.16c.21.135.401 1.064.58.304-.211-.133-.214-.787-.58-.304zM67.286 40.282l.157-.04-.735-1.278.314.686c.166.367.264.632.264.632zM56.375 42.781c.706.824.987.683 1.162.56.202-.123.325-.259.933.243.464-.148-.945-.834-.44-.93-.521-.129-.875-.37-1.112-.435l1.765-4.67c-.123-1.002-.136-1.104 0 0l-2.308 5.232z"/><path d="M58.029 42.654c.166.036.332.03.518.015-.272-.029-.412-.014-.518-.015zM70.925 36.978l.414-.413-.548.197zM70.116 35.792l.923.101-.74-.483c.013.118.039.347-.183.382zM67.658 43.86l.137-.174c.083-.23.024-.287-.064-.381l-.073.555zM72.038 44.467l.061-.19-.449.102-.445.087.833.001zM71.893 50.095c.081-.21-.045-.504.037-.714.044.505-1.063.551-.037.714z"/></g><path d="M71.478 32.43c-.187.002-.562-.02-.562-.02l.014-3.762-1.801 3.621s-.84-.068-1.262-.064c-1.158.008-10.252 2.463-11.566 2.678-.889.145-2.262-1-2.863-1.902-.568-.854-.525-1.9-.059-2.734.881-1.574-.895-4.797.291-6.014 1.143-1.17 4.877-.559 6.328-1.271 1.043-.513 2.113-.742 3.08-1.405 2.26-1.551 3.063-10.732-3.158-11.691-8.043-1.242-10.725 8.024-10.346 11.216.332 2.786-13.994 4.523-16.477 6.618-5.77 4.875-2.746 8.078-7.914 14.65-1.525 1.94 5.124 16.468 4.817 17.01-.457.806-9.93 11.059-12.117 13.373-.719.762-2.101 1.75-2.443 2.795-.43 1.322-.277 8.818.938 8.471 1.607-.46 4.25-8.847 5.6-9.842 1.715-1.266 11.883-9.606 14.168-11.869 1.397-1.385.024-5.703.205-5.94.016 1.096 3.574 3.205 3.578 4.275.014 3.807-5.066 14.092-4.426 14.561.66-1.033-1.145 13.354-.25 12.439 1.199-1.229 3.414-14.992 4.301-16.469.945-1.571 5.85-11.268 6.699-13.406.588-1.48.545-2.051.375-3.625-.18-1.654-9.506-8.246-8.875-9.219.635-.979-.65-2.686.125-3.656 1.207-1.512 8.389-2.805 10.15-3.072 3.15-.477 7.094 1.511 10.117.395 3.338-1.232 9.381-1.355 9.381-1.355l-5.234 2.416 4.572-.338-3.861 11.83-1.545 10.146 3.795-8.896 3.25-12.375 4-.25-3.627-3.189s1.197-1.61 1.199-1.618c1.954-.321 2.359-2.52 1.403-2.512z"/><path d="M71.459 32.901c.085-.064.037-.035.039-.005-.025.07-.019.101-.02.116a.52.52 0 0 0 .006.042c.045-.35.029-.131-.036-.147-.09.064-.118.058-.112.06.007.012.152-.086.123-.066zM71.062 39.042l-.163-.078.661.462-.162.041.186-.032zM67.116 43.613c.167-.308.328-.886.492-1.562.168-.691.305-1.354.583-2.431.403-.027.841-.051 1.15-.058l.257.03c-.018.001.214-.054.303-.1.103-.047.177-.093.177-.093l-1.937.16-.577 2.384a31.55 31.55 0 0 1-.448 1.67zM65.511 47.998c.149-.258-.19.991.299-1.042l-.069.184c-.048.183-.115.432-.23.858z"/><path d="M65.742 47.14c.228-.889-.217.564 0 0zM64.708 51.253l.239-1.186c-.109.232-.393 1.271-.324.876-.278 1.209-.168.973.085.31zM64.589 52.238l.025-.083.076-.368a1.179 1.179 0 0 0-.094.362l-.007.089zM64.967 50.485l-.277 1.301c.076-.161.144-.162.133-.596.031.119.042-.148.144-.705zM65.188 49.766c.215-.645.465-1.487.224-.296.56-2.243.336-1.951-.224.296zM67.205 44.097l.287-.862.134-.775c-.067.387-.496 1.675-.421 1.637zM63.748 53.566c-.062.255-.087.497-.125.727l.172-.529c-.043.026-.12.136-.047-.198zM63.623 54.293l-.31.915c.201-.451.275-.713.31-.915zM64.733 52.474l.075-.252.322-1.72-.339 1.713-.163.509zM63.548 53.654l.169-.451-.125.324-.114.247c-.001.007.069-.113.07-.12zM63.667 52.759c.109-.169.24-.648.298-.694-.003-.078-.081-.036-.13-.135.013.15-.018.293-.168.829zM63.78 51.673a.571.571 0 0 0 .055.257 1.36 1.36 0 0 0-.055-.257zM62.967 55.953c.064-.245.226-.855.325-1.319l-.285 1.065c-.011.077-.025.164-.04.254z"/><path d="M62.998 55.736l.01-.038.092-.559-.102.597zM62.981 55.933l-.016.036.003-.017-.018.07c-.007.03-.001.015.031-.089zM63.889 54.173l-.362 1.125c-.105.346-.162.593.038.257.106-.355.097-.424.116-.565.015-.134.062-.346.208-.817zM62.798 56.747l.268-.558c.039-.173.061-.345.186-.722l-.454 1.28zM62.564 57.393l.234-.646-.093.192zM63.498 52.769c-.033-.134.012-.458.056-.803-.086.405-.168.861-.229 1.26.046-.044.124-.106.173-.457zM63.246 54.205l-.003-.027c-.024.085-.035.133.003.027zM65.501 45.637l-.059.109a.111.111 0 0 1 .012.031l.047-.14zM63.282 53.359c-.083.388-.069.496-.034.515a10.1 10.1 0 0 1 .077-.648c-.021.022-.036.048-.043.133zM64.069 50.417l-.353.876-.006.018.009-.017c.098-.178.353-.79.35-.877zM63.314 53.931s.003.007.003.015c.057-.202.034-.134-.003-.015z"/><path d="M63.314 53.931c-.01-.053-.042-.04-.066-.057a1.422 1.422 0 0 0-.005.303l.071-.246zM65.463 43.248c.073.138-.326 1.695-.871 2.976-.343 1.321.285.589.85-.477-.033-.057-.076-.071.296-1.426-.211.449-1.103 2.915-.832 1.759.522-1.784.51-1.435.847-2.276-.371.686.54-2.31.219-1.99l-.437 1.572c-.038.018.096-.559-.072-.138zM64.602 48.284l-.165.551c.222-.618.411-1.052.764-1.849.246-.932.269-1.134.254-1.209l-.897 2.697.044-.19zM63.644 51.264c.001-.396.398-1.78.004-1-.15.469-.251.809-.28.946-.019.35.042.33.017.737.11-.824.109-.704.113-.532.002.181.022.329.129-.144l.001-.003-.001.003c-.018.254-.047.486-.074.694.052-.245.106-.474.157-.655l-.011.023v.006l-.002-.001c-.023.05-.035.068-.017.008l.001-.025a.091.091 0 0 1-.03-.043l-.007-.014c.098-.261.141-.369.123-.295l-.085.316-.001.036c.006.004.01.015.016.017l.002-.005.004-.043.734-2.455a67.477 67.477 0 0 0-.793 2.429zM62.856 57.885c-.021.022-.009-.027-.002-.067-.083.23-.121.346.002.067zM62.534 58.45c.096-.269.216-.674.418-1.116.154-.267-.062.296-.099.483.191-.53.551-1.516.206-.857l-.08.23c-.159.32-.293.508-.352.532-.062.029-.059-.086-.019-.201-.115.552-.175.891-.074.929zM62.671 55.649l.163-1.469-.301 1.275.107-.28c-.2 1.142-.035.578.031.474zM65.639 45.409l.029.328.236-1.31zM66.545 42.586l.072.14.179-.766zM15.363 84.041s-.127-.181-.221-.419c-.102-.225-.176-.487-.176-.487.142.49.285.743.397.906zM19.181 81.095l.001-.132c-.069.219-.089.313-.001.132zM42.009 64.939c-.532.824-1.173 1.719-1.007 1.671l.246-.211c.289-.616.538-1.074.761-1.46zM39.629 62.575l-.101.269-.053.668c.051-.282.11-.602.154-.937zM39.267 61.813c.024.015.234-1.231.202-1.141-.031.175-.08.614-.202 1.141zM27.296 61.294l.423-.664c-.808.91-.407.552-.423.664zM51.064 37.589c-.851-.168-1.562-.245-2.207-.227 1.11.05 1.919.296 2.207.227zM16.817 82.677c-.095.16-.164.249-.153.288.149-.175.19-.288.153-.288zM46.335 37.708l.449-.052c.6-.121 1.222-.274 2.073-.294-.861-.03-1.722.119-2.522.346zM55.607 24.237l-.201.015c-.017.02.069.004.201-.015zM69.608 32.519c-.047.089-.091.21-.159.311l-.422-.019-.824-.04.527.032.473.02c.082-.008.198.032.267-.015l.138-.289zM66.344 38.611c-.565.27-.084.054 0 0zM63.365 39.45c.116-.069.201-.127.204-.16a.674.674 0 0 1-.204.16zM40.4 39.943a2.013 2.013 0 0 0-.052.019c.185-.039.153-.031.052-.019zM65.464 38.956l.745-.304-.745.304zM65.602 38.956l-.504.219c-.061.051.008.034.504-.219z"/><path d="M67.138 38.237l-.929.415c.114-.043.165-.059.135-.041l.794-.374zM39.15 25.125l.133-.024c.6-.212.331-.133-.133.024zM37.839 80.698l.009-.072-.024.091.015-.019zM37.43 82.93c.072-.977.205-1.508.395-2.212l-.507.652.112 1.56z"/><path d="M17.32 72.295s-.268.232-.58.477l-.632.511c.332-.38.651-.699.883-.955.214-.236.416-.484.543-.635.253-.308.218-.304-.346.182.016.126-.16.39-.585.812-.411.426-1.03.943-1.573 1.725a3.43 3.43 0 0 0-.36.674 2.56 2.56 0 0 0-.124.398 4.626 4.626 0 0 0-.058.334c-.056.414-.07.767-.075 1.079-.005.618.046 1.041.14 1.098l-.073 1.07c-.003-.308-.026-.356-.024-.659-.083 1.042.014 1.429.125 1.884.057.228.122.473.188.828l.258 1.558c.225 1.399.875 1.939.335 1.365.153.224.319.405.55.517a.778.778 0 0 0 .389.075l.362-.107c.305-.213.592-.386.828-.747.549-.66.475-.461-.105.227l.465-.569c.067-.093.13-.197.196-.308l.15-.251c.104-.165.19-.343.286-.52.377-.708.7-1.421.7-1.421v.027l.639-1.85c.374-.698-.125.377.001.213l.62-1.602c.38-.592-.118.733-.618 1.815.505-.654.63-.989.83-1.542.21-.529.461-1.372 1.361-2.72 0 0-.182.319-.349.673-.17.348-.33.711-.33.711.318-.408.606-.901.935-1.375.073-.081.182-.264.227-.276.03-.022.034-.036.076-.076l.247-.174 1.064-.745-1.452.889c-.055.012-.142.088-.21.155a.445.445 0 0 1-.148.101c-.061.031-.005-.154.184-.405a.921.921 0 0 0 .086-.081l.177-.129.412-.31c.289-.229.615-.507.984-.852.091.102.841-.54 1.791-1.323l.048.194c.999-.881.859-.887 1.413-1.446 1.155-.926 1.481-1.016 1.825-1.147 1.846-1.494-1.405.874.735-.948 1.559-1.212 2.577-2.157 4.297-3.787 1.087-.86-.11.242.3-.045l.828-.92c.229-.197.185-.099.162-.049.733-.75-.051-.173 1.113-1.346.045-.137.257-.363.418-.728.154-.358.303-.832.352-1.349.022-.131.026-.262.035-.397l.018-.349a5.247 5.247 0 0 0 0-.454 3.959 3.959 0 0 0-.163-.883l-.053-.183c.023-.135.168.391.244.466-.04-.155-.083-.302-.103-.439.001-.115.005.012.005.012l.039.074a.899.899 0 0 0 .187.181c.109.094.208.166.334.251l.291.192c.14.097.226.138.546.39 0 0 .335.344.598.699.138.176.236.359.261.447.029.103.026.175.026.175.009-.211-.046-.306-.012-.336.03-.017.125.04.209.21.134.347.076 1.264-.036 2.028.179-.473.302-.891.368-1.177 0 0-.058.639-.184 1.264-.118.627-.274 1.244-.274 1.244-.116.288-.1.024-.064-.395l-.083.457c-.325.849-.286.366-.205-.277l.341-.847c.041-.632.013-1.214-.114-1.105a5.688 5.688 0 0 1-.112.797c.006-.161.003-.267-.031-.199-.039.078-.05.337-.109.743l-.34.491.04.154s-.257.773-.549 1.538l-.599 1.526c-.303 1.138-.582 2.212-.939 3.445-.334 1.24-.854 2.604-1.306 4.433.088-.948-.185-.265-.346-.35.454-.986.9-2.814 1.633-4.619-.383.938-.381.701-.315.449l-.544 1.652c-.272.827-.52 1.674-.52 1.674-.055-.06-.141.107-.252.404a7.155 7.155 0 0 0-.175.548c-.027.118-.06.221-.081.377-.006.092-.029.122-.017.277.004.066.012.132.023.197a.903.903 0 0 0 .267.405l.667-.299-.065-.034.065.034-.663.294-.001-.001-.001-.001-.002-.002-.004-.004-.006-.007a.06.06 0 0 1-.005-.008s.008.003.025.015c-.197-.202-.208-.361-.195-.354.016-.011.069.133.251.277l.601-.21c-.103-.038-.272-.211-.247-.211.003-.013-.021.033-.051.045l-.146.063c-.059.026-.139.034-.194.051l.006.01c.021.043.04.169.05.306.021.281.017.658.004 1.058-.027.803-.09 1.714-.098 2.304-.105.08-.165-.267-.035-1.971-.331 1.867.159 2.463-.162 4.308.03-.419.062-.643.027-.812.005.983-.233 3.377-.274 2.808l.027-.421a61.258 61.258 0 0 0-.16 2.521c-.017.473-.031.958-.011 1.46.006.127.013.253.028.388.023.145.016.248.114.49.019.038.031.064.061.109.051.062.085.107.175.162a.511.511 0 0 0 .352.059.625.625 0 0 0 .151-.051l.069-.045.062-.05.015-.013.055-.065.006-.009.023-.037.046-.075c.06-.104.124-.186.178-.307.103-.245.208-.497.287-.726l.181-.62c.116-.398.187-.762.26-1.077.131-.63.185-1.066.154-1.182.036-.018.192.428.198.604 0 0 .112-1.267.185-2.526l.139-2.518c.109.473.949-1.07.571 1.219.171-.643.379-1.443.601-2.828-.124.437-.53 1.044-.419.434.583-1.614.365-1.132 1.008-3.131-.19.65-.348-.155-.094-1.196.008.175.333-.013.275.373l.16-1.324c.08-.664.211-1.304.211-1.304-.139.67.219.115.484-.214-.166.209 1.139-2.056 1.426-2.705l-.592.974c1.442-2.662.979-2.855 2.34-5.522-.103.352-.039.984.679-.362.159-.7.691-3.117 1.666-5.563l.284-.42s.176-.471.293-.94c.123-.468.135-.925.135-.925.115.568-.119 1.771-.51 3.018a61.44 61.44 0 0 1-1.156 3.481c.565-.985.24-.233.972-1.764.339-.503-.282.892-.498 1.342l.886-1.769c.44-.887.861-1.805.861-1.805-.128.038.165-.675.348-1.497.203-.847.092-1.714.02-1.612 0 0 .035.283.01.735-.017.455-.151 1.043-.324 1.576-.174.537-.383 1.045-.532 1.421l-.256.624c-.126.036.026-.576.327-1.541.148-.485.332-1.061.43-1.726.102-.67.022-1.384-.042-2.076 0-.724.394.497.447.439a8.885 8.885 0 0 1-.103-.575c-.014-.099-.061-.391-.158-.577-.098-.209-.206-.349-.317-.499-.442-.568-.908-1.002-.981-1.119l.46.409c.229.207.453.445.453.445-1.039-1.32-2.006-1.692-3.285-3.082-.478-.436-1.293-1.451-1.449-1.438.65.853.365 1.496-.271 1.16-.162-.155-2.427-2.38-2.855-2.998-.632-.857 1.42.809.877.076-.065.012-.53-.34-.708-.497-.217-.251-.134-.231-.133-.273.002-.021-.014-.058-.091-.153l-.365-.451c-.051-.006-.185-.103-.195-.268.009-.088.068-.133.091-.248.057-.172.064-.329.076-.461.007-.259-.015-.406-.015-.337.001.033.002.125-.011.296 0 .082-.028.195-.049.321-.016.065-.044.136-.07.211-.013.036-.042.067-.07.115l.037-.083.029-.105c.03-.099.04-.189.047-.275.02-.172.007-.316 0-.447-.019-.263-.058-.465-.091-.676-.045-.399-.225-.888-.126-1.526-.061.201-.279-.146.109-.629.384-.482 1.193-.922 1.858-1.194-.063.075.264.025.42 0 2.817-.865 4.4-1.065 7.094-1.554.268-.019 1.55-.09 1.011.051.374-.061.726-.144 1.56-.082.795.161.33.123-.178.084-.509-.022-1.054-.016-.456.103.097-.161 2.14.048 3.347.219-.334-.226-2.754-.566-3.924-.408-.008-.118.508-.278 1.408-.289.899-.026 2.155.129 3.565.3 2.228.215.951.268 1.341.281 1.05.089 1.793-.018 2.339-.175.518-.183.936-.392 1.33-.551.788-.313 1.513-.572 3.313-.745 1.435-.035.102.289.431.357-1.832.316-2.845.358-4.066.749 0 0 .379-.107.763-.186.382-.087.768-.148.768-.148l-1.176.358c-.444.153-.9.306-1.229.376.278-.036.808-.217 1.51-.402a24.88 24.88 0 0 1 2.545-.512c1.918-.294 4.143-.459 5.831-.457l-.042-.183-.486.205c-.512.293-1.413.767-.95.621l.942-.458c.925-.292-1.718.98-.491.477-1.145.616-2.404 1.332-4.032 2.043l-.209-.806.44-.02.383.146c-.024-.025-.391-.026-.813-.007l.15.578c.337-.144.709-.318.934-.449-.214.124-.553.268-.945.425l-.137-.528c.989-.022 2.269-.01 2.889-.216l-1.391-.018 1.464-.212 2.48-.28-.409 1.333-.423 1.267c.092-.142.184-.36.241-.506.058-.146.089-.248.128-.37.082-.256.178-.54.642-1.641-.219.477-.19.289-.051-.185l-1.64.137-1.529.114c-.68.056-1.072.109-.408.16-.724-.078-1.333-.048-2.027-.02l.353 1.363a20.811 20.811 0 0 1 1.745-.664c-.071-.031-.585.149.763-.442.053-.043.188-.129.273-.182l.092-.038-.077.028c.053-.034.058-.038-.029.011-.329.124-.599.216-.718.235.528-.369 2.192-1.151 3.073-1.607l2.045-1.061-2.242.205-.402.037c-.883.008.366-.081-.119-.123l-1.186.164c-.125-.127-2.355-.036-.282-.268l-.936.068-.935.086c-1.109.038-2.634.228-3.559.485-.895.141-2.192.744-1.452.406l-.455.161c-.302.109-.562.204-.872.29-.611.168-1.292.17-1.292.17l-.024-.032c-1.323.001-2.758-.255-4.286-.478-.766-.11-1.559-.221-2.399-.249a10.678 10.678 0 0 0-1.294.037l-1.237.134-3.532.764-.337-.032c-1.209.3-3.698.93-4.187 1.349-.185.058-.412.12-.693.271-.143.083-.29.158-.455.277-.173.163-.353.273-.526.534-.362.514-.412 1.175-.356 1.634.051.477.162.882.233 1.235.036.175.061.333.068.457a.723.723 0 0 1-.002.151c-.001.02 0 .043-.006.05l-.004.017-.001.009-.048.103c-.14.344-.177.699-.026 1.031.053.166.165.314.245.468.047.075.105.144.158.215l.11.137c.571.659 1.095 1.125 1.495 1.52l.16-.049c1.117 1.036 2.244 1.933 3.671 3.111v-.169c.63.489 1.391 1.184 2.161 1.997.373.401.789.86 1.029 1.281.059.106.067.149.082.223l.038.433c.026.307.049.607.053.89-.042-.146-.072-.747-.096-1.204.009.772.057 1.454-.096 2.083-.151.658-.436 1.372-.729 2.086-.591 1.431-1.202 2.835-1.902 4.018-.261.633-.498 1.07-.74 1.484l.07-.155-.127.25-.487.818c.156-.241.303-.474.42-.683a73.59 73.59 0 0 0-.908 1.908l-.273.235-.08.164c-.396.661-.224.579.055.26-.161.362-.301.697-.401.96-.482.454-.883 1.863-1.496 2.488-.04.157-.161.346-.353.798a4.433 4.433 0 0 0-.233.705c-.07.238-.127.482-.18.723-.219.968-.372 1.916-.303 2.149-.036.018-.102.242-.01-.173-.222.85-.433 1.7-.533 2.483l-.248.328-.173 1.918c-.349 1.112-.511 1.565-.397.414-.398 2.759-.398 2.219-.758 4.559l-.081-.14c-.185.817-.426 2.16-.682 2.568-.11.175-.168.401-.419.72l-.041.059-.001.002c-.124-.038.167.053.14.046l.012.009.023.019a.261.261 0 0 1 .04.047.752.752 0 0 0 .045.076c-.024.077.058-.1.304-.16.006-.016-.018-.117-.021-.208a8.141 8.141 0 0 1-.013-.663c.017-.974.096-2.182.189-3.479l.324-4.069.164-2.037.061-.994c.007-.166.013-.33.009-.508a2.174 2.174 0 0 0-.023-.305c-.008-.04-.008-.057-.025-.117-.031-.07-.001-.078-.132-.255a.66.66 0 0 0-.092-.091.62.62 0 0 0-.29-.116c-.251-.013-.274.037-.395.095-.118.083-.106.091-.138.121l-.067.086.522.235a.126.126 0 0 1 .137-.068c.041-.015.083-.029.124-.039a.75.75 0 0 1 .202-.026s-.002.018 0 .007c.012-.045.009-.071.025-.13-.103.143-.129.127-.126.015.018-.138.106-.417.231-.736.251-.638.603-1.408.515-1.542.172-.237.452-.85.239-.094.806-2.334 1.463-3.43 1.85-5.123.172-.242-.075.541.055.32.053-.194.208-.77.338-1.001.128-.225-.059.368-.164.752.853-2.416.662-2.76.51-2.998.471-1.209.623-1.861.625-2.825.123-.446.314-1.221.112.418.033-.174.097-.484.138-.892.014-.1.019-.21.024-.324a1.312 1.312 0 0 0-.031-.44c-.01-.162-.117-.298-.174-.454-.082-.12-.157-.24-.243-.346-.346-.428-.693-.749-1.08-1.099l-1.292-1.159c-.388-.201-.559-.298-.564-.256a2.83 2.83 0 0 0-.202-.173c-.301-.228-.591-.558-.517-.672.017-.074-.051.031-.045.046-.008.036-.02.07-.023.102a9.894 9.894 0 0 1-.031.177c-.018.104-.04.18-.056.222.009.506-.014.931.109 1.59.047.306.086.63.121.982l.036.539.001.475.031-.521c.11.378.134.775.027 1.241a2.4 2.4 0 0 1-.272.709c-.066.123-.159.208-.26.33l-.397.381.017-.048c-2.774 2.281-1.097 1.103-3.906 3.281l.236-.021c-.063.439-2.518 1.903-4.038 3.3l.623-.415c-.804.798-2.683 1.698-3.582 2.381-.208.136.276-.276.53-.509-2.405 1.733-.182.383-1.874 1.802-.377.179.257-.517-.912.393-.156.099-.433.33-.783.631l-.275.233a5.542 5.542 0 0 0-.407.427c-.188.28-.372.576-.51.867-.592 1.173-1.086 2.472-1.596 3.362.252-.378.502-.752.13.206-.311.723-.808 1.663-1.302 2.566l-.721 1.284c-.141.231-.16.291-.217.39-.055.092-.092.203-.156.305-.083.052-.11.049-.116.025-.011.015-.022.03-.044.042-.065.04-.144.134-.244.098-.089-.038-.147-.129-.195-.224a2.095 2.095 0 0 1-.123-.322c-.041-.141-.056-.179-.107-.429-.17-.84-.261-1.649-.344-1.991.205-.551.041-2.418.175-4.064.018-.727.557-1.31.968-1.734.422-.412.747-.645.813-.562l.43-.405c.274-.266.575-.605.893-.945l1.255-1.363-.034.102c1.631-1.715 2.121-2.403 2.607-3.084.393-.383.151-.061.138-.013 2.402-2.487 2.622-2.754 4.407-5.048l.307-.131c.232-.322 1.111-1.207 2.183-2.381l.434-.495c.184-.239.376-.493.356-.807-.083-.705-.27-1.038-.403-1.477-.3-.844-.636-1.676-.976-2.454.027.025.077.081.191.324-.76-1.751-1.485-3.912-2.08-5.787-.602-1.876-1.048-3.456-1.456-4.058 0 0-.184-.592-.325-1.188-.146-.597-.193-1.183-.193-1.183.332 3.115-.319-.452-.234.851-.123-.632-.105-1.556.223-1.854.259-.288.364-.358.081.059-.018.024-.046.092-.088.168-.013-.009-.085.19-.085.19.055.157.083-.068.267-.288.346-.431.904-1.126 1.297-1.777.43-.622.7-1.173.753-1.108.776-1.449 1.304-3.024 1.711-4.551.411-1.529.867-2.973 1.7-4.197.401-.619.888-1.179 1.408-1.707.245-.276.548-.503.818-.756.296-.276.507-.437.815-.597 1.268-.616 2.754-1.008 4.176-1.41l-.716-.014 2.014-.539c.543-.093.751-.034-.688.344.784-.091 2.393-.736 2.423-.791 2.851-.672-1.045.529-.174.301l1.175-.328-.272.048c.934-.342.997-.439 2.735-.937 1.108-.298.601-.052 1.034-.182 0 .008.038.001.139-.031.102-.03.268-.089.524-.188 0 0 .638-.211 1.271-.48.634-.26 1.261-.629 1.261-.629s-.271.121-.539.21c-.268.096-.534.167-.534.167 1.089-.512 2.242-1.494 1.08-.784.165-.088.388-.203.625-.434.232-.213.521-.639.473-1.139-.084-1.412.353-3.445 1.032-5.084.694-1.638 1.616-2.863 1.952-3.117.941-1.231 2.284-2.197 4.16-2.552-.231.042-.429.036-.366-.029.063-.064.387-.227 1.236-.254-.288.223.468.137 1.457.295.251.016.51.053.752.139.245.078.505.124.728.228.435.233.831.445 1.013.716-.406-.39.561.163 1.157 1.033.136.223.298.423.397.627.096.205.182.378.247.495.13.232.176.239.049-.214.455 1.292-.08.122.14 1.128.23.767.35 1.628.309 2.519-.022.887-.173 1.82-.507 2.678-.16.43-.379.831-.635 1.161-.149.147-.245.255-.441.385-.194.12-.401.229-.618.329-.434.201-.915.367-1.418.563-.251.098-.507.204-.762.326-.145.074-.208.088-.305.132-.096.035-.211.06-.315.093-.059.058.594-.009-.2.24 0 0-.531.021-1.083-.004l-1.119-.054c-.423.04-.615.126-.898.202-.286.084-.644.112-1.486.248.246-.022.597-.049.01.123a2.901 2.901 0 0 0-.829.37c-.264.184-.525.471-.635.783-.253.626-.211 1.218-.167 1.762.105 1.082.378 2.119.315 3.043-.019.224-.054.442-.141.607-.019.069-.111.223-.17.362-.064.14-.116.286-.159.435a3.035 3.035 0 0 0 .043 1.849c.214.616.619 1.074 1.011 1.474.41.4.855.759 1.398 1.03.274.131.573.247.939.268.413.003.625-.089.903-.14l1.563-.375 3.105-.754a115.23 115.23 0 0 1 3.105-.693c1.011-.2 2.124-.434 3.029-.499-.466.012-.611.023-.452-.023.068-.018.211-.051.359-.073.118-.024.309-.026.529-.008-.546-.052.013-.123-.094-.196a175.561 175.561 0 0 0 .99.094c.12-.008.31.09.343-.092l.424-.776.87-1.539c.045-.251.299-.804.596-1.415l-.852-.202c.005 1.102-.024 2.393.086 2.621l-.028-1.117c.158 1.143.356-.699.561-1.502l.171-.668-.493.592c-.169.203-.293.312-.327.239-.131.399-.339.835-.591 1.304l-.407.729-.418.715-.149.238c-.064.052-.188-.009-.278-.006-.146-.012-.548-.074-.914-.049-.754.085-1.377.272-2.041.501-.603.081.486-.2.154-.188-.654.267-1.463.48-2.983.8l.163-.07c-2.112.535-3.625.9-5.204 1.25l-1.201.252c-.207.037-.407.079-.491.059a1.386 1.386 0 0 1-.455-.151c-.339-.169-.698-.441-1.038-.772-.331-.333-.685-.742-.831-1.15a2.149 2.149 0 0 0-.001.311c-.341-.774-.192-.996-.13-1.36.031-.498-.211.086-.117.703.079.604.544 1.12.164.794-.102-.286-.288-.803-.172-1.443.026-.158.073-.321.137-.482.065-.171.143-.277.267-.574.206-.518.216-1.044.195-1.525-.063-.962-.259-1.823-.307-2.506-.06-.686.065-1.119.184-1.226.194-.379.173-.316.089-.308-.031.014-.067.029-.059-.006.011-.036.048-.129.322-.274-.012-.011.347-.055.347-.055-.013-.008.315-.2.315-.2.964-.174 1.521-.064 1.558-.007a8.26 8.26 0 0 0-.952.122c.635-.045 1.581-.091 2.46-.169.871-.066 1.701-.262 2-.379 0 0-.474.16-.891.203-.424.057-.824.075-.824.075.572-.071 1.168-.12 1.858-.415.511-.251 1.014-.438 1.593-.665.571-.236 1.171-.474 1.74-.925.659-.514.9-1.155 1.191-1.764.891-2.477.774-5.158-.199-7.241l.078.341c-.702-1.585-1.274-2.076-1.799-2.593-.299-.225-.57-.523-1.07-.731-.467-.265-1.139-.481-2.076-.59l.139-.004c-.379.001-.815-.01-1.284-.03l-1.485.14c.464-.09.016-.102-.393-.015-.41.065-.794.125-.184-.073-1.827.571-2.145.999-2.388 1.168-.232.196-.36.292-1.176 1.187-.014-.016-.456.332-.456.332-.231.346-.379.512-.547.821-.172.304-.466.678-.884 1.485.667-1.347-.724.943.013-.585-1.091 1.629-1.461 3.068-1.684 4.216-.21 1.16-.277 2.078-.362 3.007a.532.532 0 0 0 .011.041c.077.233.125.225.159-.012-.09-.901.265-3.089.193-2.403.244-.737-.076 1.154.054 2.385.004.086-.007.161-.01.231-.129.476-.613.73-1.248.986-.656.256-1.54.542-2.951.999.281-.092.295-.115.572-.21-1.066.287-2.048.75-3.406.999-.698.372-1.733.452-1.89.725l2.646-.766c-1.484.48-2.842 1.081-5.365 1.642.18-.098.906-.358 1.41-.526-.747.13-1.395.42-2.169.573.152-.296 3.241-.936 4.808-1.525-.799.117-3.023.967-2.269.517-1.089.621-2.895.694-4.792 1.627l.084-.176c-.307.141-.93.432-1.504.755 0 0 .239-.183.484-.347l.491-.306c-.392.207-.78.377-1.183.623-.447.266-.731.552-1.05.804a7.89 7.89 0 0 0-.916.831c-.3.286-.571.606-.805.962 1.111-1.374 1.331-1.426 1.313-1.365.005.088-.179.324.389-.127a24.305 24.305 0 0 0-1.489 1.678c-.338.377-.531.641-.762.904-.415.524-1.002 1.189-1.598 3.472.124-.614.826-2.281.548-1.297-.334.856-.656 1.966-.872 2.452-.819 2.838.271-.388-.011.841-.466.905-.367 1.399-.864 2.596l-.128-.049c-.789 1.463-.909 1.652-.934 1.851-.041.188-.032.358-.999 1.562l.614-1.156-.796 1.157-.142.263.073-.313.029-.149-.073.116c-.079.153-.157.298-.221.438l-.09.404c-.012.221-.034.439-.017.611.01.364.053.659.093.956.082.59.187 1.16.381 1.996-.004-.424.277.173.736 1.642.246 1.027-.314-.518.39 1.553-.238-.438-.515-.921-.673-1.874-.071-.08-.225-.444-.293-.531.221 1.133.843 2.737 1.109 3.481a10.698 10.698 0 0 1-.25-.819l.614 1.463.632 1.45c.125.482-.051.128-.225-.224.237.595.45.985.794 1.858-.189-.187-.278-.091-.794-1.317l1.181 2.761c.028.206.424 1.481.247 1.134.132.392.298.819.479 1.269l.392.99c.072-.02-.415.589-.738.98-.357.428-.727.85-1.11 1.244-.06.099-.196.283-.496.641-1.401 1.519-2.737 2.78-4.281 4.687l-1.088.888c-1.268 1.442 1.461-1.214-.651 1.186-1.489 1.704-.698.504-1.279 1.05-.345.446-.813 1.062-1.388 1.741-.285.331-.609.715-.928 1.017-.345.324-.749.651-1.168 1.013.48-.539.933-.872 1.328-1.295zm4.918 2.478c-.195.246-.557 1.072-.765 1.325.046-.261.13-.473.262-.681a3.3 3.3 0 0 1 .503-.644zm16.152-8.945c.068-.336.257-.824.483-1.375-.119.414-.273.875-.483 1.375zm23.831-28.845a.934.934 0 0 0-.047.014c-1.041.098-.671.062.047-.014zm2.151-.181c.214-.038.197-.056.105-.067-.148.046-.627.093-1.177.143.155.022.435.01 1.072-.076zM45.88 24.189l-.41.096c.889-.331.645-.221.41-.096z"/><path d="M39.308 61.911c.047-.118.078-.149.107-.172.001-.176-.017-.183-.107.172zM27.216 61.418l.049-.052a.2.2 0 0 0 .03-.071l-.079.123zM39.115 46c.283.314.444.497.542.625.042-.009-.092-.162-.542-.625zM64.619 38.623l-1.354.136c.656-.055.892-.043 1.226-.046-.034-.029-.295-.056.128-.09zM63.862 48.449l-.174.593.077-.031c.259-.807.395-1.387.097-.562zM66.154 38.965c.055.068.497.047 1.137-.007l-.367 1.195.068-.209c.046.211.237-.338.47-1.12l-1.308.141zM66.839 40.426l-.31.959c.013.064.044-.021.09-.183l.22-.776zM67.091 36.551c.342.009.333-.081.418-.113l2.907-1.086-2.566 2.569c-.021.021-.054.039-.118.055-.084.073-.013.051.135-.02l3.523-1.702-3.882.145c-.612.023-2.386.309-.417.152z"/><path d="M66.711 39.304a1.27 1.27 0 0 0-.206-.127l-.657.163.863-.036zM65.153 38.426l-1.401.603c.03.012-.138.106-.351.216.855-.39 1.801-.795 1.752-.819zM63.401 39.245c-.418.19-.816.377-1.054.508l-.066-.255.056-.008a5.371 5.371 0 0 1-.057.004l.068.262 1.053-.511zM64.634 39.5l-.453.004-1.074.069zM53.995 38.615l-.822-.108-.823-.121c-.175.019.266.126.88.211.397.033 1.009.101.765.018zM58.992 38.566c-.431.099-.465.087-.719.119l.014.181.35-.153c.174-.08.355-.147.355-.147zM54.113 39.065c-.178.039-2.429-.249-.326.085.177-.013 1.867.139.326-.085zM40.653 48.083l-.317-.278-.148.255zM42.636 66.956c.957-1.731.054-.498.936-2.054.148-.445-.72 1.271-.559.82-.473 1.096-.794 1.635-.377 1.234z"/><path d="M43.014 65.723l.235-.564a10.3 10.3 0 0 0-.235.564zM70.232 29.476l-.064 1.268.1-.818zM70.438 31.912l-.185.298.043.199.15.696.436-.074.603-.103-.596-.011-.481-.008.003-.5c-.001-.2.006-.39.027-.497zM25.15 72.91l.047-.095c-.183.086-.418.271-.887.639l.84-.544zM14.593 81.969l.042.31.085-.598zM20.058 68.835l-1.256 1.389c.851-.961 1.515-1.364 1.256-1.389z"/><g><path d="M67.877 34.999c-1.275 5.443-3.844 16.852-3.844 16.852L61.14 64.058l4.225-12.373s2.777-11.169 3.293-12.541c1.359-.133 2.588.431 3.844.605.91.127 1.85.055 2.654.384-2.029-1.184-5.119-1.356-7.383-2.126-1.613-.549-3.816 1.389-5.482 1.625 1.934 1.865 4.295.027 6.816.482-.096-4.159 2.098-7.982 2.01-12.183-2.619 2.364-1.906 6.464-3.99 8.942"/><path d="M67.739 37.206c-.114.134.015.16.016.195.16-.257-.045-.207-.016-.195zM68.748 34.623l.032.06.005-.408zM69.379 32.28c-.254.166-.177.848-.356 1.25l-.062.057.106.231c.113-.52.166-1.203.312-1.538zM70.139 31.21c-.097.047.015-.269-.109.259l.033-.044c.012-.048.035-.109.076-.215zM70.063 31.426c-.061.233.107-.132 0 0zM70.387 30.397l-.047.307c.067-.042.175-.285.17-.18.078-.298.016-.259-.123-.127zM70.372 30.076l-.043.153c.031-.017.055-.05.043-.153zM70.26 30.565l.069-.336c-.05.025-.11.006-.039.152-.044-.05-.016.035-.03.184zM70.16 30.73c-.105.145-.198.359-.165.033-.164.587-.005.538.165-.033zM69.207 32.109l-.12.226.013.225c-.007-.113.172-.449.107-.451zM71.413 28.936c-.018-.04-.154-.013-.206-.027l-.091.2c.088-.07.234-.212.297-.173zM71.207 28.909c-.007-.005.167-.28.167-.28-.211.197-.216.262-.167.28zM70.194 29.929l-.053.288-.034.294.055-.345.078-.336-.046.099zM70.183 28.743l-.093-.197.133.352zM70.126 29.614c-.064-.152-.164.181-.195.024-.017.236.037.446.064.639a1.76 1.76 0 0 1 .131-.663zM70.035 30.599c-.003-.101-.021-.207-.039-.322.001.106.01.212.039.322zM70.421 28.237c-.026.027-.095.078-.126.27l.123-.133.003-.137z"/><path d="M70.421 28.369l-.004.005-.01.295.014-.3zM70.422 28.203l-.001.035c.012-.014.016-.022.001-.035zM70.728 29.208c.061-.19.264-.571-.068-.311-.021.163.165.018.068.311zM70.575 28.031l.008-.089.892.385-.202.177c.027.018.104.006.062.098l.157-.256-.934-.404.017.089z"/><path d="M70.611 28.214l-.036-.183-.012.139zM70.247 29.984c.036.167.006.344-.018.544.061-.209.111-.428.133-.638-.035-.034-.092-.133-.115.094zM70.367 29.2l.005.036c.011-.021.015-.039-.005-.036zM69.812 32.489l.029-.027-.018-.011z"/><path d="M70.388 29.857a.602.602 0 0 0 0-.352 4.164 4.164 0 0 1-.027.385c.016.016.026.02.027-.033zM69.988 31.153c.042-.078.082-.168.122-.264-.054.074-.147.228-.122.264zM70.334 29.287l-.004-.024c-.03.049-.016.044.004.024z"/><path d="M70.334 29.287c.012.083.038.15.054.219a1.41 1.41 0 0 0-.017-.269.27.27 0 0 1-.037.05zM70.415 33.28c-.102-.058-.092-.51.114-.852.003-.385-.411-.229-.687.035.045.023.089.034.059.422.095-.115.343-.792.366-.454-.067.508-.14.396-.258.621.189-.17.036.68.261.624l.043-.453c.033 0 .043.17.102.057zM70.018 31.761l.021-.154c-.058.168-.132.283-.27.49-.005.265.022.328.054.354l.191-.745.004.055zM70.179 30.925c.096.14.071.519.247.32.086-.453-.039-.335-.043-.613-.093.729-.031-.219-.189.29.005-.145.019-.273.035-.393a5.281 5.281 0 0 1-.118.361l.01-.015v-.003l.002.001c.02-.028.031-.036.016-.003v.015a.102.102 0 0 1 .04.04c-.068.203-.038.026-.039-.042-.006-.003-.01-.01-.016-.012l-.002.003-.082.733c.047-.15.083-.341.139-.682zM70.693 28.424c.024-.01.03-.003.038.001.023-.044.027-.064-.038-.001z"/><path d="M70.961 28.255c-.026.05-.021.115-.151.23-.124.091-.046-.041-.08-.06-.045.103-.156.345.086.125l.021-.048a1.92 1.92 0 0 1 .535-.286l-.638-.276c-.015.029-.026.039-.029.028l.032-.028.633.274c-.112-.019-.215-.018-.409.041zM70.71 29.317l-.009.618.144-.3-.065.009c.068-.347-.029-.28-.07-.327zM69.736 32.543l-.106-.11.089.391zM69.551 33.331l-.101-.058.011.225zM66.218 51.049l-.014.186c.011-.087.015-.143.014-.186zM66.55 49.755l-.045-.045c.014.068.029.098.045.045zM67.982 38.813c.24.178.507.42.505.287l-.052-.141a1.4 1.4 0 0 1-.453-.146zM68.819 39.162l.096.033c.038-.047.084-.084.129-.121-.073.025-.152.051-.225.088zM69.045 39.703a1.34 1.34 0 0 0-.124.119.639.639 0 0 0 .124-.119zM64.033 58.073l.049.244c.108-.319.001-.199-.049-.244zM67.404 39.415a2.94 2.94 0 0 0-.618.007c.3.023.549.101.618-.007zM65.08 50.222c-.006.115.007.168.034.171.007-.118.001-.188-.034-.171zM66.445 39.479c.01.011.02.015.035.023l.118-.046c.045-.013.054-.018.188-.034-.143-.006-.154-.024-.206-.019a.191.191 0 0 0-.135.076zM64.98 44.545l.028-.055c-.016-.01-.022.016-.028.055zM67.904 37.308c-.01.075-.037.196-.061.311.02-.054.04-.148.061-.311zM68.708 36.547c.028-.176-.008-.031 0 0zM69.367 35.813c.005.04.016.071.042.082a.118.118 0 0 1-.042-.082zM64.509 40.497l-.015-.001c.023.022.019.018.015.001zM68.816 36.296a2.061 2.061 0 0 0-.082.216c.018-.035.043-.101.082-.216zM68.752 36.318l.043-.15c-.015-.026-.032-.009-.043.15zM68.664 36.792c.019-.101.044-.193.071-.28-.015.032-.025.046-.027.035l-.044.245zM62.09 58.435l.02-.033c-.01-.182-.019-.105-.02.033zM72.716 38.602l-.021.001.025.011zM73.362 38.686a.869.869 0 0 1-.642-.072l.112.397.53-.325z"/><path d="M65.268 54.162l.245-.378c.002.558-.181.899.099.561-.344-.183.511-1.619.167-1.801l.17-.246c-.03.077-.013.097-.043.173.178-.235.145-.356.104-.501-.012-.243-.104-.343.019-.705.09-.237.186-.393.189-.216l.044-.567c.047-.156.102-.101.055.055l.178-.836.009.009a4.344 4.344 0 0 1-.057-.564c.107-.197.013.115.073.073l.025-.481c.144-.163.142.241.048.555.481-.334.002-.405.453-1.273l-.062.444c.282-.225.291-.582.547-1.038-.098.098-.581.895-.548.374a1.25 1.25 0 0 0 .117-.602c.133.032.167-.239.243-.568l.17.068c.04-.367-.057-.362-.083-.591.119-.39.276-.437.414-.5.19-.625-.33.38-.171-.376.202-.508.226-.895.285-1.551.156-.351.09.092.175-.027l-.055-.362c.024-.079.06-.042.079-.023.018-.289-.169-.068-.104-.512-.161-.167.515-.81.442-1.399.085-.117.09.093.168.071.054-.768.067-.651.041-1.302.018-.061.218-.315.214-.303-.09.065-.158.032-.192-.113a1.24 1.24 0 0 1-.024-.284l.005-.185c.011-.055.071-.051.109-.079-.21-.105-.263.006-.315.064.025.032-.029-.295.213-.259.185-.038.385-.063.385-.063.109.033.033.09-.059.169l.122-.044c.284.078.132.175.019.275l-.269-.11c-.051.062-.086.122-.084.187a.44.44 0 0 0 .109.209c-.02-.063.018-.093.082-.1-.012.032-.012.06.012.078.027.019.042-.027.097-.075.008 0 .176.205.168.205l-.003-.082.668.203c.63-.104 1.267-.201 2.297-.085-.281.098-.1.227-.143.398-.254-.232-.832-.102-1.337-.267.264.085.184.152.109.163l.986.061c-.051.135.184.152.445.251-.155-.298.781-.09 1.166-.167.015.095-.075.19-.562.129.521.257.709-.292 1.185-.057-.109-.011-.168-.031-.216.013.277-.073.86.117.697.172l-.101-.02c.145.037.316.085.486.155l.415-.841c-.741-.435-1.739-.684-1.877-.532.002-.033.187-.244.249-.274 0 0-.405.081-.791.183l-.765.221c.169-.171-.174-.764.486-.722-.174-.072-.394-.166-.792-.18.118.057.24.362.068.342-.41-.329-.293-.193-.82-.507.175.083-.097.356-.384.286.056-.038.041-.319.155-.33l-.786.161c.192-.019.087-.257-.053-.38.06.078-.613-.141-.805-.155l.282.141c-.78-.236-.895.255-1.679-.006.105-.033.378-.311-.044-.475a2.756 2.756 0 0 0-.724.373c-.273.198-.576.448-.826.592l-.129-.055a2.503 2.503 0 0 0-.273.219c-.152-.218.716-1.137 1.432-1.257-.389-.088-.116-.128-.684-.067-.218-.06.288-.18.479-.182 0 0-.366-.01-.688.052-.176.021-.306.061-.449.092-.165.038-.281.085-.281.085.122.138-1.139.667-.886.746 0 0 .32-.208.71-.413.192-.096.41-.213.558-.265l.195-.086c.041.093-.084.25-.4.474-.298.215-.606.437-1.023.611-.321.066-.257-.251-.328-.288-.055.106-.784.502-1.058.523-.012.003.402-.226.372-.232-.297.102-.586.204-.742.304-.3.108-.485.201-.986.318-.018.052-.078.108-.176.174-.08.106-.648.326-.372.305.505-.171 2.517-.282 2.87-.263l-.736.156c-.2.04-.425.083-.644.113l-.314.048c-.092.017-.08.057-.126.075a.727.727 0 0 1-.202.077.227.227 0 0 1-.099.009 1.84 1.84 0 0 1-.308-.065c-.06-.01-.14-.006-.316.024.036-.004.055-.002.061.001l.188.088c.102.144-.28-.025.109.27.297-.006.705.512.369.073.417.213.316.262.766.444.006-.06.238-.077.527-.089.257-.013.756-.125.961-.158-.113.058-.169.15-.154.172.781-.004 1.159-.008 2.002-.145.072.034.486.022.331.132.103-.05.188-.129.416-.167.458.109-.5.095-.139.249.012-.115.559-.24.877-.311-.108-.178-.756.02-1.065.149-.019-.118.103-.261.333-.401.116-.066.259-.131.425-.191.152-.048.404-.102.499-.125.395-.046.264.162.323.13.142.024.256.034.338.032.009-.27-.112-.491-.168-.623a.605.605 0 0 1-.06-.2 1.997 1.997 0 0 1 .069-.472c.197-.381.303.013.422-.064.017.532-.164.762-.153 1.041l.082-.35c.033.156.078.532.03.677.065-.089.075-.632.133-1.195.057-.568.163-1.204.309-1.638-.018-.167-.013-.452-.1-.335l-.037.287c-.175.239-.057-.568-.187-.219-.01-.4-.045-.861.152-1.38l.194-.058c-.053-.002-.186.323-.168.486-.026-.244.427-.759.268-1.057l-.211.343c.009-.402-.046-.915.129-1.368-.221.169-.009.112-.29.395.315-.229-.321 1.201.054.801-.314.287-.246.572-.545.987.06-.001.144-.139.025.259.013.022.024.071.031.101l-.01.027.011-.021c.005.019.006.021.004-.008a.492.492 0 0 1 .13-.188c.086.23-.058.87-.022 1.104-.068.238-.048-.113-.131.009l.045.346c-.135.01-.307.623-.295.029l-.077.527a2.39 2.39 0 0 0-.128.516c-.021.158-.034.424-.004.397-.034.041.134.257.036.133.014.069.046.169.045.242l-.06.011-.027-.033c-.164-.026-.157.019-.744.08-.413.06-1.017.16-1.12.063-.092.049-.236.116-.372.098l.092-.128c-.174.065-.064-.118-.331.018.271-.191.29-.21.187-.223-.05-.006-.131-.011-.194-.027-.065-.017-.121-.041-.022-.046l-.528.062c.151-.031.113-.052.145-.131l-.34.011c-.01-.013.002-.029.031-.047.185-.111.696-.198.885-.293.033.041-.04.059-.129.065.347.009.348-.054.525-.172.333-.165.693-.278.939-.136.131-.009.198.01.34.094a.244.244 0 0 0-.049-.009l.077.026.244.148a1.432 1.432 0 0 0-.202-.136c.147.047.374.097.599.124l.057.158.052.01c.201.103.187-.02.099-.147.114.006.22.005.305-.008.12.258.579.062.76.341.171-.078 1.088.143 1.25-.07 0 .032.06.06-.055.038.23.076.458.154.682.133l.061.192.56-.109c.283.178.391.267.057.323.777-.012.605.073 1.272.068l-.064.097c.215.063.606.049.697.189.136.133.445.298.814.516l.407-.825c-.951-.414-2.2-.276-2.941-.559.181.372-.543-.252-.651-.026-.056-.093-.223-.18-.001-.196-.664-.083-.975-.375-1.511-.256-.069-.093.175-.084.111-.143-.06.004-.245.027-.313-.033-.068-.058.118-.047.242-.06-.728-.114-1.017.149-1.003.37a1.62 1.62 0 0 0-.585-.057c-.155.022-.311.027-.265.294-.103.073-.268.298-.084-.288-.059.141-.271.632-.396 1.084-.101.335-.164.648-.081.685-.065.061-.104.326-.101.394-.154.527-.184.569-.305 1.094l.067-.136c.157.262-.068.445-.153.871l-.019-.018c-.404.923-.037.435-.457 1.339l.145-.018c.26.162-.386.798-.418 1.378l.126-.179c.019.326-.601.743-.714 1.036-.042.06-.013-.114-.008-.211-.369.75.146.147.036.748-.121.085-.201-.201-.319.193-.126.179.01 1.229-.306 1.727.102-.101.204-.202.188.086-.08.427-.558 1.069-.426 1.506-.033.049-.057.064-.075.062-.022.324-.165 1.099-.089 1.265-.544.138-.45 2.023-.857 1.876l-.308.973-.033-.04c-.238.607-.214.859-.189 1.109-.077.133-.079.016-.097-.003-.39.872-.403.968-.457 1.793l-.16.033c.008.231-.653 1.231-.8 2.168-.012-.014-.032-.041-.027-.117-.183 1.047-1.182 2.254-.822 2.783l-.105.697c.328-.836.167.198.367-.124-.085.343-.441.814-.325.394l.046-.056c-.15-.177-.326.477-.473.789l.722.208c.04-.112.081-.183.125-.166.394-1.72.935-3.361 1.327-4.967l-.246.138.144-.558c.082-.136.205-.161.102.238.164-.184.063-.694.022-.716.268-.764.163.362.225.122l.063-.33-.041.068c-.02-.284-.102-.328.023-.807.113-.295.162-.127.198-.245.014.004.03-.035.049-.183l.185-.703-.226.246c-.004-.332.166-.663-.092-.379.392-.414.725-2.614.881-2.888-.014-.466.095-.898.231-1.433-.064.126-.261.164-.134-.294.331.255.354-.812.706-1.125-.253.294.257-1.328-.113-.861.118-.38.144.009.298-.265.067-.954.556-2.007.767-3.157-.044-.029-.162.145-.179-.117l.38-.545c.028-.23-.233-.272.029-.643-.054.049-.135.121-.117-.034.745-2.175.846-4.602 1.807-6.763-.164.285-.127.078-.077-.157-.057.147-.119-.032-.192-.017l.399-.905c-.143-.216.22-1.019.068-1.159l-.037.307c-.115-.447-.585.452-.837.331.132.502-.616 1.098-.448 1.91-.091.149-.054-.158-.135-.085.071.212.044.442-.102.847l-.017-.054c-.239 1.176-.465 1.651-.839 2.947l.153-.067c-.082.278-.136.328-.199.452.124.37.192-.79.343-.444-.352.313-.458 1.99-.818 2.173-.101.434.18-.092.079.342l-.108.096.08.134c-.082.28-.217.4-.289.395.024-.067.025-.201.036-.276-.181.347-.205 1.049-.265 1.168l.146-.405c-.194 1.202-.631 2.625-.726 3.808l.082-.072c-.085.9-.228.685-.394 1.657l-.007-.038c.018.206-.01.47-.077.731-.017-.259-.244.423-.252.087-.098.976-.014.491.069 1.169l-.137.121c.042.234.087.263 0 .748.005-.413-.229.269-.241-.197-.462.952-.127 1.543-.564 1.928.174.526.363-.833.363-.56.144-.195.122.43.018.738-.082.319-.492.461-.677 1.269.02-.08 0-.091.021-.17-.144.285-.042.614-.247.957.122.248-.124.479.08.589l.125-.752c-.042.433.12.886-.167 1.548-.031-.064-.041-.283-.039-.432-.112.187-.05.399-.166.593-.204-.111.166-.91.105-1.399-.144.195-.043.887-.226.606.224.395-.226.786-.126 1.386l-.122-.067c0 .091.019.285-.022.443l-.102-.328c.04.477-.329.823-.35 1.265.206-.889.205-.162.389-.515-.084 1.137-.492.549-.719 1.79.021-.17.226-.605.225-.331-.082.227-.205.523-.308.65-.165.819.164-.093.163.272-.225.239-.03.415-.063.782l-.134-.029a1.93 1.93 0 0 0-.093.359l1.181.341c.085-.371-.248-.122.061-.758l.062.404.098-.439.117.138c.048-.498.125-.631.32-1.068-.127.074-.215-.139-.083-.539.17-.246.071.194.246-.378.038.155.091.33-.112.535.034.039.038.154.071.194.189-.263.272-.729.34-.935a1.005 1.005 0 0 1-.106.211l.101-.881c.093-.112.097.004.1.118.043-.171.022-.306.095-.554.084.099.197.121.129.483l.15-.82c.064-.037.262-.358.267-.244.21-.412.158-1.131.436-1.678a.558.558 0 0 1 .017-.23c.208-.532.5-.966.575-1.654l.313-.298c.128-.516-.405.41-.192-.448.141-.611.236-.165.359-.355.005-.326-.014-.902.325-1.392-.023.196-.099.327-.142.499zm1.711-6.35c-.003.13.02.396-.08.465-.117-.178-.017-.267.08-.465zm2.744-8.352c-.103.031-.224-.003-.34-.062a.778.778 0 0 1 .34.062zm-1.211-.95l.006.014c-.075.292-.047.188-.006-.014zm.133-.598c-.012-.063-.031-.062-.053-.039.029.047.014.182-.014.336.041-.038.075-.113.067-.297zm-5.233 18.933l-.061.103c.022-.26.039-.181.061-.103z"/><path d="M69.006 39.632c-.023-.004-.045-.022-.066-.041.007.052.029.073.066.041zM64.024 58.027l-.008.018c.004.013.01.021.017.027l-.009-.045zM61.65 39.82c-.031-.043-.092-.095-.062-.104l.095-.02-.085.014c-.009.007-.052.001-.038.021l.09.089zM69.063 34.75l-.058.377c.038-.18.083-.236.127-.321-.033.001-.096.059-.069-.056zM70.679 31.8c-.004-.057.022-.114.016-.171l-.065.001c-.042.229-.034.399.049.17zM69.59 34.524c.119 0 .141-.238.187-.498l-.012.045c-.136-.116-.156.17-.175.453zM69.788 33.966c.015-.079.033-.16.058-.235-.054-.047-.037.091-.058.235zM68.69 37.141c.051-.122-.131-.106-.073-.17-.12-.167.03.881.073.17zM70.011 34.413l-.162.055.074.172zM69.418 36.408l.131-.402c-.025.001-.026-.054-.022-.121-.066.25-.154.523-.109.523zM69.527 35.884c.034-.131.06-.257.054-.336a2.79 2.79 0 0 0-.054.336zM69.909 34.979l-.06.114-.082.285zM68.28 39.911a7.567 7.567 0 0 0-.431.051c-.044.051.083.075.253.047.104-.04.253-.046.178-.098zM69.368 39.665c-.031.136-.062.125-.109.172l.174.146-.065-.318zM68.452 40.353c-.022.027-.231.037-.359.074-.061.04-.15.033.278.051.068-.042.65-.047.081-.125zM62.707 39.511l-.097.032.896-.101z"/><path d="M68.786 37.511c-.476-.209-.172.145-.59-.078-.137.029.342.181.207.2.325.017.471.1.383-.122zM68.403 37.634l-.166-.005a.7.7 0 0 0 .166.005zM68.339 36.096l.136-.327-.144.197zM68.28 35.393l.198-.038-.116-.243c-.01.079-.029.232-.082.281zM67.577 46.963l-.036-.036c-.06.04-.083.119-.131.275l.167-.239zM66.286 51.519l.023-.078-.198.108zM65.212 55.429c.059-.152.085-.344.145-.496-.085.344-.355.47-.145.496z"/></g></svg>