<svg xmlns="http://www.w3.org/2000/svg" viewBox="0 0 100 100"><path d="M33.02 83.104c1.572-2.854 1.113-8.43.645-11.623-.604-4.109-2.352-7.854-2.801-12.014-.764-7.078-.842-14.658-.602-21.869.129-3.775 1.955-7.518 5.516-8.814 2.184-.797 2.443-1.121 1.984-3.398-.346-1.729-1.352-3.33-1-5.313 1.439-8.09 17.932-5.125 13.191 4.281-.813 1.611-3.602 2.672-2.762 4.394.33.676 1.658 1.045 2.18 1.557.877.855.832 1.422 1.168 2.385 1.162 3.322.436 6.576-.635 9.787-1.406 4.23-3.568 8.391-4.865 12.666-1.24 4.1-3.402 8.393-3.785 12.543-.238 2.563-.881 5.162-1.352 7.682-.459 2.467-.211 5.018-1.027 7.455-.631 1.883-1.465 3.865-3.69 3.629-2.285-.242-1.871-2.762-2.56-4.729"/><g fill="#fff"><path d="M27.499 83.542c.017-.012-.025-.004-.1.019l-.03.009.033-.012.056-.02.066-.025.079-.03c-.411.158-.741.259-.811.281l.381-.117c.249-.075.442-.142.326-.105zM31.175 87.764l-.43.073s.449.21.889.329c.473.129.912.165.912.165s-.346-.088-.705-.233c-.347-.14-.666-.334-.666-.334zM39.284 88.472c-.814-.378-1.256.052-1.989.5-.689.451-1.65.844-2.249.497l-.087-.188-.056-.129-.001-.003-.001-.002v-.001l-.203-.03-.001-.006-.001-.011-.002-.019-.002-.016-.527 1.207c.104-.007.214-.023.328-.045h.002l.288.041.006-.001.011-.001.022-.002.044-.005.089-.01.178-.024.354-.06a7.347 7.347 0 0 0 1.474-.47c.975-.417 1.702-1.002 2.323-1.222zM44.468 87.126c-.676-.042-.11-.966-.577.716.104-.049.151-.055.22-.079.079-.161.164-.335.357-.637zM44.111 87.764c-.353.747.719-.233 0 0zM44.881 84.997c.009-.017.305.81.296.827.403-.029.679-.575.857-.272-.04-.346-.133-.616-.328-.675-.191-.076-.485.062-.825.12zM43.995 83.943l.102.466c.167-.021.254-.118-.102-.466z"/><path d="M44.328 85.267c.013-.031-.246-.797-.231-.858-.281.035-.774-.114.059.39-.432-.2-.037.057.172.468zM43.95 85.591c-.475.27-.877.672-1.117-.209-.142.666-.008 1.141.272 1.206.276.071.705-.305.845-.997zM38.461 86.996c0 .019-.752.034-.751.014.028 0-.156.729-.182.732.135-.31 1.301-.385.933-.746zM46.643 80.471c-.334-.072-.921.129-1.357.128l.33.534c.264-.234.526-.68 1.027-.662zM45.285 80.6l-.256-.375c-.127-.19-.26-.359-.26-.359-.12.583.139.737.516.734zM42.333 83.324s.203.39.393.801c.205.35.396.726.396.726l-.366-.848c-.171-.479-.377-.915-.377-.915l-.046.236zM46.866 78.157l.76.348-1.142-.595zM46.835 77.087c.627.215 1.115-.029 1.493.161-.087-.224-.628-.365-1.055-.803.207.416.128.422-.438.642zM46.644 75.846c.123.176.367.386.629.599-.121-.176-.3-.374-.629-.599zM45.017 78.829c.207-.024.751-.091.999-.371l-.967.146-.032.225zM45.017 78.609l.032-.006.085-.458-.117.464zM45.009 78.886l.008-.057c-.094.016-.127.026-.008.057zM43.59 81.573c-.456-.523-.936-1.364-1.838-.702.607.373 1.136-.038 1.838.702zM43.798 79.089l-.269.637c.252.01.631-.084.877.126l-.302-.392-.306-.371zM43.519 78.762l.279.327.098-.228zM45.601 76.554c-.195-.099-.288-.221-.327-.38-.043-.144-.042-.288-.046-.447-.248.286-.413.623-.439.803.291.08.809.246.812.024zM45.223 77.406l-.051-.052c-.083.021-.111.042.051.052zM45.87 72.58l-.182.021.16.043.022-.064zM44.608 76.541c-.208.158.005.302.285.449a.847.847 0 0 1-.104-.459c-.132-.036-.219-.053-.181.01zM46.375 74.916a3.38 3.38 0 0 0-.601.329c.319-.064.836-.232.601-.329zM45.443 77.313c.014.011.029.022.039.033.211-.041.11-.044-.039-.033z"/><path d="M45.443 77.313c-.127-.113-.352-.218-.55-.324.061.131.151.25.279.364.07-.02.175-.032.271-.04zM40.032 70.469c.863.196 1.542 1.037.494 1.44.535.7 3.463.912 5.163.692-.375-.093-.723-.162-1.119-.883-.516.139-1.374 1.147-2.058.48-.291-.886.434-.595.968-.909-1.143.133-1.395-1.317-3.029-1.4l.443.784c-.249-.034-.602-.352-.862-.204zM45.367 73.75l.056.268c.21-.25.596-.379 1.352-.624-.34-.51-.645-.664-.928-.749l-.369 1.215-.111-.11zM45.208 75.096c-.908-.371-1.19-1.033-2.282-.887-.077.718.687.653 1.014 1.147-.01-1.162.46.426 1.157-.272.116.252.127.456.13.644.154-.172.334-.336.546-.482l-.065.013.004.006-.017-.004c-.127.024-.201.025-.122-.015-.013-.006-.015-.02-.016-.026a2.573 2.573 0 0 1-.346-.123c.259-.282.255 0 .346.123l.137.041.013-.002-.286-1.242c-.179.218-.215.532-.213 1.079zM39.775 79.966c.087-.028.156-.02.225-.015-.109-.09-.186-.126-.225.015zM40.401 79.529c.126.098.503.206.376.488-.312.221-.46-.049-.777-.066.241.19.62.689 1.147.181l-.122-.1c.381-.466 1.622-1.008 1.747-.913-.873.077-1.497.159-2.371.41zM42.484 77.007l-.359-.899-.443.152-.443.167.498.041c-.255.478.372.439.747.539zM46.361 72.554l.972.33-1.294-.868zM46.492 71.162l.863.202-.463-.466zM42.081 20.739c-.006-.002.081-.012.115-.042l.046-.042a.139.139 0 0 1 .023.043c-.081-.07-.07.071-.184.041zM41.916 20.964l-.063-.061-.156-.151.219.212zM55.86 42.008c.928-.266 2.317-.593 1.333-.754l-.98-.06c.086.406-.095.639-.353.814zM50.516 21.958l-.314.067c.31.147.593.301.856.45a10.858 10.858 0 0 0-.542-.517zM46.558 21.28c-.007.017.635-.121.641-.139l-.641.139zM38.154 34.657l.174.462.192.455c.07-.033-.167-.474-.366-.917zM49.189 59.447c.484-.228.739-.479.875-.719-.684.264-1.594.335-.875.719zM33.035 15.933c-.017.391.096.605.292.692.01-.372-.047-.64-.292-.692zM50.433 57.616c-.114.04-.183.095-.285.137.061.327.09.66-.084.974.507-.198.884-.519.369-1.111zM38.213 66.409c-.036.044-.043.088-.085.13.13-.025.124-.071.085-.13zM29.744 79.245c-.049-.097-.036-.243-.036-.382-.072.061-.076.172.036.382zM47.607 66.547c.014.211.099.056 0 0zM43.646 66.812a1.159 1.159 0 0 0-.449-.175c.229.061.369.118.449.175zM45.534 53.204l.01-.022c-.206.013-.167.012-.01.022zM47.113 66.743c.13-.048.243-.106.336-.186a1.099 1.099 0 0 0-.336.186zM47.568 66.802c-.056.055-.089.102-.126.145.154.056.257.057.126-.145z"/><path d="M47.627 66.259c-.014.117-.084.211-.178.297.074-.023.132-.027.159-.009 0-.061.001-.148.019-.288zM33.083 45.989c-.029.017-.049.038-.089.057.404.265.338.147.089-.057zM46.465 34.773l.049-.001.028-.023zM45.611 34.407h.003c.011.033-.094-.284-.049-.15h.026l.029.001.057.002.108.005.194.014c.12.011.221.026.306.043.17.036.276.084.338.143.139.155.025.18-.08.282 0 0 .669-.207 1.33-.448.661-.239 1.312-.513 1.312-.513l-1.811.235-1.245.162-.41.053a4.42 4.42 0 0 0-.115.015l-.03.004-.005.001.049.15h-.003l-.004.001z"/><path d="M42.675 22.238c-.009-.027.61-.924.624-.884.778.08 1.13.388 1.401.554.269.159.439.085.893-.506-1.46.41-1.786-.311-1.929-.539-.081-.139-.115-.15-.336-.122a9.9 9.9 0 0 1-.731.109l-.631.064.1-.011.046-.004-.129.006-.229.01.31-.013-.314.013-.168-.003a.976.976 0 0 1-.117-.006l.005.001-.211-.036-.047-.01-.003-.001-.062.291-.001-.001-.001-.001-.005-.005-.009-.01-.018-.02-.062-.081a.538.538 0 0 1-.078-.167.417.417 0 0 1 .076-.355c.04-.041.082-.079.127-.114.04-.004.077.034.117.05l.245.133c.168.086.354.166.54.156 0 0-.199.055-.418.043a1.176 1.176 0 0 1-.316-.184c.058.003.499.298.459.264-.014.014-.196-.154-.172-.173l.064.063c-.362-.333-.755-.955-.863-1.266.348.267.148.296.405.571 0 0-.088-.182-.126-.367-.042-.184-.067-.388-.067-.388.489.63.686 1.379.617 1.316.247.288.412.502.522.653l.116.163.079.11-.102-.17c-.202-.295-.306-.813.173-.045l.008.198a.948.948 0 0 0 .053.195c.193.379.308.677.331.724.052.114.101.235.143.364l.13.411c.035.103.073.301.119.495-.049-.21-.191-.902-.453-1.556-.227-.658-.551-1.308-.544-1.72.169.21.235.271.316-.351.21 1.059.286.765.508.689l.104 1.427c.12-.428.103-1.139.251-1.793.313.161.276 1.252.217 2.193.113.133.14-.314.148-.821.013-.511-.009-1.081.297-1.182.291.615.578.071 1.385-.517.029.556-.406.775-.495 1.184 0 0 .157-.24.334-.475l.356-.454c.032.052-.156.347-.248.497.359-.291.724-1.252 1.237-1.365.493-.618.372.003.124.53-.215.552-.635.884.178.477-.295.239-.785.468-1.18.745.431-.272.716-.336.944-.392.274-.049.572-.149 1.391-.081l-.132.077a3.519 3.519 0 0 1-.772.313c.522-.093 1.107-.16 1.701-.035.574.12 1.145.445 1.616.852.554-.125 1.001-.299 1.232-.431 0 0 .187.332.317.686.13.349.247.731.247.731-.262.109-.705-.16-1.254-.469l.293.288c-.631.282-1.331-.196-2.075-.583a12.8 12.8 0 0 0 .927-.155c-.791-.4-1.77-.621-2.598-.661.158.046.315.123.365.222a2.18 2.18 0 0 0-.572-.127c-.154-.003.146.087.485.253l-.792-.096-.785-.125.613.167c.015-.006-.292.102-.575.171l-.589.13.244.213c.079.076.207.134.127.286-.113.265.053.501.166.738.239.472.517.911.771 1.311.514.808.89 1.401.66 2.01-.964-.447-1.975-.323-3.431-.502.917-.125.953-.415.886-.838-.071-.413-.239-.988.294-1.429-.544.446-1.165.148-1.316-.062 0 0 .027.565.116 1.048.086.487.208.91.208.91-1.195-.217-1.12.192-1.809.583 1.259-.044 1.491.284 1.493.704-.008.414-.157 1.045.228 1.412-.368.042-.764.03-1.023-.125-.258-.151-.409-.469-.191-.92-.979.491-.333.909.394 1.199.724.301 1.52.538 1.038.991-.121-.166-.056-.278-.469-.316.846.417 1.09 1.167.199 1.156l-.137-.139c.13.254.351.543.679.892.353.331.755.83 1.263 1.225.124.1.251.198.378.288l.095.067c.016.01.031.023.049.031l.105-.018.207-.035.102-.017.05-.008c.124-.054-.274.12.279-.121l-.003.001-.006.003-.013.006-.025.011-.187.079.039-.016.09-.009a.89.89 0 0 1 .219.033c.326.095.75.235 1.219.143-.23.081-2.25.457-2.64.487 0 0 .42.022 1.071.109.326.044.709.093 1.117.13h.007c-.009-.03.024.068-.02-.068H48.306l.037.001.075.001.151.003.308.005.628.011c.849.012 1.662.017 2.306.114.643.088 1.059.17 1.059.17-.819.055-2.142.479-3.406.743-.631.136-1.245.242-1.763.292a9.055 9.055 0 0 1-1.186.029c-.207.131-.426.373.182.636.22-.12 2.296-.678 2.468-.489-.866.422-1.09.512-1.296.642-.208.12-.357.263-1.132.571.346-.203 2.914-.062 2.826.379-.38-.067-2.526-.032-2.787-.149 0 0 .619.193 1.241.45.61.254 1.214.568 1.214.568-.434-.287-2.113-.225-2.839-.142.5-.027-.134.68.054.956l.638-.262c-.549.881 3.253 1.788 2.786 2.998-.453-.3-2.976-1.206-3.436-.754 1.169.585 5.535 3.053 6.038 4.571l-.77-.037.462 1.151c-.8-.614-2.014-1.649-3.203-2.654-1.189-1.009-2.357-1.972-2.998-2.571-.692.237-.858-.149-1.003.481-.724-.012-.874-.66-.861-.848l-.443.618-.455.615c1.442.444 1.001 1.62 2.183 2.023l-.422-1.078-.45-1.044c1.446.412 3.685 2.371 2.993 3.394-.665.055-2.405-1.187-2.881-1.344.433.321.515 1.374.134 1.335l-.561-.754c-.76.374 1.446 1.726-.182 1.91-.193.213-2.099.012-1.299.399 1.755.243 6.678 2.205 7.751 2.98-.146.046-2.07.704-2.972.672-1.417-.087-2.696-1.859-3.912-1.941.373.173.743.605.853.765-.437.141-1.128-.597-1.201.073 1.367.673-.615 1.181 1.075.768.168.748-.542.509-.755 1.235 1.001.138 2.883 1.825 3.093 2.531-.353-.166-.874-.208-1.112-.221-.555 1.138-1.405 1.632-1.777 2.705-.385-.013-.98.363-1.525-.072.202.241.639.554.554.902-1.465.202.068-.808-1.594-.842.823.329.845 1.261 1.185 1.936 1.339.322.656-1.031.296-1.683 1.784.602 3.345 2.132 3.724 3.611.097 1.086-1.29-.024-1.098.23-.942 1.609 2.55 2.581.805 3.478-1.316.157-2.276-.729-3.136-.884-.18-.9 1.113-.898 1.248-1.414l-.758.43c-.289-.37-.397-.977.031-1.129-1.198.117-1.249 2.827-2.552 3.982.329.358.63.875 1.148.785l-.056-.471c1.031-.137 1.107 1.105 1.675.691.522.716 1.47 1.449.832 2.032l-1.373-.04c.393.027.866-.359.494-.633.54.385-1.99.86-.255 1.538 0 0 1.011-.561 1.008-.51.628.622 1.964 1.768 1.402 2.523 1.394-.186-.122-.204 1.531-.603-1.012.133-.911-.415-.844-.941.034-.262.06-.529-.055-.666-.12-.074-.375-.149-.909-.013.942-.164 1.151-.25 1.329-.408.183-.147.347-.327 1.153-.41-.448-.072-.887.017-.576-.383a2.825 2.825 0 0 1-.369-.181c.013-.011.023-.014.039-.024l-.057.014c-.062-.034-.076-.038-.019.006a2.157 2.157 0 0 1-.723.097c-.975-.433-.752-1.254-1.182-1.686.297-.261.466.269.978.224l-.655-.643c.979.227 1.846-.342 2.19.543l.24-.627c.659-.212 1.05-.667.773-1.148.319-.25-.749-1.207-.113-.652l-.172-1.339.239.077c.543-1.109-.668-2.949 1.538-3.854-.1-.512-.225-1.157.207-1.577l.86.159c-.147-.527 1.264-1.002.488-1.503 1.185.166 1.501-.312 1.628-.939.131-.631.069-1.41.435-1.751l-1.033-.466c.3-.556.242-1.242.133-2.169l-.943-.339c-.492-.956 1.353-1.394 1.681-2.526.329.211.126.45-.165.558 1.307-.224 1.196-1.087.986-1.948-.206-.871-.519-1.713.463-2.098-.249-.426-.059-.618.247-.784-.007.031.004.065.026.096a.387.387 0 0 0 .052-.132c.206-.101.446-.194.645-.325-.273.084-.506.159-.628.251.055-.257.042-.695-.106-1.145l1.087.08c-.006-.037.004-.064-.007-.104.483-.322-.422-.433-1.258-.405a2.227 2.227 0 0 0-.52-.661c1.775.005-.375-1.135 1.513-1.333-.822-.388-.479-2.342-2.416-2.542.246-.015.363-.14.382.085.219-.457.402-.97-.164-1.34l1.333-.35s-.491-.231-.979-.423a16.437 16.437 0 0 0-.995-.352c.709-.735 1.052-1.295 2.271-.74-.499-.38-.821-.64-1.035-.833a3.316 3.316 0 0 1-.413-.284 1.951 1.951 0 0 0-.167-.121l-.104-.061-.015-.008-.007-.004-.002-.001h-.001l-.031-.093-.003-.001-.028-.005-.061-.009c-.174-.024-.432-.053-.884-.181l.864-.195c-.061-.147-.431-.366-.757-.655-.354-.353-.535-.426-.228-.626.317-.284.404-.541.333-.757-.076-.212-.337-.337-.599-.512-.13-.087-.265-.185-.344-.327a.573.573 0 0 1 .004-.495c.163-.349.669-.591 1.285-.716-1.592-.08-1.154-.152-.614-.213.539-.062 1.126-.075.065-.306.717.077 1.163.081 1.629.295-.16-.215.217-.283.401-.353.095-.038.148-.082.087-.179-.02-.07-.104-.065-.223-.095-.073.014-.094-.109-.143-.2a3.486 3.486 0 0 0-.175-.297c.642.079.68.694 1.079.696-.061-.186-.273-.707.137-.727.408-.024.379.425.508.795.334-.837.019-1.562-.572-2.036-.592-.484-1.46-.79-2.302-1.078.989-.522.99-1.078-.153-1.726.596-.203 1.245-.744 1.378.369.034-.151.122-.458.201-.847a6.03 6.03 0 0 0 .049-1.36c-.076-.474-.201-.927-.422-1.217-.231-.29-.515-.42-.853-.307.288-.323-.249-.848-.474-.898-.604-1.2-.622-1.394-1.605-2.198 0 0 .093.395.087.401-.78.438-.998.383-1.153.121-.146-.264-.267-.674-.689-.853l.118-.134c-.555-1.07-.884-1.03-1.12-1.004-.265.018-.444.026-1.186-.974l-.226 1.05c-.449 1.073-.674.638-1.059.015-.368-.619-.965-1.416-1.573-1.025l.171.323.16.329c-.327.344-.634-.443-1.073-1.387-.428-.913-.996-1.968-1.401-2.069-.187-.183.244-.353.476-.501-1.089-.614-1.157-.227-1.08.322.066.568.206 1.295-.458 1.579-.407-.694.061-1.972-1.044-1.907-.345-.225-1.018.54-1.701 1.363-.702.8-1.352 1.629-2.428 1.482.641.281 1.181.624.84 1.367-.189.211-.508.32-.894.423-.381.11-.818.248-1.231.431-.802.387-1.445 1.104-.877 2.025-.213.061-.377.046-.512-.014-.18 1.43-.168 2.915.788 3.637-.936.097-1.322.57-1.349 1.142-.029.574.304 1.179.658 1.636.719.922 1.449 1.355-.179 1.894l.535 1.125-.344.059a.377.377 0 0 0-.005.152c.105.609.809.516 1.55.537.919.007.247-.002.16-.004 1.586.031 1.643.294 1.569.201-.014-.013-.22-.172-.31-.308a3.298 3.298 0 0 1-.285-.348l-.293-.438a6.843 6.843 0 0 1-.354-.582l-.156-.302-.067-.116c-.025-.043-.048-.085-.038-.063l.008.027c.012.079.074.168.057.305-.002.265-.003.624-.162 1.137l-.275-.504-.281-.47c-.095.403-.965.229-2.014.436-1.034.181-2.261.79-2.549 2.031-.076-.104-.201-.287-.182-.519-.405 1.319-1.833 1.973-2.855 3.015-1.015 1.041-1.448 2.077.367 3.061 0 0 .123.415.286.809l.328.768c.351-.802.757-.609 1.183-.322.425.294.877.663 1.272.453.097.552-1.47 1.265-1.556.495l.219-.081c-.998-.34-1.302.137-1.46.689-.181.547-.212 1.146-.932 1.093-.003 2.877-1.201 5.527-1.28 8.198l1.632-.309-.088.915c-.379.243-1.274.336-1.214-.323-.923.354.788 1.096 1.143 1.108-.648 1.292-1.911-.478-1.944-.084l.125.536.192-.124c.674.426 1.382.452 1.316 1.241-.317.506-1.001.28-1.061.478-.115.001-.166.07-.036.304l-.105 1.171 1.274-.507c.65.493-.029 1.09 1.411.508-2.241.861-.614 4.347-1.264 4.867.988.657 1.025 1.361.987 2.25.25-.243 1.683-.492 1.571.269-3.005.007-1.168 1.473-3.23 2.371.671-.403.832.225 1.075.769.253.544.571.998 1.491.356-.117.718-1.097.235-1.688.894 1.445 1.411.129 3.729 1.011 5.372.384-.081.879-.539 1.547-.33l-.814.722-.821.707c.274.269 2.273-.292 1.111.647.298-.166.746-.42.926-.232-.252.928-.213 1.728-.08 2.481.128.722.38 1.604.553 2.411.349 1.617.368 3.454-1.534 4.694.779-.319.852-.055.845.23.202-.17.967.092 1.501.105 0 0-.393.295-.803.529l-.558.305a3.19 3.19 0 0 1-.258.112c.706.222.678.534.622.761-.043.266-.114.397.531.727l-.139-.362c.717.445 1.637.675 2.664.677 1.015.026 2.147-.147 3.172.148-.829-.641-.038-1.01.64-1.574.675-.541 1.23-1.258-.096-1.981.447-.276.681.281 1.181.145-.908-.387-1.074-.782-.67-1.523l.227.083c-.254-2.081.582-2.975.909-5.371l-1.028.302c.08-.503.389-.651.62-.918-1.66-.333.096 1.383-1.728 1.098 1.032-.446.928-1.299.809-2.211-.119-.882-.232-1.703.899-2.213-.175-.761-1.134.512-1.305-.238l.589-.358-.873.033c.012-.509.743-.958 1.279-1.127-.032.132.241.279.321.396.582-.839-.733-1.632-.544-1.886l-.205.769c-.566-.859-.799-1.863-1.072-2.775-.276-.918-.584-1.725-1.378-2.357l-.473.201c-1.108-1.069.409-.924-.172-2.364l.123.042c-.527-.246-.811-.622-.79-1.034.615.321 1.07-.798 1.758-.365-1.107-1.373-.835-.651-2.759-1.489l.811-.284c-.768-.281-1.167-.283-1.428-1.025.746.573 1.232-.553 2.21.076 1.716-1.647-1.948-2.235.668-3.067-2.321-.631-1.217 1.41-1.721 1.027-.732.377-1.743-.523-1.528-1.035.031-.513 2.896-.964 2.821-2.214-.006.126.165.13.159.255.572-.482-.81-.906.126-1.501-1.392-.303.069-.752-1.698-.824l.426 1.157c-.476-.645-2.551-1.25-1.554-2.356.355.083.824.406 1.09.627.518-.321-.347-.612.188-.945 1.766.087.391 1.413 1.75 2.097.743-.345-1.297-1.311.624-.978-2.443-.489.298-1.236-1.559-2.088l1.059.059c-.165-.135-.663-.418-.636-.666l1.372.456c-1.171-.697 1.034-1.318.404-1.981.017 1.381-1.279.294-2.06.874-1.398-1.741 2.78-.95 2.311-2.863.143.261-.657.958-1.14.542.225-.36.645-.832 1.206-1.04-.186-1.272-1.096.165-1.733-.392 1.305-.396-.507-.639-.902-1.214l1.077.031c.752-.944-2.242-.446-1.287-1.33 0 0 .345.16.707.306l.72.275-.168-.238-.152-.244 1.193.287c-.825-.559-.55-.71-.108-.968-.751-.132-1.86-.645-1.721-1.096.697-.02.895.5.96-.027.572.395 1.299.785.306.631.321.148.597.34.916.472.391.022.461-.084.468-.202-.016-.101-.113-.229-.086-.279-.052.017-.135.028-.282-.016 0 0-.274-.258-.533-.583a6.646 6.646 0 0 1-.458-.674c.388.148.599.414.833.649-.051-.16-.381-.507-.346-.73.646.598 1.345 1.196 1.597 1.534 0 0-.149-.191-.29-.426a5.3 5.3 0 0 1-.233-.473c.307.237.858.638 1.045.908.214.156-.027-.211-.154-.608-.15-.404-.164-.825.11-.57-.057-.159-.096-.321-.079-.461l.049.015c.138.019.499-.008.83-.032.194-.027.371-.046.582-.093.249-.072.449-.12.736-.249.316-.154.553-.261.959-.564.193-.146.339-.257.554-.461.212-.204.415-.424.603-.657.855-1.015 1.404-2.662 1.272-3.801l1.663-2.044c-.063-.311-.144-.429-.231-.497a.306.306 0 0 0-.288-.05c-.206.065-.44.235-.688.426-.249.193-.512.322-.759.213-.247-.121-.484-.434-.71-.926-.666-1.116.941-.779 1.464-1.174a.346.346 0 0 0 .1-.132c-.474-.339-1.2-.743-1.672-1.109-.472-.369-.701-.778-.195-1.301.349.138.193.402.401.664zm-.452-1.814c-.003.254.169.923-.106.351-.425-1.161-.089-.646.106-.351zm5.984 2.208c-.303-.224-.1-.293.354-.359.043.152-.046.298-.354.359zm-.756 41.329l-.045-.034c.526-.242.322-.159.045.034zm-.694.625c.122.122.266.159.419.172-.243-.133-.213-.307-.072-.483-.285-.034-.51.013-.347.311zM25.882 49.003l.276-.189c.32.403.038.294-.276.189z"/><path d="M47.021 21.339c.181 0 .381.012.583.025a1.326 1.326 0 0 0-.583-.025zM38.095 34.486c-.007-.008-.008-.004-.014-.009l.073.181-.059-.172zM42.926 48.185c.217-.119.441-.145.655-.132-.238-.11-.478-.115-.655.132zM47.771 68.564c-.002.022-.048-.238-.106-.329l-.118-.189c.033.17-.209.193-.398.383.251.009.626-.094.622.135zM40.299 72.889c.112.11-.022.18.092.29l.495.078c.041-.364-.304-.695-.587-.368zM44.142 68.801c-.906-.057-.648.368-.546.829.001-.027-.003-.053.012-.077 1.235.315.892-.226.534-.752zM43.611 69.735c.022.139.027.281-.039.403.495.131.132-.146.039-.403zM47.059 65.694c-.267.093 1.093.396.712.384 1.066.479-1.065-1.375-.712-.384zM41.136 68.771l1.13-.004-.868-.344zM42.401 65.744l-.431.56a.447.447 0 0 1 .349.234c.095-.374.412-.738.082-.794zM42.32 66.538c-.056.193-.063.386.101.52.005-.108.006-.34-.101-.52zM40.906 67.848l.253-.169.136-.452zM44.725 59.238l-.053-.784c-.335-.2-.622-.098-.57.205.191.252.237.553.623.579zM41.101 60.22c.285-.107.523-.034.906-.013l-1.295-.494.389.507zM41.521 58.133c-.335-.201-.68-1.343-.908-.475.333.198.384.982.908.475zM46.867 48.611l-.053.174 2.109.852zM44.786 38.513c-.685.477 1.327.492.508.907.477.303.674-.346 1.077-.064-.439-.557-.093-.662-1.585-.843zM46.371 39.355c.069.089.157.186.278.302a1.101 1.101 0 0 0-.278-.302zM28.326 80.174s-.127.034-.254.029l-.248-.022s.755.176.759.161l-.257-.168zM29.758 81.166l-1.349-.541.564.343.554.366c-.03-.092-.092-.254.231-.168zM43.192 23.195l-.036-.344c-.063-.378-.094-.4-.146-.446l.098.392.084.398zM42.471 21.158l-.066-.147.062.137.023.05c-.027.008-.137-.006-.188-.007l-.208-.013a35.503 35.503 0 0 0 .403.063c.025-.001.001-.014.004-.02-.016-.031-.03-.063-.03-.063zM46.109 24.343c-.009-.21-.11-.38-.215-.597-.111-.241-.217-.483-.248-.715.128.257.112.526.05.755-.209.515-.76.831.413.557z"/></g><g fill="#fff"><path d="M48.905 29.018c.132.032-.242-.824-.286-.988-.107.267.38 1.211.286.988zM48.094 31.716l-.149-.356.094.484.106.478-.051-.606zM46.404 32.848c1.184 1.071.455-.709 1.102-.448l.244.274-.278-.584-.268-.59c-.306.43-.25 1.445-.8 1.348zM42.736 31.76c.579.268.14.686.463-.278-.082-.009-.121-.024-.176-.035a1.507 1.507 0 0 1-.287.313zM43.024 31.447c.233-.343-.581-.121 0 0zM42.226 33.311l-.11-.384-.096-.396c-.378-.084-.716.376-.854.066-.033.731.377.733 1.06.714zM43.052 34.266l-.1-.333c-.157-.027-.241.021.1.333zM42.782 33.192l.079.376.092.365c.267.042.724.28-.042-.312.399.257.041-.042-.129-.429zM43.156 33.032c.458-.067.819-.201 1.019.482.311-.82-.626-1.454-1.019-.482zM47.429 34.141l.444.232-.222-.508c.111.25-.563-.089-.222.276zM40.445 36.2c.333.074.912-.002 1.346.039l-.316-.405c-.269.135-.537.429-1.03.366zM41.791 36.238s.128.132.258.258l.263.244c.111-.348-.148-.462-.521-.502zM44.64 35.047s-.208-.278-.393-.588c-.188-.307-.352-.644-.352-.644s.148.375.326.714c.17.344.388.645.388.645l.031-.127zM40.269 37.902l-.778-.256.587.228.589.21-.398-.182zM40.421 38.809c-.656-.121-1.091.255-1.497.115.125.266.699.397 1.21.516-.292-.143-.236-.329.287-.631zM40.884 39.637c-.161-.066-.447-.126-.75-.197.158.076.379.145.75.197zM42.081 37.401c-.206.015-.746.037-.979.244l.958-.106.021-.138zM42.092 37.537l-.032.003-.061.301c.009-.039.035-.131.093-.304zM42.087 37.366l-.006.035c.093-.008.126-.013.006-.035zM43.472 35.83c.453.393.934.891 1.815.669-.605-.291-1.118-.133-1.815-.669zM43.289 37.273l.258-.36c-.251-.026-.627.007-.874-.139l.306.257.31.242zM43.579 37.468s-.292-.188-.289-.195l-.091.131.38.064zM41.735 39.062c.423.098.469.228.55.373.174-.18.259-.343.247-.509-.3-.01-.843-.055-.797.136zM41.971 38.355l.056.03c.081-.02.106-.036-.056-.03zM42.428 40.778l.17-.044-.164.018-.006.026zM42.707 38.885c.178-.143-.056-.209-.354-.278.1.099.166.203.178.318.137.004.226 0 .176-.04zM41.37 40.013c.193-.083.351-.157.499-.254-.294.098-.75.257-.499.254zM41.764 38.439l-.043-.021c-.204.052-.102.044.043.021zM41.764 38.439c.142.07.378.12.589.168a1.072 1.072 0 0 0-.326-.222 2.504 2.504 0 0 1-.263.054zM48.544 40.265c-.877.116-1.72-.008-.808-.334-.684-.107-3.554.387-5.137.804.383-.046.736-.091 1.286.058.467-.149 1.052-.638 1.87-.562.49.218-.278.271-.721.477 1.076-.266 1.637.118 3.231-.18l-.597-.151c.246-.04.657-.015.876-.112z"/><path d="M42.628 40.27l-.119-.089c-.141.134-.481.262-1.149.508.452.105.781.092 1.075.063l.06-.502.133.02z"/><path d="M42.452 39.718c.966-.007 1.4.171 2.418-.079-.098-.268-.818-.119-1.251-.264.28.488-.546-.102-1.058.328a.578.578 0 0 1-.277-.268 2.51 2.51 0 0 1-.415.325l.06-.019-.006-.002.017-.001c.117-.036.188-.05.121-.016.014 0 .022.009.022.009.134-.009.251-.011.364-.011-.182.168-.247.053-.364.011l-.143.007-.012.003c-.002.017.581.441.581.441.121-.121.078-.239-.057-.464zM47.259 37.169c-.084 0-.153-.012-.221-.022.112.047.19.069.221.022zM46.661 37.268c-.128-.05-.506-.133-.394-.239.3-.056.455.076.771.118-.246-.092-.63-.375-1.141-.21l.125.058c-.351.139-1.581.348-1.709.302.87 0 1.49-.006 2.348-.029zM44.738 38.368l.487.401.823-.243-.499.03c.189-.232-.425-.167-.811-.188zM41.961 40.886l-1.014.087 1.451.022zM42.15 41.355l-.877.116.541.015zM59.151 57.718l-.175.226a.74.74 0 0 0 .175-.226zM60.096 57.898l.067-.43c-.066.234-.103.409-.067.43zM45.775 54.35c-.517.723-1.315 1.825-.585 1.126l.688-.713c-.219-.016-.207-.192-.103-.413zM56.092 53.359l-.007-.298-.204.943.211-.645zM56.578 49.282l.047.628a7.167 7.167 0 0 0-.047-.628zM52.458 56.015l-.409.302-.417.294c.326.266.496-.242.826-.596zM43.021 45.606c-.353.193-.494.33-.527.436.526-.254 1.334-.502.527-.436zM60.882 47.582a2.873 2.873 0 0 0-.131.574c.063-.157.108-.336.131-.574zM42.562 46.461c.091-.041.136-.075.213-.114-.179-.083-.323-.168-.281-.305-.392.187-.621.378.068.419zM47.5 38.682l.112-.04c-.132.014-.137.026-.112.04zM55.777 32.273c.085.023.128.111.185.185.039-.066 0-.134-.185-.185zM41.922 42.912c-.073-.079-.11-.001 0 0zM45.68 42.057c.11.006.249.004.472-.02-.235.02-.383.025-.472.02zM48.674 46.391l-.001.008c.182-.064.147-.052.001-.008zM42.345 42.734a1.19 1.19 0 0 0-.274.142 1.48 1.48 0 0 0 .274-.142zM41.891 42.802c.04-.033.06-.058.085-.083-.162.009-.261.029-.085.083z"/><path d="M41.985 43.028c-.02-.048.021-.099.085-.152a.435.435 0 0 1-.149.036.44.44 0 0 1 .064.116zM50.682 45.944l.084-.041c-.414-.055-.344-.011-.084.041zM54.364 48.541a.999.999 0 0 1-.035.04l-.016.034.051-.074zM54.926 47.974c-.786 1.078-.739.901-.612.641L52.59 51.19l1.185-1.593 1.151-1.623z"/><path d="M56.551 57.391l.053.472.065.474c-.905 1.222-1.166.613-1.144 1.91 1.016-2.838 1.775.2 2.497-2.77l.094.674c-.061-.045-.109.129-.17.084.174 1.521.786-2.064 1.187-1.566.134.256.199.71.019 1.048l.508-.682c.106.076.014.593-.097.52.013.01.615-.176.615-.176l-.014.088c.134-.468.382-1.18.492-1.483.101.445-.097.312-.095.692l.361-.703a.672.672 0 0 1 .003.1l-1.008-6.02c-.074-.137-.064-.119 0 0l.96 6.681c-.085.436-.274.726-.413.638.019 1.702.135 1.273.303.879l-.849-8.198a11.827 11.827 0 0 1-.69-1.526l-.138-.397-.206-.513c-.015-.014.181.417.282.738.116.336.255.664.255.664-.292-.795-.836-2.039-1.353-3.872.099.254.325 1.132.549 1.744l.212.583c.085.232.196.537.239.706-.104-.211-.105-.315-.013.29-.312-1.031-.288-.764-.345-.682l-.359-1.384c.024.418.198 1.124.286 1.763-.159-.105-.425-1.18-.651-2.086-.25-.181.521 1.704.316 2.022-.294-.496-.323.099-.454.989-.236-.461-.11-.867-.231-1.261l.037 1.146c-.039-.022-.079-.37-.1-.545-.009.448.208 1.412.114 1.82.076.784-.085.224-.218-.312-.141-.535-.234-1.049-.284-.145-.05-.401-.009-.88-.041-1.434-.158 1.197-.121.873-.377 2.485l-.068-.468-.053-.469c.052 1.077-.181 2.375-.534 3.45.014.521.04.969.067 1.185l-.244.396-.26.395c-.023-.233.089-.726.225-1.33l-.114.349c-.072-.518.13-1.361.309-2.179l.01.888c.185-.885.335-1.866.401-2.714-.03.168-.075.315-.117.397.042-.241.073-.455.081-.599.008-.152-.047.169-.13.543l.149-1.616-.093.644-.054-.501-.026-.504c-.317 1.163-.803 2.718-1.35 3.758-.22.424-.451.768-.667.953.499-1.184.63-1.943 1.086-3.355-.228.909.006.485.206.079.134-.264.256-.524.289-.406-.045-.157.143-.829.215-1.065a14.66 14.66 0 0 1-.625 1.357c.351-1.153.202-.867.297-1.348-.682 2.284-.718 1.508-1.121 2.184.294-.761.627-1.536.685-1.337.241-.864-.036-.2-.37.491-.325.691-.703 1.402-.485.663.047-.009.021.111.198-.27-.383.663-.38.062-.011-.577l.04-.004c-.104-.314-.598-.282-1.794 1.435l1.629-2.479s-1.014 1.463-2.135 2.821l-.832.989-.689.761-.686.722c.257-.316.579-.762.934-1.259l1.216-1.688c.842-1.151 1.648-2.193 2.003-2.556.11-.241.264-.512-.191-.081-.142.217-1.511 2.133-1.657 2.215 1.107-1.696.564-.947 1.535-2.372-.211.332-2.055 2.428-2.083 2.244.286-.299 1.812-2.067 2.021-2.262 0 0-.478.478-.974.932-.496.457-1.006.886-1.006.886.378-.294 1.58-1.675 2.09-2.252-.356.393-.052-.165-.265-.019l-.404.504c.186-.456-2.903 2.327-3.008 1.85.451-.29 2.632-2.065 2.839-2.376a46.344 46.344 0 0 1-3.167 2.157c-1.294.798-2.61 1.441-3.145 1.479l.58-.493-.437.054-.441.041c.891-.388 2.252-.98 3.564-1.663a41.631 41.631 0 0 0 3.253-1.878c.45-.436.714-.562.615-.612.57-.439.901-.589.943-.602l.155-.204.162-.191c-1.289.866-1.366.696-2.469 1.345.011.03 1.476-.571 1.464-.6-.638.444-1.562 1.037-2.332 1.421-.768.39-1.383.562-1.331.337.504-.368 2.395-1.296 2.831-1.57-.466.251-.955.3-.632.108l.752-.303c.485-.334-1.876.731-.611-.033.069-.099 1.754-.883.927-.541-1.587.699-6.461 2.91-7.688 3.272.08-.105 1.329-1.214 2.111-1.57 1.239-.553 3.089-.869 4.15-1.364a8.233 8.233 0 0 1-1.045.281c.316-.173 1.213-.385 1.004-.441-1.458.438.058-.299-1.245.321-.455-.022.261-.238.162-.377-.937.317-3.294.607-3.773.449a9.985 9.985 0 0 0 1.087-.28c.053-.446.697-.782.652-1.159.359-.093.773-.338 1.432-.359-.274-.012-.792.014-.844-.096 1.27-.403.238.222 1.777-.17-.876.116-1.248-.113-1.817-.21-1.349.231-.208.427.363.504-1.861.284-3.864.26-4.784-.074-.51-.291 1.19-.3.915-.328.252-.669-3.334-.167-2.043-.848 1.172-.336 2.375-.271 3.229-.411.483.217-.71.497-.642.676l.539-.29c.405.041.727.184.394.322 1.05-.295.089-1.063 1.027-1.652-.413-.04-.841-.14-1.312-.017l.182.132c-.947.244-1.362-.132-1.791.107-.698-.127-1.789-.213-1.274-.549l1.352-.216c-.395.054-.788.276-.364.304-.616-.039 1.789-.649-.007-.548l-.917.307c-.707-.108-2.177-.137-1.779-.406-1.325.286.161.031-1.386.395 1.933-.401-.01.568 2.013.088-1.8.389-.736.382-2.267.787.45-.059.85-.178.653.041l.4-.002-.032.017.052-.017c.068.001.082 0 .017-.006.191-.069.422-.134.672-.178 1.042-.025 1.046.311 1.592.362-.201.146-.524.006-.994.126l.816.079c-.994.126-1.619.517-2.235.283l-.015.273c-.543.215-.739.469-.305.563-.201.157 1.142.207.348.182l.671.38-.248.034c-.069.48 1.763.708.06 1.533.279.131.609.244.379.576l-.843.211c.337.164-.721.856.19.779-1.116.372-1.141.862-.924 1.233.216.393.676.709.567 1.049l1.073-.366c.046.374.464.597 1.031.812l.905-.439c.861-.043-.325 1.142.019 1.637-.348.162-.323-.028-.162-.235-.849.88-.314 1.046.254 1.082.577.048 1.174-.021.669.747.367-.096.319.073.179.325-.009-.011-.031-.009-.06 0-.003.022.008.044.022.062-.098.167-.216.357-.297.527.152-.215.275-.397.318-.501.08.086.272.157.557.129l-.772.785c.019.003.023.015.047.015-.192.417.461-.234 1.016-.854.181-.052.382-.135.606-.268-1.196 1.319.657-.075-.55 1.387.702-.555 1.027.152 2.318-1.246-.158.191-.207.314-.27.268-.033.283-.048.576.388.263l-.801 1.126.705-.6.684-.616c-.35.812-.527 1.274-1.338 1.976 1.387-.967.729-.19 1.97-1.284l-.489.736c.159.075.977-.822.689-.146-.27.818.131 1.094.622 1.311.501.214 1.06.369 1.327 1.189.595-2.548.125 1.202.749-.765-.114.608-.054.969-.371 1.475l.097-.064c.579-.341.586 1.022 1.264-.582-.05.618-.289.9-.302 1.266.074-.132.282-.534.277-.164-.003.366-.175.513-.322.78.658-.088.976-1.99 1.254-3.777.126.836.3.713.573-.47.023.582.133 1.19-.205 1.412.149.089 1.093.793 1.118-.641.052.357.243.081.283-.087.383.049.429.176.797-.006l-.122-.219c-.001-1.736.255-.418.526-.665l.015.177c.817 1.13.155-.619.978.675l-.218-1.05c-.367-2.271.742 1.248.93.307l-.249-.574c-.018-.795 1.224 2.933 1.556 3.149.103.182.001.332-.031.493.99 1.143-.27-1.378.086-1.817.302.7.42 1.884.803 1.917.342.434.321-1.76 1.006-1.875l5.45-.918-7.217-8.156c-.036-.041-.064-.161-.077-.391-.005.587.005 1.173-.146 1.596-.217.186-.23-2.227-.584-.429.001-.16.015-.312.035-.457-.175.451-.504.726-.77 1.686.291-1.831.078-1.42-.208-.983-.264.432-.576.877-.052-.745l-.284.094.134-.322c-.023-.249-.385.487-.808 1.185.072-.225.244-.495.325-.654.139-.699.209-.506-.978.758l.654-.894c-.209.243.005-.153.203-.44.19-.302.391-.501-.152-.129l.387-.306c-.542.338-.019-.206.308-.513.314-.289.368-.374-1.439.515l-.494.13-.504.112c-.114.451-1.594.725-2.121 1.16-.309-.066.912-.926 1.179-.826l-.17.114c1.928-.838.486-.744 1.808-1.289-.173-.3-.049-.724.117-1.161.085-.189.162-.48.249-.61a.651.651 0 0 0 .151-.336l-1.592.379.057-.205c.371-.115 1.251-.265 1.205-.155.902-.206-.79-.046-1.146-.017.631-.318 1.897-.175 1.927-.26l-.126-.053-.19.041c-.668.011-1.371.115-1.309-.1.314-.17.998-.158 1.057-.218.114-.009.166-.031.037-.085l.114-.346-1.276.23c-.645-.107.044-.338-1.403-.07 2.229-.39.722-1.429 1.412-1.639-.954-.182-.951-.418-.854-.718-.266.089-1.71.218-1.546-.043 2.99-.09 1.267-.541 3.401-.892-1.411.282-.402-.717-2.403-.28.226-.232 1.115-.092 1.805-.309-1.193-.427.662-1.219.2-1.873-.39.031-.977.204-1.574.124l1.912-.572c-.208-.12-2.265.142-.942-.27-.324.076-.812.188-.947.115.865-.784.368-1.459.024-2.178-.171-.362-.308-.743-.254-1.253.058-.501.327-1.052.925-1.861-.575.541-.726.416-.838.264-.109.184-.885.405-1.357.65 0 0 .263-.308.491-.619l.453-.638c-1.387.574-.581-.47-1.886.284l.377-.053c-.839.385-1.589.923-2.366 1.46a22.426 22.426 0 0 1-2.469 1.58c.876-.4.376.018-.096.37-.461.361-.88.62.423.213-.38.215-.658.223-1.101.44.87-.308 1.086-.288.746-.019l-.219.063c.322.244-.507.662-1.008 1.238l1.032-.237c-.117.141-.437.224-.688.321 1.603-.15.028-.332 1.788-.544-2.082.531.117.904-2.289 1.366.013.19 1.206-.219 1.217-.021l-.649.136.851-.055c-.123.152-.937.315-1.494.384.062-.039-.167-.069-.218-.096-.754.248.316.438.071.527l.386-.236c.676.489-.132 1.27 1.253 1.754l.495-.079c.951.39-.521.396-.066.869l-.119-.011c.503.07.764.188.713.332-.591-.093-1.12.309-1.776.179 1.02.441.793.201 2.664.428l-.823.119c.753.071 1.149.057 1.379.304-.722-.171-1.251.24-2.202.055-1.775.656 1.873.705-.752 1.136 2.304.107 1.239-.573 1.738-.457.741-.165 1.723.102 1.505.29-.038.179-2.907.497-2.822.997.006-.051-.166-.04-.16-.091-.567.249.814.269-.094.693 1.391-.004-.031.406 1.722.194l-.236-.24-.232-.25c.499.294 2.561.214 1.652.818a4.18 4.18 0 0 1-1.115-.072c-.487.241.382.212-.107.465-1.754.312-.502-.585-1.874-.761-.719.298 1.362.505-.557.626 1.223-.06 1.173.097 1.063.312-.104.207-.273.48.689.464l-1.035.23c.182.035.707.054.719.186l-.697.064-.7.051c1.257.122-.802.923-.096 1.04-.207-.564 1.18-.503 1.852-.959 1.552.229-2.526 1.212-1.769 1.887-.181-.066.463-.622.985-.608-.16.216-.471.559-.95.858.425.502.99-.465 1.692-.45-1.138.643.594.084 1.06.147l-.998.407c-.36.915 2.138-.713 1.608.158l-.73.197-.735.185.486.141-1.139.454c.972-.044.83.163.709.676.628-.439 1.745-.88 1.916-.638-.434.517-.957.403-.562.744-.627.268-1.445.565-.689-.12-.316.156-.642.238-.956.385-.529.592.234.717.341.87a.382.382 0 0 1 .095-.322s.425-.025.838-.074l.828-.112c-.255.334-.574.451-.896.55.198.07.664-.133.879-.005-.728.487-1.429 1.063-2.001.988l.657.06.642.029c-.272.281-.478 1.034-.803 1.16-.006.375.546.34 1.065.289.532-.048 1.046-.121 1.092.36a.829.829 0 0 1 .474-.203c.182.263.244.686.433.985.187.303.502.444 1.097.078l-.182.792-.157.802c.357-.021.425-.54.574-1.051.143-.519.372-1.009.86-1.111.712-.246-.334 1.311-.302 1.798.3-.305.712-.787 1.037-1.028.319-.253.549-.269.605.416-.251.229-.309-.032-.493.032zm2.524-9.192l-.066-.22-.038-.122-.018-.055-.007-.022.023.059c.141.328.206.564.263.706l-.057-.158-.014-.039.023.054.04.093c.048.104.048.135.038.119-.024-.033-.117-.252-.187-.415zm-3.128 3.075c.096-.364.115-.188.123.226-.06.093-.111.055-.123-.226zM42.9 43.793l.054.001c-.4.201-.242.128-.054-.001zm.433-.359a1.537 1.537 0 0 0-.45.034c.272-.008.299.058.232.146.277-.053.467-.114.218-.18zm14.435.685l-.276.074c-.317-.089-.036-.079.276-.074z"/><path d="M56.526 49.754l-.04.593c.034-.183.051-.395.04-.593zM52.607 55.903c0-.012-.007-.015-.009-.025-.051.043-.097.09-.14.137l.149-.112zM52.993 46.193a5 5 0 0 1-.509.244c.249-.086.456-.176.509-.244zM41.338 42.129l.299.133c-.063-.075.167-.133.33-.196-.248.036-.604.113-.629.063zM47.722 39.592c-.134-.013-.021-.058-.158-.071l-.496.065c.048.122.458.157.654.006zM44.868 41.507c.898-.133.576-.209.392-.312.004.007.013.013.003.022-1.262.14-.827.209-.395.29zM45.225 41.17c-.047-.033-.078-.069-.039-.114-.506.058-.098.062.039.114zM42.692 43.116c.224-.088-1.156.088-.793.012-1.154.057 1.434.264.793-.012zM47.814 41.007l-1.103.196.905-.042zM47.129 42.181l.283-.253a.91.91 0 0 1-.387-.014c-.02.139-.223.309.104.267z"/><path d="M47.026 41.915c.016-.072-.017-.135-.204-.152.017.036.063.112.204.152zM48.185 41.263l-.224.095-.062.165zM47.186 44.574l.35.202c.383-.026.607-.122.444-.192-.272-.022-.431-.094-.794-.01zM50.14 43.49c-.224.09-.47.122-.831.2l1.378-.153-.547-.047zM50.544 44.122c.384-.024 1.136.18 1.014-.087-.381.027-.727-.159-1.014.087zM49.475 47.754l-.032-.048-2.128.82zM54.956 46.652c.396-.451-1.133.952-.633.399-.452.335-.407.456-.794.749.496-.316.254-.067 1.427-1.148zM53.529 47.8l-.301.195a2.75 2.75 0 0 0 .301-.195zM56.277 30.898a9.764 9.764 0 0 1 .256-.412l-.572.499.316-.087zM54.47 31.564l1.261-.82-1.263.696c.092-.024.268-.066.002.124zM58.116 45.44l.09.335c.106.362.124.386.161.437l-.251-.772zM58.588 59.066l.059.04.106-1.312zM54.35 59.552c.156.126.475-.06.629.061-.484.062-.018-1.578-.629-.061z"/></g><g fill="#fff"><path d="M60.545 49.42c-.04-.099-.338.787-.406.941.189-.152.485-1.17.406-.941zM62.515 47.8l-.111.369.213-.433.201-.438-.303.502zM63.92 47.993c-.04-1.594-.489.233-.709-.367l.008-.365-.298 1.252c.394-.142.83-.97.999-.52zM68.784 43.418l-.212.055.038-.011.174-.044z"/><path d="M68.61 43.463c-.18.05.117-.033 0 0zM69.551 43.258l-.295.055c.053-.011.317-.058.219-.04.339-.064.269-.05.076-.015z"/><path d="M69.355 43.286l.232-.035c.151-.027.204-.034-.232.035z"/><path d="M69.349 43.296l.163-.03.125-.024a3.45 3.45 0 0 1-.05.008l-.359.063c-.021.004-.004.002.076-.012l.223-.039a2.11 2.11 0 0 1-.178.034zM69.175 43.33l-.435.094.118-.021.036-.009-.027.006-.044.01c-.05.011-.07.017-.062.014l.414-.094zM64.03 46.347l-.09-.468-.12.527c.059-.261.202.44.21-.059zM71.325 43.014l-1.334.108.389-.016c.23-.023.445-.057.945-.092zM69.991 43.122l-.583.001c-.066.045.21.03.583-.001zM67.606 43.559l.609-.067c.303-.036.605-.093.605-.093s-.306.056-.614.089l-.62.059.02.012zM71.363 42.909l.784.003-1.185-.015zM71.225 42.784c.651.024 1.1-.021 1.5.004-.116-.036-.674-.078-1.174-.123.279.041.206.076-.326.119zM70.822 42.577c.154.027.433.058.729.087-.15-.024-.364-.053-.729-.087zM69.571 43.031c.205-.013.741-.038.967-.069l-.953.049-.014.02zM69.554 43.011l.032-.002a.405.405 0 0 1 .05-.051c-.008.006-.032.026-.082.053zM69.567 43.036l.004-.005c-.092.005-.125.008-.004.005zM68.445 43.324c-.531.034-1.11-.015-1.913.149.653-.034 1.112-.117 1.913-.149zM68.376 43.116l-.214.081c.251-.017.62-.049.883-.05l-.335-.01-.334-.021z"/><path d="M68.073 43.093l.303.023.08-.03zM69.925 42.7c-.414-.042-.449-.082-.515-.136-.19.052-.29.099-.289.15.3.011.838.037.804-.014zM69.66 42.862l-.056-.007c-.08.005-.106.009.056.007zM69.441 42.003l-.175.002.164.01.011-.012z"/><path d="M68.944 42.721c-.185.038.048.06.342.08-.096-.025-.158-.053-.165-.087-.136-.005-.226-.007-.177.007zM70.379 42.429l-.526.054c.301-.008.776-.037.526-.054zM69.87 42.843l.042.005c.205-.011.104-.009-.042-.005zM69.87 42.843l-.583-.043c.075.021.179.039.318.054.068-.002.17-.006.265-.011zM63.333 41.483c.883.057 1.692.246.738.327.655.157 3.567.213 5.196.195-.385-.023-.74-.04-1.257-.19-.485.017-1.143.218-1.936.073-.446-.191.319-.12.791-.178-1.105.013-1.59-.302-3.211-.351l.562.181c-.251-.011-.651-.087-.883-.057zM69.167 42.218l.106.051c.158-.045.512-.068 1.207-.101a6.547 6.547 0 0 0-1.049-.153l-.134.225-.13-.022zM69.27 42.459c-.961-.061-1.366-.191-2.408-.161.061.142.799.123 1.214.211-.232-.207.534.071 1.084-.052.162.042.212.076.25.107.119-.03.264-.057.444-.08l-.061.002.005.001-.017-.001c-.12.004-.192.004-.122-.002-.014-.001-.021-.004-.021-.004l-.363-.02c.2-.049.25.001.363.02l.143.007h.012l-.52-.217c-.136.035-.11.093-.003.189zM64.46 43.537c.083-.014.153-.019.221-.024-.117-.007-.198-.008-.221.024zM65.035 43.4c.134.008.519-.004.424.052-.285.066-.461.035-.777.06.258.018.698.052 1.157-.076l-.131-.004c.323-.113 1.517-.263 1.651-.255-.866.063-1.481.112-2.324.223zM66.895 42.855l-.472-.173-.833.086.499-.002c-.195.102.421.079.806.089zM69.919 42.005l1.014.077-1.426-.185zM69.811 41.734l.884.057-.53-.101zM70.43 56.54l.038.291a.68.68 0 0 0-.038-.291zM71.269 55.867l-.295-.32c.141.2.254.339.295.32zM65.278 47.827l.021-.041-.004.007a.27.27 0 0 1-.017.034zM69.031 48.8l.295-.012-.925-.105.63.117zM73.03 49.141l-.64.151a2.41 2.41 0 0 0 .64-.151zM65.32 59.552l-.071.997c.232-.025.09-.513.071-.997zM61.023 40.386c-.39.011-.563.051-.627.115.572-.003 1.406.103.627-.115zM64.64 49.404l.021.021-.021-.021zM60.333 40.807l.236-.01c-.142-.112-.253-.216-.173-.296-.424.002-.698.056-.063.306zM55.101 45.925c.047 0 .069-.008.122-.006-.127-.036-.138-.022-.122.006zM64.913 47.463c.033.053.001.095 0 .123.053.037.075-.002 0-.123zM65.164 47.264c-.032.063-.003.108 0 0zM64.831 43.431zM66.128 42.615l-.003.005c.19.012.154.009.003-.005zM65.099 46.823c.017.118.035.219.053.289a2.519 2.519 0 0 0-.053-.289zM65.12 47.281l-.033-.095c.001.161.008.263.033.095zM65.211 47.215c-.02.014-.039-.033-.058-.103.008.067.013.121.011.152.01-.014.024-.034.047-.049zM58.8 53.604l.057-.072c-.389.157-.308.156-.057.072zM71.704 43.231c-.011 0-.033.012-.048.016-.004.01-.008.023-.015.035l.063-.051z"/><path d="M72.584 43.236c-1.138.466-1.06.321-.943.045l-1.101.862-1.117.84s.77-.468 1.562-.903a49.193 49.193 0 0 1 1.599-.844z"/><path d="M67.745 58.331l.06.124a.495.495 0 0 0 .195.248l.388.317a3.45 3.45 0 0 1-.093.52c-.042.149-.094.276-.064.357l.031.397c.023.211.077.386.316.955a13.185 13.185 0 0 1-.221-.863c-.047-.218-.088-.364.016-.518.148-.285.402-.426.654-.578.505-.301.987-.661.255-1.988l.303.195.313.186c-.101.025-.022.187-.124.211 1.408.85-.779-2.09-.136-2.04.281.073.671.32.793.687l-.068-.43-.085-.421c.131-.034.465.37.33.414l.169-.311c.089-.154.138-.311.138-.311l.061.066a2091.5 2091.5 0 0 0-.88-1.303c.413.186.194.264.498.491l-.175-.358-.185-.349c.688.403 1.105 1.095.857 1.206 1.232.892 1.159.683.972.365-.178-.331-.483-.751.456-.515l.084.517c.751.437 1.064.484 1.325.461.256-.023.442-.108 1.017-.009-.549-.171-2.683-.852-3.076-1.614.24.053.41-.008-.004-.497.905.585.789.272.859.035l1.224.739c-.206-.462-.855-.795-1.344-1.231.265-.174 1.263.266 2.138.605.408-.35-1.728-.482-1.75-1.091.644-.103.223-.61-.442-1.256.532-.061.814.323 1.224.376l-.508-.286-.512-.276c.04-.039.369.082.535.144-.373-.298-1.355-.448-1.664-.787-.747-.248-.166-.19.406-.207.567-.01 1.143-.112.286-.439.409 0 .852.205 1.398.289-1.079-.667-.775-.562-2.295-1.09l.485-.08.485-.095c-1.099.101-2.308-.294-3.359-.492l-1.186.026-.382-.119-.383-.102c.234-.011.724.017 1.322.078l-.343-.051c.529-.056 1.352-.01 2.149.097l-.881.06c.864.106 1.821.254 2.656.296a1.169 1.169 0 0 1-.382-.142c.236.036.444.065.587.062.151-.004-.163-.064-.526-.139l1.593-.021-.632-.046.502-.254.499-.282c-1.592-.387-4.003-.465-4.689-.69 1.165-.091 1.886-.276 3.252-.498-1.429.361.675.352.415.725.137-.173.796-.2 1.031-.17 0 0-.348-.129-.697-.235a14.431 14.431 0 0 0-.696-.194c1.121-.149.824-.243 1.261-.482-2.178.492-1.532-.142-2.268-.187.722-.203 1.482-.337 1.379-.001.782-.343.11-.32-.581-.237-.693.073-1.404.204-.756-.134.033.056-.068.119.305.038-.679.049-.276-.444.363-.591l.034.062c.113-.541-.622-1.429-2.265-.46.205-.132 2.006-1.111 2.355-1.267 0 0-1.528.569-2.943 1.334-1.429.746-2.726 1.68-2.726 1.68.657-.482 1.747-1.327 2.763-2.124 1.018-.792 1.978-1.517 2.496-1.586.112-.243.209-.57-.413-.438-.111.235-1.711 1.648-1.882 1.667 1.228-1.38.664-.751 1.494-2.104-.155.34-2.112 1.999-2.14 1.862.286-.256 1.739-1.831 1.985-1.964 0 0-.546.348-1.055.733-.513.382-.989.799-.989.799.367-.28 1.41-1.597 1.749-2.239-.258.417-.357-.371-.649-.239l-.14.602c-.334-.671-2.403 2.663-2.566 2.415.25-.451 1.614-2.758 1.476-3.191a38.645 38.645 0 0 0-1.812 3.24c-.687 1.358-1.234 2.734-1.392 3.204l.207-.707-.141.392-.12.396a23.66 23.66 0 0 1 1.269-3.709c.588-1.343 1.339-2.58 1.842-3.234.014-.616.279-.823-.094-.888.109-.692.576-.902.713-.894l-.382-.376-.408-.37c-.42 1.439-1.094 1.246-1.331 2.481 0 0 .281-.327.605-.635.32-.31.682-.599.682-.599-.218.682-.668 1.588-1.052 2.331-.392.741-.705 1.32-.863 1.275l1.117 1.177c-.001-.007.004-.016.015-.025.237-.054.718-.119 1.236-.192l1.233-.183-3.019-3.477a5.3 5.3 0 0 0 .109-.414c-.01.025-.02.051-.035.074l2.946 3.817c.36-.051-.351.035.053-.021l.309-.028-.096.009.188-.021.093-.01-.297.023c-.39.032-.67.013.045-.029l.89-.032.338-.005h.03-.214c-1.714-.012-7.011.169-8.3.073.113-.058 1.643-.44 2.495-.437 1.345.005 3.191.283 4.348.27a12.936 12.936 0 0 1-1.076-.096c.352-.013 1.268.088 1.084.016-1.517-.124.143-.144-1.278-.136-.424-.131.318-.061.266-.168-.981-.07-3.309-.532-3.712-.766.382.067.886.114 1.113.136.18-.248.886-.25.949-.475.365.055.823.046 1.453.235-.256-.089-.754-.232-.771-.311 1.311.168.163.196 1.725.452-.859-.204-1.148-.444-1.659-.679-1.335-.293-.315.182.204.396-1.839-.406-3.719-1.048-4.492-1.55-.398-.336 1.205.202.955.098a.094.094 0 0 0 .032-.04l1.653 2.267c-.32-.026-.395 3.256-.586 1.953-.081-1.202.037-2.39.03-3.255.18-.455.233.762.338.714l-.113-.568c.065-.398.195-.701.24-.353-.066-1.078-.652-.21-.979-1.208-.052.405-.135.819-.079 1.301l.092-.166c.097.969-.141 1.338-.02 1.791-.102.68-.167 1.749-.333 1.197l-.102-1.367c.027.398.143.816.167.399-.025.606-.351-1.854-.313-.065l.166.949c-.047.501-.064 1.411-.118 1.69l4.456-4.596c.101.05.118.098 0 .138 1.247-.009.069-.041 1.111-.082L64.66 47.13l.039.319c-.216-1.964.261.096.023-1.972.188 1.835.188.781.345 2.351-.02-.453-.066-.865.024-.641l.006-.397.007.034-.006-.053c.002-.068.001-.082-.002-.017a10.374 10.374 0 0 1-.068-.689c.009-1.035.173-1 .222-1.537.064.216-.02.521.019 1.002l.075-.802c.018 1.002.142 1.666.022 2.253l.104.045c.056.563.123.786.186.364.036.216.167-1.114.091-.327l.199-.625-.013.25c.007.005.014.007.022.005l-5.005-6.862c-.045.298 1.397.955-.376.967.221.178.499.358.179.519l-.866-.117c.266.216-.951.412-.068.634-2.349-.116-.634.963-1.054 1.347l1.131.063c-.075.271.24.56.711.897l.999-.059c.743.197-.388.646-.483 1.158l3.966 3.192.005-.047-.005.047-4.205-3.154a.536.536 0 0 1 .158-.127c-.115.051-.213.1-.294.149l4.341 3.132c.007-.168.086-.401.174-.559l.008-.027-.001.004.002-.005.007-.018a.41.41 0 0 0 .013-.027l.004-.007.002-.004.003-.005.016-.024c.009-.015.049-.064.018-.024l-.031.035-.016.015.694-.687c-.174.174-.256.258-.273.266-.141.165-.298.292.113-.046l-.588.51-.012.012s-.024.02.003-.002l.261-.21c.358-.283.732-.548.732-.548a13.94 13.94 0 0 1-.871.678l-.222.161-.013.009.023-.017-.063.043-.011.007.061-.042.105-.068c.131-.077.253-.175.969-.548l-.767.439c.023-.014 1.089-.517.446-.167-.747.411-.783.408-.815.471-.049.066-.019.125-.804.299 1.283-.228.996-.161.637-.088-.36.073-.794.13.207.012l-1.47.179c.573-.032-.968.031.711-.006l-1.002.023c.008 0-.04.001.005.001a.956.956 0 0 1-.05.002l.033-.001-.064.002h-.02l.472.008 2.519.072c-.842.039-.72.036.448.176-.586-.014-1.193-.047-1.4-.117-.086.044-.879.056.535.284-.358-.045-.108.035.052.077-.088.078-.227.049-.119.163l.233.032c1.661.453.347.186.526.316l-.17-.053c-1.225-.213.546.303-.852-.042l1.002.383c1.07.424.725.365.226.217-.503-.142-1.147-.397-.767-.158l.564.232c.341.202-.381-.086-1.209-.503a30.279 30.279 0 0 1-1.439-.766l-.054-.031.004.002.008.004a.549.549 0 0 0 .028.015l-.045-.024.097.054.106.065c.242.148.44.272.506.323l-.546-.346.054.037c.052.047.253.17.36.265l-.026-.022c.152.129.387.328.534.467.036.04-.052-.027-.177-.137l-.205-.186.035.039.106.1.01.011c.029.033.04.041.105.128.161.212.345.491.619.911a9.128 9.128 0 0 1-.535-.821l.055-.01a.59.59 0 0 1 .146-.001c.123.154.257.427.265.396.007-.01-.01-.083-.058-.257-.04-.138-.013-.065-.017-.082l.004.002c.105.01-.312.058-.289.061l.009-.001-.239.039a1.817 1.817 0 0 0-.073.012c-.023-.04.009.107.025.196l.058.302c-.11-.195-.191-.604-.153-.487l-.029.005-.007.001-.003.001h-.002l.308-.384v-.001l-.001-.002-.011-.027-.04-.097-.059-.128c-.031-.055-.047-.048-.053.034-.014.164.019.624.018 1.479l-.119-1.101c.012.323-.089-.101-.164-.443-.099-.329-.073-.634-.131.013l.022-.494c-.021.322-.046.292-.047.13a3.785 3.785 0 0 1 .012-.313l.007-.09-.009.047a7.234 7.234 0 0 1-.021.109c-.022.127-.013.174-.027.25l-.014.088-.166.714-.143.477-.17.472c.01.16-.094.586-.24 1.046-.142.462-.339.955-.373 1.291-.2.194.116-1.215.281-1.391l-.046.195c.323-1.003.337-1.186.341-1.285.016-.114.005-.144.285-.802l.009-.017-.056.101-.035.053.004-.004.003.001c.006-.004-.022.033-.007.014a.69.69 0 0 1 .126-.116l-.374.314.054-.069c.551-.415.32-.238.336-.256l.039-.023c.008-.005.009-.003.022-.015l-.348.237.225-.163.202-.134-.025.018c-.031.023-.076.06-.051.039l.07-.053-.016.011.065-.045-.127.076c-.056.032-.082.044-.066.032l.352-.197.039-.018s.144-.055.164-.071l-.607.286c-.584.254.048-.09-1.282.54 1.018-.498 1.206-.601 1.188-.645-.018-.038-.193-.097.141-.175-.928.135-.95.045-.835-.058-.269.051-1.706.25-1.535.102 2.978-.245 1.287-.305 3.43-.411-1.433.082-.359-.143-2.382-.107.249-.073 1.119.017 1.828-.005-.573-.081-.379-.165-.097-.199.286-.043.69-.042.504-.144-.383-.081-.98-.16-1.546-.318l.969.148.963.175c-.187-.059-2.203-.562-.857-.293-.323-.076-.811-.182-.923-.242.991.049.641-.206.578-.479-.1-.29.078-.428 1.484.611-.602-.447-.675-.489-.698-.519l-1.203-.9c-.013.011.337.164.68.322l.689.315c-1.143-.938.133-.339-.975-1.219l.141.236c-1.248-1.115-3.073-2.079-4.769-3.385 1.419 1.276-2.467-1.42-.534.609-.412-.164-.529-.457-.965-.693.693.621.799.814.321.814l-.18-.141c-.183.743-1.039.513-1.907.997l1.004.341c-.188.084-.509-.004-.785-.029 1.435.72.247-.36 1.832.434-1.034-.319-1.151-.074-1.261.153-.119.228-.265.431-1.462.172-.083.236 1.198.264 1.117.486L56 45.988l.808.271c-.179.103-.997-.007-1.545-.127.073-.025-.13-.152-.162-.207-.814.042.13.684-.131.7l.448-.166c.239.406.102.757.085 1.143-.006.387.089.797.748 1.127l.502-.036c.908.455-.546.382-.097.908l-.119-.011c.503.075.764.181.715.323-.592-.077-1.108.386-1.766.279 1.067.452.823.216 2.707.22l-.798.231c.756-.037 1.144-.113 1.397.051-.732-.026-1.191.467-2.154.452-.825.512-.286.669.111.736.402.081.673.103-.502.739 2.226-.587 1.004-.955 1.519-.978.675-.34 1.681-.386 1.511-.184 0 .135-2.623 1.403-2.272 1.943-.02-.056-.173.021-.193-.036-.4.49.893-.021.222.703 1.239-.626.124.35 1.596-.626l-.289-.078-.293-.091c.552.027 2.32-1.028 1.753-.165-.29.206-.734.408-1.001.495-.328.424.424-.028.097.415-1.374 1.101-.718-.216-1.973.262-.536.58 1.425-.206-.232.782 1.066-.615 1.088-.468 1.09-.234-.005.226-.015.549.794.055l-.782.713c.17-.059.621-.308.684-.204l-.559.408-.572.394c.549-.266.487.035.428.401-.07.364-.152.8.21.677-.681-.504.665-1.101.928-1.884.775-.282.409.304.054 1.048-.367.726-.733 1.623-.085 1.727-.229.052-.152-.865.314-1.136.045.306.074.775-.072 1.327.778.15.418-1.009 1.002-1.444-.389 1.25.54-.32.916-.601l-.431.988c.429.93 1.003-1.986 1.222-1.033l-.347.677c-.177.339-.369.665-.369.665.007.011.429-.273.429-.273l-.441 1.148c.641-.762.646-.519.929-.097.094-.759.489-1.892.732-1.874.062.668-.292.987.128.915-.184.651-.462 1.459-.462.442-.086.342-.231.644-.325.977.094.773.613.309.744.299-.056-.046-.113-.107-.133-.27 0 0 .209-.35.394-.708.186-.358.35-.72.35-.72.047.409-.045.728-.149 1.04.13-.107.25-.595.416-.677-.099.87-.138 1.775-.453 2.166l.346-.464.321-.47c.02.382.287 1.056.203 1.377.174.261.421-.152.608-.566.183-.418.348-.818.564-.497.006-.17.033-.336.1-.469.345.165.85 1.187 1.073-.056l.08.236.019.055.01.029.005.015.003.008.001.002.635-.148.001.004.048.124.104.27.283.735c.07-.393-.724-1.849-.606-2.5.06-.541.452 1.262.646 1.661-.061-.395-.162-.991-.179-1.342-.008-.176.004-.29.053-.287.077-.008.299.055.541.301-.051.179-.139.23-.229.257l-.127.033c-.016.005-.028.016-.034.048zm4.101-3.897c.146.198.573.771.027.442-.92-.829-.401-.521-.027-.442zm-.741-5.972c.355.044.18.12-.23.186-.088-.057-.047-.115.23-.186zm-5.548-2.07l.004-.053c.052.419.034.254-.004.053zm-.125-.469a3.582 3.582 0 0 0-.009.451c.01-.272.04-.291.073-.215-.006-.282-.022-.477-.064-.236zm-1.033 3.479l-.026.012c-.136.075-.144.077-.082.045l.118-.062-.01.005z"/><path d="M72.567 49.095a6.475 6.475 0 0 1-.585-.011c.179.038.387.056.585.011zM65.331 59.369c-.005-.009-.009-.006-.014-.013l.002.196.012-.183zM70.287 43.63l-.556-.001c.262.012.484.019.556.001zM64.84 47.736l.055-.276c-.032.052-.059-.184-.088-.355.018.251.054.614.033.631zM64.032 42.026c.131.024.013.04.146.064l.5.016c-.03-.079-.43-.152-.646-.08zM64.515 44.162c-.059-.723-.1-.673-.145-.539l2.251-2.322.104.058c-.003-.006-.01-.011.001-.016.63.045.844.039.848.006l-3.127 3.226c.025.002.045-.206.068-.413z"/><path d="M66.755 41.382c.041.03.064.06.018.085.508.037.108-.029-.018-.085zM65.269 46.523c-.03-.233-.002 1.159-.02.789-.019 1.154.156-1.393.02-.789zM64.226 41.183l.116 1.116-.019-.9zM64.949 42.008l-.146-.312c.009.187-.003.3-.02.382.084.039.179.26.166-.07zM64.783 42.079c-.044-.024-.083 0-.098.184.023-.012.07-.049.098-.184zM64.397 40.849l.058.234.105.082zM65.241 41.085l.273.232c.369.106.607.12.471.028-.249-.101-.378-.194-.744-.26zM66.06 39.167c.038.232.03.481.039.848l.068-1.384-.107.536zM68.532 41.889c.368.11 1.023.459.98.271-.366-.104-.641-.322-.98-.271zM66.481 43.623l-.016-.035-2.274-.053zM70.176 39.758c-.174-.733-.801 1.154-.844.348-.34.427.028.654-.293 1.007.5-.369.473-.007 1.137-1.355zM69.039 41.112a2.288 2.288 0 0 0-.276.241 1.63 1.63 0 0 0 .276-.241zM66.145 47.854l.45.192-.656-.4z"/><path d="M64.935 46.657l1.174.852-1.005-.848c.035.061.104.177-.169-.004zM74.689 55.401l-.284-.2c-.346-.157-.405-.114-.527-.031l.811.231zM71.001 57.898l.078-.022-.891-.968zM68.143 61.144c.068.037.047-.262.115-.225-.047.262-.589-1.34-.115.225z"/></g><path d="M61.976 44.299c-2.969 3.457-2.287 9.918 3.547 8.865 3.918-.707 4.701-7.779.422-8.701-.176-1.09.098-2.299.346-3.275-.695-.043-1.424-.066-2.119-.01-.057 1.129-.158 2.404.146 3.49-.791.01-1.269-.119-1.949-.369" stroke="#fff" stroke-width="2.233" stroke-miterlimit="10"/><g><path d="M33.02 83.104c1.572-2.854 1.113-8.43.645-11.623-.604-4.109-2.352-7.854-2.801-12.014-.764-7.078-.842-14.658-.602-21.869.129-3.775 1.955-7.518 5.516-8.814 2.184-.797 2.443-1.121 1.984-3.398-.346-1.729-1.352-3.33-1-5.313 1.439-8.09 17.932-5.125 13.191 4.281-.813 1.611-3.602 2.672-2.762 4.394.33.676 1.658 1.045 2.18 1.557.877.855.832 1.422 1.168 2.385 1.162 3.322.436 6.576-.635 9.787-1.406 4.23-3.568 8.391-4.865 12.666-1.24 4.1-3.402 8.393-3.785 12.543-.238 2.563-.881 5.162-1.352 7.682-.459 2.467-.211 5.018-1.027 7.455-.631 1.883-1.465 3.865-3.69 3.629-2.285-.242-1.871-2.762-2.56-4.729M30.854 82.483c-.022-.168-.316-.003-.379-.006.144.22.461-.022.379.006zM33.175 86.754l-.136.057.352.108.367.063c-.004.013-.594-.207-.583-.228zM37.566 87.039c-.284-.16-.602.092-1.046.274-.431.194-.975.338-1.381.203l-.007-.002s-.115-.136-.114-.142l-.225.188-.24.186c.176.017.359.042.548.041a4.539 4.539 0 0 0 1.412-.28c.436-.146.773-.38 1.053-.468zM40.172 85.887c-.284.028.241-.742-.469.618.059-.043.082-.051.119-.072.081-.109.173-.278.35-.546zM39.822 86.433c-.372.556.382-.216 0 0zM40.968 83.666l-.002.305-.069.467c.088-.053.229-.315.312-.442.071-.1.127-.166.141-.061.043-.285.029-.446-.04-.468-.068-.027-.189.086-.342.199zM40.752 82.99l-.015.331c.068-.037.112-.115.015-.331zM40.68 84.024c.042-.102.048-.664.057-.703-.113.059-.288.012-.032.299-.152-.077-.007.01-.025.404zM40.412 84.491c-.296.398-.591.864-.438.028-.257.715-.344 1.07-.24 1.089.098.02.406-.326.678-1.117zM37.539 86.337c.002.01-.401.109-.404.098.01.009-.275.372-.282.367.161-.142.775-.304.686-.465zM41.997 80.02c-.116-.046-.336.158-.492.183l.088.435c.11-.209.227-.607.404-.618zM41.505 80.203l-.147-.629c-.072.537.011.651.147.629zM40.183 82.714l.048.574.03.372c.006.106-.01.224-.007.217-.005.012.024-.139.016-.246l-.01-.442c-.005-.342-.031-.672-.031-.672l-.046.197zM42.186 77.789l.252.333-.374-.584zM42.27 76.476c.2.229.423-.222.533.008.003-.332-.147-.597-.261-.945.035.352-.036.573-.272.937zM42.384 75.005c.024.164.088.344.159.535a1.59 1.59 0 0 0-.159-.535zM41.493 78.577c.075-.037.271-.116.373-.422l-.352.197a16.01 16.01 0 0 1-.021.225z"/><path d="M41.503 78.359l.012-.007.053-.476-.065.483zM41.488 78.634l.006-.057c-.035.02-.047.032-.006.057zM40.83 81.145c-.126-.4-.244-1.149-.615-.478.192.286.414-.108.615.478zM41.047 78.887l-.126.618c.089-.004.229-.108.307.074l-.181-.692zM40.963 78.579l.084.308.045-.226zM41.891 75.918c-.112-.234-.062-.54-.027-.849a4.59 4.59 0 0 0-.278.953c.097.058.264.213.305-.104zM41.648 77.05l-.014-.056c-.032.031-.044.057.014.056zM42.499 71.925l-.071.041.055.022z"/><path d="M41.516 76.063c-.097.223-.037.375.051.522a2.686 2.686 0 0 1 .02-.563c-.045-.027-.076-.035-.071.041zM42.403 74.109a3.262 3.262 0 0 0-.27.404c.129-.107.347-.339.27-.404zM41.735 76.923l.011.037c.081-.07.044-.064-.011-.037zM41.735 76.923c-.035-.126-.107-.232-.169-.338.01.148.03.286.067.409a.388.388 0 0 1 .102-.071zM40.555 70.563c.299.099.459.834.013 1.354.114.618 1.197.45 1.86.049-.13-.045-.252-.069-.319-.707-.206.184-.649 1.254-.827.696-.004-.82.234-.626.468-.983-.44.257-.376-1.111-.975-1.031l.079.723c-.089-.003-.185-.277-.299-.101zM42.169 73.1l-.012.251c.11-.267.273-.441.587-.764-.068-.442-.165-.551-.261-.599l-.285 1.204-.029-.092zM41.938 74.437c-.296-.254-.318-.865-.75-.582-.121.715.177.554.237 1.004.145-1.156.119.364.473-.421.011.236-.011.439-.034.63.08-.195.17-.382.269-.556a.73.73 0 0 0-.026.022l.001.006-.006-.002c-.051.041-.079.051-.044.001-.004-.004-.003-.018-.003-.024a.383.383 0 0 1-.115-.078c.135-.315.097-.034.115.078.016.006.029.019.047.024l.005-.004.051-1.184c-.097.235-.15.543-.22 1.086zM39.564 79.944c.033-.033.057-.029.082-.029-.033-.081-.059-.113-.082.029zM39.815 79.478c.04.09.169.174.106.452-.125.234-.162-.019-.275-.016.076.175.176.62.401.103l-.038-.088c.166-.469.631-1.054.672-.967a2.361 2.361 0 0 0-.866.516zM40.691 76.819l-.029-.474-.016-.472-.358.432.178-.002c-.134.527.098.436.225.516zM42.686 71.845l.326.199-.387-.666zM42.88 70.544l.299.101-.127-.379zM38.786 19.763s.008.196.017.2c0-.092 0-.149-.017-.2zM39.493 18.662l-.087-.13c.015.105.044.165.087.13zM52.384 41.07c.399-.356.957-.767.602-.792l-.365.06a1.337 1.337 0 0 1-.237.732zM50.658 21.979l-.126.101.267.339-.141-.44zM49.284 21.55l.25-.406c-.085.096-.17.229-.25.406zM36.356 30.963l-.07.405c.315-.13.11-.238.07-.405zM45.958 58.282c.251-.301.401-.565.504-.804-.335.36-.731.6-.504.804zM35.843 17.512c-.061.237-.046.356.026.383.061-.234.073-.386-.026-.383zM46.807 56.445c-.053.053-.089.112-.139.166a3.05 3.05 0 0 1-.207.867c.247-.267.457-.606.346-1.033zM34.758 67.342c-.008.034-.004.073-.015.104.048-.003.039-.045.015-.104zM32.475 79.577c-.01-.11.008-.286.019-.452-.031.078-.042.213-.019.452zM43.775 65.642c-.036.244.028.047 0 0zM42.208 66.568c-.029-.061-.07-.111-.147-.131.079.036.124.08.147.131zM45.621 53.235l.009-.022c-.09.054-.074.045-.009.022zM43.543 65.967a2.01 2.01 0 0 0 .167-.284c-.039.044-.094.13-.167.284zM43.711 65.954l-.075.201c.049.04.089.021.075-.201z"/><path d="M43.84 65.304a1.77 1.77 0 0 1-.13.38c.034-.041.058-.057.065-.041l.065-.339zM31.183 46.004c-.01.017-.017.038-.031.058.145.269.121.15.031-.058zM49.272 34.002c.006.01.016.013.023.021l.003-.036-.026.015z"/><path d="M48.801 33.296c.503.191.529.414.497.692l.444-.259.439-.273-.696-.098-.684-.062z"/><path d="M39.24 23.36s.077-.744.083-.731c.718.561.777 1.328.966.495-.522.114-.78-.544-.949-1.036-.176-.507-.239-.861-.772-.85a2.606 2.606 0 0 1 .21-.293c-.009.077.049.084.047.162.518-.492-.827-.37-.473-1.199.156-.257.386-.349.434-.146l-.02-.32.026-.316c.101-.142.237-.003.142.128-.034-.014.418-.765.453-.749l.018.027c-.049-.213.025-.613.097-.803.294-.043-.033.173.101.235-.022-.008.312-.536.325-.536.344.128.057.572-.217.767.506.266.53.185.614-.012.066-.19.227-.495.847-.39-.01-.005-.408.303-.394.312.504.417.755.105 1.346.35-.083-.095-.374-.246-.638-.44-.246-.175-.449-.37-.203-.604.202.043.407-.008.712-.27.076.374.37.212.79.161l.013.506c.41-.181.376-.415.645-.655.521.074.594.461.669.808.759.18-.48-.692.479-.665.641.313 1.121.212 2.008.264.357.359-.204.245-.111.448 0 0 .548-.188.547-.175.083.06-.006.151-.051.197.371.048.285-.444.837-.229.224-.184.373.166.493.549.137.386.203.769.642.859-.029.2-.305.104-.44.249.369.219.518.358.648.475.153.119.296.208.643.541.028.009-.281.686-.273.67.172-.229.379-.226.598-.05.198.173.391.524.526.885.223-.181.376-.363.466-.489 0 0 .065.294.078.591l.019.602c-.109.122-.252-.042-.423-.264l.078.227c-.293.34-.49.05-.721-.263l.376-.303c-.237-.31-.587-.552-.877-.529.05.061.109.177.103.306-.071-.07-.136-.116-.192-.097-.059.023.033.126.13.297l-.295.044-.292.034.209.097c.027.016-.685.988-.711.972.072.553.321.848.192 1.456-.049.279-.15.579-.344.918a7.38 7.38 0 0 1-.598.934c-.101-.466-.58-.354-1.048-.555.447-.114.664-.408.949-.812.122-.183.336-.473.41-.609.088-.154.189-.294.305-.392-.256.21-.385-.005-.383-.121 0 0-.026.07-.074.181-.026.056-.046.118-.087.193-.035.07-.134.206-.209.314-.327.454-.584.876-.584.876-.323-.235-.612.171-1.093.569.52-.032.404.31.235.74-.184.425-.334 1.05-.164 1.416-.123.037-.277.022-.366-.134-.086-.152-.152-.464.05-.918-.474.486-.252.901.039 1.195.297.305.621.545.672.994-.139-.168-.156-.28-.325-.323.412.426 1.276 1.2.834 1.176l-.19-.142c.272.259.705.549 1.22.829l.352.2c.12.081.004-.022.127.087l.297.267c.17.16.302.31.472.523.165.203.346.369.52.365-.079.035-.822.063-.972.029l.438.246.462.257.504.223a10.37 10.37 0 0 1 1.358.773c-.6-.043-1.809.832-2.312.064-.019.257-.049.553.215 1.035.062-.168.771-.551.853-.314-.556.744-.273.518-.785 1.335.117-.26 1.033-.001.997.453-.132-.071-.892.014-.98-.137l.424.53.399.571c-.14-.286-.739-.112-1.017.083.191-.086-.128.877-.11 1.167l.281-.403c-.347 1.135.989 1.445.606 2.674-.133-.203-.981-.665-1.261-.099.357.392 1.7 1.898 1.625 3.126l-.32.119-.035.937c-.427-.77-1.262-2.69-1.56-3.614-.343.382-.327.032-.53.699-.31.153-.224-.475-.179-.673l-.331.736-.344.732c.529.113.059 1.356.489 1.458l.063-.936.044-.927c.527.1 1.071 1.485.541 2.566-.307.203-.794-.556-.968-.596.117.208-.091 1.169-.253 1.22l-.074-.571c-.43.533.244 1.263-.529 1.806-.137.24-.946.498-.676.663.732-.184 2.491.456 2.794.908-.076.074-1.093 1.116-1.488 1.294-.613.242-.782-1.065-1.307-.862.127.071.196.374.209.493-.226.224-.368-.283-.55.332.457.3-.528 1.187.307.45-.091.634-.35.574-.596 1.267.407-.091.864 1.036.804 1.663-.116-.081-.331-.011-.429.025-.473 1.173-.887 1.773-1.258 2.876-.158.063-.486.545-.628.242.036.189.156.394.048.739-.668.501.199-.781-.503-.464.282.144.095 1.019.098 1.572.509.017.497-1.092.48-1.64.63.212.989 1.304.844 2.574-.186.978-.551.25-.521.443-.743 1.687.544 1.862-.393 3.115-.587.428-.809-.241-1.139-.212.1-.807.651-1.068.817-1.579l-.413.558c-.046-.286.031-.825.248-1.055-.54.348-1.128 2.891-1.803 4.195.077.285.116.741.33.58l.05-.449c.427-.308.26.922.548.418.089.631.335 1.319.034 2.07l-.496.088c.136-.002.35-.483.248-.731.144.361-.816 1.138-.228 1.627 0 0 .396-.581.397-.563.181.61.599 1.496.323 2.243.524-.285-.024-.183.606-.667-.736.404.269-2.041-.549-1.33.699-.437.369-.822 1.027-1.357-.16-.011-.346.168-.154-.374a.671.671 0 0 1-.112-.152l.019-.035-.025.027c-.018-.029-.023-.032-.008.011-.096.119-.201.211-.298.238-.308-.353-.081-1.276-.169-1.639.17-.326.137.193.353.049l-.143-.543c.355.049.84-.737.794.122l.236-.713c.325-.363.597-.919.585-1.331.194-.317-.057-1.003.095-.608l.216-1.23.087.02c.467-1.138.338-2.576 1.402-3.759.047-.436.085-.928.373-1.504l.33-.027c.054-.513.783-1.33.562-1.644.952-.223 1.068-2.256 1.568-3.064l-.356-.186c.266-.581.4-1.191.56-1.995l-.343-.089c-.003-.749.918-1.55 1.288-2.607.099.119-.039.37-.188.525 1.239-.957.459-2.839 1.368-3.819-.031-.332.076-.532.22-.719a.195.195 0 0 0-.004.079c.014-.029.027-.075.04-.121.095-.116.206-.232.299-.369-.116.107-.22.206-.281.303.062-.232.112-.602.114-.972l.404-.062.009-.086c.219-.322-.11-.32-.431-.199a1.636 1.636 0 0 0-.122-.515c.663-.169-.024-.963.67-1.269-.253-.281-.072-1.919-.774-2.107.087-.012.127-.121.135.076.079-.405.126-.828-.09-1.176l.457-.226-.378-.413-.398-.386c.19-.58.277-.868.776-.394-.431-.61-.562-.842-.691-1.062-.131-.252-.231-.345-.635-.739l.313-.038c-.091-.332-.726-.907-.669-1.265-.001-.302-.242-.782-.65-1.211-.168-.162-.199-.182-.261-.235a2.174 2.174 0 0 0-.179-.124l-.406-.242c-.138-.087-.281-.185-.376-.326a.696.696 0 0 1-.081-.494c.076-.348.422-.587.728-.707-.56-.096-.353-.164-.103-.22.25-.057.49-.065.228-.308.229.084.399.093.44.313.022-.056.034-.088.095-.155l.284-.28c.189-.173.384-.348.557-.539.177-.193.338-.417.439-.677.118-.27.092-.456.055-.723.259-.044.18.38.349.317.001-.116-.007-.45.167-.523.172-.073.093.242.094.472.271-.614.205-1.059.033-1.333-.174-.277-.471-.415-.761-.541.425-.531.476-.901.08-1.388.219-.196.462-.593.479.236l.094-.637a6.84 6.84 0 0 0-.013-.986c-.098-.686-.374-1.27-.624-1.195.085-.19-.222-.615-.336-.688-.491-.899-.538-1.005-1.264-1.673 0 0 .146.238.141.244-.696.179-.661-.44-1.34-.815l.052-.04c-.624-.639-.845-.659-1.024-.696-.189-.04-.345-.088-1.075-.6l-.028.385c-.203.369-.491.146-.899-.138-.402-.281-.949-.614-1.449-.501l.322.252c-.27.095-.598-.185-.972-.532-.37-.317-.79-.694-1.089-.711-.134-.056.193-.14.371-.189-1.596-.343-.17.483-1.259.747-.255-.225.166-.722-.632-.625-.219-.049-.754.275-1.314.697-.574.397-1.141.886-1.756.99.332.034.626.088.265.503-.307.275-.862.479-1.346.839-.471.358-.858.847-.745 1.35-.102.07-.17.083-.219.064-.183.679-.438 2.097-.075 2.514-.699.222-.531 1.353-.149 2.126.362.793.772 1.36.194 1.548l.268.723c.123.342.221.666.214.652l-.126-.001c.024.195.046.287.081.371a.91.91 0 0 0 .147.235c.119.145.279.28.432.439-.09.126-.205-.024-.271-.05-.135.39-.378.497-.489.645-.132.151-.157.347-.439.775l-.238-.328c.004.057-.184.122-.467.199a8.072 8.072 0 0 0-1.013.306c-.762.287-1.64.847-2.068 1.634-.021-.043-.054-.122.008-.256-.524.849-1.396 1.61-1.993 2.451-.59.827-.911 1.657-.316 2.184 0 0-.013.312.004.622l.034.611c.455-1.426.55.351.921-.185-.056.539-.688 1.351-.648.647l.089-.096c-.333-.198-.507.244-.591.736-.107.488-.122 1.016-.38.985-.067 2.794-.513 5.465-.534 8.075l.575-.301-.028.904c-.132.239-.448.323-.43-.324-.324.343.285 1.083.41 1.099-.219 1.268-.678-.486-.687-.098l.048.527.067-.12c.242.424.493.458.479 1.235-.106.494-.35.26-.368.454-.04-.001-.057.066-.008.298l-.015 1.146.44-.472c.239.499.014 1.074.509.53-.784.8-.093 4.265-.292 4.752.379.686.426 1.382.461 2.25.076-.223.574-.394.577.353-1.078-.172-.332 1.395-1.013 2.097.216-.314.313.246.443.751.14.504.3.952.58.457.029.647-.384.107-.536.638.686 1.435.539 3.356 1.179 5.068.141-.011.26-.363.566-.045l-.407 1.102c.159.319.861.103.559.845.09-.117.225-.293.328-.076.129 1.768.542 3.392.777 5.184.239 1.748.291 3.587-.469 5.194.293-.429.314-.125.284.217.087-.217.341.036.532.01 0 0-.158.349-.338.674-.176.329-.367.631-.367.631.23.166.174.535.08.858-.074.341-.203.61.014.776l.057-.42c.18.35.562.298.977.118.408-.173.871-.458 1.222-.325-.244-.452.096-.881.379-1.42.282-.53.508-1.161.058-1.796.163-.265.235.242.414.104-.317-.329-.359-.7-.222-1.392l.08.078c-.106-1.943.147-2.779.104-4.973l-.35.206c-.007-.467.09-.58.154-.809-.629-.45.143 1.301-.542.898.342-.35.237-1.162.106-1.974-.134-.802-.285-1.562.081-1.869-.17-.705-.368.308-.537-.392l.177-.241-.337-.098c-.07-.464.146-.765.332-.836.008.116.14.294.187.41.106-.665-.55-1.613-.52-1.828l.047.686c-.745-1.796-1.082-3.998-1.829-5.595l-.152.16c-.537-1.27.034-1.042-.277-2.538l.047.051c-.207-.284-.329-.682-.346-1.098.239.363.335-.751.608-.271-.47-1.463-.334-.714-1.062-1.655l.276-.249c-.285-.319-.428-.338-.552-1.095.287.608.416-.511.788.165.544-1.62-.769-2.332.135-3.103-.839-.7-.392 1.398-.58.995-.247.357-.636-.579-.569-1.086-.001-.513.999-.905.951-2.182 0 .128.061.135.061.262.192-.483-.299-.933.023-1.526-.496-.322.018-.764-.606-.851l.162 1.175c-.177-.663-.914-1.284-.566-2.39.126.085.291.412.387.637.18-.323-.124-.62.063-.954.622.093.142 1.431.628 2.138.26-.346-.467-1.344.213-.992-.866-.509.1-1.261-.554-2.127l.373.058c-.058-.137-.233-.423-.223-.675l.483.46c-.412-.705.371-1.349.154-2.023-.004 1.408-.454.31-.734.904-.48-1.75.987-.989.847-2.935.045.264-.246.984-.411.568.085-.369.241-.855.443-1.077-.043-1.291-.39.187-.606-.368.469-.427-.166-.639-.294-1.211l.38.008c.327-1.291-.792-.413-.347-1.582 0 0 .102.146.221.289l.232.279-.032-.308-.015-.308.405.193c-.205-.68-.074-.884.223-1.433-.295.061-.647-.291-.443-.846.356-.279.243.33.518-.42.146.274.329.539-.109.733.104.077.163.246.266.318.375-.276.412-.877.549-1.109a.677.677 0 0 1-.214.213s.009-.292.023-.604l.072-.611c.215-.066.228.116.254.291.075-.212.039-.419.205-.709.191.259.45.451.32.863l.145-.481.186-.47c.147.041.6-.064.591.1.236-.095.352-.395.547-.684.181-.299.447-.587.807-.601a.277.277 0 0 1 .045-.113c.041-.046.026-.073.2-.162.669-.206 1.412-.396 2.036-.774.609-.373 1.154-1.008 1.187-1.901.023.034.719-.78.696-.814-.045-.743-.234-.395-.413-.213-.221.185-.334.219-.53-.829-.403-1.458.381-.618.442-1.178-.414-.669-1.249-1.339-1.078-2.272.191.226.184.462.313.724zm2.026-5.951c-.12.135-.3.456-.482.291-.016-.464.209-.318.482-.291zm8.331 5.744c-.078-.169.039-.333.25-.515a.921.921 0 0 1-.25.515zm-5.342 39.738a.095.095 0 0 0-.012-.025c.277-.355.172-.23.012.025zm-.427.783c.026.1.078.109.139.09-.074-.086-.025-.275.073-.481-.113.028-.219.117-.212.391zM28.674 48.933l.094-.181c.12.401.018.29-.094.181z"/><path d="M49.445 21.597a.464.464 0 0 1 .209-.045c-.058-.069-.133-.073-.209.045zM36.372 30.887l-.022.004c-.003.026 0 .05.006.072l.016-.076zM45.556 49.268a.797.797 0 0 1 .32-.263c-.081-.045-.187.004-.32.263zM43.539 68.136l-.037-.559c-.01.242-.103.314-.179.474.09-.005.23-.113.216.085zM40.36 72.902c.029.093-.031.178-.002.27l.178.013c.061-.359-.028-.638-.176-.283zM42.22 68.568c-.323.01-.261.396-.264.821.003-.025.004-.05.011-.074.425.188.346-.282.253-.747zM41.953 69.486a1.58 1.58 0 0 1-.051.384c.169.078.062-.149.051-.384zM43.724 64.785c-.128.154.364.216.211.28.338.304-.151-1.293-.211-.28zM41.133 68.771l.411-.096-.289-.269zM41.877 65.631l-.236.613c.067.003.092.09.105.195.073-.391.253-.797.131-.808zM41.746 66.439c-.042.202-.066.398-.02.52.014-.111.04-.349.02-.52zM41.119 67.87l.102-.185.083-.457zM44.092 59.004l.142-.711c-.102-.115-.247.04-.288.308.029.192-.014.46.146.403zM42.331 60.663c.143-.155.23-.137.389-.197l-.452-.187.063.384zM42.945 58.661c-.102-.114-.007-1.104-.291-.247.101.113-.042.824.291.247zM47.22 48.758l-.064.17.751.285zM48.581 39.428c-.377.7.44.301.02.925.135.231.346-.512.452-.286-.068-.515.088-.722-.472-.639zM49.054 40.067c.01.083.028.172.054.27a.807.807 0 0 0-.054-.27zM31.723 81.169c.006.014-.285.346-.287.337l.345-.157-.058-.18zM32.002 82.142l-.504-.132.158.207.153.219c.02-.098.056-.277.193-.294zM42.564 18.182l.014-.124c-.077-.13-.17-.127-.35-.112 0 .001.337.227.336.236zM39.146 20.312l.028-.069-.487.037zM40.823 25.698c-.03-.246-.101-.512-.168-.774-.065-.223-.133-.434-.167-.61.067.18.09.394.088.557.001.203-.017.383-.027.516-.016.268-.007.384.274.311z"/></g><g><path d="M50.186 32.295c.095-.009-.054-.304-.062-.364-.119.127.097.442.062.364zM49.105 33.606l-.039-.133-.042.402zM47.834 34.461c.474.325.388-.439.741-.423l.106.083-.138-.451c-.258.247-.424.739-.709.791zM46.237 34.406c.221.073-.005.315.223-.178-.036.005-.052.002-.075.002-.029.04-.069.093-.148.176zM46.384 34.23c.142-.188-.243.003 0 0zM45.901 35.203l-.025-.368c-.143-.01-.305.234-.338.094-.06.351.094.334.363.274zM46.146 35.63l-.009-.167c-.061-.001-.097.029.009.167z"/><path d="M46.129 35.098l.007.365c.101.002.263.084.01-.158.136.1.021-.027-.017-.207zM46.293 34.984c.197-.073.37-.186.378.144.231-.46-.119-.656-.378-.144zM48.164 34.943l.222.027-.022-.226c.011.112-.324.074-.2.199zM45.06 36.895c.117.033.325-.038.481-.033l-.093-.227c-.106.092-.216.277-.388.26zM45.541 36.863l.169.301c.051-.234-.037-.294-.169-.301zM46.695 35.926c-.008.011-.18-.6-.172-.61-.007.014.124.699.147.692l.025-.082zM44.963 37.972l-.272-.161.411.28zM45.022 38.608c-.233-.095-.382.162-.528.057.046.18.256.299.441.407-.108-.12-.096-.26.087-.464zM45.21 39.253c-.06-.058-.164-.116-.274-.18.059.064.14.125.274.18zM45.608 37.609c-.073.015-.264.041-.348.185l.34-.086.008-.099z"/><path d="M45.61 37.704l-.011.003-.025.212.036-.215zM45.61 37.584l-.002.025c.033-.008.044-.012.002-.025zM46.179 36.516c.143.213.279.54.623.315-.202-.155-.402-.015-.623-.315zM46.039 37.491l.106-.259c-.089-.007-.224.029-.307-.059l.201.318zM46.136 37.624l-.097-.133-.036.095zM45.491 38.823c.154.092.175.2.21.322a.93.93 0 0 0 .069-.408c-.106-.013-.3-.062-.279.086zM45.564 38.292l.02.023c.028-.015.037-.027-.02-.023zM45.831 40.313l.058-.026-.058.003zM45.831 38.71c.061-.107-.023-.165-.129-.222.037.077.062.16.068.249.048.006.08.006.061-.027zM45.4 39.58c.065-.059.116-.118.165-.188-.102.063-.254.178-.165.188zM45.492 38.353l-.015-.016c-.072.038-.036.032.015.016zM45.492 38.353c.051.054.135.095.21.135a.59.59 0 0 0-.118-.173.44.44 0 0 1-.092.038zM48.018 40.342c-.311.031-.629-.161-.325-.405-.259-.164-1.26.093-1.803.35.136-.012.26-.028.472.155.158-.098.331-.514.634-.377.197.249-.078.237-.223.393.37-.165.608.261 1.165.118l-.232-.204c.088-.018.241.046.312-.03z"/><path d="M45.868 39.874l-.048-.085c-.042.108-.158.197-.383.365.172.126.291.14.395.136l-.013-.441.049.025z"/><path d="M45.772 39.385c.345.04.514.231.863.064-.053-.252-.299-.153-.461-.298.12.427-.199-.109-.364.227a.597.597 0 0 1-.109-.232 1.219 1.219 0 0 1-.136.246l.021-.012-.002-.002h.006c.04-.024.065-.032.043-.008.005.001.008.008.008.008a.867.867 0 0 1 .129.008c-.057.133-.086.03-.129-.008h-.051l-.004.002.234.41c.036-.097.012-.206-.048-.405zM47.468 37.203c-.031.008-.055.003-.079 0 .038.033.065.047.079 0zM47.245 37.343c-.043-.036-.175-.081-.128-.178.113-.072.16.027.272.039-.082-.068-.196-.258-.401-.087l.042.038c-.136.152-.585.357-.628.323.311-.031.533-.059.843-.135zM46.541 38.327l.179.355.287-.194-.176.016c.062-.204-.154-.154-.29-.177zM45.67 40.375l-.362.003.529.13zM45.775 40.815l-.311.031.201.078zM59.673 54.325l-.124.07a.326.326 0 0 0 .124-.07zM60.457 54.446l.035-.15c-.045.08-.066.141-.035.15zM48.341 51.648c-.176.283-.473.681-.178.488l.27-.216c-.109-.073-.119-.171-.092-.272zM56.063 53.507l-.047-.101-.076.332.123-.231zM56.068 52.09l.191.209a.773.773 0 0 0-.191-.209zM55.033 52.827l-.347.163c.202.168.224-.044.347-.163zM46.423 45.136c-.113.146-.154.256-.158.348.172-.183.446-.347.158-.348zM60.461 50.777a.3.3 0 0 0-.099.194.238.238 0 0 0 .099-.194zM46.324 45.857c.03-.028.043-.054.068-.081-.073-.086-.131-.173-.127-.291-.128.135-.197.281.059.372zM51.052 38.252c.015-.011.02-.024.037-.034-.046.002-.047.016-.037.034zM53.157 33.259c.066.049.112.131.171.214-.008-.055-.043-.118-.171-.214zM45.835 42.472c-.032-.086-.04-.01 0 0zM47.128 41.886a.47.47 0 0 1 0 0zM48.583 46.409l.001.008c.061-.04.049-.032-.001-.008zM45.974 42.321a.424.424 0 0 0-.088.125.42.42 0 0 0 .088-.125zM45.816 42.357l.024-.08c-.058-.005-.093.009-.024.08zM45.866 42.594c-.011-.051 0-.1.02-.148-.021.02-.04.03-.051.026l.031.122zM52.549 45.594l.028-.027c-.154-.081-.128-.042-.028.027zM52.538 51.412l-.017.008-.001.014.018-.022zM52.855 51.347c-.326.284-.343.196-.334.087l-.297.394-.288.402.471-.431c.23-.219.448-.452.448-.452z"/><path d="M57.698 53.964l.183.377c-.491.378-.707.126-.566.624.377-.989 1.179.235 1.457-.819l.128.259c-.049-.022-.07.038-.119.017.247.577.414-.692.798-.48.132.103.214.273.093.383l.367-.212c.092.035.046.215-.048.181l.506-.03-.007.031a4.12 4.12 0 0 1 .354-.506c.109.164-.071.106-.052.242l.287-.232a.09.09 0 0 1 .006.036l-.452-2.319a.582.582 0 0 1-.102-.208l.537 2.761c-.058.151-.207.245-.329.207.09.608.163.46.29.328l-.736-3.778c.009.114.006.238-.219.028a.545.545 0 0 0 .06-.172c-.268-.538-.298-.301-.561-.611.083.183.616.797.541 1.106-.084-.06-.144-.071-.203.166-.111-.364-.191-.244-.322-.184l-.119-.49c-.112.178-.041.423-.082.667-.19-.004-.313-.378-.424-.691-.306-.019.334.571.004.735-.284-.136-.422.093-.686.445-.211-.144-.016-.309-.105-.441l-.1.421c-.042-.003-.047-.128-.049-.19-.115.175.064.5-.137.669.009.557-.556-.743-.753-.09-.083-.134-.001-.31-.043-.502-.328.45-.285.334-.548.915l-.292-.308c.224.361.011.829-.196 1.209.084.178.157.334.204.407l-.355.293c-.05-.08-.021-.255.027-.469l-.06.125c-.142-.178-.087-.473-.011-.759l.148.302c.071-.311.129-.654.091-.947a.275.275 0 0 1-.105.143.505.505 0 0 0 .013-.209c-.015-.052-.044.061-.094.193l-.107-.557-.007.224-.46-.332c-.293.574-.57 1.415-1.123 1.628.148-.404.053-.67.082-1.158.119.52.386-.207.64-.107-.136-.053-.106-.285-.073-.367l-.456.465c.021-.398-.088-.301-.187-.473.044.794-.354.508-.545.725.024-.263.096-.529.282-.444-.139-.61-.403.891-.526.35.045.002.061.047.102-.082-.151.221-.356-.035-.226-.241l.039.007c-.224-.14-.693-.31-1.144.17l.587-.739s-.411.412-.896.736c-.48.335-1.025.597-1.025.597.429-.387 1.254-1.492 1.647-1.569.003-.098.024-.228-.223-.183-.031.084-.508.67-.599.652.322-.582.147-.35.409-.875-.045.133-.799.654-.865.512.119-.066.698-.554.798-.577l-.446.145c-.227.069-.46.122-.46.122.18-.019.62-.424.79-.62-.124.122-.136-.226-.251-.257l-.103.226c-.073-.377-1.269.314-1.435-.091.188-.037 1.05-.419 1.062-.645-.439.14-2.146.595-2.637.349l.207-.176-.394-.167a87.309 87.309 0 0 1 2.835-.23c.12-.218.257-.169.144-.354a.298.298 0 0 1 .421-.002l-.061-.511c-.476.238-.643-.147-1.042.037l.365.157.364.144c-.469.248-1.511.312-1.577-.098.158-.171.901-.289 1.06-.366-.192.022-.453-.196-.342-.272l.317.038c.122-.249-.778-.054-.376-.455.005-.093.571-.443.269-.36-.536.304-2.297.933-2.764.968.021-.05.399-.67.66-.848.416-.268 1.149-.092 1.506-.325a1.001 1.001 0 0 1-.399-.008c.095-.12.44-.082.327-.253-.526.105-.054-.402-.461.024-.196-.154.054-.229-.02-.447-.321.153-1.197.054-1.394-.129.137-.015.301-.097.376-.135-.034-.428.168-.693.111-1.08.123-.056.251-.266.491-.221-.102-.041-.29-.065-.319-.183.426-.294.11.254.636-.001-.31.031-.47-.243-.684-.389-.472.116-.039.41.18.549-.656.1-1.393-.103-1.751-.487-.207-.315.408-.198.306-.244.041-.635-1.216-.399-.798-.97.399-.25.837-.101 1.135-.18.19.249-.221.441-.183.621l.174-.247c.149.07.276.236.166.347.356-.214-.044-1.049.253-1.565-.152-.069-.313-.199-.474-.11l.075.144c-.324.176-.501-.23-.638-.022-.26-.176-.663-.352-.503-.655l.473-.111c-.139.023-.264.217-.108.279-.226-.091.597-.51-.047-.559l-.307.237c-.266-.169-.805-.341-.688-.599-.457.175.062.049-.467.292.67-.242.05.616.743.286-.62.256-.234.34-.756.638.158-.026.293-.118.24.096a.906.906 0 0 1 .145.029l-.01.015.017-.013c.025.006.03.006.006-.005a.622.622 0 0 1 .229-.133c.376.059.401.395.602.487-.062.133-.189-.032-.35.055l.3.138c-.35.055-.547.398-.786.124l.014.268c-.181.177-.234.407-.071.525-.062.137.426.278.138.199l.269.404-.087.014c.008.436.692.797.138 1.391.113.135.244.268.189.533l-.292.103c.14.172-.19.644.144.665-.762.388.042 1.006.011 1.391l.388-.098c.044.245.228.442.478.68l.328-.132c.352.136-.005.731.181 1.075-.135.028-.141-.079-.092-.175-.557.752.924.686.596 1.327.165.043.162.134.119.246-.005-.009-.016-.014-.029-.017a.116.116 0 0 0 .017.044c-.029.073-.066.153-.089.23a.732.732 0 0 0 .102-.209.77.77 0 0 0 .293.243l-.303.237c.01.007.013.016.025.022-.051.188.21.001.421-.202.089.026.184.04.287.032-.469.412.349.179-.112.659.306-.099.607.435 1.172.065-.065.058-.073.114-.122.063.034.16.078.327.304.301l-.312.374.356-.1.344-.114c-.071.348-.096.542-.516.665.776-.079.471.138 1.155-.069l-.195.244c.138.091.563-.149.513.118 0 .346.415.582.927.737.531.158 1.076.216 1.451.504-.115-.922.358.426.405-.289.041.218.151.342.02.529.402-.208.608.342.863-.264.051.216-.073.322-.03.449.03-.048.118-.194.163-.066.045.127-.051.184-.11.281.405-.052.411-.722.406-1.351.208.285.306.237.416-.184.08.201.21.408-.024.497.135.026.846.235.812-.268.054.122.189.017.218-.044.3-.001.332.041.617-.044l-.091-.071c.038-.619.222-.163.446-.27l.002.063c.603.35.195-.236.809.164l-.095-.367c-.102-.8.548.392.804.019l-.156-.189c.098-.299.719.968.94 1.02.059.058-.035.126-.078.19.618.332-.06-.495.265-.705.143.237.101.678.37.652.177.136.404-.716.817-.838l4.451-1.314-5.074-1.887c-.048-.018-.091-.064-.125-.148.04.211.085.422-.064.562-.223.049-.478-.819-.734-.208a.397.397 0 0 1-.014-.165c-.173.141-.54.203-.7.526.052-.657-.194-.55-.453-.431-.249.112-.5.22-.314-.35a3.089 3.089 0 0 1-.426-.083l.056-.11c-.214-.168-.413.057-.629.264-.02-.103.074-.181.106-.235-.24-.393-.234-.356-.879-.059l.208-.332c-.102.062-.115-.153-.158-.35-.043-.204-.091-.407-.389-.394a.478.478 0 0 1 .158-.08c-.298-.023-.253-.378-.23-.648.007-.256-.046-.425-.713-.17l-.462-.123c.102.429-.584.216-.711.48-.168-.128.193-.608.345-.437l-.051.061c.702-.246.018-.609.487-.794-.173-.385-.231-.814-.254-1.229l-.047-.661-.04-.332c-.007-.079.003-.089-.009-.163l-.552.173-.008-.233c.124-.092.433-.139.436.015.308-.115-.311-.252-.438-.244.189-.4.684.067.684-.054l-.059-.143-.064.043c-.246-.102-.498-.086-.491-.333.102-.166.347-.11.365-.173.04-.003.057-.025.008-.094l.022-.368-.443.18c-.236-.147-.001-.351-.503-.143.774-.304.197-1.423.435-1.6-.345-.217-.353-.452-.33-.745-.091.078-.599.151-.551-.102 1.058.027.429-.486 1.173-.741-.49.216-.173-.711-.866-.375.07-.216.393-.04.629-.219-.444-.471.179-1.135-.025-1.761-.138.005-.338.132-.558.019l.652-.41c-.083-.12-.808-.022-.358-.309-.112.047-.28.116-.334.038.256-.662.021-1.293-.186-1.936a5.385 5.385 0 0 1-.244-1.019c-.045-.372-.021-.775.003-1.37-.092.372-.211.221-.323.057.013.144-.294.176-.44.298-.009-.004.041-.21-.009-.469-.041-.269-.102-.502-.098-.492-.434.255-.678-.426-1.041-.005l.247-.004c-.305.196-.394.506-.512.812-.115.324-.268.641-.528.918.287-.202.233.086.085.254-.123.193-.244.322.248.251-.114.119-.243.058-.386.163.32-.09.423-.019.348.197l-.082.01c.241.452-.009.785-.096 1.432l.358-.117c-.023.147-.132.196-.212.275.586.058-.041-.388.599-.362-.705.315.156 1.003-.683 1.254.025.217.42-.121.444.099l-.224.088.305.019c-.032.152-.313.259-.509.287.019-.038-.067-.092-.088-.127-.249.215.152.515.07.59l.121-.228c.284.583.04 1.361.557 1.93l.172-.058c.356.442-.167.383.015.884l-.043-.016c.181.091.279.222.267.364-.213-.117-.386.267-.624.111.379.485.289.234.962.532l-.287.095c.27.099.41.1.501.354-.263-.197-.435.191-.78-.027-.606.581.691.768-.224 1.081.823.198.417-.505.599-.374.257-.134.616.169.546.345-.006.175-1.013.365-.961.822 0-.046-.061-.044-.061-.09-.191.192.305.308-.004.56.497.065.005.293.628.252l-.192-.413c.19.235.927.347.651.809-.128-.007-.313-.104-.419-.181-.157.164.153.21.007.407-.639.049-.24-.574-.738-.775-.249.162.515.469-.174.418.441.047.436.18.414.352-.014.196-.025.455.324.471l-.364.086c.069.028.265.072.28.157l-.509-.014c.467.12-.226.53.068.713-.16-.483.398-.236.601-.513.654.436-.829.625-.423 1.293-.083-.082.091-.439.305-.342-.03.16-.103.385-.254.535.25.443.334-.205.624-.087-.367.317.259.16.467.298l-.352.144c.001.62.788-.173.718.401l-.567.022.233.189-.415.132c.407.137.39.251.42.577.204-.188.625-.292.753-.08-.101.265-.367.096-.119.388-.245.055-.564.12-.339-.199-.116.047-.248.044-.363.087-.142.305.221.478.295.596-.019-.055-.037-.123-.009-.181l.374.098c.182.047.375.082.375.082-.062.154-.197.167-.333.173.106.072.296.033.425.147-.271.154-.514.361-.792.237l.317.132.312.121c-.088.117-.071.471-.212.49.112.397 1 .185 1.186.633a.287.287 0 0 1 .225-.022c.28.281.406.849 1.042.692l-.004.623c.394.058-.015-.785.617-.709.448-.007-.045.492.036.692.32-.164.82-.584 1.035-.056-.149.062-.218-.045-.341-.04zm2.426-2.782c.021-.092.022-.349.117-.152.13.423-.002.245-.117.152zm-4.593 1.621c.042-.127.117-.068.208.072-.059.034-.128.023-.208-.072zm-9.28-9.379l.02.005c-.131.166-.079.106-.02-.005zm.131-.325a.202.202 0 0 0-.16.002c.098.011.112.079.094.16.096-.032.16-.08.066-.162zm8.603 1.25l-.094.065c-.119-.119-.018-.091.094-.065z"/><path d="M56.066 52.254a.945.945 0 0 1 .04.204.205.205 0 0 0-.04-.204zM55.096 52.796l-.008-.013a.342.342 0 0 0-.055.044l.063-.031zM50.312 47.199a.438.438 0 0 1-.158.159c.09-.023.158-.07.158-.159zM45.557 41.591l.122.173c-.03-.088.048-.13.102-.183-.088.016-.21.067-.224.01zM47.661 39.599c-.05-.023-.012-.06-.062-.083l-.175.028c.026.123.177.19.237.055zM46.787 41.255c.316-.057.192-.163.114-.288.002.008.006.015.003.024-.449.022-.281.141-.117.264zM46.886 40.937c-.021-.039-.035-.079-.025-.122-.18.011-.03.056.025.122zM46.128 42.736c.074-.073-.411.005-.285-.046-.413-.027.537.374.285.046zM47.817 41.006l-.384.101.325.035zM47.661 42.121l.083-.231a.154.154 0 0 1-.141-.043c.004.136-.056.292.058.274zM47.604 41.847c0-.071-.016-.137-.085-.168a.342.342 0 0 0 .085.168zM47.973 41.29l-.074.076-.009.158zM47.855 44.489l.143.226c.137.006.211-.07.146-.151-.1-.045-.164-.128-.289-.075zM48.841 43.639c-.074.074-.161.088-.285.139l.487-.049-.202-.09zM49.038 44.313c.137.007.43.288.361-.002-.136-.007-.279-.227-.361.002zM49.12 47.909l-.022-.056-.766.239zM52.022 49.852c.059-.294-.459.191-.351-.11-.195.039-.088.248-.26.276.247.033.183.153.611-.166z"/><path d="M51.412 50.018a.836.836 0 0 0-.144-.009.398.398 0 0 0 .144.009zM52.632 32.175a2.961 2.961 0 0 0-.158-.273l.008.302c.001-.006.15-.029.15-.029zM51.821 32.475l.219-.469-.386.382c.063-.01.19-.024.167.087zM59.471 50.307l.023.121c.055.123.088.123.155.126l-.178-.247zM59.327 54.778l.048.018-.014-.471zM56.537 54.578c.106.065.279.024.385.088-.283-.023-.184-.628-.385-.088z"/></g><g><path d="M61.942 45.59c-.047-.038-.108.188-.131.225.109-.016.149-.283.131-.225zM63.054 45.374l-.039.09.197-.198zM64.006 45.497c-.067-.4-.342.047-.504-.118l-.015-.094-.123.306c.228-.014.507-.209.642-.094zM65.926 44.12c-.146.053-.144-.026-.031.074l.035-.021c-.005-.01-.008-.025-.004-.053zM65.93 44.173c.024.048.118-.067 0 0zM65.787 43.937l.151.049c.086-.033.094-.099.164-.088-.086-.062-.174-.034-.315.039zM65.488 43.908l.065.034c.036-.014.048-.027-.065-.034zM65.69 44.009l-.138-.067c-.062.023-.188.048.051.034-.117.014-.003.014.087.033zM65.641 44.07c-.076.061-.116.136-.268.081.091.147.354.052.268-.081zM64.064 45.086l-.086-.119-.084.129c.042-.063.172.116.17-.01zM65.93 43.399c-.085 0-.223.046-.331.061l.103.058c.053-.037.103-.106.228-.119zM65.599 43.46l-.152-.092c-.011.094.059.105.152.092zM65.048 43.962l.33.11-.34-.142zM65.924 43.018l.197.053-.298-.097zM65.888 42.751c.163.045.275-.059.375-.011-.028-.073-.167-.138-.291-.199.069.063.049.128-.084.21zM65.792 42.437a.956.956 0 0 0 .18.104.59.59 0 0 0-.18-.104zM65.48 43.187c.051-.01.184-.03.239-.09l-.237.049-.002.041zM65.474 43.147l.008-.002.011-.092-.019.094zM65.479 43.197l.001-.011c-.023.006-.031.008-.001.011zM65.226 43.661c-.138-.046-.294-.172-.484-.021.167.031.276-.052.484.021zM65.183 43.263l-.048.119c.063-.006.154-.032.221-.005l-.173-.114zM65.106 43.209l.077.054.019-.044zM65.564 42.637c-.103-.053-.111-.11-.126-.176a.364.364 0 0 0-.075.208c.074.01.208.041.201-.032zM65.496 42.887l-.014-.011c-.02.007-.026.013.014.011zM65.467 41.802l-.044.009.041.004zM65.318 42.68c-.047.052.011.083.085.112a.24.24 0 0 1-.041-.123c-.034-.005-.056-.006-.044.011zM65.686 42.255a.794.794 0 0 0-.134.087c.075-.023.196-.075.134-.087zM65.549 42.859l.011.008c.051-.017.025-.015-.011-.008zM65.549 42.859c-.035-.026-.094-.046-.146-.067.019.031.045.06.08.084a.568.568 0 0 1 .066-.017zM63.948 41.515c.22.022.417.181.173.297.159.134.89.086 1.302-.001-.096-.009-.185-.013-.309-.148-.123.038-.297.271-.491.152-.105-.177.085-.136.206-.213-.279.057-.389-.24-.795-.224l.134.158c-.063 0-.161-.06-.22-.021zM65.389 42.05l.025.053c.042-.057.132-.095.308-.164a.458.458 0 0 0-.258-.124l-.043.254-.032-.019z"/><path d="M65.406 42.33c-.239-.047-.337-.175-.599-.109.011.153.197.113.299.206-.053-.242.132.072.273-.096.04.048.051.09.06.13a.602.602 0 0 1 .114-.118l-.015.005.001.001h-.004c-.03.009-.048.012-.031.001l-.005-.005-.09-.014c.052-.067.063-.008.09.014l.036.004.003-.001-.123-.245c-.037.049-.033.114-.009.227zM64.216 43.555c.02-.009.038-.01.055-.012-.031-.014-.051-.019-.055.012zM64.354 43.443c.034.016.131.024.111.083-.069.056-.115.008-.194.017.066.032.182.108.29-.009l-.034-.014c.075-.105.368-.241.403-.225a2.755 2.755 0 0 0-.576.148zM64.805 42.863l-.117-.202-.209.102.125-.005c-.049.116.105.091.201.105zM65.587 41.785l.253.04-.352-.138zM65.571 41.511l.22.022-.129-.08zM67.926 53.449l-.026.102a.268.268 0 0 0 .026-.102zM68.389 53.06l-.068-.086c.025.061.049.101.068.086zM66.16 46.009c.06.259-.089.563.036.341l.114-.213c-.037.038-.119-.077-.15-.128zM68.864 48.79l.074-.023-.231-.072.157.095zM69.863 48.923l-.168.127a.446.446 0 0 0 .168-.127zM64.949 54.818l-.072.255c.143-.016.07-.134.072-.255zM64.895 41.305c-.111.06-.165.115-.19.171.159-.07.381-.098.19-.171zM66.399 51.377a.278.278 0 0 0 .068.133.203.203 0 0 0-.068-.133zM64.653 41.718c.027-.01.042-.022.065-.033-.027-.07-.045-.138-.013-.209-.117.051-.199.123-.052.242zM59.125 46.925c.013-.005.02-.012.035-.016-.031-.01-.036 0-.035.016zM62.399 45.5c-.001.025-.023.053-.039.082.022-.005.038-.026.039-.082zM65.054 42.702c-.052.016-.008.027 0 0zM64.758 41.743a.394.394 0 0 1 0 0zM66.022 42.598l-.001.005c.049-.01.04-.008.001-.005zM64.972 42.592a.28.28 0 0 0 .069.072.272.272 0 0 0-.069-.072zM64.986 42.706l-.046-.024c-.006.041.001.066.046.024zM65.127 42.69a.13.13 0 0 1-.085-.026c.011.017.015.03.013.038l.072-.012zM60.554 52.275a.25.25 0 0 0 .008-.025c-.126.005-.093.02-.008.025zM68.957 45.189h-.015v.014l.015-.014zM69.268 45.318c-.324.062-.326-.005-.326-.115l-.524.468.421-.184.429-.169z"/><path d="M66.689 54.271c.001.009.276.115.276.115-.088.451-.356.375-.029.601-.245-.682.778-.476.425-1.145l.203.069c-.039.013-.02.054-.058.067.439.169-.129-.557.171-.658.119-.022.251.011.248.131l.071-.303c.064-.035.14.073.075.11 0 0 .249-.293.235-.301l.014.018a4.352 4.352 0 0 1-.133-.428c.139.005.031.087.116.133l-.013-.268c.204.064.244.312.128.403.698.348-.036-.248.577-.297l-.052.215c.429.16.411-.064.753-.121-.151-.015-.807.003-.834-.296.079-.018.147-.075.079-.257.226.146.233.009.295-.123l.303.19c-.004-.194-.17-.271-.264-.427.122-.13.371-.044.602.019.167-.239-.477-.016-.406-.348.215-.152.148-.367.045-.68.158-.108.199.097.311.077l-.232-.222c.016-.03.096.007.137.026-.074-.144-.337-.118-.384-.311-.373-.139.661-.202.265-.52.107-.034.211.068.349.078-.243-.356-.171-.303-.529-.591l.261-.176c-.293.122-.563-.1-.831-.26l-.298.091-.189-.231c.059-.024.181.001.33.045l-.085-.045c.133-.077.338-.033.537.039l-.221.078c.216.07.454.148.663.149a.219.219 0 0 1-.095-.093c.059.02.111.035.147.029.038-.007-.04-.04-.131-.088l.399-.045-.158-.021.253-.364c-.386-.262-1.022-.422-1.223-.738.299.042.473-.055.815-.107-.348.161.194.289.146.516.026-.113.192-.104.253-.079l-.189-.178-.189-.168c.281-.032.2-.112.301-.234-.532.169-.409-.213-.629-.317.179-.057.375-.068.382.132.352-.313-.708-.102-.415-.382.016.042-.005.073.091.064-.188-.053-.132-.338.038-.336l.016.044c-.032-.319-.397-.897-.821-.679.05-.034.517-.257.608-.285 0 0-.43.071-.834.191-.408.116-.782.279-.782.279.356-.203 1.012-.953 1.358-.867.001-.098-.008-.227-.22-.273-.009.084-.382.476-.45.446.239-.442.122-.258.221-.694-.004.117-.532.496-.594.411.08-.056.43-.462.512-.477l-.332.12-.315.137c.126-.039.358-.394.413-.582-.05.117-.205-.205-.328-.187l.033.191c-.268-.277-.779.564-.983.404.11-.085.507-.623.491-.723a5.778 5.778 0 0 1-.741.655c-.356.269-.809.515-1.086.553l.108-.158-.296.052-.109-.003c.058-.025.124-.052.21-.071.72-.335 1.615-.866 1.9-1.121.051-.126.136-.168.063-.176a.67.67 0 0 1 .24-.189.407.407 0 0 1-.002-.11c-.168.142-.273.2-.387.253-.098.046-.203.089-.342.187l.171-.06c.127-.048.243-.099.347-.154-.205.197-.608.488-.923.58-.11.029-.246.067-.238-.004.145-.143.67-.39.8-.491-.137.081-.268.025-.176-.038l.209-.059c.137-.123-.519.132-.156-.124.022-.049.494-.247.266-.177-.446.164-1.792.697-2.094.704.021-.049.394-.515.616-.602.343-.13.809-.011 1.107-.136a.837.837 0 0 1-.273-.004c.092-.053.323-.032.28-.102-.387.022.049-.175-.323-.013-.1-.09.087-.103.084-.204-.252.037-.821-.187-.905-.357a.975.975 0 0 0 .282.007c.078-.264.276-.373.332-.616.095-.004.23-.096.379-.01-.058-.049-.177-.11-.168-.187.354-.069.011.177.421.156-.213-.058-.252-.259-.36-.4-.34-.048-.124.234-.013.37-.46-.101-.898-.405-1.043-.724-.061-.238.318-.016.262-.069l.016-.042.413.567c-.342-.008-.33.813-.615.486-.119-.301.005-.598-.019-.814.174-.113.257.191.371.18l-.136-.143c.057-.099.176-.175.235-.087-.099-.27-.667-.055-.979-.305-.054.101-.145.204-.098.325l.096-.041c.091.243-.172.334-.05.447-.123.169-.249.436-.428.298l-.051-.342c.01.1.125.204.17.1-.063.151-.299-.464-.352-.017l.138.238c-.084.125-.172.352-.273.421l1.114-1.149c.024.045.026.089-.005.132.314-.053.019-.042.283-.118l-1.369 1.413.027.08c-.129-.491.377.025.197-.492.136.459.201.196.356.589-.009-.113-.058-.216.067-.16a.575.575 0 0 1 .024-.099l.009.008-.007-.013c.005-.017.005-.02-.003-.004a.513.513 0 0 1-.069-.172c.053-.259.257-.249.324-.383.077.054-.03.13.012.251l.101-.2c.013.251.197.417.024.563l.155.012c.09.141.211.197.291.092.07.054.195-.278.123-.081l.252-.155-.002.063.032.001-1.251-1.715c-.058.26.254.621-.235.837.042.11.096.223-.004.374l-.219-.007c.05.138-.281.358-.065.45-.301.036-.37.321-.362.589.005.278.089.549.041.737l.284-.043c-.015.235.083.438.222.658l.24-.112c.225.107-.132.654-.007.961-.098.043-.113-.038-.061-.144-.124.201-.111.307-.073.403.403.104 1.083-.16 1.14.182.16-.037.206.016.237.094a.059.059 0 0 0-.032.001.112.112 0 0 0 .038.018c.017.052.034.111.061.163a.444.444 0 0 0-.039-.156c.075.019.222.049.313.044l-.123.24c.005-.001.007.001.013-.002-.018.103.099-.09.185-.274a.908.908 0 0 0 .147-.103c-.213.376.212-.055-.037.359.162-.153.279.031.644-.28-.042.045-.051.077-.077.059.008.084.018.153.155.111l-.244.244.214-.091.222-.083c-.112.201-.198.289-.452.386.436-.083.21.024.652-.04l-.195.102c.031.05.337.009.191.129-.165.165-.086.304-.04.501.031.2.122.416-.064.629.634-.172-.269.207.232.15-.15.041-.23.097-.371.057.175.162-.204.264.211.375-.155.024-.225-.032-.317-.012.033.012.133.052.04.072-.092.018-.128-.024-.195-.048.022.164.497.195.942.222-.212.099-.182.143.11.242-.15.027-.304.071-.35-.056-.021.073-.27.387.085.45-.092.008-.039.094-.001.121-.038.157-.085.16-.092.319l.068-.028c.401.165.057.155.072.293l-.042-.016c-.376.188.118.184-.328.326l.256.083c.521.245-.419.114-.278.349l.161.01c.143.19-.818-.134-.911-.119-.052-.012-.056-.063-.077-.1-.393-.01.291.196.278.375-.174-.078-.39-.287-.467-.224-.13-.049.333.591-.043.467.128.075.262.142.296.271-.042.142-.579-.163-.347.222a.353.353 0 0 1-.09-.074c.016.139-.077.322.02.566-.297-.356-.334-.221-.383-.053-.047.164-.104.346-.267-.049.005.011-.214.11-.214.11l-.02-.085c-.156-.014-.154.202-.174.422-.049-.045-.036-.132-.042-.177-.294-.13-.306-.102-.501.349l-.051-.273c-.06.165-.418-.37-.655-.086a.378.378 0 0 1 .031-.122c-.146.154-.308-.046-.429-.155-.116-.13-.193-.182-.361.299l-.249.196c.233.136-.158.411-.095.598-.136.028-.195-.358-.047-.376l.005.053c.1-.246.035-.307-.036-.352-.063-.06-.137-.102-.065-.265-.206-.086-.389-.223-.489-.424-.056-.093-.117-.171-.166-.258a1.03 1.03 0 0 0-.139-.257l-.284.295-.081-.128c.049-.087.224-.226.274-.147.153-.174-.266-.001-.338.034.04-.272.431-.198.408-.261l-.06-.051-.032.042c-.169.036-.323.122-.37 0 .031-.11.2-.157.199-.19.025-.013.032-.028-.013-.043 0 0-.058-.16-.049-.167l-.265.202c-.182-.009-.049-.184-.354.054.233-.183.222-.369.161-.536-.063-.164-.119-.34-.048-.395-.25-.078-.291-.209-.27-.374-.065.047-.423.118-.388-.039.747-.017.309-.296.839-.419-.363.107-.095-.376-.599-.232.069-.118.28-.002.462-.083-.276-.292.221-.572.199-.899-.095-.025-.253.004-.383-.098l.511-.072c-.036-.072-.544-.194-.175-.228-.085-.005-.214-.01-.23-.062.331-.264.323-.613.437-.948.076-.343.297-.652.828-.692-.203-.027-.191-.087-.162-.152-.06.014-.202-.134-.318-.2l.475-.017c-.266-.26.16-.253-.098-.499l-.006.114c-.246-.367-.837-.428-1.26-.757.293.405-.866-.039-.43.586-.125-.003-.12-.136-.243-.173.158.184.158.279-.012.367l-.04-.044c-.188.414-.446.494-.799.924l.261.062c-.076.088-.162.08-.245.105.325.257.143-.278.509-.01-.58-.067-.251.709-.867.631-.053.167.309.034.256.198l-.173.001.194.095c-.068.096-.276.105-.414.078.022-.024-.024-.088-.025-.12-.226.103-.018.436-.09.472l.132-.148c.034.253-.039.507-.063.771-.013.265 0 .535.155.766l.127-.031c.217.339-.132.277-.011.656l-.03-.012c.129.068.198.161.19.265-.152-.082-.27.214-.439.105.304.355.226.174.727.334l-.192.095c.2.045.298.03.385.193-.203-.106-.282.194-.545.079-.351.541.622.441.055.85.597-.035.174-.451.326-.394.15-.138.454-.004.439.124.029.112-.616.488-.418.802-.015-.032-.054-.014-.07-.046-.061.191.299.128.179.392.337-.11.093.196.469-.035l-.241-.209c.189.103.681-.071.663.275a.728.728 0 0 1-.318.045c-.048.146.172.07.126.222-.347.259-.347-.22-.706-.21-.114.199.483.127.033.329.576-.258.187.342.698.219l-.202.171c.057.002.2-.025.243.033l-.332.144c.331-.046.138.465.409.485-.353-.266.125-.307.113-.562.606.016-.212.73.378.981-.098-.003-.168-.312 0-.336.056.119.139.264.136.42.385.128.075-.266.302-.336-.032.343.229-.036.406-.067l-.107.247c.327.329.303-.454.564-.154 0 0-.265.32-.267.311 0 .008.216-.039.216-.039l-.133.281c.28-.161.318-.092.506.042-.004-.196.137-.469.302-.44.086.184-.113.237.139.255-.079.155-.185.348-.249.078-.028.084-.09.153-.121.235.1.208.343.132.431.126-.035-.014-.075-.027-.092-.073 0 0 .107-.083.207-.169l.197-.174c.046.104-.004.182-.057.259.077-.024.137-.145.244-.162-.041.217-.047.443-.218.536l.375-.223c.019.096.179.27.131.349.22.15.479-.422.728-.284a.204.204 0 0 1 .081-.123c.229.026.483.268.708-.062-.011.009.253.344.253.344.232-.155-.338-.419.026-.672.239-.199.191.293.324.369.098-.248.192-.656.547-.494-.049.097-.131.086-.201.134zm2.167-1.955c.022.078.083.267-.067.203-.209-.236-.057-.177.067-.203zm.529-3.853c.089.035.044.09-.059.149-.021-.045-.01-.093.059-.149zm-3.753-5.977l.004-.013c.084.105.054.064-.004.013zm-.18-.118a.177.177 0 0 0-.01.113c.013-.068.054-.073.1-.053-.012-.071-.035-.12-.09-.06zm-3.69 8.432l-.048.058c-.101-.02-.03-.037.048-.058z"/><path d="M69.748 48.905c-.046.011-.096.011-.146.011a.13.13 0 0 0 .146-.011zM64.962 54.771l-.008-.003a.277.277 0 0 0-.004.049l.012-.046zM67.02 43.207a.654.654 0 0 1-.144.064c.067-.01.124-.031.144-.064zM64.521 42.818l.108-.069c-.054.013-.077-.046-.107-.089.006.063.033.154-.001.158zM64.104 42.029c.032.02.002.039.035.059h.125c-.005-.078-.103-.138-.16-.059z"/><path d="M64.351 41.924c-.021-.181-.07-.168-.131-.135l.563-.58.024.053c-.001-.005-.002-.011.001-.016.157.021.211.007.213-.025l-.782.806c.031.001.072-.051.112-.103z"/><path d="M64.814 41.283c.009.028.014.056.001.083.127.016.029-.033-.001-.083zM65.224 42.518c-.039-.058-.02.29-.043.197-.04.288.249-.348.043-.197zM64.225 41.179l.053.279.033-.224z"/><path d="M64.93 41.388l-.143-.078a.109.109 0 0 1-.034.095c.088.01.183.065.177-.017z"/><path d="M64.754 41.405c-.045-.006-.087 0-.11.046a.19.19 0 0 0 .11-.046zM64.413 41.096l.046.059.101.021zM66 41.274l.041.17c.089.038.156.011.133-.054-.057-.052-.079-.117-.174-.116zM65.998 40.681c.041.058.041.12.061.212l.021-.346-.082.134zM66.825 41.463c.089.039.216.278.24.088-.088-.037-.129-.204-.24-.088zM66.041 43.573l-.003-.035-.57.142zM67.827 43.625c-.06-.179-.225.282-.204.099-.094.1-.028.144-.107.232.112-.113.191.034.311-.331z"/><path d="M67.517 43.955a9.664 9.664 0 0 1-.073.057.28.28 0 0 0 .073-.057zM62.859 45.398l.148-.001-.185-.071zM62.643 44.983l.292.214-.215-.26c-.002.029-.004.084-.077.046zM69.694 52.348l-.068-.056c-.094-.028-.119.001-.171.057l.239-.001zM67.983 53.859l.035-.018-.253-.218zM66.316 55.118c.089-.011.168-.11.256-.122-.17.113-.383-.267-.256.122z"/></g><path d="M61.976 44.299c-2.969 3.457-2.287 9.918 3.547 8.865 3.918-.707 4.701-7.779.422-8.701-.176-1.09.098-2.299.346-3.275-.695-.043-1.424-.066-2.119-.01-.057 1.129-.158 2.404.146 3.49-.791.01-1.269-.119-1.949-.369" stroke="#000" stroke-width=".782" stroke-miterlimit="10"/></svg>