<svg xmlns="http://www.w3.org/2000/svg" viewBox="0 0 100 100"><path d="M63.386 46.811a10.018 10.018 0 0 0-.297-1.59c-.43-1.498-2.242-3.482-3.459-4.529-1.531-1.321-4.782-1.299-7.604-1.248.043-.168.088-.341.139-.525.414-1.492.678-2.865.676-4.489-.002-.591.148-1.632.188-2.584.4-.153.77-.348 1.088-.598 2.169-1.697 2.239-3.55 1.774-6.249-.316 1.793-1.337 4.354-3.362 4.703a1.927 1.927 0 0 0-.451-.332c.07-2.51-2.738-4.672-5.182-4.419-2.346.243-4.656 2.974-4.848 5.479-1.813-.71-3.191-3.717-3.408-5.627-1.457.792-.184 5.328.738 6.412.697.822 1.73 1.133 2.859 1.225a3.513 3.513 0 0 0 0 .543c.096 1.219.484 2.84.805 4.017.111.409.313.845.519 1.291-1.326-.732-2.449-1.526-3.769-2.415-2.535-1.709-6.553-4.274-7.043-7.543-.215-1.448 1.031-3.006 1.295-4.382.199-1.04.783-2.401 1.098-3.656.523 1.149.906 2.3 1.006 3.347.715.106 1.248-.298 1.887-.482.133-.876-.524-3.051-1.367-4.54.357-.142.709-.281 1.063-.412 2.941-1.091 5.939-2.214 8.603-3.855 4.674-2.877 11.661-3.744 15.177-8.488-4.436-.316-8.702 2.57-12.524 4.432-4.441 2.16-9.592 3.738-13.191 7.152a1.256 1.256 0 0 0-.496-.298c-.459-1.245-.818-2.56-1.441-3.743-.871-.096-1.561.582-2.088 1.274a49.213 49.213 0 0 1 2.006 3.041c-.887.545-1.912 1.289-2.488 1.473-1.103.348-3.754 1.039-1.74 2.383v-.16c1.629-.479 3.246-1.16 4.842-1.842-1.199 1.557-2.271 3.932-3.107 5.367-1.248 2.139-4.236 4.52-2.734 6.912.643 1.022 1.814 1.422 2.646 2.09.947.761 1.637 1.608 2.699 2.26 2.533 1.557 3.516 2.734 4.49 5.447 1.045 2.914 1.301 5.441 1.123 8.641-.09 1.646-.59 3.074-1.088 4.58-.57 1.721-.6 3.648-1.236 5.351-2.416 6.45-1.692 13.531-1.692 20.476l.483 1.928c1.039-.142 3.379 4.138 4.191 3.5.555-.434.879-6.301 1.137-6.964.641-1.635 1.037-2.7.947-4.569-.1-2.008-.318-3.203.637-4.949.82-1.5.992-2.477 1.469-4.031.379-1.232 1.281-4.674 2.43-4.037.758.423 1.445 2.892 1.756 3.695.559 1.439 1.047 3 1.414 4.494.656 2.659 1.854 5.278 2.254 8.042.186 1.276-.002 5.716 1.779 5.472.92-.125 1.899-2.278 2.075-3.063.691-3.051.127-6.931-.168-9.959-.367-3.766-.946-7.584-2.536-10.913-1.387-2.912-4.07-7.214-2.246-10.606 1.973-.249 4.405 1.416 6.2 2.963-.006 1.236.367 2.461.483 3.489.221 1.968.086 3.78.646 5.589.93 2.992 3.315 6.285 6.486 6.941 1.941.402 3.604.395 4.779-1.16 1.17-1.545 1.652-2.994 1.932-4.859.949-6.397-.881-14.249-8.254-14.893zm1.019.148c-.336 0-.67.004-1 .011-.006-.052-.012-.104-.02-.155l1.02.144z" fill="#fff"/><path d="M63.386 46.811a10.018 10.018 0 0 0-.297-1.59c-.43-1.498-2.242-3.482-3.459-4.529-1.531-1.321-4.782-1.299-7.604-1.248.043-.168.088-.341.139-.525.414-1.492.678-2.865.676-4.489-.002-.591.148-1.632.188-2.584.4-.153.77-.348 1.088-.598 2.169-1.697 2.239-3.55 1.774-6.249-.316 1.793-1.337 4.354-3.362 4.703a1.927 1.927 0 0 0-.451-.332c.07-2.51-2.738-4.672-5.182-4.419-2.346.243-4.656 2.974-4.848 5.479-1.813-.71-3.191-3.717-3.408-5.627-1.457.792-.184 5.328.738 6.412.697.822 1.73 1.133 2.859 1.225a3.513 3.513 0 0 0 0 .543c.096 1.219.484 2.84.805 4.017.111.409.313.845.519 1.291-1.326-.732-2.449-1.526-3.769-2.415-2.535-1.709-6.553-4.274-7.043-7.543-.215-1.448 1.031-3.006 1.295-4.382.199-1.04.783-2.401 1.098-3.656.523 1.149.906 2.3 1.006 3.347.715.106 1.248-.298 1.887-.482.133-.876-.524-3.051-1.367-4.54.357-.142.709-.281 1.063-.412 2.941-1.091 5.939-2.214 8.603-3.855 4.674-2.877 11.661-3.744 15.177-8.488-4.436-.316-8.702 2.57-12.524 4.432-4.441 2.16-9.592 3.738-13.191 7.152a1.256 1.256 0 0 0-.496-.298c-.459-1.245-.818-2.56-1.441-3.743-.871-.096-1.561.582-2.088 1.274a49.213 49.213 0 0 1 2.006 3.041c-.887.545-1.912 1.289-2.488 1.473-1.103.348-3.754 1.039-1.74 2.383v-.16c1.629-.479 3.246-1.16 4.842-1.842-1.199 1.557-2.271 3.932-3.107 5.367-1.248 2.139-4.236 4.52-2.734 6.912.643 1.022 1.814 1.422 2.646 2.09.947.761 1.637 1.608 2.699 2.26 2.533 1.557 3.516 2.734 4.49 5.447 1.045 2.914 1.301 5.441 1.123 8.641-.09 1.646-.59 3.074-1.088 4.58-.57 1.721-.6 3.648-1.236 5.351-2.416 6.45-1.692 13.531-1.692 20.476l.483 1.928c1.039-.142 3.379 4.138 4.191 3.5.555-.434.879-6.301 1.137-6.964.641-1.635 1.037-2.7.947-4.569-.1-2.008-.318-3.203.637-4.949.82-1.5.992-2.477 1.469-4.031.379-1.232 1.281-4.674 2.43-4.037.758.423 1.445 2.892 1.756 3.695.559 1.439 1.047 3 1.414 4.494.656 2.659 1.854 5.278 2.254 8.042.186 1.276-.002 5.716 1.779 5.472.92-.125 1.899-2.278 2.075-3.063.691-3.051.127-6.931-.168-9.959-.367-3.766-.946-7.584-2.536-10.913-1.387-2.912-4.07-7.214-2.246-10.606 1.973-.249 4.405 1.416 6.2 2.963-.006 1.236.367 2.461.483 3.489.221 1.968.086 3.78.646 5.589.93 2.992 3.315 6.285 6.486 6.941 1.941.402 3.604.395 4.779-1.16 1.17-1.545 1.652-2.994 1.932-4.859.949-6.397-.881-14.249-8.254-14.893zm1.019.148c-.336 0-.67.004-1 .011-.006-.052-.012-.104-.02-.155l1.02.144z" fill="none"/><g fill="#fff"><path d="M64.87 43.666l.09-.618-.09.618zM64.634 44.945l.034-.233-.088.567zM64.586 44.927c-.132.966.04-.153 0 .191l-.03.22.114-.776c-.027.121-.114.636-.084.365zM64.856 42.835c-.052.375-.052.322-.011.119a7.85 7.85 0 0 1 .012-.095c-.001.004-.002.003-.001-.024zM64.858 42.858c.009-.026.042-.317 0 0zM64.804 43.07l.054-.334.056-.435c-.033.183-.063.404-.11.769zM64.697 43.774l.024-.142a2.317 2.317 0 0 0-.024.142zM64.771 43.334l-.05.299c-.021.156-.065.468.019-.108-.041.285-.001.01.031-.191zM64.754 43.481c-.026.211-.04.343-.094.677.032-.132.127-.81.094-.677zM64.442 45.925l-.035.282.05-.322c-.024.16.028-.262-.015.04zM64.832 42.564l-.112.811.038-.235.074-.576zM64.72 43.375l-.058.352c.001.042.026-.126.058-.352zM64.544 44.846l.118-.74-.122.75zM64.807 42.534l.071-.475-.109.718zM64.776 42.615l.128-.909-.115.71c.028-.169.027-.124-.013.199zM64.719 42.858l.07-.442-.07.442zM64.664 43.623l.077-.587-.079.578.002.009z"/><path d="M64.66 43.632l.003-.019-.002-.033-.001.052zM64.664 43.626v-.003c-.008.056-.011.076 0 .003zM64.598 44.32c-.05.322-.108.666-.17 1.162l.17-1.162zM64.565 44.349l-.011.133.077-.536-.066.403zM64.536 44.531l.029-.182.004-.05zM64.656 43.402c-.039.25-.046.271-.056.312-.012.114-.011.175-.011.175.027-.182.075-.507.067-.487zM64.651 43.564a.647.647 0 0 0 0 0zM64.559 43.702l-.014.106.014-.1v-.006zM64.575 43.996c-.012.112.01-.028.037-.206a.512.512 0 0 1-.023.099c-.011.081-.019.136-.014.107zM64.669 43.127l-.039.318c.024-.182.061-.469.039-.318zM64.667 43.437l.004-.026a2.264 2.264 0 0 0-.004.026zM64.667 43.437l-.055.352.033-.192.022-.16zM64.02 47.411c.076-.535.156-1.029.082-.453l.443-3.15-.117.765-.155 1.171c-.05.275.018-.191.053-.475l-.288 1.952.058-.344-.076.534z"/><path d="M64.552 43.864l.013-.066.092-.729-.098.638.005.077-.012.08z"/><path d="M64.58 43.799l-.213 1.461c.015-.04.076-.486.117-.738-.036.142.051-.324.086-.656l.03-.152.03-.269-.005.037.001-.003-.002.011-.01.074-.002.013-.032.22c.013-.121.021-.153.032-.22l.012-.087.001-.007-.061.317c-.008.081-.001.065.016-.001zM64.243 46.734l.019-.135-.019.135zM64.286 46.38c.013-.08.047-.314.042-.253l-.067.472.1-.702-.012.079.13-1.009-.193 1.413zM64.411 45.239l-.053.284-.065.505.043-.303c-.01.12.041-.253.075-.486zM64.598 43.413l.089-.615-.13.867zM64.571 43.484l.077-.536-.05.323zM63.437 43.725l.001-.153-.001.153zM63.407 43.688l.004.266-.004-.266zM64.151 43.486c.065-.5.169-1.276.084-.674l-.081.587c.019-.106.012-.039-.003.087zM63.372 46.95l-.024.179.083-.561-.059.382zM63.023 49.378l.007-.059.002-.014 2.824-2.869-.032.006-.069.013-.188.035.193-.034.093-.018.023-.004-2.846 2.889-.001.011-.006.044zM63.589 43.094l-.005-.603c.001 0 .001.307.005.603zM64.369 43.675l.038-.356c-.042.339-.109.845-.038.356zM63.545 50.014l-.004-.36.004.36z"/><path d="M64.393 43.32l-.017.139c.017-.098.032-.177.031-.139.032-.252.049-.406-.014 0zM64.184 43.579l.002.071c0-.081-.001-.084-.002-.071zM64.361 49.56c-.001.035-.004.036-.006.044.001.041.003.037.006-.044zM64.54 43.219c.009-.038.01-.066 0 0zM64.228 45.542l-.042.285.042-.285zM63.84 46.968v-.002c-.016.115-.013.093 0 .002zM64.508 43.486l.02-.175-.02.175zM64.546 43.209l-.005.057c.015-.098.023-.159.005-.057zM64.531 43.249c.003-.008.001.02-.003.062l.012-.092-.009.03zM63.886 45.169l.001.055c.001-.245 0-.206-.001-.055zM63.194 49.567l.005-.029.002-.02-.007.049zM63.119 50.003c.109-.73.1-.64.082-.485l.236-1.693-.318 2.178z"/><path d="M63.505 43.553l-.019-.531c-.003-.877.011-.575-.012-1.325.031 1.856-.035.191-.004 2.044l-.013-.39c.002.019 0-.091.003-.073-.029-.888.015 1.341-.005 1.077l-.017-.632-.004.459a4.898 4.898 0 0 1-.005-.323l-.016.149-.001-.055.006.933-.007-.428-.001.45c-.014-.481-.014-.947-.006-.879-.046-1.852.001.468-.042-.614l.005-.237c-.027-1.052-.028-.67-.052-1.326l.054 2.115c-.006-.14-.012-.207-.01.167l-.014-.491c-.002-.019-.003-.015-.004-.005l-.002.019-.001.005v.001l3.353 2.938h-.002l-.01-.001.869-.097c-.252.013-.694.064-1.086.101.083-.025.755-.107 1.321-.179.134-.044-1.076.146-1.244.135.33-.061-.026-.034-.548.011.296-.052.53-.066.778-.103l-.693.078.336-.046-1.103.13c-.954.127 1.39-.221.305-.09l.865-.122c-.713.074-.519.05-1.478.172l.566-.102c-.513.088-1.104.168-1.641.243l-.616.61.061-.392.057-.429.012-.089.005-.041.003-.019-.523.513-.123.02-.02.003-.023.003.716-.73.001-.007.003-.016.028-.159.04-.231-.116.8.032-.207-.186 1.302.07-.534-.235 1.613.038-.233-.052.356c-.012.091.016-.1.05-.32l-.134.965.055-.383-.067.606c.151-.969.365-2.397.443-2.792l-.284 1.993c.12-.889-.07.375-.055.193l-.087.633.134-.804-.104.799c.188-1.355.143-.9.209-1.314-.064.455-.132.919-.126.807-.134 1.022.239-1.588.127-.72-.004.01.005-.06-.029.171.063-.404.031-.082-.028.315l-.004.008c-.007.163.047.017.212-1.132l-.233 1.618.577-3.867-.559 3.897c-.016.141-.035.306.022-.039l.213-1.52-.198 1.529.249-1.711-.242 1.691.231-1.52-.241 1.719c.04-.296.009.031.034-.119l.044-.354c-.016.232.32-2.137.326-2.055l-.298 2.127.649-4.343-.06.446.083-.506-.691 4.593c-.044.354-.073.525-.057.486a11.83 11.83 0 0 1-.101.657l-.016.273.253-1.667-.158.939c.128-.908.38-2.579.373-2.416l-.275 1.922c.047-.314.1-.596.07-.374l-.076.485c-.04.343.185-1.203.073-.334-.005.059-.155 1.172-.078.634l.71-5.028-.19 1.509-.378 2.638.098-.653c-.026.213-.111.769-.086.657.132-.921.006.08.114-.777.046-.263-.018.191-.003.152l.342-2.289-.094.68c.005.085-.045.505-.031.516l-.121.891.08-.496-.157 1.079.171-1.07c.115-.828.007-.161-.048.172.162-1.141.343-2.335.434-2.861.053-.282-.099.739-.074.576-.004.203.303-1.99.207-1.165l-.277 1.972c-.05.275.049-.463.038-.435l-.04.345c-.038.241-.071.424-.045.213-.086.654.023.131-.044.738l.118-.788-.02.101.157-1.084c.066-.412.167-1.06.131-.725l-.115.829c.034-.242.063-.494.024-.243.057-.367-.142 1.126.017.04l.074-.576c.067-.416.202-1.295.175-1.032l.113-.866c-.163 1.193-.018-.054-.186 1.2l.18-1.424c-.039.275-.071.524-.06.389l-.036.241.002-.021-.004.032a96.133 96.133 0 0 0-.056.428l-.154.931.085-.607-.076.486c.086-.608.13-1.011.192-1.365l-.007-.029c.042-.342.053-.478.012-.224.014-.132-.108.672-.036.196l-.07.374.021-.152c-.005-.079-.176 1.001-.039-.098-.027.152-.059.339-.044.166l.073-.526c-.033.183.054-.529-.027.018.193-1.415.01-.313.033-.566l-.098.686c-.003-.04-.039.152-.088.428l-.085.606c-.08.496.038-.435.015-.374.034-.232.029-.17.012-.03.177-1.373-.178.992-.052-.009-.035.22-.027.143-.008-.009l.005-.03v-.009l.04-.324-.042.326c-.005.012-.02.085-.046.239l.091-.652-.004.018c.03-.241-.047.308-.114.798l-.062.393c.146-1.053-.062.352.092-.77l-.246 1.558.034-.23c.014-.133.027-.264-.023.059l.115-.827-.169 1.111.201-1.435-.216 1.337.077-.535c-.008.02-.117.735-.057.292.134-1.019-.033-.148.073-1.097-.218 1.577.087-.709-.087.513l.128-.908c-.066.364.063-.594-.093.435l.111-.769c-.013.081-.051.325-.02.102l.072-.475c-.023.06-.188 1.209-.342 2.288.033-.256.045-.366.037-.323l-.029.179-.027.177-.017.11-.009.061-1.513 1.558.033-.005-.509.08-.203.031-.078.011-.017.002-.008.001 2.402-2.432.001-.004.005-.026.001-.014v-.008l-2.467 2.493-.011.002-.054.01a1.469 1.469 0 0 1-.081.016c-.015.005.085-.007.517-.07-.218.033-.062.013.037-.001-.051.013-.129.025-.046.019l.141-.021c1.045-.141.235-.026.36-.038l-.108.014c-.751.11.362-.04-.496.081l.651-.082c1.398-.172-.824.114-.288.054l.372-.047c.479-.05-1.903.233-2.078.251l-.286.032-.222.025 3.851 3.375-.018-1.284.031 1.262c.011.375-.007-1.503.021-.615l-.018-.98c.006-.129.049 1.347.035.223l.007.279.005-1.093c.047 2.264.022-1.101.058.986l.018-.112.003.213c.015.138.011-.362.007-.864l.008.447c.026.421.026.332.025-.708l.012.677c-.002-.394.043 1.062.05.272l.002.303c.01-.795.075 1.878.049-.588l.006-.608c-.021-.192-.011-1.07-.024-1.48.005-.145.029.744.021.87l-.003-.123c.014 1.285.028.455.039 1.33.034-.062.077.648.109.702l-.014-.999.012.057c.005.233.012.781.004.741.01.566.009-.475.007-.692.02.405.006 1.165.011 1.189l.006-.073-.003-.118c.001-.408-.003-.841.008-.791l.012.656c.001.069.002.103.004.027l.015.085-.013-.789c.003-.388.014.041-.001-.853.022 1.378.058.494.068.923.004-.576.014-.566.025-.496-.004-.165-.012-1.052-.002-.943.01 1.829.023.794.039 2.11-.013-.873.025-.216.007-1.456l.013 1.116c.015-.71.043.46.065.221l-.003-.965.018 1.201c.004-.117-.002-1.386.01-.552a193.66 193.66 0 0 1-.002-.584c.049 1.17.092-.96.141 1.24-.007-.466-.003-.512.002-.53l-.002-.919.02.904c.003-.904.02-.06.022-.926l-.004.161-.012-3.576c-.009 1.16-.028-1.717-.042-.057v-.725c-.003.561-.008.679-.018.426l.001-.139c-.026.138-.038-.416-.069-.784l.004.646-.012-.45.015 1.137c-.012-1.317-.044-.02-.055-1.515l-.004.74-.004-.404v.521l-.014-.935c.002.041.004-.096.006-.125-.011-.477-.023.163-.027.008l.011.25c-.025.378-.061-.153-.081.671l.004.306c-.016.566-.018-.335-.037-.074v-.072c-.002.304-.007.459-.013.423l-.011-1.091c-.017.607-.007.477-.012 1.612l-.007-.506c-.001.458 0 .7-.009.831l-.008-1.346c-.032-1.107-.024 1.118-.048-.501.002 1.402.026.779.023 1.079.009.458.001 1.048-.007.907l-.019-.905-.013-.601a1.902 1.902 0 0 0-.014-.26l.003-.093c-.01-.359-.009.484-.023-.096l-.002 1.032.014-.25c-.007.283-.002 1.548-.024.935l.002-.665c-.008-.319-.006.212-.014-.117-.01-1.082.018-.235.019-1.06-.01-.457-.011.785-.018-.388.008 1.491-.02-.187-.02.95l-.006-.648-.005.391-.003-.841c-.002.717-.026-.627-.032-.236.02-.02.013.78.027 1.254-.015.868-.034-1.696-.058-1.384.003-.091.019.389.017.69l-.024-.722c-.017.135.011.667.008 1.066-.016-.79-.005.322-.01.574l-.008-.659c-.026-.423.012 1.375-.013.863l-.004-.914-.007.236-.008-.75c-.004.556-.009.412-.022.202l.01.775a6.02 6.02 0 0 1-.004.442c-.012-.392-.005-.627-.017-.532-.003-.413-.007-.931.007-.322l-.005-.626c-.013-.451-.019-.103-.024-.097l.007.155-.006.912-.007-.641-.006.43-.01-1.34-.01.595-.019-.837c-.015-.315-.01 1.04-.029.625l-.001.28c-.014-.121-.037-.778-.04-.044l-.024-.96c-.008.219.032 1.21.018 1.572-.009.308-.019-.818-.028-1.086.001.484.006 1.47-.02.687-.002-.187.004-.045.006-.116zm-.136.427c0-.138-.003-.564.007-.176.012.755.002.394-.007.176zm-.155 4.227c-.032.215-.02.109.011-.139.01-.054.009-.029-.011.139zm1.212-4.463l-.005.032c.03-.255.018-.156.005-.032zm-.028.286l.039-.273c-.024.165-.029.176-.025.129-.024.171-.039.289-.014.144zm-.43 5.574l-.004-.171c.003-.19.003-.02.004.171zM63.064 49.097l.049-.355-.049.355z"/><path d="M63.59 43.205l.001.009-.001-.119v.11zM63.426 49.536l.043-.337-.043.337zM64.619 42.929l-.032.169c.008-.032-.011.111-.023.214l.055-.383zM64.113 46.977l.016-.089.043-.303a4.33 4.33 0 0 0-.059.392zM64.318 45.099c-.077.55-.046.363-.026.262 0 0-.002.007-.001 0 .111-.768.069-.515.027-.262zM64.296 45.343c.005-.025.009-.04.007-.013.044-.309.007-.065-.007.013zM64.465 43.667c-.017.142.101-.701.071-.478.101-.698-.138.844-.071.478zM64.066 46.908l.094-.678-.08.545zM64.094 46.404l-.018.189.035-.232c-.002-.023.011-.158-.017.043zM64.111 46.362c.001.015.006 0 .023-.111l-.023.111zM64.025 47.109l.018-.142.001-.05zM64.02 46.26l-.037.193c-.034.232-.051.375-.035.282l.072-.475zM63.785 48.12l.069-.516-.119.84.05-.324zM63.73 48.313c-.034.232-.109.667-.089.616.033-.231.07-.424.089-.616zM63.739 47.23l.004-.011.195-1.377zM63.146 50.508c-.036.332.123-.85.075-.436l.082-.619c-.055.343-.031.148-.157 1.055zM63.303 49.453l.033-.21-.033.21zM64.386 50.305l.007.29-.004-.467zM64.399 49.273l.002.887.004-.803c-.002.04-.005.117-.006-.084zM63.311 42.196l.004.212c.006.231.008.248.013.284l-.017-.496zM63.431 42.857l-.002-.019.018.802zM63.503 41.833c-.004-.033-.006.146-.01.112.006-.145.028.888.01-.112z"/></g><g fill="#fff"><path d="M63.407 50.179c-.39-.117-.3.475-.365.568.611-.018.382-.719.365-.568zM69.068 53.67l-.274-.056s.258.22.469.489l.453.535-.32-.496c-.149-.25-.328-.472-.328-.472zM69.553 61.809c.544-.291.623-1.095.557-1.959-.044-.873-.265-1.801-.144-2.554l.207-.264s-.205-.154-.425-.296l-.431-.278c.191.847.37 1.87.459 2.848.065.974.017 1.914-.223 2.503zM66.772 63.433c.274.211.105.42.211.017l.027-.148c-.048-.003-.071-.012-.102-.019a.418.418 0 0 1-.039.063.48.48 0 0 1-.097.087zM66.907 63.284c.084-.186-.321-.093 0 0zM66.115 63.949c.024.011.245-.354.221-.362-.133-.207-.288-.261-.253-.429-.123.181-.194.398.032.791zM65.696 64.614c.006.005.263-.103.263-.103-.044-.102-.083-.137-.263.103zM66.403 64.215c.023.016-.421.311-.443.295.054.166.109.493.226-.092-.018.292.082.022.217-.203zM66.703 64.31c.296.139.757-.008.429.61.489-.343.414-.749.284-.826-.155-.109-.354.012-.713.216zM70.463 62.42l.225-.417.214-.432-.228-.835c.13.428-.502 1.692-.211 1.684zM63.598 61.46c-.205.067-.308.545-.477.753l.289.191.29.167c-.1-.329-.345-.906-.102-1.111zM63.121 62.212s-.218-.147-.43-.319c-.214-.168-.421-.359-.421-.359.442.846.706.854.851.678zM65.402 65.659s.386-.107.683-.273c.307-.157.523-.38.523-.38s-.266.23-.641.373a3.982 3.982 0 0 1-.553.172c-.167.033-.291.047-.291.047s.282.07.279.061zM62.467 58.34c-.001.022.543.469.545.442 0 0-.213-.158-.421-.393-.209-.224-.412-.516-.412-.516s.286.481.288.467zM62.122 54.739c.233.33.383.106.494-.221.107-.343.191-.643.382-.182-.144-.774-.351-1.222-.547-1.569-.042-.036-.118-.272-.183-.457-.074-.187-.108-.379-.165-.56l-.253-1.063c.052.373.086.763.115 1.164.022.198.037.401.076.601l.064.438c.043.414.076.959.017 1.849zM60.491 49.015c.336.222.738.435 1.109.696l.25.975a15.68 15.68 0 0 0-.171-1.016c-.344-.244-.771-.461-1.188-.655zM61.654 59.863c.088-.132.37-.305.407-.797l-.251.227-.243.233c.023.111.044.199.087.337zM61.55 59.543l.016-.017a6.313 6.313 0 0 1-.118-.81c.011.113.027.393.102.827zM61.684 59.96l-.03-.096c-.041.054-.053.082.03.096zM63.489 64.06c-.648-.11-1.875-1.071-1.319.344.622.073.311-.637 1.319-.344zM61.18 60.701s.078.289.178.578l.214.572c.125-.097.224-.387.519-.185 0 0-.236-.223-.47-.463-.227-.241-.441-.502-.441-.502zM60.806 60.217l.18.245.194.239-.107-.427-.267-.057zM61.053 53.144l-.111-.182c-.039-.081-.081-.223-.118-.334a4.216 4.216 0 0 1-.148-.74 22.045 22.045 0 0 1-.134-1.629c-.095-.099-.163-.215-.289-.313.106.103.156.225.239.339a29.563 29.563 0 0 0-.031 1.966c.011.157.012.316.038.467l.056.389.097.561c.206.106.597.399.401-.524zM61.318 56.812l-.042-.146c-.044.094-.056.169.042.146zM47.653 48.645l.163-.169a.64.64 0 0 1-.082-.075l-.081.244z"/><path d="M60.575 53.842c.009.364.069.684.149.997.072.26.174.468.28.67-.092-.493-.233-1.287-.352-1.841-.092-.043-.148-.044-.077.174zM57.254 46.862c.395.403.883.874 1.334 1.353-.265-.463-1.107-1.397-1.334-1.353zM61.424 56.429c.011.032.024.064.032.1.113-.23.052-.204-.032-.1zM61.424 56.429c-.106-.352-.267-.631-.421-.921.083.441.169.838.272 1.157.037-.087.096-.171.149-.236zM51.034 51.948c-.263-.024-.592-.446-.667-1.1-.075-.64.142-1.52.755-2.038a.264.264 0 0 0 .005-.064l-.015.01c.486-.216.738-.519.727-.958-.015-.423-.313-.97-1.02-1.364l-1.754 1.203c-.403.17-.869.452-1.249.839.101.074.2.131.235.452.035.315-.008.915.097 1.96.122-.347.483-1.492.959-2.195.521-.699.912-.99.8-.172-.367 1.173-.394 1.644-.575 1.965-.152.321-.351.496-.49 1.1.322-.506.568.277.963.956.387.698.918 1.3 1.332.961 0 0-.188-.385-.362-.788l-.21-.566-.076-.265c.144-.033.448.533.545.064z"/><path d="M54.126 46.108l.42.125c.212.063.403.136.403.136l-1.259-.725c-.475-.251-1.007-.565-1.96-.81-.532.044-1.005.174-1.084.236l-2.793 1.917c-.299 1.039-.223 1.286-.12 1.415.148-.407.349-.8.539-1.19l.733-1.504 1.7-.166c1.535-.15 2.755.204 3.726.597l-.305-.031zM58.22 48.382c-.5-.022-1.253-.301-1.733-.351-.431-.019-.676.092-.418.63.981.628 1.398.825 1.75.91.354.093.636.093 1.345.524-1.675-1.301-1.402-1.147-.933-.969.448.188 1.141.477-.028-.671.786.485 1.431 1.002 2.051 1.492l-1.666-1.731.061.094.02.012-.01.005c.11.179.128.248-.023.077-.017-.002-.063-.036-.085-.05-.087.036-.205.035-.327.027-1-.895-.063-.254.327-.027.03-.013.081-.009.108-.027l-.01-.017-.631-.419-.656-.406a9.555 9.555 0 0 0-.666-.362c-.804-.416-1.746-.753-1.746-.753l1.25.706.796.476c.384.243.778.506 1.224.83zM60.286 64.082c-.01-.101.027-.122.059-.151-.159-.115-.245-.144-.059.151z"/><path d="M59.969 62.908c.174.137.45.164.753.731.185.556-.233.16-.377.293.372.252 1.151.837.664-.292l-.174-.106c-.474-1.031-.31-2.551-.158-2.405-.363.474-.616.876-.708 1.779zM59.608 56.548s-.102-.619-.24-1.268a11.88 11.88 0 0 0-.223-.921l-.116-.387c.012-.026-.284 1.419-.309 1.396l.298-.097c.005 1.458.338 1.108.59 1.277zM47.244 49.008l-.224-.349-.215-.366.019.418c.013.249.037.574.107.881.06.309.128.608.183.826l.12.346c-.048.03-.055-1.74.01-1.756zM47.313 53.744l-.565-.043s.576 1.04.588 1.013c0 0-.018-.228-.018-.48l-.005-.49zM35.253 11.005a4.84 4.84 0 0 1 .553.164c-.273-.136-.435-.164-.553-.164zM31.194 11.251l.166.336c-.223-.223-.334-.354-.166-.336zM37.534 81.678c-.611.984-1.524 1.899-.908 1.86l.626-.203a4.078 4.078 0 0 1 .282-1.657zM37.652 40.237l-.039.347c.288.139.55.292.795.426-.226-.241-.48-.512-.756-.773zM35.192 40.823c.019-.006-.195-.986-.225-.982.036.253.116.547.225.982zM58.027 2.248s.229-.209.49-.394l.527-.375c-1.786.261-.922.469-1.017.769zM53.84 82.44s.076-.195.432-.475c.09-.077.184-.143.281-.198.094-.052.188-.09.34-.193.275-.167.557-.296.839-.391.47-.186.329-.15.361-.17.007-.013.01-.017.01-.064.002-.077-.007-.121-.015-.227-.029.097-.057.149-.088.214-.032.076-.064.123-.1.144l-.053.052-.013.014c-.038.018-.085.029-.126.044l-.251.095a4.07 4.07 0 0 0-.468.231c-.151.088-.297.188-.377.218-.903.65-.713.673-.772.706zM33.843 18.529c.085-.013.129-.113.136-.323-.098-.046-.153.046-.136.323zM55.883 78.634c-.05.154-.071.317-.112.466.137.591.266 1.157.318 1.622a2.604 2.604 0 0 0-.206-2.088zM55.334 28.026c-.001.15.017.327.005.46.087.036.063-.168-.005-.46zM57.491 42.448l-.679-.144c.067.038.177.07.292.091.094.026.222.029.387.053zM51.482 65.61c-.159-.573-.084-.08 0 0zM52.993 62.15c.106.106.219.178.354.153a.513.513 0 0 1-.354-.153zM50.644 72.412l-.016-.057c-.048.227-.038.187.016.057zM51.553 64.68a5.41 5.41 0 0 0-.007.78c.021-.132.026-.369.007-.78zM51.307 64.859l-.066-.51c-.113-.044-.157.031.066.51z"/><path d="M51.669 66.429a7.156 7.156 0 0 1-.123-.969c-.017.122-.039.178-.065.15.044.172.106.41.188.819zM34.871 26.815c-.028.021-.053.048-.09.072.089.475.111.283.09-.072zM32.656 75.147c.006.032.021.047.03.077l.019-.102-.049.025zM32.193 72.692c.739 1.056.655 1.643.511 2.43l1.697-.823-2.208-1.607z"/><path d="M42.9 9.276l-.903.11-.917.124c1.608-1.696 3.071-1.98 1.301-2.033.26.903-1.264 1.602-2.865 2.445-1.596.824-3.232 1.899-2.827 2.762l-.643.188-.646.223c.319-.203.303-.338.62-.526-1.003.274-1.36.704-1.543 1.192-.191.477-.21 1.048-.582 1.684l3.753-.042c-.317-.19-.782-.539-1.605-.763v-.001l.153-1.219.04-.321c-.006-.04-.024-.038-.036-.06l-.08-.101-.331-.441c-.618-.937-1.004-1.476-.535-1.493-.517-.118-.935-.221-1.379-.391l-.03.004c-.382-.031-.547-.072-.532-.154.014-.074.214-.181.564-.171l.082.052-.083-.044c-.724-.017-1.418.2-1.984.513a6.05 6.05 0 0 0-.812.539c-.049.046-.161.113-.157.144l.157.053.313.108-.033-.071c.45.418 1.313 1.393 1.69 1.942.584-.118-.319-.477-.19-.757 0 0 .352.319.686.684l.124.137c.022.045.144.092-.003.134a6.066 6.066 0 0 0-.475.249c-.278.163-.461.288-.461.288-.695-.165-.488-.784.34-1.338.194-.131.456-.245.668-.338a2.368 2.368 0 0 0-.341-.25c-.24-.145-.5-.242-.743-.287.279-.617.53-.953.759-1.032a.362.362 0 0 1 .171-.02.45.45 0 0 1 .085.019l.043.016c.022.006.033.013-.023.023-.294.073-.599.2-.938.386-.338.18-.708.42-1.127.717-.105.07-.211.161-.322.241-.049.061-.126.04-.155.168l.16 1.153.163 1.182.041.3c.015.106-.016.044-.021.074l-.07.051-.294.208c-.71.684-2.203.807-3.695 1.506 0 0 .545-.446 1.27-.822.732-.394 1.584-.703 1.544-.753-.609.017-1.377.033-2.051.221a6.028 6.028 0 0 0-1.893.825c-.277.19-.548.398-.797.632l-.367.367-.012.012c-.011.001-.014.005.056.044l.296.178.595.358 1.204.723 1.222.734.618.371c.039.024.132.077.127.078l-.008.006-.015.012-.123.099-.031.025c-.01-.001.011.01-.024 0l-.218-.074-.437-.148-1.765-.598-1.795-.609-.448-.151-.026.051-.052.104-.103.211-.051.107a5.826 5.826 0 0 0-.268 2.131 6.32 6.32 0 0 0 .34 1.576c.157.422.3.695.494 1.04.094.163.196.322.302.477l.211.287-.282-.457a7.62 7.62 0 0 1-.495-.985l-.118-.309a6.192 6.192 0 0 1-.315-1.517c-.034-.33-.008-.805.06-1.226.035-.217.083-.434.142-.646l.095-.304.048-.08.201-.321c-.167-.15.568.132 1.014.276l1.47.495 1.459.491.362.122.181.061c.017.004.009-.002.014-.003l.028-.022.111-.09.028-.022c-.002-.007.025.001-.002-.02l-.257-.156-1.012-.614-1.935-1.178-.457-.28.054-.032.108-.062.211-.116c.564-.287 1.107-.396 1.334-.32.245.084.143.326-.286.867l-.267.196c-.02.019-.051.032-.063.056l.573.366 1.195.762c1.23.741.637.514.679.63l-.026.021-.013.011c-.027-.005.044.027-.074-.012l-.983-.309-1.998-.623-.115.296-.027.077-.056.232a4.16 4.16 0 0 0-.076 1.092 4.227 4.227 0 0 0 .236.972l.095.231.086.154c.119.205.257.408.409.599.159.198.247.25.385.378.124.104.269.224.392.303l.335.179c-.098.134-.063.305.093.51l1.786 2.354 3.177-5.01a.674.674 0 0 0 .072-.16l-2.344 3.132c.496-.006 1.281-.339 2.142-.69l.213.854c1.367-.792 1.066-1.166 1.721-1.859.47-.169.842-.239 1.144-.24l-3.916-5.056c-.734.532-1.24.525-1.758.588-.862 1.271-.334.944.148.732.519-.233.949-.328.182 1.153a9.764 9.764 0 0 0-1.442 2.585c-.386.959-.263 1.176-1.119 2.72-.786.799-.846.688-.797.388.045-.293.243-.748-.125-.47 0 0-.166.523-.282 1.017-.121.497-.177.969-.177.969-.242.406-.382.218-.449.115-.23.784-.001.849.16 1.018.195.172.228.418.153 1.517.433.264-.086 1.426.347 2.851.2.695.605 1.388 1.225 1.949.308.282.67.53 1.06.732.195.101.394.191.594.27.251.115.242.049.428.112.077.228-.059.288-.202.356-.144.066-.387.072-.425.259.515.192.981.48 1.381.712.406.239.742.43 1.079.589.318.148.731.32 1.099.395.333.058.753.119 1.32.234 0 0 .279.383.479.757.209.373.32.737.32.737-.107-.607.151-.845.712-.768.548.066 1.328.535 1.972 1.164.063-.613.048-1.169-.029-1.517 0 0 .504.54.917 1.147.418.603.764 1.228.764 1.228-.015.372-.397.199-.896-.084.135.146.261.289.372.394.017 1.037-.627.691-1.311.249.05-.357.105-.714.144-1.069-.754-.389-1.53-.52-1.907-.154.154.061.362.254.541.516-.194-.068-.348-.09-.398.008-.049.106.223.217.58.488l-.35.432-.359.423.408-.013s.132.797.188 1.571c.065.776.037 1.529.037 1.529.666.951 1.358 1.955 1.889 3.256.261.637.496 1.396.628 2.152.125.779.087 1.675-.113 2.655-.406-1.141-1.059-.526-1.852-.829.57-.346.67-1.064.581-1.81a6.351 6.351 0 0 0-.093-.566c-.038-.2-.076-.452-.106-.679a6.542 6.542 0 0 1-.064-1.405c-.088.985-.501.76-.636.513l.119.521.229 1.138c.159.69.159 1.511.159 1.511-.658-.225-.65.49-1.213 1.276.377-.056.574.081.646.359.072.294.031.643-.093 1.257-.212 1.148-.392 2.413-.322 3.136-.234 0-.45-.104-.556-.418-.102-.319-.118-.85.145-1.857-.737 1.029-.421 1.717-.126 2.373.151.331.3.654.324.987a1.06 1.06 0 0 1-.075.492c-.036.08-.079.152-.139.237a2.527 2.527 0 0 1-.242.318c.157-.495.267-.574.089-.801.02.117.016.241.001.376a5.073 5.073 0 0 1-.13.56c-.109.391-.273.787-.404 1.136-.282.69-.595 1.158-.704.794l.124-.472c-.529 1.534-.972 3.96-.968 6.013-.013 2.057.314 3.731.883 3.963-.15.028-1.39-.423-1.621-.617 0 0 .943 1.401 1.936 2.721l1.992 2.624c-1.005-.452-3.35 1.397-3.957-1.073-.132.717-.278 1.605.098 3.078.135-.48 1.421-1.227 1.525-.57-.539.914-.686 1.224-.808 1.59l-.22.662c-.078.33-.328.953-.294 1.794-.027-.56.428-.569.913-.325.497.287.954.554 1.081 1.164-.276-.138-1.477.463-1.737.092.108.118.211.218.342.425.258.22.422.137.676.227.24.069.488.16.724.256.476.191.913.389 1.307.572l.206.097c.042.052.023.152.042.221l.018.11c.021.025.063.036.093.054l.196.096a.771.771 0 0 0-.276-.111c-.084-.016-.089-.062-.147-.046-.093.016-.213.15-.388.407-.197.399-.123.975.061 1.552-.046-.311.557.514 1.414 1.289.434.374.917.745 1.425.915.122.057.223.1.473.149.164.027.331.042.494.046a2.69 2.69 0 0 0 .538-.037 2.977 2.977 0 0 0 1.09-.393c.082-.048.16-.099.235-.152l.056-.04.027-.02.013-.01.007-.005.445-.437.007-.011.028-.044.05-.084c.119-.173.285-.467.365-.666l-.129.219-.162.238a22.26 22.26 0 0 0-.105.138c-.033.04-.028.026-.044.042l-.074.057-.02.016-.01.008-.005.004-.003.002-.423.416-.013.009a3.281 3.281 0 0 1-.436.26 2.865 2.865 0 0 1-1.004.286c-.356.034-.59-.002-.883-.053a1.158 1.158 0 0 1-.392-.184c-.089-.06-.166-.133-.236-.172a1.104 1.104 0 0 1-.222-.162c.267.131.44.25.779.335l.068.015.23.03c.155.014.307.017.46.009a2.703 2.703 0 0 0 1.31-.453l.112-.078.054-.041c.172-.169-.367.363.389-.381l.001-.002.002-.003.031-.054.078-.137c.178-.281.319-.59.412-.889.061-.193.038-.173.052-.246l.016-.158a2.27 2.27 0 0 0-.005-.54c-.068-.628-.29-1.065-.508-1.516-.445-.884-.939-1.726-.726-3.305.273.431 1.837 1.122 2.208-.389a1.443 1.443 0 0 0-.352-.308 3.342 3.342 0 0 1-.466-.452c-.316-.325-.542-.995-.804-1.665a19.166 19.166 0 0 0-.853-1.943c-.307-.621-.613-1.083-.81-1.785l.418-.567s-.169-.531-.294-1.179c-.138-.635-.14-1.409-.14-1.409.206.518.542 1.162.975 1.762.428.609.937 1.205 1.409 1.891a7.217 7.217 0 0 1 1.069 2.416c.209.881.266 1.701.298 2.305.399-.557.558-.636.698-.79.127-.174.296-.405.517-1.663.275-.415.394-.047.384.541-.009.59-.172 1.317-.268 1.623 0 0 .126-.293.302-.819.177-.517.382-1.305.487-2.091.109-.771.12-1.555.12-2.013l.004-.685c-.449.127-.745-.701-.94-1.174a4.43 4.43 0 0 0-.264-.578c-.089-.157-.197-.292-.385-.328 0 0 .005.169.056.403.054.234.148.563.289 1.045.137.469.298 1.048.409 1.512.113.546.161.94.161.94-.451.119-1.099-.847-1.69-1.79-.582-1.002-1.03-2.223-.309-3.374a.4.4 0 0 1 .462.009c.141.107.282.276.424.439.269.342.572.656.716.698-.049-.079-.075-.223-.045-.421.06-.259.235-.71.361-1.096.28-.812.496-1.576.647-1.682 0 0 .013.377-.005.784-.015.405-.061.826-.061.826.58-.925.504-1.818.47-2.551-.043-.703.026-1.553.713-2.254.122-.276.55-.599.868-.765.321-.167.49-.168.246-.281-.492-.213-1.639-.296-2.619-.635-.988-.319-1.897-.802-2.043-1.406.054-.062.236-.314.63-.713.088-.092.21-.207.36-.33.121-.107.327-.256.554-.383.089-.057.27-.134.434-.186.167-.053.322-.099.551-.1.445-.028.801.123 1.116.315l.13.082.004.005.007.01.014.019.028.039.06.08c.105.113.202.233.286.356.101.187.169.347.213.499.099.306.133.574.164.822.049.491.026.885-.024 1.117-.19.681-.799.426-1.391.213-.599-.226-1.161-.331-1.333.146.242-.083.732.301.907.507.031.734-.84-.063-.215 1.401.51.059.759.741.872 1.162.112.418.129.541.137-.702.745 1.292.349 1.532.855 3.166.217-.342.816-.113 1.432.415.616.55 1.288 1.301 1.65 1.984-.253-.013-.443.408-.524.61.451 1.505.713 2.691.873 3.846.078.573.14 1.155.174 1.732.019.57.006 1.244.068 1.987-.225.272-.278 1.839-.764 1.25.117.225.276.433.444.71.186.285.32.613.632 1.183.152.672.361.935.152.841-.177-.077-.529-.501-.706-.869-.199-.377-.329-.732-.451-.877-.122-.145-.262-.112-.376.394.147.006.316.188.549.494.281.31.519.814 1.375 1.305.217.103.478.183.724.234.241.031.486.012.723-.014l.088-.012.177-.035.008-.004.017-.008.067-.033.268-.124c.123-.062.288-.158.355-.218l.199-.18c.463-.48.63-.899.776-1.263-.242-.014-.474.144-.756.398-.146.126-.292.28-.516.442-.07.07-.319.198-.453.25l-.147.054-.091.017-.016.002-.033.003-.067.006-.136.008c-.354.049-.798-.127-1.081-.346a2.94 2.94 0 0 1-.659-.715 7.848 7.848 0 0 1-.679-1.256c.285-.056.591.045.937.24.329.184.727.507 1.131.661.193.094.4.006.388-.072-.009.034.01-.028.014-.058.006-.04.004-.04.004-.058a.135.135 0 0 0-.007-.034l-.001-.003-.001-.001c-.055.73-.015.201-.026.363l.002-.005.018-.042.036-.085c.006-.063.088-.101.033-.186-.033-.061-.119-.187-.139-.155-.088.027-.024-.057-.043-.071.059-.302.256-.92.383-1.524.148-.508.202-.673.297-.821.258-.438.677.2.608-.079.245-1.005.172-1.795.022-2.393-.153-.602-.396-1.033-.622-1.436-.459-.813-.842-1.482-.617-3.376.576-1.563 1.448-.217 1.94-.602.481 1.943-.172 3.06-.112 4.355l.146-.815.126-.826c.293.603.532 1.927.296 2.641.359-.617.338-2.574.122-4.777-.207-2.203-.408-4.686-.427-6.496-.35-.588-.818-1.595-1.005-1.033l.307 1.071c-.399 1.083-1.185-1.874-1.198-.468-.694-1.355-1.672-2.679-2.073-4.536l.628-.664c-.195.14.033 1.361.434 1.813-.301-.333-.289-1.128-.427-1.914-.135-.78-.433-1.569-1.137-1.756l.07.789.055.769c-.981-1.085-2.745-2.391-3.247-4.613-.427 1.24.245.451-.046 2.229.285-.843.821.428 1.333 1.439.512 1.027.912 1.841 1.101.792-.209.85-.12 1.305-.014 1.842.104.53.236 1.11-.016 1.965.245-.114.369-.678.589.668.093.04.228.159.309.235l.003.096.013-.081c.054.047.064.051.004-.031.039-.349.112-.645.231-.79.821.485 1.26 2.784 1.679 3.541-.002.899-.369-.32-.59.202l.646 1.128c-.588.199-.749 2.467-1.337.428l.174 1.906c-.218 1.239-.189 2.77.128 3.646-.059.863.773 2.068.277 1.376 0 0 .12.68.194 1.326.082.653.103 1.258.103 1.258l-.154.003a15.74 15.74 0 0 0-.111.791c-.017.145-.01.205-.072.433a7.18 7.18 0 0 1-.189.599l-.083.226a.434.434 0 0 0-.018.065l.385.369c.214.178.431.484.58.637.078.095.149.198.212.308.071.088.16.124.218.213.031.04.058.083.08.13.017.045-.02.07-.027.107l-.043.101-.021.05-.011.025-.003.006c-.003.104.024-.895.012-.471l.001.001.002.006a.396.396 0 0 1 .009.234c-.017.053.012-.034.017-.019-.005.021.026-.049.061-.1a.65.65 0 0 1 .114-.129c.055-.023.252-.249.413-.343.086-.057.175-.106.266-.146.117-.074.253-.161.383-.229.132-.071.267-.134.404-.189.1-.042.048-.013.063-.016v-.004l-.011-.071c-.011-.044-.02-.17-.029-.256-.027-.46.046-1.109.244-1.82a295.04 295.04 0 0 1-.164-.78l-.095-.568-.047-.232-.011-.054-.023-.144-.017-.14c-.156-.727-.33-1.529-.5-2.483l.41-.508c-.291-.691-.492-1.739-.689-2.612-.199-.876-.373-1.572-.706-1.732.123-.206.206-.433.244-.688.023-.123.037-.251.042-.384a4.14 4.14 0 0 0-.041-.545c-.101-.791-.355-1.684-.686-2.584a26.581 26.581 0 0 0-.829-1.985c-.027-.031-.118-.255-.187-.421l-.955-2.457-.685.176a7.005 7.005 0 0 0-.721-1.218c-.089-.116-.136-.181-.267-.333a5.431 5.431 0 0 0-.609-.585l-.165-.13-.041-.028-.062-.041c-.593-.424-1.268-.647-1.976-.747a4.734 4.734 0 0 0-1.193.049c-.429.069-.653.174-.961.303a5.185 5.185 0 0 0-.421.213l-.198.118-.127.092c-.168.126-.33.261-.485.404-.177.16-.252.257-.346.369l-.27.343c-.567.83-.743 1.4-.941 1.985a14.556 14.556 0 0 0-.402 1.669l.624.06a5.658 5.658 0 0 1-.299 1.472 14.542 14.542 0 0 1-.643 1.6 9.674 9.674 0 0 1-.763 1.291l-.217.316a3.925 3.925 0 0 0-.153.25l-.174.312a6.73 6.73 0 0 0-.555 1.44c-.169-.344.274-1.393.731-1.898-.851.795-1.445 2.272-1.481 3.564-.051 1.278.198 2.135.375 2.884.178.616.305 1.094.24 1.619a2.737 2.737 0 0 1-.259.843c-.07.147-.155.297-.253.446-.094.149-.289.477-.412.713l-.069.804-.032.372-.031.25c-.05.311-.137.572-.242.825a.614.614 0 0 0-.01-.19 3.104 3.104 0 0 0-.043.305c-.139.314-.298.634-.434.973.181-.283.334-.559.419-.811a15.37 15.37 0 0 0-.006 2.223l-.695.246-.005.178c-.343.676.223.625.77.308.054.401.124.74.235.991-.143.047-.248.058-.322.091-.034.004-.075.061-.083.026l.027-.118a2.958 2.958 0 0 1 1.447.433c.103.065.249.159.266.207l.275.35.139.178.018.022.009.011.004.006c-.149-.311-.041-.086-.075-.155l.003.003.007.008c.015.023.011.03.004-.002 0 0-.008-.061.001-.114l.009-.036.003-.009v-.001l.405-2.151v.001l.002.002.007.009c.012.011-.058-.004-.08-.011-.257-.073-.528-.312-.387-.878-.175.097-.455-.107-.837-.364a3.297 3.297 0 0 0-.476-.272 1.181 1.181 0 0 0-.298-.094c-.111-.019-.243.021-.279-.076-.053-.043-.128-.154-.205-.254a1.975 1.975 0 0 0-.232-.253c-.159-.144-.325-.235-.502-.257.14-.063.15-.321.269.115l-.036-.348-.014-.234c-.026-.151-.003-.304.004-.451a4.086 4.086 0 0 0-.041-.599 2.769 2.769 0 0 0-.174-.649l.829-.412-1.16-2.025c.486-1.244.773-1.754 1.439-.546-1.032-2.928-.419-2.361-1.369-4.845l.538.132c-.007-.871-.664-2.308-.17-2.799.594-.927.795-3.282 1.55-5.799.09-.316.185-.636.304-.948l.384-1.068c.308-.902.489-1.763.656-2.519.166-.761.327-1.425.535-1.961.181-.437.53-1.122.846-1.75-.923.266-.552-.263-.111-1.021.451-.747.901-1.853.294-2.057.423-.304.71-1.245.938-.121.001-.938-.011-1.442.034-2.053.03-.581.085-1.107.097-1.617.03-1.011-.077-1.959-.763-2.911.317-.413.651.564.823.223-.117-.242-.489-.922-.338-1.285.15-.36.41.383.65.858-.311-1.614-.888-2.383-1.438-2.726-.562-.344-1.137-.282-1.688-.207.014-1.529-.419-2.343-1.637-2.954.004-.328-.074-.753.007-.893.071-.139.394-.009.981.873-.133-.259-.406-.81-.869-1.433a9.21 9.21 0 0 0-1.732-1.759c-.624-.489-1.267-.864-1.711-1.051-.307-.1-.581-.155-.734.005-.028-.289-.81-.798-1.091-.926-.39-.381-.781-.738-1.037-.944a6.212 6.212 0 0 0-.48-.351c-.29-.217-.651-.357-1.104-.888-.012.004.085.363.094.362-.742.067-1.036-.233-1.095-.647-.067-.424.141-.948.302-1.526l.111.044c.484-.626.804-.893.968-1.112a1.51 1.51 0 0 0 .268-.473c.026-.066.054-.132.098-.207a1.33 1.33 0 0 1 .081-.119l.166-.2c.254-.305.727-.702 1.487-1.59l-.68-.132c-.992-.996 2.299-2.728 2.92-4.594 0 0-.177.091-.354.194l-.355.211c.059-.399.451-.721.954-.909l4.625-1.736-6.366-.512c-1.233-.099-2.759-.679-3.48-.538-.267-.03.282-.316.566-.528-1.499.138-1.477.329-1.377.665.11.32.35.757-.628 1.164a.29.29 0 0 1-.082-.077l-1.876 2.506c-.322.174-.725-.15-.966.16l5.564-2.976a.398.398 0 0 1 .055-.054c.042-.053-.062.097-.132.191l-.26.334a7.664 7.664 0 0 1-.33.374c-.133.136-.169.224-.28.341a2.934 2.934 0 0 1-.554.493l-.135.122a1.114 1.114 0 0 1-.357.191.282.282 0 0 1-.1.047c-.029.013-.13.009-.088.01.011.002.013.009.013.009l3.112.95-.001.002-.003.003-.006.006-.012.012-.026.025c-.023.016-.007-.055-.006-.077a.786.786 0 0 1 .222-.453c.153-.138.373-.37.612-.57.12-.096.246-.178.365-.225a.689.689 0 0 1 .165-.042c-.034-.022-.066-.032-.093-.026.034-.088.133-.138.057-.279-.019-.067.019-.135.027-.238a2.99 2.99 0 0 0-.179-.453 2.142 2.142 0 0 0-.75-.776c-.115-.037.045-.064.128-.097.093-.033.184-.07.275-.12.182-.101.377-.244.575-.491a.546.546 0 0 0 .104-.186c.045.259.053.439.049.581.176.074.419.583.708.999v-.007l.397-1.263v.003l-.002.007-.018.053-.05.117c-.039.083-.09.176-.153.273a3.997 3.997 0 0 1-.219.308l-.131.161-.07.082c-.01.012 0 .001 0 .001l2.741-.031c.229-.353.379-.688.426-.938 1.118.515 2.286-.688 3.689-1.765 1.373-1.075 2.786-2.033 3.193-1.076l3.558-1.683-.011.238c2.439-.933 3.084-1.875 3.62-2.714.587-.147.297.225.306.344 1.736-.68 2.611-1.03 3.364-1.493.753-.451 1.336-1.034 2.515-1.95l.457.579c.314-.326 1.696-.329 3.03-.025l-1.882-4.093c-.862.846-1.983 1.634-3.037 2.676-.013-.081-.025-.228.131-.433-1.251 1.264-3.577 1.713-5.615 2.225-2.044.505-3.934 1.267-4.112 2.757 0 0-.591.454-1.159.972-.308.262-.504.472-.682.645l-.294.276c3.044-1.556.071 1.202 1.508.832-1.1.858-3.415.972-2.006.13l.282-.008c-.045-.705-.993-.318-2.011.079-1.041.41-2.052.8-2.329.441-1.153.469-2.327.895-3.491 1.33l-1.759.643-.889.324c-.193.042-.183.139-.248.217-.045.078-.118.168-.183.254.486.981.966 2.033 1.401 3.061.219.515.425 1.022.542 1.529.027.127.062.254.08.381.023.155.012.129.012.177.008.037-.022.059.008.05.497.022.842-.002 1.246.086l.504-2.209c-.608.165-.976.338-1.1.355l-.034.005-.006-.002c-.003-.009-.008-.009.021.084.037.118.071.275.092.369.02.076.036.182.045.238.036.247.012.277.026.199l2.342 1.378c-.115-1.671-.571-3.007-1.065-4.249l-2.821-7.094-2.389 7.569c-.142.451-.348.984-.568 1.572-.218.599-.468 1.229-.669 2.119a3.371 3.371 0 0 1-.2.56l.557-.055c.273-.011.543-.054.543-.054s-.1.3-.334.787l-.371.794-.188.44c-.254.339-.524.57-.65.433-.065-.07-.087-.234-.037-.524.027-.144.075-.319.147-.526.063-.183.2-.503.275-.657-.099.049-.216.196-.321.377a2.991 2.991 0 0 0-.261.587 3.748 3.748 0 0 0-.178 1.324c.032.864.407 1.509.523 1.527.032 1.064.121 1.51.003 1.61-.099.098-.337-.166-.568-.562-.501-.786-.612-2.152-.64-1.391 0 0 .003.518.141 1.015.099.505.284.984.284.984l-.02-.463c.221.37.41.639.592.873l.583.653c.2.225.422.473.674.811l.94 1.158c.823 1.195.057.981.428 1.408-.052.04.063.219.613.607 0 0 .598.562 1.203 1.053a32.81 32.81 0 0 0 1.208.947l-.509-1.351c1.302.502 2.233 1.629 1.647.145.215.6.934 1.331 1.831 2.073a21.974 21.974 0 0 0 3.379 2.3l5.084 2.782-2.062-5.598c-.189-.514-.444-.933-.588-1.609l-.211-.853c-.068-.285-.149-.738-.207-1.055-.39-.739-.585-1.227-.642-1.487-.281-.305-.381-.643-.604-.87a6.11 6.11 0 0 1-2.261-1.175 1.094 1.094 0 0 1-.196-.131s-.008.004-.095-.097l-.05-.055-.003-.003-.002-.002a6.994 6.994 0 0 0-.119.175l.005-.004.037-.035.075-.068c.075-.065.019-.022.035-.039l-.016-.027a4.316 4.316 0 0 1-.335-.763c.024.421-.728 1.151-1.17-.522.894.027.909-.631.926-1.408.002-.38.02-.823.131-1.03.018-.077.062-.055.083-.083-.002-.006.052.002-.08-.037a1.983 1.983 0 0 1-.599-.201c-.148-.089-.197-.092-.272-.135a.853.853 0 0 1-.197-.152c-.066-.058-.074-.052-.108-.119l-3.09-.487a3.308 3.308 0 0 1-.178.648c.141-.521.287-.274.475.219.187.5.444 1.244.775 1.914.66 1.357 1.588 2.394 1.447 1.008.393.808.308.929.112 1.025-.178.098-.46.15-.138.923.677.613 1.446 1.315 2.703 1.816l3.221 1.284.039-3.33c.005-.384.18-.887.49-1.346a4.186 4.186 0 0 1 1.205-1.152c.224-.138.446-.232.635-.294l.133-.029.058-.015a.039.039 0 0 1-.01.018.02.02 0 0 1-.015.006c-.01 0-.024-.002.058-.01l.341-.04.021-.003.011-.001-.174.024h.002l.012.003.023.005.046.005a.278.278 0 0 1 .101.014c.069.003.153.03.239.042.175.052.378.097.585.189.171-.176-.094-.738.616-.758 0 0 .197.463.204.904.022.448-.14.767-.14.767.116.074.407-.015.658.001.235-.005.439.161.155.363l1.317 2.054a.734.734 0 0 1 .09-.197c-.042.061-.093.183-.077.173l-1.169-2.024a.348.348 0 0 1 .193.005l1.068 1.849c.018-.037.027-.058.038-.076-.036.041.075-.095.128-.132l1.587.686c.882-.081 1.742-.465 2.387-.958a6.53 6.53 0 0 0 1.52-1.654c.753-1.175 1.156-2.363 1.396-3.627l-4.552-.009c.209 1.175.292 2.195.133 2.772-.076.297-.206.553-.45.856-.045.07-.153.165-.232.249l-.064.065-.161.085-.323.169c-.425.23-.875.46-1.32.653l-.143.265c-.047.084-.111.146-.1.28l-.041.703-.088 1.4-.098 1.396a10.536 10.536 0 0 1-.127 1.518c-.355 1.93-.954 3.952-1.629 5.982 2.041.283 4.558.325 7.071.939-.914-.31-1.009-.427-.725-.49.277-.055.997-.017 1.497.07-.688-.221.155-.578.077-.92.418.198.622.37.852.58.217.21.389.45.508.706.051.147.213.405.354.657.523-.12 1.171.531 1.657 1.174.528.684.696 1.091 1.154 1.096.016-.03-.465-.635-.498-.654.715.234 1.092-.314 1.17-1.278.104-.929-.05-2.071.524-2.408a2.402 2.402 0 0 1-.964-.63c-.299-.298-.499-.604-.877-1.08-.611-.84-1.67-1.633-2.832-2.004-.518-.175-.677-.205-.98-.171-.293.036-.635.165-1.125.407-.219-.262.608-.386.579-.676a2.741 2.741 0 0 1-1.05.458 2.599 2.599 0 0 1-.81.029l-.132-.02-.065-.012c-.004-.018.022-.06.032-.09l.1-.218.13-.015c.203-.863.386-1.664.498-2.366.016-.082.027-.188.043-.247.017-.02.019-.041.044-.146l.12-.479.129-.456.067-.222c.018-.076.166-.057.241-.096.153-.043.301-.096.438-.167l.203-.11.487-.409c.714-.659 1.5-1.676 1.918-2.955 0 0-.193.111-.402.206l-.41.178c.35-.802.484-1.301.615-1.671.129-.377.228-.636.318-1.003-.526-.832-.429.151-.639 1.294-.093.57-.323 1.164-.526 1.453-.221.291-.378.284-.455-.198.477-.318.919-1.207 1.037-2.216.14-1.019.015-2.069-.133-3.026l-2.058-13.333-2.576 13.321c-.143.743-.434 1.515-.785 1.908-.353.426-.694.405-.949.119l.182.318c.099.147.204.335.11.353a1.13 1.13 0 0 1-.064-.231l2.354.747a6.4 6.4 0 0 0-.226-.395 5.664 5.664 0 0 0-.988-.139l1.252 2.167-.067-.095c.048-1.911-.143-2.925.173-3.178.188.449.654 1.271.767 1.862-.004-.74-.26-1.579-.671-2.32-.406-.757-.98-1.375-1.556-1.875-1.163-.994-2.382-1.405-2.733-1.634a8.757 8.757 0 0 0 2.12 1.586c-1.149-.858-2.474-1.507-4.075-1.748a7.039 7.039 0 0 0-1.245-.075l-.325.016-.163.01-.081.006-.238.033-.364.065c-1.059.227-1.762.58-2.427.974-1.305.817-2.277 1.859-3.027 3.04-.734 1.186-1.255 2.552-1.328 4.111l3.728-2.088a1.88 1.88 0 0 1 .108-.263c.056-.117.02-.007.02-.044-.021-.013-.038.011-.079-.015a1.347 1.347 0 0 1-.296-.167 5.34 5.34 0 0 1-.775-.701l-.134.375c-.603-.642-.837-1.205-.937-1.623-.098-.424-.075-.773-.045-1.131l.288-3.426-3.505 1.751c-.942.47-1.529 1.435-1.723 2.238-.214.825-.186 1.565-.056 2.401l-.089-.173c.395.966.796 2.027 1.195 3.194-.356-.471-.36.078-.309.645.064.571.163 1.172-.42.431l.254.402.292.41c.083.117.248.312.365.444l.095.106.106.118.024.019.095.073c.489.444.887.663 1.209.82.202.104.197.069.269.088.052.004.09-.001.131-.003.08-.009.149-.022.216-.043.291-.091.432-.215 1.6-.507.094-.05.122-.006.162.035l-.447.734c.313.181.529.251.759.693.057.097.117.223.185.396.066.163.164.479.263.788-.798-1.483-.455 1.427-1.438-.235a8.108 8.108 0 0 0 .134 1.745c.188.63.422 1.203.67 1.712l3.715-3.463c-1.679-.761-3.225-.942-3.678-2.613-1.151.072-.546.711.23 1.304.769.595 1.661 1.082 1.167.936.453.856-1.811.05-2.786-.782-.516-.366-.711-1.04-1.063-1.832a7.634 7.634 0 0 0-1.802-2.598c.187.187.271.123.457.307-.454-.904-1.754-1.114-1.485-1.948-.49-.029-.57-.309-.624-.515-.062-.214-.097-.384-.643-.485-.023-.002.025.492.247.918.198.435.504.778.504.778-.377-.353-.997-.731-1.339-1.451-.145-.355-.157-.773-.027-1.207.064-.221.157-.432.287-.666.145-.271.328-.553.54-.888.131.293-.02 1.314.035 1.603a.792.792 0 0 0 .256-.322c.077-.173.137-.369.198-.578.117-.406.268-.904.554-1.422.247.134.312.541.204 1.064a5.09 5.09 0 0 1-.214.751l-.23.601c-.099.261-.21.553-.191.842.01.288.2.551.463.684.167-.22-.116-.519-.139-.821-.037-.299.022-.459.532-.15-.208-.12-.324-.252-.378-.382a.497.497 0 0 1-.039-.193c-.002-.06.05-.212.095-.331.094-.244.239-.537.395-.87.167-.362.331-.794.442-1.235.12-.365.323-1.065.186-1.988l.568.345c.013-.353-.024-1.127.157-1.867l-5.014.457.024.055-.071-.033 5.113-.466.401 1.444c-.017-.433.049-.856.157-1.304l-6.193.564c.434.895.118 1.929.208 2.343l.669 3.064 2.571.347a4.571 4.571 0 0 0 1.603-.072 5.33 5.33 0 0 1-1.592 0l-3.059-.523-.118-2.823c-.012-.277-.017-.531.038-.659.051-.137.157-.174.283-.185.245-.03.594.082.65-.5.332.53.444.931.446 1.209l.01 1.74 1.959.333c.595.101 1.14.072 1.529.032.395-.041.674-.079.892-.08.218-.003.376.024.488.08.058.027.104.06.135.1.021-.019.102.279-.052-.249l2.361-2.185c.357-.962.372-1.915.526-1.842.105-.168.133-.318-.052-.599.087.096.033.208-.084.307-.12.092-.295.173-.51-.04.023-.24.078-.475.238-.539.079-.025.109-.045.281.002.303-.191.15-.306-.172-.399-.306-.097-.829-.144-.76-.385.652.174.67.084.683-.145 0-.224-.015-.58.299-.838l.362.565c.109-.014.2-.032.279-.052l.106-.032.199-.083c.274-.119.465-.24.599-.35.268-.224.307-.428.336-.621.058-.396.07-.721 1.757-1.264l-.47.74-.488.732.793-.503.786-.527-.009.848c.805-.721 1.35-1.149 1.936-1.513.301-.186.469-.249.747-.373.249-.115.588-.21.955-.344-.535-.247-.367-1.183 1.074-1.813 1.139-.048-.332.803 1.718-.123-.322.575-.647 1.254-1.742 1.061-.009.234-.269.57-.265.802 1.138-.025 2.638-.981 3.435-1.301-.314.098-.678.201-.896.185l2.847-2.135c.612.003.286.362-.049.721.644-.358.98-.828 1.942-1.36-.014.59.283 1.094-1.045 1.961l.465-.305 1.034-.717 1.032-.775.465-.381c.169.029.674-.073 1.105-.178.43-.109.786-.175.625.059 1.235-.623 2.442-2.162 3.385-3.903l3.585-6.616-6.429.43c-1.347.09-2.622.323-3.835.395-.13.137-.432.279-1 .518-2.623.584-4.939 1.032-6.956 2.913l-1.743-.17c-1.624 1.08 2.252.209-.46 1.996-1.928 1.253-1.116-.381-1.948-.288-.832.919-2.344 2.603-4.785 2.873.617-.489 1.225-.602 1.834-.947zm-15.846 8.797c.194-.275.51-.7.958-1.05.445-.349 1.017-.599 1.454-.56-.242.51-.511.733-.925.926-.408.189-.939.341-1.487.684zm10.58 25.944c-.292-.275-.321-.791-.271-1.439.184.395.31.876.271 1.439zm15.283 28.45c.013.018.022.033.038.046-.15 1.083-.087.7-.038-.046zm.052-2.29c-.115-.21-.204-.185-.286-.083.181.127.242.626.257 1.23.156-.168.241-.515.029-1.147zm-19.447-35.73l-.252-.479c.965.661.615.561.252.479z"/><path d="M35.473 40.745a.706.706 0 0 1 .232-.315c-.173-.065-.274-.002-.232.315zM57.851 2.396l.099-.011a.292.292 0 0 0 .077-.137l-.176.148zM45.487 64.693c-.052-.419-.019-.652.041-.826-.155.053-.215.229-.041.826zM49.268 60.143l.723 1.099c-.263-.499-.259-.799-.315-1.148-.122.098-.203.435-.408.049zM53.459 49.218c.225.013.411.17.633.197l.086-.299c-.863-.403-1.552-.338-.719.102zM50.619 57.942c.447-.35-.138-1.1-.647-2.075.027.06.055.117.073.18-.845-.01-.15 1.015.574 1.895zM49.859 55.638a5.253 5.253 0 0 1-.364-.963c-.339-.03.074.43.364.963zM52.273 67.51c.076-.466-.742-.17-.558-.451-.757-.409 1.265 2.837.558.451zM51.906 56.397l-.462.624.746.278zM54.405 63.937l-.106-.797-.13-.795c-.104.056-.225-.118-.351-.338.288.936.396 2.014.587 1.93zM53.818 62.006c-.143-.488-.329-.938-.533-1.158.106.254.33.796.533 1.158zM53.067 58.3l.087.495.229.527.215.533-.256-.781-.275-.774zM55.165 80.846s-.116.399-.277.781c-.155.388-.364.727-.364.727.068.282.501.022.733-.604.066-.442.217-1.051-.092-.904zM57.607 75.772c-.13.503-.28.538-.503.82l.848.05-.345-.87zM57.155 81.458c.076.145-.077.904-.18 1.34-.124.438.01.538.598-.732-.063-.136.084-.761.086-1.139-.02-.374-.054-.399-.504.531zM46.535 61.869a.3.3 0 0 0 .073.02.51.51 0 0 1 .142.114c.024.021.85-1.112.825-1.132-.03-.029-.311.2-.59.432-.378.207-.442.579-.45.566zM44.39 84.122c.594-2.156-.785-.641-.159-2.503-.274-.531-.507 1.511-.734.978.203 1.321-.098 2.031.893 1.525zM43.497 82.597a5.6 5.6 0 0 0-.14-.674c.047.377.095.558.14.674zM59.386 45.327s.087.242.126.448a.43.43 0 0 1 .016.222l-.012.08s.079-.112.142-.231c.047-.158.061-.347.061-.347l-.333-.172zM60.926 46.235l-.828.409.448.209.458.24c-.088-.224-.247-.652-.078-.858zM32.011 25.643l.044-.239c-.29-.135-.623-.046-1.303.122l3.076-4.109-.005.073.034-.073-3.097 4.138 1.251.088zM36.718 11.603c-.02.07.201-1.037.047-.846l-.149-.169c.031.267.089.427.087.781l-.418 2.451v.001c.041.06.26.182.374.283-.093-.149-.302-.323-.329-.433v-.001l.388-2.067zM46.366 5.853c-.516.212-1.072.657-1.642.872 1.136-.659 2.205-.033 1.642-.872z"/></g><g><path d="M63.386 46.229a10.03 10.03 0 0 0-.297-1.591c-.43-1.497-2.242-3.481-3.459-4.53-1.531-1.32-4.782-1.297-7.604-1.246.043-.168.088-.342.139-.525.414-1.493.678-2.865.676-4.49-.002-.591.148-1.632.188-2.584.4-.154.77-.348 1.088-.597 2.169-1.697 2.239-3.55 1.774-6.25-.316 1.794-1.337 4.354-3.362 4.704a1.9 1.9 0 0 0-.451-.332c.07-2.511-2.738-4.672-5.182-4.419-2.346.243-4.656 2.972-4.848 5.479-1.813-.711-3.191-3.717-3.408-5.629-1.457.793-.184 5.328.738 6.414.697.822 1.73 1.132 2.859 1.225a3.513 3.513 0 0 0 0 .543c.096 1.219.484 2.84.805 4.016.111.41.313.844.519 1.291-1.326-.731-2.449-1.525-3.769-2.414-2.535-1.709-6.553-4.275-7.043-7.545-.215-1.447 1.031-3.004 1.295-4.381.199-1.038.783-2.401 1.098-3.656.523 1.15.906 2.301 1.006 3.347.715.106 1.248-.298 1.887-.481.133-.877-.524-3.052-1.367-4.54.357-.143.709-.281 1.063-.412 2.941-1.091 5.939-2.216 8.603-3.854 4.674-2.877 11.661-3.745 15.177-8.488-4.436-.318-8.702 2.57-12.524 4.432-4.441 2.16-9.592 3.738-13.191 7.152a1.272 1.272 0 0 0-.496-.299c-.459-1.244-.818-2.559-1.441-3.742-.871-.096-1.561.582-2.088 1.273a49.168 49.168 0 0 1 2.006 3.04c-.887.546-1.912 1.291-2.488 1.473-1.103.349-3.754 1.04-1.74 2.384v-.162c1.629-.478 3.246-1.158 4.842-1.84-1.199 1.557-2.271 3.932-3.107 5.367-1.248 2.139-4.236 4.52-2.734 6.911.643 1.022 1.814 1.422 2.646 2.089.947.762 1.637 1.609 2.699 2.262 2.533 1.558 3.516 2.732 4.49 5.446 1.045 2.915 1.301 5.442 1.123 8.64-.09 1.648-.59 3.076-1.088 4.582-.57 1.721-.6 3.649-1.236 5.352-2.416 6.449-1.692 13.53-1.692 20.475l-.521 7.949c1.039-.141 4.383 7.15 5.195 6.514.555-.436.879-15.336 1.137-15.999.641-1.636 1.037-2.7.947-4.569-.1-2.01-.318-3.203.637-4.949.82-1.5.992-2.477 1.469-4.031.379-1.232 1.281-4.676 2.43-4.037.758.422 1.445 2.891 1.756 3.695.559 1.439 1.047 3 1.414 4.494.656 2.659 1.854 5.277 2.254 8.041.186 1.276-.002 17.764 1.779 17.518.92-.125 1.899-14.323 2.075-15.107.691-3.053.127-6.932-.168-9.96-.367-3.767-.946-7.582-2.536-10.913-1.387-2.912-4.07-7.213-2.246-10.607 1.973-.247 4.405 1.418 6.2 2.965-.006 1.236.367 2.459.483 3.489.221 1.967.086 3.78.646 5.59.93 2.991 3.315 6.284 6.486 6.94 1.941.402 3.604.395 4.779-1.16 1.17-1.547 1.652-2.993 1.932-4.859.949-6.398-.881-14.25-8.254-14.894zm1.019.148c-.336 0-.67.004-1 .01-.006-.051-.012-.104-.02-.155l1.02.145z"/><path d="M63.386 46.229a10.03 10.03 0 0 0-.297-1.591c-.43-1.497-2.242-3.481-3.459-4.53-1.531-1.32-4.782-1.297-7.604-1.246.043-.168.088-.342.139-.525.414-1.493.678-2.865.676-4.49-.002-.591.148-1.632.188-2.584.4-.154.77-.348 1.088-.597 2.169-1.697 2.239-3.55 1.774-6.25-.316 1.794-1.337 4.354-3.362 4.704a1.9 1.9 0 0 0-.451-.332c.07-2.511-2.738-4.672-5.182-4.419-2.346.243-4.656 2.972-4.848 5.479-1.813-.711-3.191-3.717-3.408-5.629-1.457.793-.184 5.328.738 6.414.697.822 1.73 1.132 2.859 1.225a3.513 3.513 0 0 0 0 .543c.096 1.219.484 2.84.805 4.016.111.41.313.844.519 1.291-1.326-.731-2.449-1.525-3.769-2.414-2.535-1.709-6.553-4.275-7.043-7.545-.215-1.447 1.031-3.004 1.295-4.381.199-1.038.783-2.401 1.098-3.656.523 1.15.906 2.301 1.006 3.347.715.106 1.248-.298 1.887-.481.133-.877-.524-3.052-1.367-4.54.357-.143.709-.281 1.063-.412 2.941-1.091 5.939-2.216 8.603-3.854 4.674-2.877 11.661-3.745 15.177-8.488-4.436-.318-8.702 2.57-12.524 4.432-4.441 2.16-9.592 3.738-13.191 7.152a1.272 1.272 0 0 0-.496-.299c-.459-1.244-.818-2.559-1.441-3.742-.871-.096-1.561.582-2.088 1.273a49.168 49.168 0 0 1 2.006 3.04c-.887.546-1.912 1.291-2.488 1.473-1.103.349-3.754 1.04-1.74 2.384v-.162c1.629-.478 3.246-1.158 4.842-1.84-1.199 1.557-2.271 3.932-3.107 5.367-1.248 2.139-4.236 4.52-2.734 6.911.643 1.022 1.814 1.422 2.646 2.089.947.762 1.637 1.609 2.699 2.262 2.533 1.558 3.516 2.732 4.49 5.446 1.045 2.915 1.301 5.442 1.123 8.64-.09 1.648-.59 3.076-1.088 4.582-.57 1.721-.6 3.649-1.236 5.352-2.416 6.449-1.692 13.53-1.692 20.475l-.521 7.949c1.039-.141 4.383 7.15 5.195 6.514.555-.436.879-15.336 1.137-15.999.641-1.636 1.037-2.7.947-4.569-.1-2.01-.318-3.203.637-4.949.82-1.5.992-2.477 1.469-4.031.379-1.232 1.281-4.676 2.43-4.037.758.422 1.445 2.891 1.756 3.695.559 1.439 1.047 3 1.414 4.494.656 2.659 1.854 5.277 2.254 8.041.186 1.276-.002 17.764 1.779 17.518.92-.125 1.899-14.323 2.075-15.107.691-3.053.127-6.932-.168-9.96-.367-3.767-.946-7.582-2.536-10.913-1.387-2.912-4.07-7.213-2.246-10.607 1.973-.247 4.405 1.418 6.2 2.965-.006 1.236.367 2.459.483 3.489.221 1.967.086 3.78.646 5.59.93 2.991 3.315 6.284 6.486 6.94 1.941.402 3.604.395 4.779-1.16 1.17-1.547 1.652-2.993 1.932-4.859.949-6.398-.881-14.25-8.254-14.894zm1.019.148c-.336 0-.67.004-1 .01-.006-.051-.012-.104-.02-.155l1.02.145z" fill="none"/><path d="M64.567 45.224c.001.018.028-.181.033-.216l-.033.216zM64.45 45.667l.012-.081-.036.197zM64.401 45.656c-.044.338.026-.052.017.069l-.01.077.043-.271c-.016.042-.056.221-.05.125zM64.479 44.921c-.017.132-.022.112 0 .042l.004-.033s-.003.001-.004-.009zM64.483 44.93c.007-.008.012-.111 0 0zM64.448 45.002l.024-.116.016-.153c-.016.063-.025.141-.04.269zM64.407 45.248l.011-.049c.003-.033.004-.045-.011.049zM64.44 45.095l-.022.104c-.007.055-.022.164.009-.037-.016.099-.001.003.013-.067zM64.437 45.147c-.007.074-.008.121-.032.237.02-.045.052-.283.032-.237zM64.349 46.005l-.009.099.021-.112c-.011.056.003-.092-.012.013zM64.431 44.821l-.038.284.017-.082.021-.202zM64.393 45.105l-.025.122c.004.016.014-.043.025-.122zM64.352 45.623l.049-.258-.052.261zM64.403 44.808l.028-.166-.043.25zM64.38 44.834l.044-.318c-.009.024-.03.142-.049.247.013-.058.015-.042.005.071zM64.346 44.917l.029-.154-.029.154zM64.36 45.19l.023-.206-.026.202.003.004z"/><path d="M64.357 45.193l.001-.007-.005-.012.004.019zM64.361 45.191l-.001-.001c-.003.02-.003.027.001.001zM64.358 45.437c-.021.112-.047.232-.063.406l.063-.406zM64.328 45.444l.001.047.027-.187-.028.14zM64.315 45.508l.013-.064v-.017zM64.333 45.109c-.016.087-.021.094-.027.108a.25.25 0 0 0 .005.063c.009-.064.028-.178.022-.171zM64.342 45.167l-.002.012.002-.012zM64.264 45.209l-.005.037.005-.035z"/><path d="M64.306 45.317c-.002.04.007-.009.018-.072a.148.148 0 0 1-.013.034c-.005.029-.007.048-.005.038zM64.321 45.01l-.01.112c.007-.064.018-.164.01-.112zM64.346 45.123l.002-.009c.005-.044.002-.022-.002.009zM64.346 45.123l-.022.123.015-.067.007-.056zM64.065 46.506c.027-.187.061-.359.04-.157.028-.139.111-.757.153-1.103l-.046.267c-.012.103-.017.242-.047.411-.024.095.001-.068.01-.167l-.109.682.026-.12a7.62 7.62 0 0 1-.027.187zM64.271 45.267l.007-.023.025-.256-.039.223.012.028-.005.028z"/><path d="M64.293 45.246l-.079.511c.012-.013.031-.169.049-.257-.023.048.021-.113.026-.23a.226.226 0 0 1 .016-.052l.005-.095-.001.013v-.001l-.001.004c-.003.026-.005.041-.004.026l-.001.004a3.282 3.282 0 0 1-.012.077c.002-.043.007-.053.012-.077l.005-.03v-.003l-.031.109c0 .029.005.023.016.001zM64.224 46.28l.006-.047c-.004.025-.007.042-.006.047zM64.236 46.156c.005-.028.018-.11.018-.088a11.16 11.16 0 0 0-.023.165c.01-.054.029-.146.036-.246l-.005.028.037-.354-.063.495zM64.256 45.753l-.027.098-.019.178.015-.106c.002.042.019-.088.031-.17zM64.277 45.108l.032-.215-.051.302zM64.256 45.131l.028-.187-.021.112zM63.479 45.25l.003-.053-.003.053zM63.451 45.238l.001.093-.001-.093zM63.841 45.093c.019-.176.052-.448.023-.237l-.028.205c.009-.036.009-.012.005.032zM63.384 46.279l-.007.063.032-.196-.025.133z"/><path d="M63.259 47.129l.002-.021v-.005l.99-1.002-.011.002-.024.005-.066.014.067-.014.032-.007.008-.002-.997 1.008v.004l-.001.018zM63.631 45.029l.002-.211c-.007.001-.003.107-.002.211zM64.074 45.182a.775.775 0 0 0 .006-.126c-.012.119-.032.297-.006.126zM63.504 47.452l.001-.126-.001.126zM64.066 45.055l-.004.049c.008-.034.016-.061.018-.048.008-.088.011-.143-.014-.001zM64.194 45.195a.2.2 0 0 1 .001.025c.001-.028-.001-.025-.001-.025zM64.359 47.288c-.002.012-.006.015-.006.015.001.014.003.013.006-.015zM64.201 45.032c.006-.013.004-.023 0 0zM64.103 45.847l-.016.1.016-.1zM63.848 46.329c-.005.039-.004.032 0 0zM64.193 45.126l.004-.062c0 .017-.002.037-.004.062zM64.207 45.029v.02c.005-.034.008-.056 0-.02zM64.195 45.042s.003.007.003.022l.004-.032-.007.01zM63.899 45.754l.001.019a.31.31 0 0 0-.001-.019zM63.444 47.213l.002-.01.001-.007z"/><path d="M63.41 47.364c.042-.255.041-.223.037-.169l.08-.593-.117.762z"/><path d="M63.546 45.19l-.012-.186c.007-.307.016-.201.004-.464.008.649-.035.067-.026.716l-.008-.137c.002.007.002-.032.003-.025-.017-.311-.001.47-.018.377a1.78 1.78 0 0 1-.009-.221l-.009.161a.534.534 0 0 1-.001-.113l-.017.052v-.019l-.006.326c-.006-.093.001-.069-.001-.15l-.007.157c-.007-.168-.001-.332.006-.308-.02-.648-.006.164-.032-.215l.008-.083c-.012-.368-.018-.234-.032-.464.005.12.032.579.024.74-.004-.049-.008-.072-.012.059a1.543 1.543 0 0 0-.007-.172c-.001-.006-.004-.002-.004-.002l-.002.007-.001.002 1.17 1.026h-.001l-.003-.001.304-.034c-.089 0-.244.019-.381.029.028-.014.263-.044.461-.071.046-.024-.376.057-.436.044.115-.028-.011-.023-.194-.016.103-.023.186-.022.272-.037l-.243.023.117-.016c-.095.005-.303.039-.387.039-.334.043.485-.089.104-.05l.303-.042c-.251.016-.183.009-.519.043l.197-.042c-.179.034-.385.058-.573.08l-.218.215.025-.138.017-.15.004-.031.002-.014.001-.007-.183.179-.043.008h-.007l-.008.001.251-.255.001-.003.001-.005.013-.055.019-.08-.042.28.013-.072a7.969 7.969 0 0 1-.066.456l.021-.187-.087.564a9.09 9.09 0 0 0 .016-.081l-.019.125c-.004.032.007-.035.02-.112l-.045.338.02-.134-.011.214c.062-.338.145-.836.186-.973l-.101.697c.039-.312-.035.13-.037.065.001.033-.02.173-.029.222l.06-.28c-.035.24-.021.18-.031.28.064-.475.06-.314.088-.458-.022.159-.047.321-.052.281-.04.359.093-.555.061-.25 0 0-.001-.021-.013.059.026-.141.023-.027 0 .112l-.003.003c.008.059.048.011.107-.392l-.084.566.222-1.351c-.052.345-.16 1.17-.201 1.363-.003.05-.007.108.018-.012l.073-.532-.058.537c.007-.075.088-.616.092-.598l-.086.591.091-.53-.083.602c.013-.104.012.012.023-.04l.011-.124c.006.083.124-.746.137-.716-.018.11-.102.676-.103.745l.25-1.517-.019.156.037-.176-.268 1.604c-.011.124-.024.184-.013.171-.017.146-.037.22-.041.229l.009.097.1-.582-.071.326c.044-.318.143-.901.151-.843l-.099.672c.018-.11.045-.207.035-.129l-.031.169c-.008.121.075-.42.042-.115.001.021-.048.411-.02.223l.248-1.76-.052.53-.136.923.038-.228c-.007.075-.04.269-.026.231.047-.322.013.03.043-.272.021-.091-.001.068.011.055.027-.209.11-.708.131-.799l-.032.238c.013.031.001.179.016.184l-.039.312c.01-.057.028-.166.034-.173-.031.28-.017.042-.058.377.027-.187.049-.257.073-.373.039-.29-.008-.058-.031.058.057-.399.129-.816.171-.998.027-.097-.031.259-.021.202.014.073.12-.695.099-.404a165.2 165.2 0 0 0-.096.69c-.024.095.007-.164-.002-.154l-.008.122c-.015.084-.032.147-.025.073-.026.23.035.05.023.264.016-.085.034-.173.046-.275l-.011.035c.024-.206.052-.282.058-.379.029-.143.07-.369.064-.251l-.039.29c.012-.085.017-.174.002-.086.023-.128-.039.396.02.016l.021-.202c.029-.145.083-.452.079-.358l.034-.304c-.053.418-.023-.021-.076.418.048-.39.011-.167.049-.5-.013.096-.023.184-.024.136l-.014.084v-.007l-.001.011c-.002.014-.003.017 0 .004l-.017.146c-.035.219-.048.21-.068.324l.03-.212-.031.169c.03-.213.037-.355.067-.478l-.009-.011c.011-.12.009-.169-.009-.08.002-.047-.046.234-.018.068l-.035.129.007-.053c-.012-.029-.084.347-.047-.039-.013.053-.028.118-.029.056l.024-.184c-.016.063.005-.187-.025.004.063-.496-.019-.113-.018-.202l-.035.24c-.007-.015-.024.052-.049.147l-.03.212c-.034.173-.002-.154-.019-.135.013-.081.013-.059.009-.01.051-.482-.086.344-.052-.008-.015.077-.014.049-.009-.004l.002-.011-.001-.003.011-.114-.012.115a.327.327 0 0 0-.024.082l.031-.228-.002.006c.008-.085-.019.107-.041.279l-.026.137c.049-.369-.029.122.022-.271-.03.191-.043.141-.103.543l.012-.081c.002-.047.003-.093-.017.019l.039-.29-.066.388c.019-.177.031-.28.069-.502l-.093.465.027-.187c-.006.006-.049.256-.03.101.04-.358-.046-.057-.026-.391-.073.552.023-.249-.04.178l.044-.318c-.032.126.008-.21-.053.149l.04-.269c-.005.028-.021.113-.011.035l.028-.166c-.017.02-.076.422-.131.799.009-.09.012-.129.007-.114l-.013.062-.011.062-.006.039-.004.021-.002.011-.517.531-.178.03-.071.01-.027.003h-.007l.84-.848.001-.003.003-.009V45.471l-.865.871h-.001l-.002.001-.018.006c-.013.005-.027.013-.027.013-.005.007.031.007.182-.015-.076.012-.021.009.014.005-.017.012-.044.017-.014.022l.049-.009c.366-.046.083-.003.128-.001l-.039.009c-.261.052.127-.008-.171.048l.228-.03c.49-.059-.287.052-.098.039l.13-.019c.168-.014-.664.095-.725.105l-.101.009a6.547 6.547 0 0 0-.077.013l1.344 1.179c.007.02-.009-.392 0-.45.005.162.004.412.013.442.006.131.015-.526.032-.215a4.576 4.576 0 0 1-.005-.343c.008-.045.032.471.033.078l.003.098c.005-.102.019-.169.02-.383.019.792.036-.386.047.345l.02-.039.001.074c.014.048.016-.127.018-.303l.003.156c.022.147.023.116.034-.248l.005.237c.003-.138.033.371.048.095l-.001.106c.018-.278.059.657.057-.206l.012-.213c-.019-.067-.002-.375-.011-.518.007-.051.022.26.013.305l-.002-.043c.002.45.025.159.028.466.036-.022.074.226.107.245l-.007-.349.012.02c.004.082.007.273-.002.259.006.198.013-.166.012-.242.018.142-.003.408.002.416l.007-.026-.002-.041c.004-.143.003-.294.014-.277l.008.229c0 .024.001.036.004.01l.015.03-.008-.276c.005-.136.014.014.005-.298.014.482.057.173.064.323.008-.202.017-.198.029-.174-.003-.058-.007-.368.003-.33 0 .64.02.278.03.739-.009-.306.027-.076.014-.51.008.052.002.24.009.391.018-.249.043.161.067.077v-.338l.014.42c.005-.041.003-.485.012-.193l-.001-.204c.048.409.095-.336.144.433-.007-.163-.002-.179.003-.185l-.001-.322.02.316c.003-.316.021-.021.023-.324l-.006.055-.011-1.252c-.009.406-.026-.601-.041-.02l.001-.254c-.004.196-.009.238-.018.149l.001-.049c-.025.048-.036-.145-.065-.274l.003.226c-.006-.03-.008-.101-.011-.158-.006.343.017.019.012.398-.009-.461-.043-.007-.05-.53-.009-.003.004.262-.006.259l-.003-.141-.002.182a4.26 4.26 0 0 1-.011-.327c.002.014.004-.034.006-.044-.009-.167-.022.057-.025.003l.009.087c-.025.133-.057-.053-.081.235l.002.107c-.018.198-.016-.117-.036-.026l.001-.025c-.004.107-.009.161-.014.148l-.005-.382c-.019.213-.009.167-.02.564l-.004-.177c-.003.16-.003.245-.013.291v-.471c-.025-.387-.029.392-.044-.175-.006.491.021.273.016.377.006.16-.005.367-.013.318-.007-.011-.017-.628-.034-.618l.003-.033c-.008-.126-.011.169-.021-.034-.002.297-.011-.017-.009.361l.015-.088c-.008.099-.013.542-.029.328l.007-.233c-.005-.112-.008.074-.013-.041-.002-.379.019-.082.026-.371-.006-.16-.016.275-.015-.136-.002.522-.018-.065-.026.333l-.001-.227c-.002.035-.004.143-.008.137l.003-.294c-.007.251-.021-.219-.029-.083.019-.007.007.273.017.439-.021.304-.02-.593-.045-.484.003-.032.015.136.01.241a25.412 25.412 0 0 0-.018-.253c-.017.047.005.233-.001.373-.009-.277-.007.113-.014.201l-.003-.231c-.022-.148 0 .481-.02.302l.004-.32-.009.083-.001-.262c-.008.195-.012.144-.023.071.004.163.004.419-.005.426-.008-.137.001-.219-.011-.186.001-.145.002-.326.01-.113l.001-.219c-.008-.158-.022-.034-.022-.034l.006.054-.014.319-.001-.224a11.43 11.43 0 0 0-.01.151c-.001-.187-.004-.381.003-.469l-.015.208a48.505 48.505 0 0 1-.01-.293c-.011-.11-.019.364-.034.219a11.58 11.58 0 0 1-.003.098c-.013-.042-.027-.272-.037-.015l-.013-.336c-.01.077.017.423 0 .55-.012.108-.009-.286-.015-.38-.004.17-.01.514-.027.241.003-.064.007-.014.01-.039zm-.135.15c.002-.048.005-.198.009-.062.001.265-.003.138-.009.062zm-.07 1.381c-.013.075-.01.038-.001-.05.005-.018.007-.009.001.05zm.795-1.509l-.002.011c.007-.089.004-.055.002-.011zm-.002.101l.014-.096c-.009.058-.012.061-.013.045-.008.06-.012.102-.001.051zm-.184 1.992l-.003-.06c.005-.066.004-.006.003.06z"/><path d="M63.274 47.03l.017-.124a4.136 4.136 0 0 0-.017.124zM63.631 45.068v.003-.042zM63.671 47.223l.012-.118a.733.733 0 0 0-.012.118zM64.253 44.934l-.016.058c.005-.011 0 .039-.004.076l.02-.134zM64.118 46.357l.008-.031.015-.106a.584.584 0 0 0-.023.137zM64.152 45.694c-.027.192-.013.128-.002.093h-.001c.04-.269.021-.181.003-.093zM64.152 45.78c.003-.009.005-.014.006-.004.016-.108.001-.022-.006.004zM64.167 45.188c-.005.05.037-.245.027-.167.038-.244-.059.293-.027.167zM64.066 46.327l.032-.237-.031.191zM64.048 46.147l-.001.067.014-.081c-.004-.008-.003-.056-.013.014zM64.061 46.133c.002.005.005.001.013-.038 0 0-.006.01-.013.038zM64.044 46.397l.004-.05-.003-.018zM63.962 46.088l-.019.067c-.013.081-.017.131-.009.099l.028-.166zM63.898 46.742l.022-.181-.042.294.02-.113zM63.86 46.807c-.013.081-.047.232-.033.215.013-.081.032-.147.033-.215zM63.772 46.414l.003-.003.068-.482zM63.482 47.55c-.005.117.045-.297.035-.151l.025-.217c-.024.119-.018.05-.06.368zM63.542 47.182l.014-.073-.014.073zM64.385 47.548l.008.102-.005-.164zM64.399 47.187l.002.311.004-.281c-.002.013-.005.04-.006-.03zM63.379 44.716l.001.074a.369.369 0 0 0 .008.099l-.009-.173zM63.484 44.947l-.002-.007.008.281zM63.563 44.588c-.004-.012-.007.051-.01.039.007-.051.016.311.01-.039z"/><g><path d="M63.74 47.461c-.575-.108-.386.123-.475.145.946.107.464-.2.475-.145zM70.601 53.597l-.13-.155s.172.346.291.715l.252.739s-.383-1.312-.413-1.299zM70.394 63.256c.32-.357.546-1.219.648-2.216.088-1.002.127-2.105.169-2.986l.078-.29s-.063-.199-.141-.395l-.161-.388c.194 2.092.015 4.971-.593 6.275zM67.297 65.868c.122.051-.068.104-.089.111-.044-.014.21.025.788-.311l-.125.029c-.111.05-.248.129-.574.171z"/><path d="M67.871 65.697c.491-.286-.379.076 0 0zM64.245 65.483s.271.074.534.143l.548.076c-.242-.108-1.087-.432-.746-.377-.512-.169-.725-.27-.748-.233-.027.042.14.194.412.391zM63.16 65.148c-.005.015.552.29.552.29-.074-.092-.212-.159-.552-.29zM64.914 65.817l-.19-.031a98.387 98.387 0 0 0-.414-.116c-.298-.105-.598-.232-.598-.232.117.136.099.234.544.229-.135.047.14.075.658.15zM65.644 66.028c.686.191 1.554.267.321.29 1.214.122 1.552-.132 1.476-.157-.088-.057-.581.054-1.797-.133zM70.543 63.843s.125-.224.233-.458c.111-.233.208-.474.208-.474l.064-.446.046-.448c-.019.224-.155.703-.307 1.104-.15.401-.305.729-.244.722zM59.866 59.572c-.098-.057-.071.436-.12.562 0 0 .091.215.202.424.101.212.219.416.219.416-.158-.454-.41-1.332-.301-1.402zM59.745 60.135s-.151-.322-.261-.635c-.117-.318-.203-.661-.203-.661.216 1.217.438 1.387.464 1.296zM62.756 65.326s.509.305 1.043.492c.529.208 1.067.268 1.067.268s-.637-.091-1.261-.363c-.628-.255-1.204-.676-1.204-.676s.35.288.355.279zM59.243 53.795l.159.493.137.485-.067-.264a10.951 10.951 0 0 0-.171-.615c-.135-.429-.274-.798-.274-.798l.216.699zM57.484 49.286c.153.075.271.135.213.047a2.828 2.828 0 0 0-.203-.268c-.156-.188-.314-.368.011-.17a10.966 10.966 0 0 0-2.794-1.499c.943.407 1.823.996 2.773 1.89zM52.967 46.892c.45.108.664.161.936.24.268.077.537.163.808.264a6.989 6.989 0 0 0-.775-.282 8.868 8.868 0 0 0-.969-.222zM59.092 56.31c.034-.128.149-.354.123-1.283l-.156.657.033.626zM59.053 55.707l.005-.023a22.993 22.993 0 0 0-.116-1.41c.027.209.07.627.111 1.433zM59.099 56.466a8.137 8.137 0 0 1-.007-.156c-.017.063-.022.097.007.156zM60.423 62.377c-.546-.658-1.372-2.308-.804-.619.419.489.026-.425.804.619zM58.887 57.234l.04.799c.027.393.077.774.077.774.048-.037.081-.319.206.081 0 0-.107-.389-.183-.806l-.14-.848zM58.777 56.436l.11.798-.018-.607zM55.946 48.515c-.698-.35-1.44-.784-2.414-1.129 1.025.42 1.929.991 2.743 1.561.146.028.585.181-.329-.432zM58.551 51.933l-.027-.136c-.009.085-.006.157.027.136zM50.329 55.02l-.022-.154a.179.179 0 0 1-.045-.017l.067.171z"/><path d="M56.393 49.075c.295.236.534.416.747.564l.775.538a27.636 27.636 0 0 0-1.64-1.231c-.069-.013-.089-.004.118.129zM49.696 48.069c.116-.285.305-.536.459-.822l.123-.212c.024-.03.032-.084.07-.094l.133-.002.536-.008-.55-.018c-.051 0-.107-.005-.157 0l-.077.124-.154.253c-.199.336-.381.647-.383.779zM58.556 51.449l.019.18c.023-.405.004-.354-.019-.18zM58.556 51.449l-.086-.87c-.203-.165-.387-.281-.555-.401.185.154.382.298.515.421.016.447.046.947.094 1.198l.032-.348zM52.643 56.93c-.214-.026-1.259-1.638-1.587-3.257-.303-.737-.522-.835-.666-.543-.143.29-.193.985-.083 1.737.108.01.143.022.951 1.508-.084-.284-.412-1.168-.595-1.837-.17-.679-.239-1.107.081-.464.888 2.042.639 1.703.992 2.728-.189-.905 1.545 2.331 1.642 1.756l-.96-1.658c.031-.054.418.525.225.03zM49.463 51.555l-.038-.385a8.58 8.58 0 0 1-.03-.388c-.001.89.004 1.53.155 2.662.447 1.167.631 1.345.713 1.406 0 0-.319-.825-.548-1.71-.241-.881-.298-1.845-.298-1.845l.046.26z"/><path d="M50.919 47.061c-.516-.112-.681.871-.829 1.325-.101.522-.083.724.212.175.339-1.41 1.144-.955 1.375-1.11.318-.019.505-.109 1.357.072-1.141-.302-1.609-.194-1.752-.222-.143-.007.046-.03.28-.061.234-.02.522-.018.536-.052.007-.015-.056-.036-.231-.064-.178-.039-.46-.05-.899-.043a5.521 5.521 0 0 1 1.36.009c.223.043.443.068.657.126l.32.095c.078.022.154.046.225.074a3.032 3.032 0 0 0-.236-.091l-.337-.113c-.22-.065-.442-.104-.661-.157a6.34 6.34 0 0 0-1.28-.094l.119.008.023-.002-.002.004c.224.017.294.029.05.024l-.098.008c-.026.03-.103.056-.192.087-1.243.358-.321-.137.192-.087.009-.01.045-.022.048-.032l-.021-.002s-.318.01-.772.076c-.199.434-.506.977-.674 1.602-.103.302-.205.596-.228.917-.039.312-.069.461-.065.657l-.003.591.038-.645c.001-.116.031-.24.048-.369l.089-.529c.094-.367.248-.751.397-1.195l.321-.652.086-.175c.033-.053.042-.144.126-.124l.421-.031zM58.575 60.382c-.015-.099.001-.1.013-.11-.088-.19-.131-.258-.013.11z"/><path d="M58.372 59.091c.077.219.167.394.364 1.099.149.63-.095.028-.149.081.189.42.685 1.415.287.075l-.097-.197c-.328-1.207-.126-2.851-.091-2.633-.151.382-.274.713-.314 1.575zM57.925 51.588c-.024-.242-.033-.485-.044-.723-.334-.302-.737-.598-1.04-.827a19.298 19.298 0 0 0-.898-.619l.512.483.507.513.009-.131c.336.294.606.498.757.655.037.681.127.478.197.649zM50.356 55.358l-.343-.269s.22.363.458.699l.472.669-.298-.544-.289-.555zM51.907 58.56l-.227-.03.498.753zM30.421 21.743l-.284.152c.125-.058.213-.108.284-.152zM31.364 21.811l.131-.051c-.029-.044-.08-.028-.131.051zM40.967 72.379l-.178 1.659c-.046.399-.069.626.039.573l.205-.306c-.062-.723-.095-1.37-.066-1.926zM36.75 60.748c-.057.095-.105.201-.157.303l-.02.799c.052-.332.113-.71.177-1.102zM36.203 59.695c.03-.048.577-1.296.553-1.319l-.219.538-.334.781zM45.282 9.902l.749-.558c-1.304.572-.689.418-.749.558zM53.449 92.83c-.123.447-.249.862-.353 1.097l-.026.041-.005.009s-.023-.005.093.059c.156.064.279.016.407.078a.679.679 0 0 1 .309.221c.106.129.041.139.062.208l.003.083.001.021v.01l.002-.214v-.008c.001-.01.004-.018.008-.021.004-.004.011-.001.011-.001a.523.523 0 0 1 .062-.131c.057-.091.113-.114.212-.195a2.02 2.02 0 0 1 .391-.313c.012-.008.013.03.006.001.006.029-.004 0-.008.004.019-.017-.051.026-.108.067a2.019 2.019 0 0 0-.31.271.48.48 0 0 0-.22.231c-.04.107-.024.044-.036.066 0 0-.006.008-.007.014l-.001.011-.001.217-.001-.03c-.019-.092.032-.13-.045-.265a.686.686 0 0 0-.437-.277c-.091-.028-.173.005-.275-.035-.079-.044-.046-.03-.051-.035l.005-.006.022-.024c.014-.006.035-.052.054-.091.039-.072.076-.157.107-.247.129-.348.186-.657.129-.816zM34.726 17.686c-.807.382-1.17.579-1.206.645.779-.365 1.279-.621 1.206-.645z"/><path d="M54.136 91.441c-.001.168.014.33.019.501.067.335.138.666.219.995.076.309.187.696.259.839a20.92 20.92 0 0 1-.198-1.005 13.893 13.893 0 0 0-.299-1.33zM50.358 24.054l.25.184c.042-.006-.075-.081-.25-.184zM57.466 40.091a14.319 14.319 0 0 0-1.216-.195c.22.046.605.077 1.216.195zM54.79 71.688c-.09-.726-.035-.112 0 0zM55.231 68.047c.042.153.085.267.135.28a.619.619 0 0 1-.135-.28zM52.376 84.278l-.002-.065c-.032.222-.026.183.002.065zM54.769 70.578c.004.28.016.597.037.944 0-.154-.01-.439-.037-.944zM54.687 70.735l-.046-.648c-.044-.089-.059 0 .046.648z"/><path d="M54.901 72.699a31.58 31.58 0 0 1-.096-1.176c.001.143-.005.205-.016.166.025.214.058.513.112 1.01zM35.47 22.73l-.005-.146c-.23-.654-.139-.36.005.146zM41.49 92.104v-.134l-.019.16.019-.026zM40.813 95.3c.185-.547.291-1.064.415-1.528.094-.519.164-1.033.244-1.642 0 0-.172.205-.333.339-.16.144-.322.198-.322.198l.064.463c.023.255.048.629.043.957a9.28 9.28 0 0 1-.051.874c-.027.225-.06.339-.06.339z"/><path d="M32.007 12.18c-.555.338-.948.736-1.295 1.113l-.541.588.512.983.244.468-.344-.397-.601-.695.633-1.021c.304-.49.683-.961 1.147-1.326a3.518 3.518 0 0 1 1.367-.666c.357-.083.503-.086.329-.114-.157-.017-.702-.026-1.414.285-.017.116-.281.333-.573.642a9.396 9.396 0 0 0-.92 1.13l-.663.952.63.86c.301.41.646.918.979 1.411l.234.312a.801.801 0 0 0-.202.24c.012.056-.262.308-.213.411-.167.067-.334.119-.397.113l-.576.112c.284-.085.368-.134.549-.198.015-.01.021-.008.057-.023-.035.008-.045-.001-.064.001-1.004.184-1.513.473-2.008.894-.138.126-.263.229-.429.416-.075.077-.163.18-.258.321a1.878 1.878 0 0 0-.263.517 1.58 1.58 0 0 0-.053.775c.029.128.07.26.121.388.053.099.114.19.179.286.266.364.553.561.871.792l1.396 1.017.014-1.771.001-.162-.656.87.182-.048c.542-.118.745-.106.438.087l1.109-.595c.283-.106-.011.128-.242.212l.413-.187.212-.097c.061-.036.002.022-.007.04l-.056.08a6.975 6.975 0 0 0-.328.554l-.026.009c.074.058-.005.531-.104.868-.35.466.05-.242-.11-.112l-.178.505c-.151.37-.389.876-.379.855-.269.289-.237.085-.06-.353l.284-.668c.06-.144.125-.281.205-.419-.294.209-.4.26-.472.35a.33.33 0 0 0-.043.067l-.092.187-.182.425c-.228.608-.604 1.259-2.062 2.885 0 0 .281-.43.559-.824l.539-.773c-.5.36-.974.85-1.513 1.548a9.82 9.82 0 0 0-.837 1.282 5.554 5.554 0 0 0-.694 2.064 4.9 4.9 0 0 1 .389-1.257c.231-.521.567-.979.851-1.316.583-.638.944-.898.359.149a4.876 4.876 0 0 0-.606 1.137 3.49 3.49 0 0 0-.168 2.005c-.117.013-.124.464.146 1.082.232.624.9 1.351 1.603 1.808l-.275.18c.807.502 1.103.57 1.349.66.255.088.371.071.744.3 1.173 1.108 1.391 1.639 1.642 2.069 2.572 1.785-1.49-1.419 1.467.45 1.753 1.311 2.623 2.097 3.705 4.592.391 1.499-.26-.196-.167.358l.323.609.3.622c.077.326-.022.238-.073.194.339 1.098.36.007.745 1.795.207.22.204 1.182.111 2.35l-.163 1.863c-.039.646-.086 1.198-.103 1.768-.195.511-.13-.293-.282-.153-.416 2.965-.735 2.59-.884 5.332l-.294 1.091c-.146.538-.32 1.041-.32 1.041.554-1.491.483.521-.006 2.372.299-.527.546-.956.706-1.27l-.402 1.42-.223.982c-.064.266-.093.447-.093.447-.122.334-.177.02-.167-.477a4.881 4.881 0 0 0-.063.539c-.347 1-.398.436-.391-.353l.474-.985c.036-.754.087-1.483-.137-1.397-.03.197-.125.568-.244.967.015-.199.014-.334-.045-.257-.069.088-.102.413-.158.913l-.518.578.093.198s-.302.956-.516 1.932c-.228.973-.396 1.958-.396 1.958.027 2.875.489 5.297.715 9.69-.27-1.087-.412-.228-.71-.281.295-1.205-.202-3.416-.061-5.729-.065 1.202-.198.936-.24.626 0 0 .045 1.034.115 2.06l.161 2.044c-.245-.087-.169.871-.248 1.936.44-.805.438 3.016.46 4.643-.191.101-.238-.321-.241-2.28-.084.55-.093.985-.059 1.384.011.404.055.765.107 1.122.101.716.208 1.429-.016 2.509.029-.491.07-.752.001-.949.068 1.151-.229 3.947-.326 3.28l.029-.49-.163 2.207.234.477c.033.106.09.122.16.15.07.041.142.096.217.159.051.039.099.088.15.132.017.03.067.029.057.084l-.055.19c.041.134.108.141.163.227.117.136.235.291.353.45.236.32.468.663.696 1.004.379.555 1.094 1.699 1.618 2.437.549.785 1.018 1.241 1.336 1.472.319.243.532.331.588.298.032.062-.22.353-.361.374 0 0 .066.024.179.048.115.03.266.067.495.085.096-.007.331-.027.385-.201.064-.151.104-.319.137-.509.067-.375.09-.849.094-1.319-.005-.981-.15-1.931-.235-2.461-.093-.553-.164-.82-.164-.82.161.238.474-.06.756-.152.14-.037.272-.006.371.206.093.279.153.87.12 1.923l.104-.927.089-1.079a21.54 21.54 0 0 0 .036-2.027c-.077.531-.573 1.302-.567.574.489-1.976.278-1.376.722-3.817-.111.792-.618-.117-.544-1.372.073.202.545-.081.581.381l-.386-3.151c.055.785.446.158.639-.523-.032.084-.037-.065-.022-.339.017-.245.044-.769.102-.884.266-.638.619-1.594.687-2.014 0 0-.123.35-.265.677l-.292.637c.704-1.723.576-2.849.373-3.724-.106-.459-.238-.877-.341-1.418-.095-.535-.205-1.19-.072-2.044.021.216.171.482.338.481.179.002.309-.259.545-.958a4.278 4.278 0 0 1 .017-.905c.051-.41.193-.996.261-1.603.152-1.215.171-2.725.557-4.258-.012.027.391-.683.388-.657 0 0 .204-.766.548-1.439.168-.338.366-.633.537-.824.165-.199.302-.298.302-.298-.317.333-.65.977-.853 1.777-.215.818-.277 1.597-.342 2.344l-.216 2.307a10.357 10.357 0 0 1-.448 2.088c.365-.619.434-.707.534-.871.091-.162.227-.441.51-1.429.343-.661-.077 1.139-.363 1.777 0 0 .136-.298.299-.747.166-.45.345-1.034.513-1.574l.479-1.491.139-.408.018-.041c-.156-.032-.155-.337-.039-.761.058-.204.149-.428.266-.59.119-.164.241-.215.219-.348.012-.007-.205-.001-.356.258-.155.237-.271.581-.342.884-.047.3-.429 1.921-.407 1.834-.092.025-.141-.147-.143-.485a6.345 6.345 0 0 1 .023-.595l.037-.363.021-.289c.051-.413.16-.99.45-1.58.143-.276.359-.617.705-.636.343.026.538.368.698.659.129.399-.024.442-.168.505-.147.051-.3.15-.306.257.085-.028.305.238.471.602.087.183.156.357.221.546.092.27.159.495.167.574.005.017-.171-.368-.292-.588-.105-.174-.188-.272-.188-.272.007.193.491 1.295.811 1.876.339.694.659 1.457.804 2.527.094.362.127.903.173 1.403.05.515.124.935.233.973 0-1.347 1.073-1.815 1.533-1.114-.009.246.855 3.851.928 4.742.085 1.264-1.202-1.573-1.129-.491.099.018.406.632.515.892.134.767-.327-.231.125 1.371.192.088.367.941.411 1.387.012.191.013.37.024.292.009-.089.047-.299-.005-.971.052.198.083.374.115.534.03.15.033.258.042.404.011.269.007.501.001.742-.013.483-.039 1.004-.011 1.994.198-.636.749 1.763.896 3.447-.086-.097-.183.284-.226.47.117 3.454-.006 5.321.48 8.538-.012.156.037.627.085.989.06.363.091.625-.094.298.111.234.229.464.512.773.116.08.202.177.383.22.048.01.097.017.148.02l.075.003H54.029l.124-.039.001-.001c.049-.041.042-.017.145-.117a.925.925 0 0 0 .188-.264l.069-.176c.042-.119.073-.236.112-.365.366-.934.274-.393.095.264-.02.079-.054.171-.093.265-.025.055-.022.07-.07.155a1.141 1.141 0 0 1-.209.257c-.1.089-.103.081-.133.105l-.019.014-.009.007-.001.001-.177.056h-.008l-.016.001h-.125c-.158-.01-.331-.044-.383-.086-.147-.079-.219-.121-.18-.054a.828.828 0 0 0 .169.171.841.841 0 0 0 .275.107c.061.014.127.026.198.031l.053.003.027.001h.014l.236-.074.032-.01a.12.12 0 0 1 .027-.056c.008-.015.143-.127.223-.24.046-.06.09-.13.127-.204.019-.048.022-.071.035-.111.019-.07.052-.159.066-.235.074-.315.128-.687.187-1.101.107-.822.199-1.789.234-2.502-.175.198-.293 1.008-.42 1.948-.069.472-.129.97-.249 1.464a2.621 2.621 0 0 1-.124.384.998.998 0 0 1-.237.29l-.067.048-.002.001-.001.001-.118.037h-.078l-.092-.006a.533.533 0 0 1-.303-.104c-.071-.05-.168-.113-.202-.163-.078-.101-.181-.214-.219-.302.095-.058.235.099.571.245.077.045.187.028.299.005.074-.055.115-.167.133-.257.041-.2.062-.43.08-.688l.23-4.154c.204-2.657.389-1.12.385-1.586.299-2.491.214-3.575.156-4.548-.049-.996-.129-1.786.258-3.962.571-1.617.52.011.772-.322-.226 2.185-.503 3.322-.655 4.796l.287-1.803c.023.701-.045 2.155-.195 2.938.187-.678.376-2.796.625-5.215.55-2.385.398-5.18.323-7.115-.148-.681-.361-1.855-.406-1.284l.156 1.218c-.098 1.138-.509-2.267-.454-.714-.329-1.62-.692-3.448-.909-5.713l.222-.469c-.069.06.053 1.505.211 2.139-.219-.929-.106-3.56-.744-4.496l.071.803.052.803c-.438-1.581-1.203-3.417-1.877-5.233.06.927.222.404.35 1.817.008-.632.416.544.684 1.686.275 1.136.457 2.216.491 1.203-.107 1.5.27 2.518.146 4.471.088-.064.115-.71.24 1.003.036.075.09.259.124.374l.005.117.001-.096c.022.072.026.078 0-.037 0-.417.017-.758.057-.894.304.843.596 3.557.76 4.451.017 1.007-.137-.411-.206.144l.125.671.112.672c-.189.156-.363 2.598-.476.306 0 0 .008.519-.011 1.028a16.732 16.732 0 0 1-.062 1.008c-.057.297-.12.602-.186.89l-.125.521-.026.11-.045.242-.044.309a17.735 17.735 0 0 0-.151 2.007c-.138 1.018.002 2.592-.084 1.692l-.193 3.387-.056.024c-.187 1.657-.283 3.379-.51 5.108-.058.429-.125.863-.214 1.268a5.013 5.013 0 0 1-.147.554.4.4 0 0 1-.034.089l-.013.031-.006.016c.041-.019.15-.007.218.005a.698.698 0 0 1 .397.221c.133.147.07.182.089.256l.002.051.001.025v.019l.002-.211.002-.019c.003-.01.014-.015.014-.015-.003.028.021-.058.053-.109a.48.48 0 0 1 .185-.179l.114-.109.153-.129-.044-.119a3.523 3.523 0 0 1-.13-.523 8.978 8.978 0 0 1-.134-1.303c-.206-1.058-.383-2.196-.435-4.064l.165-.375c-.152-1.425.008-4.321-.197-4.936.226-.791.225-2.528.15-4.444l-.044-.765c-.027-.378-.089-.618-.131-.872a21.253 21.253 0 0 0-.347-1.462c-.251-.924-.518-1.729-.696-2.353l-.261-.019-.838-2.489c-.144-.42-.276-.844-.411-1.293-.142-.488-.3-.995-.481-1.527l-.168.19c-.344-.886-.705-2.113-1.127-3.363l-.343-1.128a11.154 11.154 0 0 0-.59-1.508c-.232-.477-.511-.874-.825-1.167-.3-.295-.693-.519-1.2-.486.122-.051.467-.069.754.096.292.139.559.42.766.694-.345-.47-.71-.86-1.335-.932-.638-.029-1.082.283-1.488.697-.405.425-.751 1.05-1.018 1.749-.129.353-.252.706-.356 1.067-.064.203-.091.317-.118.425l-.085.344c-.215.871-.422 1.829-.641 2.613-.231.814-.536 1.437-1.017 2.138-.35.855-.554 1.542-.692 2.197.012-.087.019-.169.023-.237-.015.096-.042.244-.053.388a9.072 9.072 0 0 0-.149 1.259l.131-1.052c-.056.733.048 1.723.151 2.608.003.009-.216.369-.216.369l.009.188c-.101.774.085.64.28.217.029.417.03.794.033 1.093-.36.457-.429 1.447-.894 2.404-.076.184-.123.373-.172.553a2.32 2.32 0 0 1-.135.369c.121.678-.103 4.664.282 5.179-.054.028-.092.299-.073-.198-.093 1.023-.185 2.044-.115 2.968l-.313.421.275 2.254c-.247 1.155-.349 1.066-.529.361.122.852.109 1.4.102 1.785l-.028.727c-.003.129-.015.437-.199.408-.14-.005-.257-.082-.404-.181l.007-.351c-.193-.226-.415-.436-.65-.718-.23-.275-.462-.607-.517-.844a4.674 4.674 0 0 0-.184-.441 17.802 17.802 0 0 0-1.065-1.786 9.301 9.301 0 0 0-.402-.545c-.078-.092-.162-.198-.246-.283a1.062 1.062 0 0 0-.143-.134.406.406 0 0 0-.105-.061c-.036-.016-.095.002-.073-.059l.02-.255.403-5.72.118-1.544.021-1.549c.013-.997.03-1.955.065-2.836-.537 1.111.199-2.646-.221-2.86.129-.332.2-1.117.32-.203-.13-2.885.284-4.283.12-6.259.165-.307.129.622.237.346-.005-.227-.024-.906.104-1.183.122-.271.042.418.062.868.323-2.833.105-3.169-.247-3.468.499-1.398.72-2.072.831-3.167.299-.496.705-1.303.141.514.07-.214.298-.743.485-1.416.186-.664.332-1.44.458-2.158.217-1.442.596-2.588.484-2.73.179-.279.473-1.396.506-1.684.32-1.165.411-1.844.463-2.508.039-.644.075-1.274.042-2.449l-.044.649c-.381-.914-.082-1.941-.439-3.811l.047.048c-.287-2.164-.558-2.591-.707-3.021-.086-.214-.173-.425-.32-.84-.164-.411-.338-1.04-.862-2.045l-.069.326c-.32-.047-.72-.921-1.571-1.833a10.413 10.413 0 0 0-1.471-1.316c-.576-.413-1.044-.712-1.511-1.068l.278.313c.141.154.291.297.291.297-.577-.282-1.096-1.026-1.67-1.817a10.453 10.453 0 0 0-.469-.592 7.986 7.986 0 0 0-.542-.545 15.49 15.49 0 0 0-.854-.732c-.174-.17.34.151.727.341-.712-.51-.902-.706-1.035-.808-.127-.095-.162-.077-.211-.037-.045.039-.086.103-.192.074-.102-.026-.286-.159-.458-.56.034-.17.162-.1.243-.131.09-.035.078-.107.123-.545.047-.111.07-.349.213-.749.136-.395.406-.934.776-1.522.367-.59.822-1.225 1.266-1.889.221-.322.446-.7.626-.996l.611-.978c-.273.385-.434.549-.508.564-.057-.019-.085-.074.285-.876.387-.738.811-1.553 1.628-2.659l2.836-3.774c-.102-.141-.947.289-1.533.543-.63.289-1.248.596-1.802.909-.285.082-.373.084-.348.039-1.109.519-2.84 1.294-4.197 1.744l-.598.198.03.56.009.162 1.215-.65-.241-.155-.166-.131a.078.078 0 0 0-.03-.03s-.022-.013-.016-.008a.222.222 0 0 1-.069.034c-.168.03-.096.007-.064.031a.465.465 0 0 1 .091.035c.008.006-.006.001-.006.001-.008-.005.013-.023.015-.037.001-.029.046-.071.076-.11.065-.079.152-.155.211-.217.328.037.897-.102 1.755-.343.312-.1.543-.227.769-.356l.342-.21.439-.29 1.742-1.185-1.7-2.411c-.372-.533-.656-.98-.778-1.276l-.016.843c.142-.12.25-.152.317-.092.412-.517.836-.783 1.108-.736l-.685-.466c.149.276.285.567.412.867.136.326.226.554.382.987l-.127-.136c.337.962.579 1.923.989 2.269.108.088.141.188.299.23.126.096.246.2.362.281.235.247.387.139.555.164l1.824-1.851c.559-.341.211-.007.2.048 1.625-1.07 2.616-1.522 3.494-2.018.887-.485 1.689-.973 3.166-1.819l.418.075c.393-.251 1.774-.73 3.508-1.443 1.753-.719 3.735-1.779 5.416-2.757-.023.04-.075.115-.335.285a16.074 16.074 0 0 1 3.912-1.639 11.353 11.353 0 0 1 3.878-.356l-.839-1.825c-.903 1.162-1.837 1.929-2.13 2.553 0 0-.529.46-1.123.858-.582.412-1.205.783-1.205.783 3.296-1.744-.303.611 1.116-.007-1.287.791-3.606 1.407-1.942.637l.275-.083c.206-.344-.858.125-2.023.57-1.16.451-2.407.927-2.415.769-1.293.516-2.596 1.036-3.868 1.673-1.31.669-2.388 1.38-3.601 1.925-1.196.569-2.43 1.061-3.673 1.524l-1.905.689c-.919.348-1.945.681-2.785 1.076.286.538.588 1.113.855 1.671.128.277.251.569.348.835l.174.518c.108.346.201.694.266 1.028.069.321.094.688.076.807l.724-.825c-.384.112-.674.25-.897.335 0 0 .188.018.429.013l.501.004c-.755.257-1.195.513-1.537.428l.582.614a7.987 7.987 0 0 0-.076-.585c-.02-.326-.016-.558.046-.531.054.031.199.31.292 1.091l-.806-.849c.039.001.086.01.144.004-.046-.017-.089-.037-.137-.051l.845.891c-.014-1.207-.917-2.708-.998-2.707l-.307-.86-.668-1.873-.764 2.004c-.204.535-.216.332-.18-.045l.237-2.451 1.544 2.289c.364.54.84 1.651.636 1.074-.152-.39-.318-.769-.494-1.139l-1.342-2.83-.732 3.018-.057.234.094-.225 1.186-2.818.815 2.636.018.057-.032-.051-1.644-2.615-.328 2.794c-.122 1.039-.078 1.155-.718 3.213-.217.751-.262.75-.338.819-.065.043-.083-.001-.167.206-.026-.007-.065.109-.286.674l-.199.436c-.122.271-.292.644-.441 1.068-.15.42-.262.904-.288 1.303-.028.4.019.689.019.689s.009-.468.131-.857c.109-.397.282-.715.282-.715-.075.39-.13.823-.105 1.231.029.435.133.693.18.917.057.208.124.305.137.26.013-.044-.003-.243-.001-.646-.034.592.286 1.694 1.035 2.755.729 1.08 1.832 2.097 2.96 2.972.564.442 1.14.845 1.685 1.219l1.701 1.145 2.62 1.742 1.503.751.385.197c.111.045.322.198.29.092l.11-.316c-.312-.689-.642-1.634-.917-2.439-.137-.411-.28-.812-.382-1.197a23.5 23.5 0 0 1-.245-1.148c.046.388.012.648-.103.502-.1-.143-.323-.65-.418-1.771.251.242.293-.283.36-1.32-.397-.066-.93-.126-1.477-.249l-.204-.055-.124-.044a3.097 3.097 0 0 1-.234-.098 2.32 2.32 0 0 1-.421-.248c-.253-.183-.456-.434-.541-.654a2.565 2.565 0 0 1-.21-.808c.122.664-.464-.499-.733-1.726-.3-1.21-.202-2.248-.461-1.254.025-.765.142-.733.198-.708.034.016.069.039.116.006.048-.026.099-.15.195-.267.027-.109.055-.115.041-.144l-1.291-.671c.108.676.29 1.311.518 1.945.114.317.241.632.386.944.069.157.145.313.226.468.097.203.223.407.344.606.488.799 1.102 1.524 1.797 1.991.354.227.706.442 1.131.645.046.019.116.067.141.062l.059-.035.119-.069c.088-.042.27-.042.403-.061.076-.411.155-.873.24-1.271l.129-.606c.044-.201.127-.335.189-.507.069-.161.127-.335.215-.478l.176-.282a8.18 8.18 0 0 1 .34-.467c.483-.6 1.068-1.136 1.71-1.484.03-.106-.675.109.085-.417 0 0 .567-.154 1.068-.072.516.055.988.285.988.285.372.078.583.032.868.07.27.05.664.179 1.134.79-.107-.191-.293-.495.156-.135.219.215.406.457.571.706.085.123.144.258.22.384.071.199.149.431.215.668.066.243.098.578.193.75l.24.517.095.208c.064.065.177.125.263.188l.279.186c.093.065.198.05.296.079.613-.145 1.188-.356 1.711-.761.524-.39.975-.947 1.334-1.55.563-.986.879-1.994 1.068-3.057l-1.572-.003c.227 1.284.385 2.565.018 3.611-.18.523-.487.997-.908 1.416a6.413 6.413 0 0 1-.665.581 2.79 2.79 0 0 1-.523.288l-.674.283c-.089.408-.08.885-.129 1.36l-.08 1.042c-.07.669-.055 1.268-.123 1.875-.03.303-.074.605-.127.906-.057.314-.102.538-.227 1.059-.235.915-.516 1.836-.793 2.791l2.78.066.702.035.453.044c.301.032.596.073.888.119-1.261-.234-.406-.226.556-.132-.621-.102.037-.206-.074-.332 0 0 1.005.166 1.844.533.422.178.772.415.962.613.221.208.409.425.402.414.368.12 1.143.87 1.771 1.665.651.793 1.064 1.603 1.254 1.715.044-.004-.589-1.019-.613-1.012.572.594.486.012.184-.759-.29-.768-.816-1.653-.559-1.714-.417-.302-.828-.705-1.293-1.156-.475-.493-1.188-.947-1.92-1.212a8.818 8.818 0 0 0-2.353-.532 9.78 9.78 0 0 0-1.223-.028l-.296.018-.183.03-.416.089c-.384-.092.444-.148.25-.253-.275.106-.647.175-1.084.193.061-.302.201-.724.343-1.21l.024.119.125-.681a16.662 16.662 0 0 0 .222-2.449c.029-.488.079-.934.119-1.383l.048-.442c.026-.104.003-.259.071-.336.134-.046.263-.099.384-.162.066-.035.244-.145.363-.233l.349-.271a6.218 6.218 0 0 0 1.291-1.389 5.344 5.344 0 0 0 .804-2.05c.126-.763.115-1.553.038-2.36l-.178.475-.117-1.534-.322-4.231-1.474 4.227-.18.516c-.001.548.162.126.29-.497l.834-4.055.741 4.058c.178.974.27 2.438-.005 1.647.067-.354.059-.943-.029-1.642l-.526-4.163-.981 4.16c-.174.739-.455 1.661-.908 2.455-.286.521-.737.953-1.218 1.029l-.104.016c-.031-.012-.056-.046-.083-.067l-.148-.144c.002-.144.017-.279.007-.395a3.054 3.054 0 0 1 .017-.53l-.074-.156a26.22 26.22 0 0 0-.14-.222 1.341 1.341 0 0 0-.166-.218c-.064-.057-.045.035-.029.125.017.09.031.179-.031.123-.06-.058-.194-.26-.549-.69 0 0-.293-.536-.306-.527 0 0-.538-.246-.543-.232-1.106-.893-1.818-1.202-1.828-1.355.349.123.985.351 1.324.558-.781-.591-2.189-1.066-3.528-.908-1.37.178-2.251.837-2.533.991 0 0 .463-.297.999-.497.523-.22 1.119-.3 1.119-.3-1.333.285-2.426 1.049-3.298 1.971-.44.464-.828.979-1.15 1.543a3.05 3.05 0 0 0-.284.682c-.047.12-.033.327-.097.383a1.423 1.423 0 0 1-.364-.229 2.764 2.764 0 0 1-.551-.658l-.111-.187c-.041-.077-.132-.239-.186-.36a8.524 8.524 0 0 1-.345-.793 8.177 8.177 0 0 1-.445-1.582l-.234-1.436-1.168.707c-.683.413-.887 1.036-.997 1.492a4.389 4.389 0 0 0-.06 1.274s.097-.432.108-.436c.026 1.099.22 1.767.335 2.323.136.546.24.949.37 1.364.142.419.254.833.622 1.445.216.339.491.641.894.93a3.967 3.967 0 0 0 1.07.537c.13.044.305.094.348.101-.006-.002-.082.005-.104-.003.234.021.491.03.806.034.02.308.089.755.163 1.202-.12-.333-.128-.004-.148.213-.016.233-.053.351-.194.018.261.808.436 1.243.586 1.488l.333.587.127.229c0 .033-.038.029-.068.042-.069.014-.176.014-.362-.029a19.161 19.161 0 0 1-.539-.558c-.411-.07-.419.021-1.854-.891 1.186.615-.663-.772.561-.19-.137-.151-.684-.554-1.033-.814l-1.079-.778c-.674-.477-1.258-.885-1.757-1.279-1-.773-1.701-1.514-1.918-2.412-.632-.645-.362.13.237.932.595.792 1.47 1.52 1.035 1.188.569.756-1.51-.816-2.047-2.066-.301-.574-.362-1.243-.264-1.907.078-.325.228-.692.484-1.188.242-.504.613-1.092.95-2.054-.136.378-.113.417-.26.762.165-.311.308-.649.41-1.044l.065-.309.036-.218.092-.446c.145-.621.371-1.302.72-2.073 0-.302.058-.618.122-.93l-1.614.147c.3.576.432 1.156.734 1.232a14.562 14.562 0 0 0-.568-1.308l1.27-.116c-.137.603-.311 1.175-.481 1.735.154-.56.278-1.132.368-1.763l-1.05.095c.491.835 1.042 1.811 1.176 3.147l.026.256.262.047c.498.09 1.038-.065 1.479-.224-.125.1-.727.525-1.516.469l-.38-.027-.118-.499-.091-.384.017.391.021.493.54.099c.462.085.931-.034 1.273-.177.349-.142.63-.292.89-.337l.393-.068.068-.457.045-.298c.046.033.071.146.08.317l.014.24-.565.388a4.76 4.76 0 0 1-.631.337c-.318.148-.906.379-1.6.279l-.686-.099-.067-.695c-.094-.977-.539-2.207-1.046-3.01l1.909-.174-.031.217.078-.205-2 .182c.177.48.535 1.201.714 1.726.181.526.222.832-.048.481.165.226.277.496.338.792l.166.802.662.069c.471.049.986-.045 1.374-.183.393-.136.698-.274.926-.325l.614-.137.082-.655c.092-.735-.023-1.213-.147-1.753a6.374 6.374 0 0 0-.613-1.519l.272.08c-.115-.259-.156-.269-.259-.434a5.806 5.806 0 0 1-.28-.463l.309.302c.142.133.254.217.254.217a2.366 2.366 0 0 1-.295-.45c.046-.078.252-.093.368-.126.153-.034.223-.027.41-.07.677-.199 1.351-.416 2-.728-1.837.719-2.063.715-2.036.613.014-.053.091-.136.065-.179-.014-.047-.216-.024-.4 0 .085-.042.103-.057.239-.116l.362-.156.636-.261c.387-.153.705-.267.979-.354.547-.175.918-.24 1.309-.31.772-.164 1.669-.239 4.113-1.645-.646.429-2.587 1.184-1.576.569l1.555-.72.724-.346c.202-.087.376-.153.517-.2 2.933-1.586-.58.017.625-.76 1.153-.269 1.467-.823 2.864-1.488l.098.209c3.809-1.365.818-.802 4.284-2.068l-.657.462-.663.446.878-.41.875-.429-.262.402c1.863-1.077 2.492-1.324 4.318-2.517-.526.14.04-.432 1.367-1.792.868-.808-.072.421 1.013-.9L63.42 4.4l-1.846-.035-.673-.013c.211-.043.432-.089.683-.122l1.952-.253-1.181 1.931c-.248.406-.564.927-1.253 1.371-.034.139-.338.546-.397.673.322-.207.635-.52.969-.827.32-.324.609-.706.895-1.058l1.629-2.002-2.594-.1c-.84-.032-1.605.032-2.087.094a7.197 7.197 0 0 1 1.113-.023s-1.038.102-2.004.373c-.975.252-1.866.643-1.866.643-.607.105-.17-.11.273-.324-.751.268-1.238.532-2.275 1 .209-.274.031-.466 1.574-1.108 0 0-.882.352-1.705.767-.826.412-1.61.858-1.61.858-.259.03-1.742.633-1.361.361-.905.404-1.911 1.055-2.975 1.683-1.064.626-2.249 1.239-3.46 1.686-.107.086-.34.225-.834.469-2.234.946-4.403 1.597-6.824 3.472 0 0-.408.162-.809.356l-.151.07c-.035.011-.025-.008-.041-.007a1.775 1.775 0 0 0-.066-.018.287.287 0 0 1-.052-.025c-.115.14-.091.245.016.293.092.069.267.051-.221.562-.04.03-.092.131-.152.127-.312-.078-.277-.336-.317-.44-.017-.122.006-.184.041-.23.073-.085.178-.153.179-.295a1.121 1.121 0 0 1-.108-.096c-.01.008-.063-.098-.113-.2a41.68 41.68 0 0 1-.156-.306c-.217-.421-.47-.895-.775-1.399l-.327-.541-.534-.046c-.693-.06-1.41.215-1.887.57-.493.355-.851.76-1.184 1.149l-.457.534.433.748c.141.245.279.496.409.754a10.97 10.97 0 0 1-.496-.693l-.492-.738.518-.67a5.89 5.89 0 0 1 1.186-1.195zm-4.019 14.993c.27-.548.835-1.538 1.179-1.754-.163.654-.568.941-1.179 1.754zm7.4 37.493c-.009-.412.133-1.03.37-1.706-.097.506-.201 1.077-.37 1.706zm19.584 14.716l-.001.03c.011-.042.003.018.003.018l-.137.717-.022.12c.018-.084.041-.321.157-.885zm.383-2.299c-.025-.239-.057-.223-.093-.125.055.168.035.696-.049 1.284.076-.156.16-.452.142-1.159zm-22.46-53.131l.201-.376c-.273.93-.257.666-.201.376z"/><path d="M36.26 59.834c.087-.135.142-.162.195-.181.035-.219-.005-.24-.195.181zM45.141 10.006l.078-.031a.196.196 0 0 0 .062-.073l-.14.104zM50.659 74.679c-.109-.487-.156-.77-.171-.962-.063-.01-.032.228.171.962zM53.694 64.294l.18.745.164.753c-.137-.733-.142-1-.181-1.377-.045.046-.063.345-.163-.121zM50.527 50.992c-.053-.232.005-.491-.022-.723l-.109.056c-.03 1.018.178 1.695.131.667zM54.108 62.728c.153-.168-.155-1.109-.571-2.117l.068.181c-.365-.208.122.837.503 1.936zM53.442 60.376l-.388-.926c-.15-.073.149.377.388.926zM55.162 74.046c.01-.52-.272-.305-.215-.603-.267-.553.508 3.404.215.603zM54.476 61.691l-.115.451.352.55zM55.787 70.401l-.117-1.784c-.038.03-.084-.191-.135-.467.12 1.091.181 2.299.252 2.251zM55.535 68.15c-.061-.568-.139-1.108-.223-1.415l.223 1.415zM55.152 64.043l.055.53.204 1.246-.119-.889-.14-.887zM54.85 89.48l-.18 1.94c.053.208.181-.31.239-1.035.002-.47.055-1.192-.059-.905zM56.1 83.678c-.098.521-.154.55-.261.84l.29.086-.029-.926zM55.595 89.356c.064.202-.116 2.858.174.384-.055-.21.096-2.166-.174-.384zM50.523 71.581l.157.47.441-.218zM43.54 74.067c-.004-1.214-.09-1.297-.165-1.41-.067-.088-.175-.212-.074-1.106-.04-.227-.105.114-.127.502-.025.384-.023.804-.088.536.206 1.328.157 2.207.454 1.478z"/><path d="M43.087 72.589l-.089-.665c.029.37.065.554.089.665zM60.949 43.201s.187.285.348.57c.161.286.285.564.285.564.016.007-.283-.782-.301-.786l-.332-.348zM62.371 45.2l-.246.38.427.747c-.073-.303-.208-.879-.181-1.127zM27.453 32.607l.167.085c-.155-.322-.533-.713-.841-1.779 0 0 .065.477.255.884.15.434.419.81.419.81zM28.347 21.891l.197.155.137.105a1.627 1.627 0 0 1 .058.044l.002.001.001.001 2.249-1.203v-.001.001l-2.248 1.202-.005-.007-.019-.025-.067-.089-.194-.268c-.139-.192-.288-.476-.282-.463-.016-.008.174.575.171.547zM36.331 14.071c.001-.016-.01-.008-.025-.011a.04.04 0 0 1-.021-.011l-.008-.01-.081-.227.087.225.001.012-.012.038a.701.701 0 0 0-.034.119c-.014.085-.007.112.093-.135z"/></g></g></svg>