<svg xmlns="http://www.w3.org/2000/svg" viewBox="0 0 40 40"><path fill="#fff" d="M24.553 21.638a4.828 4.828 0 0 1-6.19 2.914 4.84 4.84 0 0 1-2.922-6.186 4.856 4.856 0 0 1 6.198-2.925 4.845 4.845 0 0 1 2.914 6.197z"/><path fill="none" stroke="#fff" stroke-width="2" stroke-miterlimit="10" d="M22.176 33.768l9.386-26.117 6.806 2.446-1.947 5.4-15.204-5.465"/><path fill="none" stroke="#fff" stroke-width="2" stroke-miterlimit="10" d="M6.234 22.178l26.113 9.39-2.442 6.798-5.4-1.947 5.461-15.2m3.8-3.401L7.652 8.436l2.442-6.802 5.409 1.938-5.469 15.213"/><path fill="none" stroke="#fff" stroke-width="2" stroke-miterlimit="10" d="M17.824 6.236l-9.39 26.113-6.802-2.446 1.943-5.404 15.208 5.465"/></svg>