<svg xmlns="http://www.w3.org/2000/svg" viewBox="0 0 40 40"><g fill="#fff" stroke="#fff" stroke-width="2" stroke-miterlimit="10"><path d="M22.464 36.362v2.244h9.47c0-3.425 2.835-6.204 6.325-6.204v-9.296H36.31v-6.213h1.949V7.598c-3.491 0-6.325-2.778-6.325-6.204h-9.47v8.491l6.199-.16-6.494 2.09-.801-8.171h-3.833v-2.25H8.066c0 3.425-2.83 6.204-6.326 6.204v9.296h1.95v6.213H1.741v9.296c3.495 0 6.326 2.778 6.326 6.204h9.469v-2.244h4.928z"/><path d="M17.536 3.643V1.394h-9.47c0 3.425-2.83 6.204-6.326 6.204v9.296h1.95v6.213H1.741v9.296c3.495 0 6.326 2.778 6.326 6.204h9.469v-8.486l-6.199.155 6.494-2.09.806 8.176h3.828v2.244h9.47c0-3.425 2.835-6.204 6.325-6.204v-9.296h-1.95v-6.213h1.949V7.598c-3.491 0-6.325-2.778-6.325-6.204h-9.47v2.249h-4.928z"/></g></svg>