<svg xmlns="http://www.w3.org/2000/svg" viewBox="0 0 400 17"><path d="M399.75 17V6.525a1.614 1.614 0 0 1-1.614-1.617l-.214-.002v-1.71a1.617 1.617 0 0 1-1.614-1.619h-3.838a1.612 1.612 0 0 1-1.46 1.599V1.619a1.616 1.616 0 0 1-1.614-1.617h-.482V0L10.475.002c0 .892-.722 1.619-1.616 1.617v1.56a1.61 1.61 0 0 1-1.458-1.602H3.387a1.617 1.617 0 0 1-1.614 1.614V4.91h-.037c0 .892-.593 1.617-1.486 1.617V17M394.63 4.08c.608.199 1.058.75 1.108 1.414l-.035.002h-2.18a1.616 1.616 0 0 1 1.107-1.416zM5.15 4.054a1.619 1.619 0 0 1 1.194 1.441H3.951A1.62 1.62 0 0 1 5.15 4.054z" fill="gray" stroke="#fff" stroke-width=".25" stroke-miterlimit="10"/></svg>