<svg xmlns="http://www.w3.org/2000/svg" viewBox="143 48.39 400 17"><path d="M542.75 65.39V54.915a1.614 1.614 0 0 1-1.614-1.617l-.214-.002v-1.71a1.617 1.617 0 0 1-1.614-1.619h-3.838a1.612 1.612 0 0 1-1.46 1.599v-1.557a1.616 1.616 0 0 1-1.614-1.617h-.482v-.002l-106.081.001m-165.666 0l-106.692.001c0 .892-.722 1.619-1.616 1.617v1.56a1.61 1.61 0 0 1-1.458-1.602h-4.014a1.617 1.617 0 0 1-1.614 1.614V53.3h-.037c0 .892-.593 1.617-1.486 1.617V65.39m3.789-11.505h-.088a1.62 1.62 0 0 1 1.199-1.441 1.619 1.619 0 0 1 1.194 1.441h-2.305zm391.664.001h-2.18a1.616 1.616 0 0 1 1.107-1.416c.608.199 1.058.75 1.108 1.414l-.035.002z" fill="none" stroke="#fff" stroke-width=".25" stroke-miterlimit="10"/></svg>