<svg xmlns="http://www.w3.org/2000/svg" viewBox="0 0 113.39 113.39"><path d="M91.768 23.629c2.63-5.628 3.383-10.835 1.736-11.73 0 0 1.197 5.447-13.643 3.975l3.045-6.534 1.819-.661L86.158.145l-5.616 6.579.664 1.819-3.276 7.017-14.165-2.405 11.937 7.185-7.255 15.56c-2.643-1.727-5.803-2.86-9.44-3.268-1.321-1.893-2.269-8.498-2.269-12.298 0 3.889-1.007 10.536-2.382 12.432-3.718.592-6.806 1.707-9.354 3.253l-7.31-15.679 11.937-7.185-14.164 2.405-3.276-7.017.664-1.819L27.237.143 28.67 8.68l1.813.661 3.051 6.534C18.694 17.347 19.891 11.9 19.891 11.9c-1.659.895-.889 6.102 1.729 11.73 2.619 5.628 11.772 16.902 13.519 16.212 0 0-7.749-11.576 1.066-18.232l7.218 15.478c-5.37 4.043-7.775 10.42-7.775 18.396l-4.97 4.721s2.968 9.404 2.595 13.771l-2.18 16.643 9.33-9.227-.545-6.804s6.674-1.539 10.651-.258l-15.224 32.654-3.714 3.193 1.825 3.069 3.524-.574.06-4.891 15.201-32.593c.256.206.482.436.663.701l1.967 8.694c-1.919 1.208-2.227 2.882-2.227 2.882l4.158 5.589 4.159-5.589s-.308-1.665-2.222-2.868l1.949-8.752c.161-.231.35-.438.556-.627l15.185 32.564.059 4.891 3.525.574 1.83-3.069-3.714-3.193-15.266-32.743c4.14-1.613 11.249.311 11.249.311l-1.013 6.839 9.331 9.227-2.192-16.643h-.083c-.367-4.367 2.601-13.771 2.601-13.771l-4.97-4.721c0-7.901-2.742-14.397-7.749-18.453l7.192-15.421c8.815 6.656 1.06 18.232 1.06 18.232 1.754.689 10.906-10.584 13.519-16.213z" fill="#fff" stroke="#231f20" stroke-width=".25" stroke-miterlimit="10"/></svg>