<svg xmlns="http://www.w3.org/2000/svg" viewBox="0 0 40 40"><path fill="none" stroke="#000" stroke-width=".581" stroke-miterlimit="10" d="M-19.084-2.746l.034-.033-.067-.469 2.034-2.035 1.912-2.852-2.845 1.919-2.034 2.034-.467-.067-.035.035.445.43-1.195 1.196-.225-.244.058 1.004 1.005.056-.246-.223 1.196-1.196zM9.417-8.16l-.649-.647-.887.237-.078.771-.234.268-.367-.366-.532.885-.823.118-.005-.006-.699-.369-1.834.423-.625.625-.303 1.369.295.985 1.799 1.802.988.293 1.346-.324.625-.625.442-1.816-.354-.685-.004-.004.072-.864.928-.49-.377-.379.262-.24.775-.072zm52.423.9l.01-.883-.885.01-3.875 3.877-.412-.414v-.617h-.658v.629l.013.225.657.892-.848.847h-.363v.922h.922v-.364l.847-.845.893.656h.879v-.659h-.656l-.399-.399zM-7.195-2.437h-.002a6.418 6.418 0 0 0-1.685-3.781l.678-.683.316.305.72-1.694-1.694.722.305.314-.68.682a6.428 6.428 0 0 0-3.732-1.686l-.182-.023v.012a5.891 5.891 0 0 0-.463-.019v.588c.156 0 .311.007.463.021v4.188l-.522.461.522.182v.188l-.469.472.354.354.457-.458h.215l.178.522.461-.522h4.188c.013.154.022.311.022.467l.578-.009c0-.153-.006-.307-.015-.458h.015l-.028-.145zm-5.695-1.284l-.07-3.941A5.847 5.847 0 0 1-9.652-6.16l-1.604 1.603-.534-.131-1.1.967zm1.183 1.143l.947-1.078-.135-.555 1.596-1.593a5.851 5.851 0 0 1 1.518 3.348l-3.926-.122zM-.554-8.439l-.407 1.782-3.816 3.814-.449.161.08.828.828.081.161-.45 3.815-3.814 1.782-.408v-1.994H-.554zm.172 1.823l.517-1.296h.777v.777l-1.294.519z"/><g stroke="#000" stroke-width=".581" stroke-miterlimit="10"><path d="M29.815-9.189L28.801-5.38h-2.629v-3.809z"/><path fill="#fff" d="M29.815-8.799h-2.858l-.279 1.905h-1.33l-.59 5.122 1.1-1.905h2.709z"/></g><g stroke="#000" stroke-width=".581" stroke-miterlimit="10"><path fill="none" d="M11.748-7.469L10.59-3.133l.313 1.361h3.418l.313-3.107z"/><path d="M13.379-2.931l-.984-2.505 1.413.815z"/></g><g stroke="#000" stroke-width=".581" stroke-miterlimit="10"><path fill="none" d="M23.35-6.341l-3.674-1.942-2.769 1.324v2.274l1.457.732-.096 2.181h.443l.49-1.261.385 1.261h.422l.385-.841.385.841h.316l-.106-.841.774.841-.094-2.468z"/><path d="M18.86-4.635l.721-1.357.003-.479-1.141-.263-.345 1.011zm2.062.368l-.738-1.385-.002-.49 1.164-.27.354 1.032z"/></g><path fill="none" stroke="#000" stroke-width=".593" stroke-miterlimit="10" d="M41.721-3.566v-3.357h-.002l.002-.001-1.584-1.585v.501l-.867-.866v1.586l-2.871-.72v1.44l.721.72v1.95h3.191l-3.191.346h.867v.365h3.564l1.309 1.415v-.72z"/><g stroke="#000" stroke-width=".593" stroke-miterlimit="10"><path d="M33.647-8.247l-.527.843-.844-.843.844-.845zm-2.617.317l-.246.565-.565-.565.565-.561zm4.092 1.657l-.733-.733.418-.734zm0 .496l-3.955-1.471.363 2.045-1.006-1.171v2.195l.594 1.519.315.888h3.374l.315-4.005z" fill="none"/><path d="M32.645-2.669h1.615l.186-1.846-1.623-.063z"/></g><path fill="none" stroke="#000" stroke-width=".581" stroke-miterlimit="10" d="M-16.908-14.84l-.254.565.896.402.694 1.293-1.633 1.634-1.293-.694-.241-.499-2.828 2.827-.142 1.04-1.553-.22-.219-1.552 1.04-.141 2.828-2.829-.5-.24-.694-1.293 1.635-1.634 1.293.693.4.896.565-.254z"/><circle cx="49.727" cy="-6.223" r="1.173"/><path fill="none" stroke="#000" stroke-width=".523" stroke-miterlimit="10" d="M50.254-2.887l2.275-6.329 1.649.593-.471 1.309-3.685-1.325"/><path fill="none" stroke="#000" stroke-width=".523" stroke-miterlimit="10" d="M46.391-5.695l6.328 2.275-.592 1.648-1.308-.472 1.323-3.684m.921-.824l-6.328-2.273.592-1.649 1.31.47-1.325 3.687"/><path fill="none" stroke="#000" stroke-width=".523" stroke-miterlimit="10" d="M49.2-9.558L46.924-3.23l-1.648-.593.471-1.31 3.685 1.325"/><g fill="#231f20" stroke="#bbbdbf" stroke-width=".283" stroke-miterlimit="10"><path d="M78.152-2.813v.468h1.974c0-.714.591-1.293 1.318-1.293v-1.938h-.406v-1.295h.406v-1.938a1.306 1.306 0 0 1-1.318-1.293h-1.974v1.77l1.292-.033-1.354.435-.167-1.703h-.799v-.469H75.15c0 .714-.59 1.293-1.318 1.293v1.938h.406v1.295h-.406v1.938c.729 0 1.318.579 1.318 1.293h1.974v-.468h1.028z"/><path d="M77.125-9.633v-.469h-1.974c0 .714-.59 1.293-1.318 1.293v1.938h.406v1.295h-.406v1.938c.729 0 1.318.579 1.318 1.293h1.974v-1.769l-1.292.032 1.354-.436.168 1.704h.798v.468h1.974c0-.714.591-1.293 1.318-1.293v-1.938h-.406v-1.295h.406V-8.81a1.306 1.306 0 0 1-1.318-1.293h-1.974v.469h-1.028z"/></g><path fill="none" stroke="#fff" stroke-width="2" stroke-miterlimit="10" d="M30.107 28.488V12.271h-.01l.01-.004-7.653-7.658v2.42l-4.19-4.185v7.663L4.392 7.029v6.955l3.482 3.482v9.418h15.419L7.874 28.559h4.19v1.76h17.222l6.322 6.837v-3.477z"/></svg>