<svg xmlns="http://www.w3.org/2000/svg" xmlns:xlink="http://www.w3.org/1999/xlink" viewBox="0 0 260.5 145.667"><g stroke-miterlimit="10"><g fill="none" stroke="#58439b" stroke-width=".209"><path d="M32.452 69.892l-1.71-2.803 6.867-4.187 1.709 2.803"/><path d="M31.953 69.074l-1.211-1.985 3.433-2.093 1.211 1.985M35.386 66.981l-1.211-1.985 3.434-2.094 1.21 1.985"/><path d="M37.672 64.551l-.75-1.23.687-.419.75 1.23"/><path d="M36.986 64.97l-.751-1.23.687-.419.75 1.23"/><path d="M36.299 65.388l-.75-1.23.686-.418.751 1.23"/><path d="M35.613 65.807l-.751-1.23.687-.419.75 1.23"/><path d="M34.926 66.226l-.751-1.23.687-.419.751 1.23M34.239 66.645l-.75-1.23.686-.419.751 1.23"/><path d="M33.553 67.063l-.751-1.23.687-.418.75 1.23"/><path d="M32.866 67.482l-.75-1.23.686-.419.751 1.23M32.179 67.9l-.75-1.229.687-.419.75 1.23"/><path d="M31.493 68.32l-.751-1.231.687-.418.75 1.229"/><g><path d="M39.318 65.705l-1.709-2.803 6.866-4.187 1.709 2.803"/><path d="M38.819 64.887l-1.21-1.985 3.433-2.093 1.21 1.985"/><path d="M42.252 62.794l-1.21-1.985 3.433-2.094 1.21 1.985"/><path d="M44.538 60.363l-.75-1.229.687-.419.75 1.23"/><path d="M43.852 60.782l-.75-1.23.686-.418.75 1.229M43.165 61.201l-.75-1.23.687-.419.75 1.23"/><path d="M42.478 61.62l-.75-1.23.687-.419.75 1.23M41.792 62.039l-.75-1.23.686-.419.75 1.23"/><path d="M41.106 62.457l-.751-1.23.687-.418.75 1.23M40.419 62.876l-.751-1.23.687-.419.751 1.23M39.732 63.295l-.75-1.23.686-.419.751 1.23"/><path d="M39.046 63.714l-.751-1.231.687-.418.75 1.23M38.359 64.132l-.75-1.23.686-.419.751 1.231"/></g><g><path d="M46.2 61.508l-1.709-2.803 6.865-4.187 1.71 2.803"/><path d="M45.701 60.69l-1.21-1.985 3.433-2.093 1.21 1.985"/><path d="M49.134 58.597l-1.21-1.985 3.432-2.094 1.211 1.985"/><path d="M51.42 56.167l-.75-1.231.686-.418.75 1.23"/><path d="M50.734 56.586l-.751-1.231.687-.419.75 1.231M50.047 57.004l-.75-1.23.686-.419.751 1.231M49.36 57.423l-.75-1.23.687-.419.75 1.23"/><path d="M48.674 57.841l-.75-1.229.686-.419.75 1.23"/><path d="M47.987 58.26l-.75-1.23.687-.418.75 1.229M47.301 58.679l-.75-1.23.686-.419.75 1.23M46.614 59.098l-.75-1.231.687-.418.75 1.23M45.928 59.517l-.751-1.231.687-.419.75 1.231M45.241 59.935l-.75-1.23.686-.419.751 1.231"/></g><g><path d="M53.066 57.32l-1.709-2.802 6.866-4.187 1.709 2.802"/><path d="M52.567 56.503l-1.21-1.985 3.433-2.094L56 54.409"/><path d="M56 54.409l-1.21-1.985 3.433-2.093 1.21 1.985"/><path d="M58.287 51.979l-.751-1.23.687-.418.75 1.23M57.6 52.398l-.75-1.23.686-.419.751 1.23M56.913 52.817l-.75-1.231.687-.418.75 1.23"/><path d="M56.226 53.236l-.75-1.23.687-.42.75 1.231M55.54 53.654l-.75-1.23.686-.418.75 1.23"/><path d="M54.854 54.073l-.751-1.23.687-.419.75 1.23"/><path d="M54.167 54.492l-.75-1.231.686-.418.751 1.23M53.48 54.911l-.75-1.23.687-.42.75 1.231"/><path d="M52.794 55.329l-.751-1.23.687-.418.75 1.23"/><path d="M52.107 55.748l-.75-1.23.686-.419.751 1.23"/></g><g><path d="M59.932 53.133l-1.709-2.802 6.866-4.188 1.709 2.803"/><path d="M59.433 52.316l-1.21-1.985 3.433-2.094 1.21 1.985"/><path d="M62.866 50.222l-1.21-1.985 3.433-2.094 1.211 1.985"/><path d="M65.152 47.792l-.75-1.23.687-.419.75 1.23"/><path d="M64.466 48.211l-.75-1.23.686-.419.75 1.23"/><path d="M63.779 48.63l-.75-1.23.687-.419.75 1.23"/><path d="M63.093 49.048l-.751-1.23.687-.418.75 1.23M62.406 49.467l-.75-1.23.686-.419.751 1.23M61.719 49.886l-.75-1.23.687-.419.75 1.23"/><path d="M61.033 50.305l-.75-1.23.686-.419.75 1.23M60.346 50.723l-.75-1.23.687-.418.75 1.23M59.66 51.142l-.75-1.23.686-.419.75 1.23"/><path d="M58.973 51.561l-.75-1.23.687-.419.75 1.23"/></g><path d="M31.741 68.728l1.712 2.807c.378.621 1.235.839 2.182.643 5.631 7.868 16.463 10.174 24.856 5.055 8.392-5.118 11.3-15.804 6.883-24.412.607-.751.804-1.613.426-2.233l-1.712-2.808m-9.239 23.482c-5.023 3.063-11.444 1.868-15.068-2.558l19.692-12.01c2.276 5.249.399 11.504-4.624 14.568z"/></g><g opacity=".5" fill="none" stroke="#58439b" stroke-width=".209"><path d="M28.138 58.156c-2.106.863-4.272.444-4.837-.935l-1.752-4.279c-.565-1.38.685-3.196 2.791-4.059l44.73-18.316c2.106-.862 4.271-.444 4.836.936l1.752 4.279c.565 1.379-.685 3.197-2.79 4.059l-44.73 18.315z"/><path d="M74.932 34.005l1.749 4.273-10.466 4.286-1.749-4.273"/><path d="M75.442 35.252l1.239 3.026-5.233 2.143-1.239-3.026"/><path d="M70.209 37.395l1.239 3.026-5.233 2.143-1.239-3.026"/><path d="M66.494 40.26l.767 1.876-1.046.428-.768-1.875M67.54 39.832l.768 1.875-1.047.429-.767-1.876M68.587 39.403l.768 1.876-1.047.428-.768-1.875"/><path d="M69.633 38.975l.768 1.874-1.046.43-.768-1.876M70.68 38.546l.768 1.875-1.047.428-.768-1.874M71.727 38.117l.768 1.876-1.047.428-.768-1.875"/><path d="M72.773 37.689l.769 1.875-1.047.429-.768-1.876"/><path d="M73.82 37.26l.768 1.876-1.046.428-.769-1.875M74.867 36.831l.768 1.876-1.047.429-.768-1.876"/><path d="M75.913 36.403l.768 1.875-1.046.429-.768-1.876"/><g><path d="M64.466 38.291l1.749 4.273-10.467 4.286-1.749-4.273"/><path d="M64.976 39.538l1.239 3.026-5.233 2.143-1.24-3.026M59.742 41.681l1.24 3.026-5.234 2.143-1.239-3.026"/><path d="M56.027 44.546l.768 1.876-1.047.428-.767-1.875"/><path d="M57.073 44.118l.768 1.875-1.046.429-.768-1.876"/><path d="M58.12 43.689l.768 1.875-1.047.429-.768-1.875M59.167 43.26l.768 1.876-1.047.428-.768-1.875"/><path d="M60.214 42.832l.768 1.875-1.047.429-.768-1.876"/><path d="M61.26 42.404l.768 1.875-1.046.428-.768-1.875M62.307 41.975l.768 1.875-1.047.429-.768-1.875"/><path d="M63.353 41.546l.769 1.875-1.047.429-.768-1.875M64.4 41.117l.768 1.876-1.046.428-.769-1.875"/><path d="M65.447 40.689l.768 1.875-1.047.429-.768-1.876"/></g><g><path d="M53.974 42.587l1.75 4.273-10.466 4.286-1.749-4.273"/><path d="M54.485 43.833l1.239 3.027-5.233 2.143-1.239-3.027"/><path d="M49.252 45.976l1.239 3.027-5.233 2.143-1.239-3.027"/><path d="M45.537 48.842l.767 1.875-1.046.429-.768-1.876"/><path d="M46.583 48.414l.768 1.875-1.047.428-.767-1.875M47.63 47.985l.768 1.875-1.047.429-.768-1.875"/><path d="M48.677 47.556l.767 1.875-1.046.429-.768-1.875"/><path d="M49.723 47.128l.768 1.875-1.047.428-.767-1.875M50.77 46.699l.768 1.875-1.047.429-.768-1.875"/><path d="M51.816 46.27l.768 1.876-1.046.428-.768-1.875"/><path d="M52.863 45.842l.768 1.875-1.047.429-.768-1.876M53.91 45.413l.767 1.876-1.046.428-.768-1.875M54.956 44.985l.768 1.875-1.047.429-.767-1.876"/></g><g><path d="M43.508 46.873l1.749 4.273-10.466 4.286-1.749-4.274"/><path d="M44.018 48.119l1.239 3.027-5.233 2.143-1.239-3.027M38.785 50.262l1.239 3.027-5.233 2.143-1.239-3.027"/><path d="M35.07 53.128l.767 1.876-1.046.428-.768-1.875"/><path d="M36.116 52.699l.768 1.875-1.047.43-.767-1.876"/><path d="M37.163 52.271l.768 1.875-1.047.428-.768-1.875M38.209 51.842l.769 1.875-1.047.429-.768-1.875"/><path d="M39.256 51.414l.768 1.875-1.046.428-.769-1.875M40.303 50.985l.767 1.876-1.046.428-.768-1.875"/><path d="M41.349 50.557l.768 1.875-1.047.429-.767-1.876M42.396 50.128l.768 1.875-1.047.429-.768-1.875M43.443 49.699l.768 1.876-1.047.428-.768-1.875"/><path d="M44.489 49.271l.768 1.875-1.046.429-.768-1.876"/></g><g><path d="M33.042 51.158l1.749 4.274-10.467 4.286-1.75-4.273"/><path d="M33.552 52.405l1.239 3.027-5.234 2.143-1.239-3.027"/><path d="M28.318 54.548l1.239 3.027-5.233 2.143-1.239-3.027"/><path d="M24.602 57.414l.769 1.875-1.047.429-.767-1.876M25.649 56.986l.768 1.875-1.046.428-.769-1.875"/><path d="M26.696 56.557l.768 1.875-1.047.429-.768-1.875"/><path d="M27.743 56.128l.768 1.875-1.047.429-.768-1.875M28.79 55.699l.767 1.876-1.046.428-.768-1.875"/><path d="M29.836 55.271l.768 1.875-1.047.429-.767-1.876"/><path d="M30.883 54.842l.768 1.875-1.047.429-.768-1.875"/><path d="M31.929 54.414l.768 1.875-1.046.428-.768-1.875M32.976 53.986l.768 1.874-1.047.429-.768-1.875M34.023 53.557l.768 1.875-1.047.428-.768-1.874"/></g></g><g fill="none" stroke="#58439b" stroke-width=".209"><path d="M23.302 57.221l-1.752-4.279c-.565-1.379.685-3.196 2.791-4.059l44.73-18.316c2.106-.862 4.271-.444 4.836.936l1.752 4.279"/><path d="M74.932 34.006l1.749 4.272-10.466 4.286-1.75-4.272"/><path d="M75.442 35.252l1.239 3.026-5.233 2.143-1.239-3.026"/><path d="M70.209 37.395l1.239 3.026-5.233 2.143-1.24-3.026"/><path d="M66.494 40.26l.767 1.876-1.046.428-.768-1.875"/><path d="M67.541 39.832l.767 1.875-1.047.429-.767-1.876M68.587 39.404l.768 1.875-1.047.428-.767-1.875"/><path d="M69.633 38.975l.768 1.874-1.046.43-.768-1.875M70.68 38.546l.768 1.875-1.047.428-.768-1.874M71.727 38.117l.768 1.876-1.047.428-.768-1.875"/><path d="M72.773 37.689l.769 1.875-1.047.429-.768-1.876"/><path d="M73.82 37.26l.768 1.876-1.046.428-.769-1.875M74.867 36.832l.768 1.875-1.047.429-.768-1.876"/><path d="M75.913 36.403l.768 1.875-1.046.429-.768-1.875"/><g><path d="M64.465 38.292l1.75 4.272-10.467 4.286-1.749-4.273"/><path d="M64.975 39.538l1.24 3.026-5.233 2.143-1.24-3.026"/><path d="M59.742 41.681l1.24 3.026-5.234 2.143-1.239-3.026"/><path d="M56.027 44.547l.768 1.875-1.047.428-.767-1.875"/><path d="M57.073 44.118l.768 1.875-1.046.429-.768-1.875M58.121 43.689l.767 1.875-1.047.429-.768-1.875"/><path d="M59.168 43.261l.767 1.875-1.047.428-.767-1.875"/><path d="M60.213 42.832l.769 1.875-1.047.429-.767-1.875"/><path d="M61.26 42.404l.768 1.875-1.046.428-.769-1.875M62.307 41.975l.768 1.875-1.047.429-.768-1.875"/><path d="M63.353 41.546l.769 1.875-1.047.429-.768-1.875M64.4 41.117l.768 1.876-1.046.428-.769-1.875"/><path d="M65.447 40.689l.768 1.875-1.047.429-.768-1.876"/></g><g><path d="M53.975 42.587l1.749 4.273-10.466 4.286-1.749-4.273"/><path d="M54.485 43.834l1.239 3.026-5.233 2.143-1.239-3.027"/><path d="M49.252 45.976l1.239 3.027-5.233 2.143-1.239-3.027"/><path d="M45.537 48.842l.767 1.875-1.046.429-.768-1.875"/><path d="M46.583 48.414l.768 1.875-1.047.428-.767-1.875M47.63 47.985l.768 1.875-1.047.429-.768-1.875"/><path d="M48.677 47.556l.767 1.875-1.046.429-.768-1.875"/><path d="M49.723 47.128l.768 1.875-1.047.428-.767-1.875M50.77 46.699l.768 1.875-1.047.429-.768-1.875"/><path d="M51.816 46.271l.768 1.875-1.046.428-.768-1.875"/><path d="M52.863 45.842l.768 1.875-1.047.429-.768-1.875M53.91 45.413l.767 1.876-1.046.428-.768-1.875M54.956 44.985l.768 1.875-1.047.429-.767-1.876"/></g><g><path d="M43.508 46.873l1.749 4.273-10.466 4.286-1.749-4.273"/><path d="M44.018 48.119l1.239 3.027-5.233 2.143-1.239-3.026M38.785 50.263l1.239 3.026-5.233 2.143-1.239-3.026"/><path d="M35.07 53.128l.767 1.876-1.046.428-.767-1.875"/><path d="M36.116 52.7l.768 1.874-1.047.43-.767-1.876M37.163 52.271l.768 1.875-1.047.428-.768-1.874M38.209 51.842l.769 1.875-1.047.429-.768-1.875"/><path d="M39.256 51.414l.768 1.875-1.046.428-.769-1.875M40.303 50.985l.767 1.876-1.046.428-.768-1.875"/><path d="M41.349 50.557l.768 1.875-1.047.429-.767-1.876M42.397 50.128l.767 1.875-1.047.429-.768-1.875M43.443 49.699l.768 1.876-1.047.428-.767-1.875"/><path d="M44.489 49.271l.768 1.875-1.046.429-.768-1.876"/></g><g><path d="M33.042 51.159l1.749 4.273-10.467 4.286-1.75-4.273"/><path d="M33.552 52.406l1.239 3.026-5.234 2.143-1.239-3.027"/><path d="M28.318 54.548l1.239 3.027-5.233 2.143-1.239-3.027"/><path d="M24.603 57.414l.768 1.875-1.047.429-.768-1.876M25.649 56.986l.768 1.875-1.046.428-.768-1.875"/><path d="M26.696 56.557l.768 1.875-1.047.429-.768-1.875"/><path d="M27.743 56.128l.768 1.875-1.047.429-.768-1.875"/><path d="M28.79 55.7l.767 1.875-1.046.428-.768-1.875"/><path d="M29.836 55.271l.768 1.875-1.047.429-.767-1.875"/><path d="M30.883 54.842l.768 1.875-1.047.429-.768-1.875M31.93 54.414l.767 1.875-1.046.428-.768-1.875M32.976 53.986l.768 1.874-1.047.429-.767-1.875M34.024 53.557l.767 1.875-1.047.428-.768-1.874"/></g></g><g fill="none" stroke="#fff" stroke-width=".084"><path d="M73.542 45.866l-.024-.005c-.078-.418-.535-.501-1.081-.604l-.075-.014c-.67-.127-1.209-.246-1.347.482l-.569 3-.884 4.661v-.001c.026-.139-.112-.651-.094-1.429l-.012-.001c.065-.499.171-1.183.34-2.098.264-1.432.683-3.429 1.351-6.185.031-.094.053-.175.067-.246.097-.491-.201-.417-.445.184l-.001.004a261.23 261.23 0 0 0-.259 1.089c-.066.28-.128.553-.189.82l-.082.363-.108.484-.126.574a83.088 83.088 0 0 0-.188.888l-.047.226-.093.457-.089.45-.028.141c-.248 1.292-.406 2.299-.483 3.009-.003.008-.008.016-.009.024l.001.058c-.062.605-.062.98-.005 1.116.004.011.009.018.013.027.014.15.068.326.167.344.123.023.262.288.309.249v.001l.008.033a1.344 1.344 0 0 0 .317.63l.019.019c.045.047.095.09.147.129l.059.04c.044.029.089.054.137.077.021.01.041.02.063.029.069.028.14.051.215.066l.076.014c.083.016.166.022.247.019.028-.001.056-.008.084-.011.052-.005.105-.009.156-.022.036-.009.069-.024.104-.037.041-.014.083-.025.122-.044.039-.019.075-.044.113-.067.031-.019.064-.035.094-.057.04-.029.076-.065.113-.099.023-.021.048-.04.07-.063.038-.04.07-.086.103-.131.016-.022.035-.042.05-.066.032-.05.058-.105.084-.159.011-.023.024-.044.034-.068a1.36 1.36 0 0 0 .057-.181c.006-.021.015-.041.02-.063v-.007c.002-.012.007-.021.009-.033l1.456-7.681v-.004a.94.94 0 0 0 .01-.3.062.062 0 0 0 .023-.031zM72.042 53.963l.015-.078a.584.584 0 0 1-.01.04.284.284 0 0 1-.005.038z"/></g><g fill="#58439b" stroke="#fff" stroke-width=".084"><path d="M56.742 51.784l.14.15-.53.499-.14-.15z" stroke-width=".08400084000000001"/><path d="M47.747 62.057c.102-.314.918-1.056 1.877-1.959 1.059-.997 2.027-1.71 2.244-1.661.065-.101.11-.212.139-.327l-.01.046.603-.551a.433.433 0 0 0 .138-.232l.652-.613a.76.76 0 0 0 .146-.195l.019.02 2.177-3.43.69-.649-.187-.199-.023-.025-.07-.074-.691.65-3.555 1.963.019.02a.76.76 0 0 0-.203.134l-.652.614a.435.435 0 0 0-.239.123l-.535.518h.001a1.138 1.138 0 0 0-.23.057c-.102.314-.824 1.156-1.784 2.058-1.059.997-1.933 1.809-2.15 1.762-.063.097-.11.198-.147.301L31.072 74.854c-.413.388-.526.938-.138 1.351.388.412.945.333 1.357-.055l15.137-14.008c.107-.016.213-.044.319-.085zm4.269-4.495l.015.081c-.004-.027-.011-.054-.016-.082l.001.001zm.007.476c.007-.037.012-.075.015-.113-.004.038-.008.076-.015.113zm.02-.181zM52.024 64.035c.137-.3 1.032-.944 2.088-1.732 1.166-.869 2.209-1.467 2.418-1.395.076-.092.133-.197.176-.308l-.016.045.663-.479a.432.432 0 0 0 .163-.215l.718-.535a.755.755 0 0 0 .167-.177l.017.022 2.554-3.159.76-.567-.061-.082.584-.434-.123-.164-.583.435-.061-.082-.76.567-3.758 1.545.016.022a.753.753 0 0 0-.217.11l-.718.535a.427.427 0 0 0-.252.095l-.591.454a1.071 1.071 0 0 0-.233.031c-.137.3-.951 1.054-2.007 1.841-1.166.87-2.127 1.577-2.337 1.505-.074.09-.133.185-.181.284l-16.452 12.65c-.455.339-.63.873-.291 1.327.339.454.9.439 1.355.1l16.636-12.19a1.56 1.56 0 0 0 .326-.049zm4.754-3.978l.005.077c-.001-.026-.004-.052-.006-.077h.001zm-.02.364zm.027-.236zM65.931 58.921l-.107-.175-.504.307-.053-.087-.81.494-3.882 1.191.015.024a.758.758 0 0 0-.227.09l-.765.467a.431.431 0 0 0-.259.071l-.63.397.009.001a1.106 1.106 0 0 0-.244.008c-.164.286-1.044.961-2.168 1.648-1.242.757-2.264 1.373-2.466 1.282a1.466 1.466 0 0 0-.206.265L36.081 75.98c-.484.296-.708.811-.412 1.294.295.484.856.52 1.34.225l17.693-10.6c.106.006.216 0 .327-.018.164-.286 1.115-.845 2.24-1.531 1.241-.758 2.334-1.257 2.537-1.166.085-.085.151-.185.204-.292-.007.014-.012.03-.02.044l.704-.415a.436.436 0 0 0 .182-.198l.764-.467a.767.767 0 0 0 .183-.161l.015.024 2.834-2.91.809-.494-.053-.087.503-.307zm-5.8 4.439c0 .03-.001.059-.003.088.002-.029.001-.059.001-.089l.002.001zm-.988-1.553l-.003-.001.003.001zm.935 1.909zm.049-.238zM33.413 70.711L48.59 55.785c.108-.02.217-.052.324-.097.095-.327.914-1.118 1.875-2.08 1.062-1.062 2.037-1.828 2.263-1.785.064-.105.106-.22.133-.339-.003.015-.005.031-.009.046l.605-.588a.439.439 0 0 0 .134-.243l.654-.654a.798.798 0 0 0 .056-1.063c.1-.015.195-.06.272-.137l.467-.152.305-.074.184-.011c.022-.001.052-.023.085-.053.394-.317 1.857-3.091 1.857-3.091 0-.114-.04-.22-.106-.304l-1.663 1.664a.153.153 0 0 1-.033.168c-.06.06-.128.089-.188.029s-.031-.128.029-.188a.155.155 0 0 1 .168-.033l1.663-1.663a.49.49 0 0 0-.304-.106s-3.121 1.645-3.121 1.917v.184l-.26.797a.489.489 0 0 0-.137.272.798.798 0 0 0-1.063.056l-.654.654a.445.445 0 0 0-.243.134l-.535.552c-.08.015-.159.035-.234.066-.095.326-.814 1.218-1.776 2.179-1.062 1.062-1.938 1.927-2.163 1.884a1.434 1.434 0 0 0-.142.316l-14.921 15.37c-.414.414-.513.985-.1 1.399.416.414.987.315 1.401-.1zM53.216 51.22zm-.02-.221c-.005-.028-.013-.055-.019-.083l.002.001.017.082zm.016.292z"/></g><g fill="#58439b" stroke="#58439b" stroke-width=".084"><path d="M38.176 28.234c-.017.59.459 1.012 1.008 1.132.025.006 4.437.548 4.437.548.685.02 1.324-.194 1.344-.879.02-.685-5.696-1.597-5.696-1.597l-.005.163s5.558.881 5.539 1.517c-.017.588-.574.604-1.187.628 0 0-4.311-.542-4.337-.548-.51-.13-.954-.428-.938-.959.019-.636.569-.905 1.237-.886l5.791.487c.668.02 1.507-.054 1.658.564.115.471 1.002.482 1.66.522 0 0 6.911 2.472 9.767 2.008l.004-.145c-2.871.476-9.732-2.013-9.732-2.013-.32.001-1.491-.084-1.613-.429-.254-.722-.969-.648-1.654-.668l-6.01-.493c-.686-.02-1.253.364-1.273 1.048zM40.333 38.501c.295-.374.189-.875-.109-1.217a1144.61 1144.61 0 0 0-2.801-2.241c-.434-.342-1.022-.458-1.364-.025-.342.434.023.834.457 1.176l2.727 2.152.081-.103-2.626-2.072c-.423-.334-.836-.655-.519-1.058.294-.372.758-.237 1.166.041 0 0 2.723 2.177 2.737 2.194.268.328.412.734.147 1.071-.318.403-.803.313-1.226-.021l-3.611-2.975c-.423-.334-.63-.775-.313-1.178.318-.403.857-.381 1.28-.047 0 0 3.922 3.035 3.947 3.059l.083-.105c-.015-.013-4.05-3.137-4.05-3.137-.433-.342-1.038-.298-1.38.135-.342.433-.136.992.298 1.334l3.749 3.084c.434.342.985.367 1.327-.067zM35.853 26.893c-.466.098-.706.55-.697 1.004 0 .02.714 3.515.714 3.515.114.54.491 1.007 1.032.893.54-.113.516-.654.403-1.195l-.715-3.4-.128.027.688 3.273c.111.527.222 1.039-.28 1.145-.464.097-.734-.304-.869-.779 0 0-.695-3.416-.695-3.437.005-.424.155-.828.573-.916.502-.106.817.274.928.802l.866 4.597c.111.527-.013.999-.515 1.105-.502.106-.902-.256-1.013-.783 0 0-1.066-4.843-1.07-4.878l-.131.028c.003.019 1.099 5.004 1.099 5.004.114.54.606.894 1.146.781.54-.113.74-.675.626-1.215l-.902-4.77c-.112-.543-.52-.915-1.06-.801z"/><path d="M43.498 30.528a1.066 1.066 0 0 0-1.276-.411c-.019.007-2.909 1.959-2.909 1.959-.445.305-.692.87-.319 1.414.372.543.863.334 1.308.029l2.802-1.921-.089-.129-2.698 1.849c-.435.298-.854.591-1.2.087-.32-.467-.081-.893.294-1.199 0 0 2.827-1.905 2.847-1.912.396-.138.845-.114 1.134.308.346.504.149.972-.286 1.27l-3.839 2.489c-.434.298-.934.324-1.28-.18-.346-.505-.208-1.058.227-1.356 0 0 3.968-2.788 3.999-2.803l-.09-.132c-.016.01-4.101 2.877-4.101 2.877-.445.305-.53.955-.158 1.499.372.543.992.568 1.437.263l3.981-2.586c.444-.308.588-.872.216-1.415z"/></g><path d="M79.584 59.352a.64.64 0 0 0-.847-.322l-5.556 2.498a.633.633 0 0 0-.328.34l-.688-1.53-.401-.039.117.261-.117-.261-3.938-.454-2.593 3.846-20.188 9.473.512 1.14 19.184-8.625.176.391.157.021-19.185 8.626.044.108-.118.053.512 1.14 21.505-9.251 3.594.479L73.701 64l-.002-.005.068-.094-.533-1.185c.149.052.317.05.472-.019l5.556-2.498a.642.642 0 0 0 .322-.847zM40.106 39.918l.507-2.665.303-1.163-.195.312-.273.353-.007.034-1.79 2.631c-.09.118-.098.138-.153.231a1.352 1.352 0 0 0-.103.233L27.436 64.771l.423.187.434.191 10.58-24.027-10.566 23.995.392.173 10.783-24.487.001-.001c-.916 2.094-10.798 24.52-10.798 24.52l.196.086L40.02 40.112s-.052.069-.124.159l.003-.006c.044-.099.204-.245.207-.347zM44.35 37.72l.372-1.046-.086-.038-.461.946-.013-.037-1.809 2.66c-.09.118-.098.137-.153.231a.96.96 0 0 0-.101.248l-.003-.012L31.14 65.555l.423.187.434.191L42.748 41.52 32.011 65.9l.392.173 10.852-24.644-.006.002.01-.005-.003.003c-.152.362-10.866 24.676-10.866 24.676l.196.086 11.169-25.365c.029-.044.054-.088.055-.125V40.7l.005-.012-.004.007.565-2.974-.026-.001zM45.434 40.004l.372-1.046-.24.312-.304.605-.015-.046-1.809 2.66c-.09.118-.098.137-.153.23a.96.96 0 0 0-.101.248l-.003-.011-10.957 24.883.423.187.435.191.014-.032.392.173 10.781-24.482.001-.001c-.928 2.12-10.797 24.515-10.797 24.515l.196.086 11.164-25.353c.045-.059.058-.076.06-.136l.006-.013-.005.007.566-2.975-.026-.002zm-1.62 3.839l-9.824 22.31 9.824-22.31zM41.509 39.628l.37-1.042-.3.372-.259.499-.003.011-.016-.047-1.809 2.66c-.09.118-.098.137-.153.231a1.04 1.04 0 0 0-.091.207l-10.97 24.913.423.186.434.191 10.738-24.385-10.724 24.352.392.173L40.28 43.561h.001a45457.21 45457.21 0 0 1-10.754 24.42l.196.086L40.68 43.184l-.017-.001c.051-.068.1-.137.102-.193l.744-3.362zm-2.232 3.352l.016.026-.022.05.006-.076z" fill="#58439b" stroke="#fff" stroke-width=".084"/><path d="M40.675 30.802l.335-1.059-.056.14-.461.781-.011-.03-1.713 2.722c-.086.121-.094.14-.145.236a.942.942 0 0 0-.092.251.049.049 0 0 0-.004-.011L28.456 59.087l.429.171.441.176 9.882-24.779-9.869 24.747.398.158a1.22 1.22 0 0 0-.013.032l.199.08 10.266-25.743c.028-.046.052-.09.051-.128v-.002l.005-.012-.004.007.46-2.992h-.026zm-.963 3.745c-.124.327-7.96 19.963-9.663 24.231l9.663-24.231-.005.001.007-.004-.002.003z" fill="#58439b" stroke="#fff" stroke-width=".084"/><g fill="#58439b" stroke="#fff" stroke-width=".084"><path d="M54.303 42.283l.036-.074-.02.037-.016.037zM49.562 43.661l.036-.074-.02.037-.016.037z"/><path d="M77.436 42.222l-.002-.002-.052-.099-.173-.331.011-.008-1.238-2.8-.075-.098c-.011-.016-.016-.035-.028-.05l-.419-.533-.022-.027-.033-.044-.002.001c-.07-.078-.116-.103-.168-.087l-.01-.012.054-.042-.079-.101-.054.042-.072-.091.054-.042-.079-.101-.054.042-.103-.131.054-.042-.048-.061-.054.042-.103-.131.054-.042-.048-.06-.054.042-.002-.002c-.028-.068.033-.342-.015-.403L63.421 22.996l4.326-9.013c.214-.436-.075-1.016-.528-1.239-.452-.222-.993-.049-1.207.387L62 21.222l-1.13-1.412 2.136-4.449c.214-.436-.075-1.016-.528-1.239-.452-.222-.993-.048-1.207.388l-1.798 3.625c-.321-.2-.802-.155-1.118.094-.381.3-.456.842-.167 1.21l.39.501-7.326 14.773c-.172.038-.322.162-.449.42l-.001.001-.002.003-3.562 7.261c.064-.134.067-.684.3-1.455l-.012-.005c.52-1.233 1.635-3.604 3.977-7.827.02-.029.036-.056.053-.084l.021-.033c.336-.567.002-.618-.437-.046a147.564 147.564 0 0 0-1.975 3.687c-1.005 1.947-1.686 3.41-2.061 4.358-.006.007-.013.014-.017.023l-.018.067c-.225.579-.33.956-.31 1.106l.006.031c-.027.154-.021.345.073.391.117.057.182.36.241.335v.001l-.001.034c-.004.069-.004.137.001.204.002.026.006.051.009.077.007.055.018.109.032.162.006.023.011.047.018.069a1.292 1.292 0 0 0 .091.221 1.268 1.268 0 0 0 .532.521l.072.035c.079.039.16.067.242.088.028.007.058.007.087.012.054.009.108.02.162.021.039.001.077-.005.115-.008.045-.003.089-.003.133-.01.044-.008.088-.023.131-.035.037-.011.074-.018.11-.031.048-.018.093-.044.139-.067.03-.015.061-.027.09-.045.048-.029.091-.065.135-.099.024-.019.05-.035.073-.056.043-.039.082-.084.12-.128.02-.023.043-.044.062-.068.036-.046.066-.098.097-.15.015-.025.033-.046.047-.072l.005-.012.016-.025.001-.002.001-.001 3.575-7.286c.121-.247.131-.436.065-.591l6.719-13.997 1.101 1.411-5.066 10.215c-.172.038-.322.162-.449.42l-2.083 4.247-1.481 3.019c.064-.133.067-.683.3-1.455l-.012-.004c.3-.712.798-1.801 1.615-3.408a140.73 140.73 0 0 1 2.36-4.415c.085-.127.142-.233.175-.318.146-.372-.155-.345-.537.152-1.517 2.743-2.629 4.921-3.353 6.479-.29.624-.515 1.143-.682 1.565-.006.008-.013.014-.017.023l-.018.068c-.225.579-.33.955-.31 1.105l.006.031c-.027.154-.021.344.073.391.117.057.183.36.241.335v.003l-.001.024c-.005.072-.004.144.001.215l.009.072c.007.057.018.112.033.167.006.022.011.045.018.067.023.073.05.145.085.212l.006.009a1.284 1.284 0 0 0 .335.396c.061.047.126.09.198.126l.072.035c.079.039.16.067.242.088.031.007.062.008.093.013.052.008.103.019.155.02.041.001.081-.005.121-.008.043-.003.085-.003.128-.01.047-.008.092-.024.138-.037.034-.01.069-.016.103-.029.05-.019.097-.045.144-.07.028-.015.057-.026.084-.042.049-.03.094-.066.139-.102.023-.018.047-.033.069-.053.044-.04.084-.086.124-.131.019-.022.04-.041.058-.065.037-.048.068-.101.1-.154.014-.023.031-.043.044-.068a.049.049 0 0 0 .004-.011c.005-.009.012-.017.016-.026l3.108-6.334.469-.956c.122-.248.131-.436.065-.592l4.503-9.38L72.97 38.391c.048.061.328.066.389.109l.002.002.046.058.105.133.043.054.109.138.054.068.188.239c-.027.057.004.12.105.248l.419.532a.552.552 0 0 0 .118.109l.002.027 2.415 1.85.016.012.011-.009.28.246.084.073.002.002c.026.033.065.045.088.028.018-.015.015-.056-.01-.088zM73.517 45.862c-.078-.418-.535-.501-1.081-.604l-.075-.014c-.67-.127-1.21-.246-1.347.482v.001l-.001.003-.962 5.076-.49 2.582v-.001c.026-.139-.112-.651-.094-1.429l-.012-.001a37.805 37.805 0 0 1 .246-1.578c.039-.222.082-.459.13-.714l.001-.003c.266-1.416.677-3.358 1.315-5.987.031-.093.053-.175.067-.244.098-.492-.2-.419-.444.182l-.001.002-.001.002c-.169.704-.325 1.37-.468 2.001l-.033.143a213.491 213.491 0 0 0-.244 1.102l-.085.393-.109.518-.067.323-.079.389-.1.509-.021.106c-.249 1.296-.408 2.306-.485 3.018-.003.008-.008.016-.01.024l.001.059c-.062.604-.062.979-.004 1.114l.013.027c.014.15.068.326.167.345.123.023.262.288.309.249l.001.003.005.021c.014.069.033.135.056.2.008.023.018.044.027.066a1.304 1.304 0 0 0 .24.378l.012.011c.047.049.098.093.152.133.018.014.038.026.057.038.044.029.09.055.139.078l.062.029c.069.028.14.051.215.066l.076.014c.083.016.166.022.247.019.028-.001.056-.008.084-.011.052-.005.105-.009.156-.022.036-.009.069-.024.104-.037.041-.014.083-.025.122-.044.039-.019.075-.044.113-.067.031-.019.065-.035.094-.057.04-.029.076-.065.113-.099.023-.022.048-.04.07-.063.038-.04.07-.086.104-.131.016-.022.035-.042.05-.066.032-.05.058-.105.084-.159.011-.023.024-.044.034-.068a1.36 1.36 0 0 0 .057-.181c.006-.021.015-.041.02-.063v-.007l.01-.033 1.456-7.681c.007-.037.005-.066.009-.101a.925.925 0 0 0 .002-.203c.005-.011.015-.021.018-.033l-.025-.005z"/><path d="M72.042 53.963l.015-.078-.01.04a.284.284 0 0 1-.005.038z"/></g></g><g fill="none" stroke="#58439b" stroke-width=".209" stroke-miterlimit="10"><path d="M206.849 92.453l2.614-1.986 4.865 6.403-2.613 1.987"/><path d="M207.612 91.874l1.851-1.407 2.432 3.202-1.851 1.406M210.044 95.075l1.851-1.406 2.433 3.201-1.851 1.407"/><path d="M212.694 97.102l1.148-.872.486.64-1.147.872"/><path d="M212.208 96.461l1.147-.871.487.64-1.148.872"/><path d="M211.722 95.821l1.147-.872.486.641-1.147.871"/><path d="M211.235 95.181l1.147-.872.487.64-1.147.872M210.748 94.54l1.147-.871.487.64-1.147.872"/><path d="M210.262 93.9l1.147-.872.486.641-1.147.871"/><path d="M209.775 93.26l1.148-.872.486.64-1.147.872M209.289 92.619l1.147-.871.487.64-1.148.872"/><path d="M208.803 91.979l1.147-.872.486.641-1.147.871"/><path d="M208.315 91.339l1.148-.872.487.64-1.147.872"/><g><path d="M211.715 98.857l2.613-1.987 4.866 6.404-2.615 1.986"/><path d="M212.477 98.277l1.851-1.407 2.433 3.202-1.852 1.407"/><path d="M214.909 101.479l1.852-1.407 2.433 3.202-1.852 1.407"/><path d="M217.56 103.505l1.147-.871.487.64-1.148.872"/><path d="M217.073 102.865l1.147-.872.487.641-1.147.871M216.587 102.225l1.147-.872.486.64-1.147.872"/><path d="M216.1 101.584l1.147-.871.487.64-1.147.872"/><path d="M215.614 100.944l1.147-.872.486.641-1.147.871"/><path d="M215.127 100.304l1.148-.872.486.64-1.147.872M214.64 99.663l1.148-.872.487.641-1.148.872"/><path d="M214.154 99.023l1.147-.872.487.64-1.148.872"/><path d="M213.667 98.383l1.148-.872.486.64-1.147.872"/><path d="M213.181 97.742l1.147-.872.487.641-1.148.872"/></g><g><path d="M216.591 105.275l2.614-1.986 4.865 6.403-2.614 1.986"/><path d="M217.354 104.696l1.851-1.407 2.432 3.201-1.851 1.407M219.786 107.897l1.851-1.407 2.433 3.202-1.852 1.407"/><path d="M222.436 109.923l1.148-.871.486.64-1.147.872"/><path d="M221.949 109.283l1.148-.871.487.64-1.148.871M221.463 108.643l1.147-.872.487.641-1.148.871"/><path d="M220.976 108.002l1.148-.871.486.64-1.147.872"/><path d="M220.49 107.362l1.147-.872.487.641-1.148.871M220.004 106.722l1.147-.872.486.64-1.147.872"/><path d="M219.517 106.082l1.147-.872.487.64-1.147.872"/><path d="M219.031 105.441l1.147-.871.486.64-1.147.872"/><path d="M218.544 104.801l1.148-.872.486.641-1.147.871M218.057 104.161l1.148-.872.487.64-1.148.872"/></g><g><path d="M221.457 111.678l2.613-1.986 4.865 6.404-2.614 1.986"/><path d="M222.218 111.099l1.852-1.407 2.433 3.202-1.852 1.407M224.651 114.301l1.852-1.407 2.432 3.202-1.851 1.407"/><path d="M227.302 116.327l1.147-.871.486.64-1.147.872"/><path d="M226.815 115.687l1.147-.872.487.641-1.147.871"/><path d="M226.329 115.047l1.147-.872.486.64-1.147.872"/><path d="M225.842 114.406l1.147-.871.487.64-1.147.872M225.355 113.766l1.148-.872.486.641-1.147.871"/><path d="M224.869 113.126l1.147-.872.487.64-1.148.872"/><path d="M224.382 112.485l1.148-.871.486.64-1.147.872M223.896 111.845l1.147-.872.487.641-1.148.871"/><path d="M223.409 111.205l1.148-.872.486.64-1.147.872"/><path d="M222.923 110.564l1.147-.872.487.641-1.148.872"/></g><g><path d="M226.321 118.082l2.614-1.986 4.865 6.404-2.613 1.986"/><path d="M227.084 117.503l1.851-1.407 2.433 3.202-1.852 1.406"/><path d="M229.516 120.704l1.852-1.406 2.432 3.202-1.851 1.406"/><path d="M232.167 122.731l1.147-.872.486.641-1.147.871"/><path d="M231.68 122.091l1.147-.872.487.64-1.147.872"/><path d="M231.193 121.45l1.148-.872.486.641-1.147.872M230.707 120.81l1.147-.872.487.64-1.148.872"/><path d="M230.221 120.17l1.147-.872.486.64-1.147.872"/><path d="M229.734 119.529l1.147-.871.487.64-1.147.872"/><path d="M229.247 118.889l1.148-.872.486.641-1.147.871M228.761 118.248l1.147-.871.487.64-1.148.872"/><path d="M228.275 117.608l1.147-.871.486.64-1.147.871"/><path d="M227.788 116.968l1.147-.872.487.641-1.147.871"/></g><path d="M207.935 91.627l-2.617 1.989c-.579.44-.709 1.314-.418 2.236-7.253 6.403-8.443 17.414-2.496 25.242 5.947 7.827 16.873 9.63 24.986 4.359.809.527 1.686.636 2.264.197l2.619-1.989m-24.3-6.799c-3.559-4.685-3.025-11.194 1.009-15.25l13.954 18.366c-4.989 2.799-11.404 1.569-14.963-3.116z"/></g><g opacity=".5" fill="none" stroke="#58439b" stroke-width=".209" stroke-miterlimit="10"><path d="M111.189 79.836c-2.092-.897-3.311-2.735-2.724-4.105l1.823-4.249c.588-1.37 2.76-1.752 4.852-.855l44.419 19.057c2.091.897 3.311 2.735 2.723 4.105l-1.823 4.249c-.588 1.37-2.76 1.752-4.851.856l-44.419-19.058z"/><path d="M161.215 96.275l-1.821 4.244-10.393-4.46 1.821-4.243"/><path d="M160.684 97.513l-1.29 3.006-5.197-2.23 1.29-3.006"/><path d="M155.487 95.283l-1.29 3.006-5.196-2.23 1.289-3.005"/><path d="M150.839 94.643l-.799 1.862-1.039-.446.799-1.862"/><path d="M151.879 95.089l-.8 1.862-1.039-.446.799-1.862M152.918 95.535l-.799 1.862-1.04-.446.8-1.862"/><path d="M153.957 95.981l-.798 1.862-1.04-.446.799-1.862M154.996 96.427l-.799 1.862-1.038-.446.798-1.862"/><path d="M156.036 96.873l-.799 1.862-1.04-.446.799-1.862"/><path d="M157.075 97.318l-.799 1.863-1.039-.446.799-1.862M158.115 97.764l-.799 1.863-1.04-.446.799-1.863"/><path d="M159.154 98.21l-.799 1.862-1.039-.445.799-1.863M160.194 98.656l-.8 1.863-1.039-.447.799-1.862"/><g><path d="M150.822 91.816l-1.821 4.243-10.394-4.459 1.821-4.243"/><path d="M150.29 93.054l-1.289 3.005-5.197-2.229 1.289-3.006"/><path d="M145.093 90.824l-1.289 3.006-5.197-2.23 1.289-3.006"/><path d="M140.445 90.184l-.799 1.862-1.039-.446.8-1.862M141.484 90.629l-.799 1.862-1.039-.445.799-1.862"/><path d="M142.524 91.075l-.799 1.863-1.04-.447.799-1.862"/><path d="M143.564 91.521l-.8 1.862-1.039-.445.799-1.863M144.603 91.967l-.799 1.863-1.04-.447.8-1.862M145.642 92.413l-.799 1.863-1.039-.446.799-1.863M146.681 92.859l-.798 1.862-1.04-.445.799-1.863M147.721 93.305l-.799 1.862-1.039-.446.798-1.862"/><path d="M148.761 93.751l-.799 1.862-1.04-.446.799-1.862M149.8 94.197l-.799 1.862-1.039-.446.799-1.862"/></g><g><path d="M140.404 87.346l-1.821 4.244-10.393-4.459 1.82-4.244"/><path d="M139.873 88.584l-1.29 3.006-5.196-2.23 1.289-3.005"/><path d="M134.676 86.355l-1.289 3.005-5.197-2.229 1.289-3.006"/><path d="M130.028 85.714l-.8 1.862-1.038-.445.798-1.863M131.066 86.16l-.798 1.862-1.04-.446.8-1.862M132.106 86.606l-.799 1.862-1.039-.446.798-1.862M133.146 87.052l-.799 1.862-1.04-.446.799-1.862M134.185 87.498l-.798 1.862-1.04-.446.799-1.862"/><path d="M135.225 87.943l-.799 1.863-1.039-.446.798-1.862M136.264 88.39l-.799 1.862-1.039-.446.799-1.863M137.303 88.836l-.798 1.862-1.04-.446.799-1.862M138.343 89.282l-.799 1.862-1.039-.446.798-1.862M139.382 89.727l-.799 1.863-1.039-.446.799-1.862"/></g><g><path d="M130.009 82.887l-1.82 4.243-10.393-4.459 1.82-4.243"/><path d="M129.478 84.124l-1.289 3.006-5.197-2.229 1.29-3.006M124.282 81.895l-1.29 3.006-5.196-2.23 1.289-3.005"/><path d="M119.634 81.255l-.8 1.862-1.038-.446.798-1.862"/><path d="M120.673 81.7l-.799 1.863-1.04-.446.8-1.862"/><path d="M121.712 82.146l-.799 1.862-1.039-.445.799-1.863"/><path d="M122.752 82.592l-.799 1.863-1.04-.447.799-1.862M123.791 83.038l-.799 1.863-1.039-.446.799-1.863M124.83 83.484l-.799 1.862-1.039-.445.799-1.863M125.869 83.93l-.799 1.862-1.039-.446.799-1.862M126.909 84.376l-.798 1.862-1.041-.446.799-1.862"/><path d="M127.949 84.822l-.8 1.863-1.038-.447.798-1.862"/><path d="M128.988 85.268l-.799 1.862-1.04-.445.8-1.863"/></g><g><path d="M119.616 78.428l-1.82 4.243-10.395-4.459 1.821-4.244"/><path d="M119.085 79.666l-1.289 3.005-5.198-2.23 1.289-3.005"/><path d="M113.887 77.436l-1.289 3.005-5.197-2.229 1.289-3.006"/><path d="M109.239 76.795l-.799 1.862-1.039-.445.799-1.863"/><path d="M110.278 77.241l-.799 1.862-1.039-.446.799-1.862"/><path d="M111.318 77.687l-.798 1.862-1.041-.446.799-1.862"/><path d="M112.358 78.133l-.799 1.862-1.039-.446.798-1.862M113.397 78.579l-.799 1.862-1.039-.446.799-1.862M114.436 79.025l-.799 1.862-1.039-.446.799-1.862"/><path d="M115.476 79.471l-.799 1.862-1.04-.446.799-1.862"/><path d="M116.515 79.917l-.799 1.862-1.039-.446.799-1.862M117.554 80.363l-.798 1.862-1.04-.446.799-1.862"/><path d="M118.594 80.809l-.798 1.862-1.04-.446.798-1.862"/></g></g><g fill="none" stroke="#58439b" stroke-width=".209" stroke-miterlimit="10"><path d="M108.465 75.732l1.823-4.249c.588-1.369 2.76-1.752 4.852-.855l44.419 19.057c2.091.897 3.311 2.735 2.722 4.105l-1.823 4.249"/><path d="M161.215 96.275l-1.821 4.244-10.393-4.46 1.82-4.243"/><path d="M160.684 97.513l-1.29 3.006-5.197-2.23 1.29-3.006"/><path d="M155.487 95.283l-1.29 3.006-5.196-2.23 1.289-3.005"/><path d="M150.839 94.643l-.799 1.862-1.039-.446.799-1.862"/><path d="M151.879 95.089l-.8 1.862-1.039-.446.799-1.862M152.918 95.535l-.799 1.862-1.04-.446.8-1.862"/><path d="M153.957 95.981l-.798 1.862-1.04-.446.799-1.862M154.996 96.427l-.799 1.862-1.038-.446.798-1.862"/><path d="M156.036 96.873l-.799 1.862-1.04-.446.799-1.862"/><path d="M157.075 97.319l-.799 1.862-1.039-.446.799-1.862M158.115 97.764l-.799 1.863-1.04-.446.799-1.862M159.154 98.211l-.799 1.861-1.039-.445.799-1.863M160.193 98.657l-.799 1.862-1.039-.447.799-1.861"/><g><path d="M150.821 91.816l-1.82 4.243-10.394-4.459 1.821-4.243"/><path d="M150.29 93.054l-1.289 3.005-5.197-2.229 1.289-3.006"/><path d="M145.093 90.824l-1.289 3.006-5.197-2.23 1.29-3.005"/><path d="M140.445 90.184l-.799 1.862-1.039-.446.8-1.862M141.484 90.63l-.799 1.861-1.039-.445.799-1.862"/><path d="M142.524 91.076l-.799 1.862-1.04-.447.799-1.861M143.564 91.522l-.8 1.861-1.039-.445.799-1.862M144.602 91.967l-.798 1.863-1.04-.447.8-1.861M145.642 92.414l-.799 1.862-1.039-.446.798-1.863M146.681 92.859l-.798 1.862-1.04-.445.799-1.862M147.721 93.305l-.799 1.862-1.039-.446.798-1.862"/><path d="M148.761 93.751l-.799 1.862-1.04-.446.799-1.862M149.8 94.197l-.799 1.862-1.039-.446.799-1.862"/></g><g><path d="M140.404 87.347l-1.821 4.243-10.393-4.459 1.82-4.244"/><path d="M139.872 88.584l-1.289 3.006-5.196-2.23 1.289-3.005M134.676 86.355l-1.289 3.005-5.197-2.229 1.289-3.006"/><path d="M130.028 85.714l-.8 1.862-1.038-.445.798-1.863M131.066 86.16l-.798 1.862-1.04-.446.8-1.862M132.106 86.606l-.799 1.862-1.039-.446.798-1.862M133.146 87.052l-.799 1.862-1.04-.446.799-1.862M134.185 87.498l-.798 1.862-1.04-.446.799-1.862M135.225 87.944l-.799 1.862-1.039-.446.798-1.862M136.263 88.39l-.798 1.862-1.039-.446.799-1.862M137.303 88.836l-.798 1.862-1.04-.446.798-1.862M138.343 89.282l-.799 1.862-1.039-.446.798-1.862M139.382 89.728l-.799 1.862-1.039-.446.799-1.862"/></g><g><path d="M130.009 82.887l-1.82 4.243-10.393-4.459 1.82-4.243"/><path d="M129.478 84.125l-1.289 3.005-5.197-2.229 1.289-3.006M124.281 81.895l-1.289 3.006-5.196-2.23 1.289-3.005"/><path d="M119.634 81.255l-.8 1.862-1.038-.446.799-1.862"/><path d="M120.672 81.701l-.798 1.862-1.04-.446.8-1.862M121.712 82.146l-.799 1.862-1.039-.445.798-1.862"/><path d="M122.751 82.592l-.798 1.863-1.04-.447.799-1.862"/><path d="M123.791 83.038l-.799 1.863-1.039-.446.798-1.863M124.83 83.484l-.799 1.862-1.039-.445.799-1.863M125.869 83.93l-.799 1.862-1.039-.446.799-1.862M126.909 84.376l-.798 1.862-1.041-.446.799-1.862"/><path d="M127.949 84.822l-.8 1.863-1.038-.447.798-1.862"/><path d="M128.988 85.268l-.799 1.862-1.04-.445.8-1.863"/></g><g><path d="M119.616 78.428l-1.82 4.243-10.395-4.459 1.821-4.244"/><path d="M119.085 79.666l-1.289 3.005-5.198-2.23 1.289-3.005"/><path d="M113.887 77.436l-1.289 3.005-5.197-2.229 1.289-3.006"/><path d="M109.239 76.795l-.799 1.862-1.039-.445.799-1.863"/><path d="M110.278 77.241l-.799 1.862-1.039-.446.799-1.862"/><path d="M111.319 77.687l-.799 1.862-1.041-.446.799-1.862"/><path d="M112.358 78.133l-.799 1.862-1.039-.446.799-1.862M113.397 78.579l-.799 1.862-1.039-.446.799-1.862M114.436 79.025l-.799 1.862-1.039-.446.799-1.862"/><path d="M115.476 79.471l-.799 1.862-1.04-.446.799-1.862"/><path d="M116.515 79.917l-.799 1.862-1.039-.446.799-1.862M117.554 80.363l-.798 1.862-1.04-.446.799-1.862"/><path d="M118.595 80.809l-.799 1.862-1.04-.446.798-1.862"/></g></g><g fill="none" stroke="#fff" stroke-width=".084" stroke-miterlimit="10"><path d="M151.783 103.599l-.014-.021c.243-.349-.018-.733-.327-1.194l-.043-.064c-.379-.567-.672-1.035-1.288-.623l-2.538 1.698-3.943 2.637c.117-.079.386-.537.953-1.069a.065.065 0 0 0-.008-.009c.401-.303.964-.707 1.734-1.228 1.206-.815 2.924-1.916 5.358-3.372.089-.043.162-.085.222-.125.418-.275.156-.435-.443-.188l-.003.002c-.313.188-.616.371-.91.55l-.048.029a139.926 139.926 0 0 0-1.033.636l-.42.262-.498.313-.225.142-.541.346-.194.125-.391.254-.383.252a5 5 0 0 0-.12.08c-1.095.729-1.924 1.322-2.485 1.765-.008.003-.017.005-.024.01l-.041.041c-.475.379-.743.643-.799.779l-.01.028c-.097.115-.185.277-.128.361.07.104-.021.389.039.395l-.001.001c-.007.009-.011.02-.018.029a1.503 1.503 0 0 0-.127.24c-.02.048-.036.096-.05.146-.007.024-.014.047-.019.072-.015.07-.027.14-.03.21v.027c-.002.065.002.13.011.195.003.023.008.046.013.07a1.122 1.122 0 0 0 .064.216c.028.069.061.136.104.199l.043.064c.047.07.1.133.159.19.02.02.045.034.067.052.041.033.08.068.125.096.031.02.066.032.099.049.039.019.076.041.117.056.041.015.084.023.127.034.036.009.07.021.107.027.049.008.1.009.15.011.031.001.062.006.094.006.055-.001.11-.01.166-.018.028-.004.055-.005.082-.011.058-.012.115-.032.173-.051.024-.008.049-.014.073-.023.058-.023.114-.055.169-.086.019-.011.04-.018.059-.03l.005-.005.03-.016 6.499-4.346.002-.002.002-.001a.92.92 0 0 0 .221-.203c.011-.003.024-.003.035-.01zM144.958 108.206l.066-.044-.035.021-.031.023z"/></g><path fill="#58439b" stroke="#fff" stroke-width=".08399832" stroke-miterlimit="10" d="M236.588 102.783l-.134.155-.55-.477.134-.155z"/><path d="M226.902 93.279c.32-.08 1.382.218 2.657.552 1.407.369 2.524.811 2.599 1.021.12.002.238-.019.351-.055l-.045.016.787.219a.427.427 0 0 0 .269-.006l.866.227a.803.803 0 0 0 .243.021l-.007.027 4.063.026.916.24.069-.264.009-.033.026-.099-.917-.241-3.55-1.972-.007.027a.76.76 0 0 0-.222-.101l-.866-.227a.436.436 0 0 0-.231-.138l-.723-.178.001.001a1.098 1.098 0 0 0-.17-.164c-.32.08-1.417-.086-2.691-.42-1.407-.369-2.559-.679-2.634-.888a1.4 1.4 0 0 0-.333.035l-20.151-4.97c-.548-.144-1.075.052-1.219.6-.144.548.219.977.767 1.121l19.904 5.402c.068.078.148.153.239.221zm6.075 1.235c-.02.019-.04.038-.061.055.021-.018.04-.038.061-.057v.002zm-.4.258c.035-.014.07-.03.104-.047-.034.017-.068.034-.104.047zm.164-.078z" fill="#58439b" stroke="#fff" stroke-width=".084" stroke-miterlimit="10"/><path d="M224.918 98.61c.33.015 1.26.607 2.385 1.294 1.241.759 2.184 1.504 2.195 1.725.114.036.233.05.351.048-.016 0-.032.003-.048.002l.691.437a.429.429 0 0 0 .26.071l.763.467a.756.756 0 0 0 .227.089l-.014.024 3.883 1.195.809.494.054-.088.62.38.107-.175-.621-.379.053-.087-.809-.495-2.832-2.911-.014.023a.767.767 0 0 0-.183-.161l-.764-.467a.432.432 0 0 0-.182-.199l-.641-.379a1.112 1.112 0 0 0-.115-.205c-.33-.015-1.332-.49-2.456-1.178-1.241-.758-2.256-1.387-2.266-1.609a1.388 1.388 0 0 0-.331-.062l-17.864-10.562c-.484-.296-1.044-.26-1.34.224-.296.484-.072.999.411 1.295l17.506 10.904c.043.098.098.193.165.285zm5.462 2.932a.893.893 0 0 1-.07.033c.024-.01.046-.023.07-.035v.002zm-.346.116zm.229-.062z" fill="#58439b" stroke="#fff" stroke-width=".084" stroke-miterlimit="10"/><path d="M230.417 112.646l.163-.124-.357-.47.081-.062-.574-.755-1.581-3.74-.022.017a.76.76 0 0 0-.112-.217l-.542-.713a.43.43 0 0 0-.097-.25l-.459-.586v.009a1.094 1.094 0 0 0-.033-.242c-.301-.134-1.062-.941-1.86-1.989-.88-1.158-1.597-2.112-1.526-2.322a1.408 1.408 0 0 0-.285-.178L210.404 84.69c-.343-.451-.878-.622-1.33-.278-.451.343-.43.905-.087 1.356l12.348 16.521c.005.106.022.215.051.324.301.134.954 1.023 1.751 2.072.881 1.157 1.488 2.194 1.418 2.405.093.076.199.132.311.173-.015-.006-.031-.009-.046-.016l.485.658a.434.434 0 0 0 .216.161l.542.713a.76.76 0 0 0 .179.166l-.022.017 3.183 2.523.574.755.081-.062.359.468zm-5.007-5.318l-.088.006c.029-.001.059-.005.089-.008l-.001.002zm1.444-1.141l.001-.004-.001.004zm-1.804 1.125zm.242.024zM216.16 51.612l16.396 13.577c.031.106.074.21.13.313.335.061 1.205.795 2.26 1.653 1.164.948 2.026 1.841 2.007 2.069.111.053.23.083.351.097l-.047-.004.646.542a.442.442 0 0 0 .255.109l.717.584c.319.26.776.23 1.063-.052a.49.49 0 0 0 .164.257l.199.449.105.296.03.182c.004.022.028.049.061.079.355.36 3.264 1.532 3.264 1.532a.49.49 0 0 0 .291-.136l-1.824-1.485a.154.154 0 0 1-.171-.016c-.066-.053-.101-.118-.048-.184.053-.066.124-.044.19.009.05.041.067.106.05.164l1.824 1.485a.495.495 0 0 0 .075-.313s-1.955-2.937-2.225-2.909l-.183.018-.819-.177a.489.489 0 0 0-.284-.108.798.798 0 0 0-.164-1.052l-.717-.584a.445.445 0 0 0-.159-.228l-.603-.476a1.22 1.22 0 0 0-.089-.226c-.334-.061-1.294-.686-2.349-1.544-1.164-.948-2.115-1.731-2.095-1.96a1.46 1.46 0 0 0-.329-.109L217.32 50.187c-.454-.369-1.032-.41-1.402.044-.369.453-.212 1.011.242 1.381zm21.408 17.712zm.218-.042c.027-.008.054-.018.081-.028v.002c-.027.01-.054.018-.081.026zm-.289.046a1.103 1.103 0 0 1-.115 0c.038.002.076.001.115 0zM191.033 139.971a.64.64 0 0 0 .793-.439l1.684-5.854a.633.633 0 0 0-.048-.47l1.613.464.289-.281-.275-.079.275.079 2.891-2.712-1.26-4.464 5.815-21.528-1.201-.346-5.814 20.214-.412-.118-.118.106 5.814-20.216-.111-.036.036-.124-1.201-.346-6.836 22.39-2.688 2.434 1.008 3.833.006.002.027.112 1.249.359a.633.633 0 0 0-.29.373l-1.683 5.854a.64.64 0 0 0 .437.793zM151.677 29.139l-.359-2.688-.079-1.199-.087.357-.148.422.004.034-.868 3.061c-.048.14-.05.162-.072.267a1.339 1.339 0 0 0-.024.253l-2.552 27.073.46.044.472.044 2.464-26.137-2.461 26.103.427.04 2.511-26.638.001-.002c-.209 2.276-2.515 26.674-2.515 26.674l.213.02 2.594-27.518s-.027.082-.067.19l.001-.007c.01-.107.115-.296.085-.393z" fill="#58439b" stroke="#fff" stroke-width=".084" stroke-miterlimit="10"/><path d="M154.865 29.433l.129-1.103-.092-.018-.238 1.025-.021-.034-1.17 2.997c-.061.135-.065.156-.097.259a.953.953 0 0 0-.043.264l-.006-.01-5.132 26.7.454.088.466.089 5.035-26.196c-.257 1.345-5.029 26.161-5.029 26.161l.421.081s5.032-26.183 5.083-26.443l-.006.003.008-.007a.008.008 0 0 0-.002.004c-.067.387-5.089 26.478-5.089 26.478l.21.041 5.231-27.217a.271.271 0 0 0 .026-.134v-.001l.003-.013-.003.007-.112-3.025-.026.004zM165.718 35.003l.023-1.11-.129.372-.098.67-.029-.038-.878 3.094c-.048.14-.05.161-.072.267a.929.929 0 0 0-.017.267l-.007-.009-2.552 27.069.46.044.472.044.003-.035.426.04 2.511-26.633.001-.002c-.212 2.306-2.515 26.67-2.515 26.67l.213.02 2.6-27.58c.024-.07.031-.091.014-.148l.001-.014-.002.008-.401-3.001-.024.005zm-.327 4.154l-2.288 24.27 2.288-24.27zM147.292 33.952l.023-1.106-.168.448-.088.556.001.011-.03-.04-.878 3.094c-.048.14-.05.161-.072.267a1.02 1.02 0 0 0-.021.225l-2.555 27.102.46.043.472.045 2.501-26.527-2.498 26.491.426.04 2.501-26.53h.001c-.264 2.85-2.506 26.565-2.506 26.565l.213.02 2.552-27.069-.016.004c.027-.08.052-.161.036-.215l-.354-3.424zm-1.062 3.885l.023.02a1.207 1.207 0 0 1-.005.054.887.887 0 0 0-.018-.074z" fill="#58439b" stroke="#fff" stroke-width=".084" stroke-miterlimit="10"/><path d="M160.263 46.141l.99-.504-.139.058-.88.219.013-.029-3.142.686c-.146.024-.166.032-.269.062a.935.935 0 0 0-.244.111l.005-.01-25.07 10.522.179.426.183.438 24.598-10.324c-1.259.53-24.566 10.311-24.566 10.311l.166.395a1.22 1.22 0 0 1-.032.013l.082.198 25.554-10.726c.053-.012.101-.027.127-.053l.001-.001.011-.005-.007.002 2.456-1.769-.016-.02zm-3.346 1.939c-.32.141-19.816 8.318-24.054 10.096l24.054-10.096-.004-.002a.019.019 0 0 0 .008.002h-.004zM140.85 87.368l.078-.026-.041.012-.037.014zM136.544 84.952l.078-.026a2.165 2.165 0 0 1-.041.012l-.037.014zM151.769 103.578c.243-.349-.018-.733-.327-1.194l-.043-.064c-.379-.567-.672-1.035-1.288-.623l-.001.001-.003.001-4.294 2.872-2.185 1.461.001-.001c.117-.079.386-.537.954-1.069l-.008-.01c.267-.202.604-.448 1.028-.743l.038-.026.233-.162c.185-.128.385-.264.6-.408l.003-.002c1.196-.803 2.869-1.871 5.192-3.26a1.99 1.99 0 0 0 .221-.124c.419-.275.158-.437-.441-.189l-.002.001-.002.001c-.621.373-1.205.728-1.755 1.069l-.125.077-.589.367-.369.232-.339.215-.446.285-.278.179-.332.216a55.73 55.73 0 0 0-.433.285l-.09.06c-1.099.731-1.93 1.326-2.492 1.77-.008.003-.017.005-.024.01l-.042.042c-.474.379-.742.642-.798.778l-.01.028c-.097.115-.185.277-.129.361.07.104-.021.389.039.395l-.001.003c-.005.006-.007.013-.012.019a1.465 1.465 0 0 0-.103.18l-.028.066c-.021.05-.038.101-.053.153l-.018.066a1.338 1.338 0 0 0-.031.216v.017c-.002.068.002.135.012.202.003.023.008.045.012.067.01.052.024.103.041.154.008.022.014.043.023.064.028.069.062.136.104.2l.043.064c.047.07.101.133.159.19.02.02.045.034.067.052.041.034.08.069.125.096.031.019.066.032.099.049.039.019.076.041.117.056.041.015.084.023.127.034.036.009.07.021.107.027.049.008.1.009.15.011.032.001.062.006.094.006.055-.001.111-.01.166-.018.027-.004.054-.005.082-.011.058-.012.115-.032.173-.051.024-.008.049-.014.073-.023.058-.023.114-.055.169-.086.019-.011.04-.018.059-.03l.005-.005.03-.016 6.499-4.346c.032-.021.051-.043.078-.064a.822.822 0 0 0 .146-.141c.012-.004.026-.004.036-.011l-.014-.021zM144.958 108.206l.066-.044-.035.021-.031.023z" fill="#58439b" stroke="#fff" stroke-width=".084" stroke-miterlimit="10"/><defs><path id="a" d="M71.063 119.122h52.696v26.544H71.063z"/></defs><clipPath id="b"><use xlink:href="#a" overflow="visible"/></clipPath><g clip-path="url(#b)" fill="#58439b" stroke-width=".084" stroke-miterlimit="10"><g stroke="#58439b"><path d="M85.594 141.685c.391.442 1.026.425 1.509.137.022-.013 3.613-2.633 3.613-2.633.513-.453.833-1.047.38-1.56-.453-.513-5.249 2.728-5.249 2.728l.108.122s4.659-3.156 5.08-2.679c.389.441-.006.833-.437 1.27 0 0-3.517 2.552-3.54 2.565-.461.254-.989.34-1.34-.058-.421-.477-.204-1.05.297-1.492l4.56-3.603c.501-.442 1.063-1.069 1.595-.721.406.265 1.06-.333 1.569-.754 0 0 6.734-2.921 8.501-5.211l-.096-.108c-1.77 2.31-8.479 5.184-8.479 5.184-.233.219-1.146.958-1.47.789-.679-.353-1.151.19-1.664.643l-4.724 3.749c-.515.451-.667 1.118-.213 1.632zM94.187 147.703c-.041-.474-.46-.768-.911-.814-.021-.002-3.576.279-3.576.279-.55.047-1.059.365-1.013.915.047.55.587.593 1.137.546l3.461-.294-.011-.13-3.333.283c-.537.046-1.058.094-1.102-.417-.04-.472.391-.691.88-.767 0 0 3.476-.273 3.497-.27.42.056.803.254.839.681.043.511-.372.777-.909.823l-4.669.297c-.537.046-.99-.135-1.034-.646-.043-.511.365-.864.902-.909 0 0 4.937-.466 4.972-.465l-.011-.134c-.019 0-5.101.479-5.101.479-.55.047-.961.492-.915 1.042.047.55.579.817 1.129.77l4.845-.312c.55-.048.969-.407.923-.957zM82.981 142.294c-.273.39-.139.884.178 1.209.014.015 2.924 2.077 2.924 2.077.452.316 1.047.399 1.363-.053.317-.452-.07-.831-.523-1.147l-2.846-1.993-.075.108 2.74 1.918c.441.309.873.607.578 1.026-.272.388-.743.28-1.167.025 0 0-2.843-2.018-2.857-2.033-.286-.313-.454-.71-.208-1.061.294-.42.784-.358 1.225-.049l3.774 2.763c.441.309.673.738.379 1.158-.294.42-.834.43-1.275.121 0 0-4.089-2.806-4.116-2.829l-.077.11c.015.012 4.223 2.901 4.223 2.901.452.317 1.054.238 1.37-.214.317-.452.079-.998-.374-1.315l-3.919-2.865c-.449-.317-1.001-.31-1.317.143z"/><path d="M91.045 139.72a1.065 1.065 0 0 0-1.212.573c-.009.018-.784 3.419-.784 3.419-.116.527.09 1.108.733 1.25.643.142.858-.346.975-.873l.732-3.317-.153-.034-.705 3.194c-.114.514-.219 1.016-.817.884-.553-.122-.67-.596-.605-1.076 0 0 .761-3.323.77-3.342.195-.372.539-.661 1.038-.551.597.132.773.608.66 1.122l-1.1 4.44c-.113.514-.46.875-1.057.743-.598-.132-.875-.63-.762-1.145 0 0 .991-4.747 1.002-4.78l-.156-.035c-.005.018-1.026 4.904-1.026 4.904-.116.527.266 1.06.91 1.202.643.142 1.112-.263 1.228-.79l1.138-4.609c.116-.527-.166-1.037-.809-1.179z"/></g><path d="M82.55 153.436l.002-.001.111-.004.374-.012.002.014 3.06.1.121-.025c.019-.002.038.001.058-.004l.662-.146.034-.009.054-.011v-.002c.101-.029.143-.06.151-.113l.015-.003.015.067.125-.028-.015-.067.113-.025.015.067.126-.028-.015-.067.163-.036.015.067.075-.017-.015-.067.163-.036.015.067.076-.017-.015-.067.003-.001c.074.004.294.178.369.161l17.546-4.041 6.243 7.809c.3.382.948.374 1.345.062.396-.311.475-.873.175-1.255l-5.547-7.125 1.762-.406 3.082 3.855c.3.382.948.373 1.345.062.396-.311.475-.874.175-1.256l-2.486-3.193c.319-.203.487-.655.401-1.048-.105-.474-.561-.776-1.017-.675l-.62.134-10.131-13.011c.04-.171-.006-.36-.184-.587l-.001-.001-.002-.003-4.996-6.36c.093.116.587.357 1.181.901l.009-.009c.885 1.004 2.538 3.037 5.325 6.98.018.031.035.057.052.084l.021.033c.365.549.556.27.231-.374a146.26 146.26 0 0 0-2.464-3.379c-1.319-1.75-2.341-2.998-3.032-3.748-.004-.008-.007-.018-.013-.025l-.052-.045c-.424-.454-.718-.712-.862-.759l-.031-.008c-.127-.091-.301-.169-.384-.104-.102.08-.403.008-.406.072l-.001-.001c-.01-.006-.021-.01-.03-.016a1.351 1.351 0 0 0-.418-.154l-.071-.014a1.332 1.332 0 0 0-.227-.015l-.012.001a1.197 1.197 0 0 0-.214.029l-.066.017a1.305 1.305 0 0 0-.159.056c-.021.009-.042.017-.062.028a1.179 1.179 0 0 0-.199.124l-.063.05c-.069.054-.13.115-.184.18-.019.023-.031.049-.048.073-.032.045-.064.089-.089.137-.018.034-.028.072-.043.108-.017.041-.036.081-.049.125-.012.043-.017.089-.025.134-.006.038-.016.075-.02.113-.004.051-.001.102 0 .154.001.034-.002.067.002.1.005.055.019.11.031.165.007.03.01.06.018.09.016.056.04.11.063.164.012.028.021.057.035.085.026.052.06.102.093.152.016.024.027.05.044.073l.009.009.016.025.001.002.001.001 5.013 6.383c.17.217.336.307.505.315l9.695 12.127-1.749.379-7.005-8.997c.041-.171-.006-.361-.183-.587l-2.922-3.72-2.076-2.644c.092.115.587.357 1.181.901l.009-.009c.511.579 1.277 1.5 2.369 2.934a141.167 141.167 0 0 1 2.954 4.042c.077.132.148.229.211.296.271.293.378.01.096-.549-1.813-2.557-3.293-4.505-4.382-5.833a30.61 30.61 0 0 0-1.114-1.294c-.004-.009-.007-.018-.013-.025l-.053-.045c-.424-.453-.718-.712-.861-.759l-.031-.008c-.127-.091-.301-.169-.383-.104-.102.08-.404.008-.406.071l-.003-.001-.021-.011a1.49 1.49 0 0 0-.194-.092l-.069-.024a1.365 1.365 0 0 0-.164-.043c-.023-.005-.045-.01-.068-.013a1.344 1.344 0 0 0-.228-.015l-.01.001a1.195 1.195 0 0 0-.44.103c-.021.009-.042.017-.063.028a1.22 1.22 0 0 0-.199.124l-.063.049c-.069.054-.13.115-.184.18-.02.025-.034.053-.052.079-.03.043-.062.085-.086.131-.019.036-.03.075-.045.112-.016.04-.035.078-.047.119-.013.046-.018.094-.026.141-.006.035-.016.07-.019.106-.005.053-.002.107 0 .16.001.032-.002.063.002.094.006.057.019.113.032.17.006.029.009.057.017.085.017.057.041.112.064.168.012.027.02.054.033.08.027.054.061.105.096.157.015.023.025.047.042.069a.065.065 0 0 1 .008.009c.006.008.01.018.017.026l4.358 5.549.658.837c.17.217.336.307.505.315l6.497 8.127-16.663 3.613c-.076.017-.202.267-.267.303l-.003.001-.072.016-.166.037-.067.015-.172.038-.085.019-.297.066c-.039-.049-.109-.049-.269-.013l-.661.146a.572.572 0 0 0-.149.059l-.025-.01-2.715 1.373-.018.009.004.014-.343.146-.102.044-.003.001c-.041.009-.069.039-.063.067-.001.023.037.038.078.03z" stroke="#fff"/></g><g><defs><path id="c" d="M71.063 0h52.696v26.544H71.063z"/></defs><clipPath id="d"><use xlink:href="#c" overflow="visible"/></clipPath><g clip-path="url(#d)" fill="#58439b" stroke-width=".084" stroke-miterlimit="10"><g stroke="#58439b"><path d="M85.594-3.982c.391.442 1.026.425 1.509.137.022-.013 3.613-2.633 3.613-2.633.513-.453.833-1.047.38-1.56-.453-.513-5.249 2.728-5.249 2.728l.108.122s4.659-3.156 5.08-2.679c.389.441-.006.833-.437 1.27 0 0-3.517 2.552-3.54 2.565-.461.254-.989.34-1.34-.058-.421-.477-.204-1.05.297-1.492l4.56-3.603c.501-.442 1.063-1.069 1.595-.721.406.265 1.06-.333 1.569-.754 0 0 6.734-2.92 8.501-5.211l-.096-.108c-1.77 2.31-8.479 5.184-8.479 5.184-.233.22-1.146.958-1.47.789-.679-.353-1.151.19-1.664.643l-4.724 3.749c-.515.451-.667 1.119-.213 1.632zM94.187 2.037c-.041-.474-.46-.768-.911-.814-.021-.002-3.576.279-3.576.279-.55.047-1.059.365-1.013.915.047.55.587.593 1.137.546l3.461-.294-.011-.13-3.333.283c-.537.046-1.058.094-1.102-.417-.04-.472.391-.691.88-.767 0 0 3.476-.273 3.497-.27.42.056.803.254.839.681.043.511-.372.777-.909.823l-4.669.297c-.537.046-.99-.135-1.034-.646-.043-.511.365-.864.902-.909 0 0 4.937-.466 4.972-.465l-.011-.134c-.019 0-5.101.479-5.101.479-.55.047-.961.492-.915 1.042.047.55.579.817 1.129.77l4.845-.312c.55-.048.969-.407.923-.957zM82.981-3.373c-.273.39-.139.884.178 1.209.014.015 2.924 2.077 2.924 2.077.452.316 1.047.399 1.363-.053.317-.452-.07-.831-.523-1.147L84.078-3.28l-.075.108 2.74 1.918c.441.309.873.607.578 1.026-.272.388-.743.28-1.167.025 0 0-2.843-2.018-2.857-2.033-.286-.313-.454-.71-.208-1.061.294-.42.784-.358 1.225-.049l3.774 2.763c.441.309.673.738.379 1.158-.294.42-.834.43-1.275.121 0 0-4.089-2.806-4.116-2.829l-.077.11c.015.012 4.223 2.901 4.223 2.901.452.317 1.054.238 1.37-.214.317-.452.079-.998-.374-1.315l-3.919-2.865c-.45-.316-1.002-.309-1.318.143z"/><path d="M91.045-5.946a1.065 1.065 0 0 0-1.212.573c-.009.018-.784 3.419-.784 3.419-.116.527.09 1.108.733 1.25.643.142.858-.346.975-.873l.732-3.317-.153-.034-.705 3.194c-.114.514-.219 1.016-.817.884-.553-.122-.67-.596-.605-1.076 0 0 .761-3.323.77-3.342.195-.372.539-.661 1.038-.551.597.132.773.608.66 1.122l-1.1 4.44c-.113.514-.46.875-1.057.743-.598-.132-.875-.63-.762-1.145 0 0 .991-4.747 1.002-4.78l-.156-.035c-.005.018-1.026 4.904-1.026 4.904-.116.527.266 1.06.91 1.202.643.142 1.112-.263 1.228-.79l1.138-4.609c.116-.527-.166-1.037-.809-1.179z"/></g><path d="M82.55 7.769l.002-.001.111-.004.374-.012.002.014 3.06.1.121-.026c.019-.002.038.001.058-.004l.662-.146.034-.009.054-.011v-.002c.101-.029.143-.06.151-.113l.015-.003.015.067.125-.028-.015-.067.113-.025.015.067.126-.028-.015-.067.163-.036.015.067.075-.017-.015-.067.163-.036.015.067.076-.017-.015-.067.003-.001c.074.004.294.178.369.161l17.546-4.041 6.243 7.809c.3.382.948.374 1.345.062.396-.311.475-.873.175-1.255l-5.547-7.125 1.762-.406 3.082 3.855c.3.382.948.373 1.345.062.396-.311.475-.874.175-1.256l-2.486-3.193c.319-.203.487-.655.401-1.048-.105-.474-.561-.776-1.017-.675l-.62.134-10.131-13.011c.04-.171-.006-.36-.184-.587l-.001-.001-.002-.003-4.996-6.36c.093.116.587.357 1.181.901l.009-.009c.885 1.004 2.538 3.037 5.325 6.98.018.031.035.057.052.084l.021.033c.365.549.556.27.231-.374a146.26 146.26 0 0 0-2.464-3.379c-1.319-1.75-2.341-2.998-3.032-3.748-.004-.008-.007-.018-.013-.025l-.052-.045c-.424-.454-.718-.712-.862-.759l-.031-.008c-.127-.091-.301-.169-.384-.104-.102.08-.403.008-.406.072l-.001-.001c-.01-.006-.021-.01-.03-.016a1.351 1.351 0 0 0-.418-.154l-.071-.014a1.332 1.332 0 0 0-.227-.015l-.012.001a1.197 1.197 0 0 0-.214.029l-.066.017a1.305 1.305 0 0 0-.159.056c-.021.009-.042.017-.062.028a1.179 1.179 0 0 0-.199.124l-.063.05c-.069.054-.13.115-.184.18-.019.023-.031.049-.048.073-.032.045-.064.089-.089.137-.018.034-.028.072-.043.108-.017.041-.036.081-.049.125-.012.043-.017.089-.025.134-.006.038-.016.075-.02.113-.004.051-.001.102 0 .154.001.034-.002.067.002.1.005.055.019.11.031.165.007.03.01.06.018.09.016.056.04.11.063.164.012.028.021.057.035.085.026.052.06.102.093.152.016.024.027.05.044.073l.009.009.016.025.001.002.001.001 5.013 6.383c.17.217.336.307.505.315L108.618.925l-1.749.379-7.005-8.997c.041-.171-.006-.361-.183-.587L96.759-12l-2.076-2.644c.092.115.587.357 1.181.901l.009-.009c.511.579 1.277 1.5 2.369 2.934a141.167 141.167 0 0 1 2.954 4.042c.077.132.148.229.211.296.271.293.378.01.096-.549-1.813-2.557-3.293-4.505-4.382-5.833a30.61 30.61 0 0 0-1.114-1.294c-.004-.009-.007-.018-.013-.025l-.053-.045c-.424-.453-.718-.712-.861-.759l-.031-.008c-.127-.091-.301-.169-.383-.104-.102.08-.404.008-.406.071l-.003-.001-.021-.011a1.49 1.49 0 0 0-.194-.092l-.069-.024a1.365 1.365 0 0 0-.164-.043c-.023-.005-.045-.01-.068-.013a1.344 1.344 0 0 0-.228-.015l-.01.001a1.195 1.195 0 0 0-.44.103c-.021.009-.042.017-.063.028a1.22 1.22 0 0 0-.199.124l-.063.049c-.069.054-.13.114-.184.18-.02.025-.034.053-.052.079-.03.043-.062.085-.086.131-.019.036-.03.075-.045.112-.016.04-.035.078-.047.119-.013.046-.018.094-.026.141-.006.035-.016.07-.019.106-.005.053-.002.107 0 .16.001.032-.002.063.002.094.006.057.019.113.032.17.006.029.009.057.017.085.017.057.041.112.064.168.012.027.02.054.033.08.027.054.061.105.096.157.015.023.025.047.042.069a.065.065 0 0 1 .008.009c.006.008.01.018.017.026l4.358 5.549.658.837c.17.217.336.307.505.315l6.497 8.127-16.669 3.614c-.076.017-.202.267-.267.303l-.003.001-.072.016-.167.036-.067.015-.172.038-.085.019-.297.066c-.039-.05-.109-.05-.269-.014l-.661.146a.572.572 0 0 0-.149.059l-.025-.01-2.715 1.373-.018.009.004.014-.343.146-.103.043-.003.001c-.041.009-.069.039-.063.067.007.027.045.042.086.033z" stroke="#fff"/></g></g></svg>