<svg xmlns="http://www.w3.org/2000/svg" viewBox="0 0 30 30"><circle cx="15" cy="15" r="13.583" fill="none" stroke="#5d5d5d" stroke-width=".949" stroke-miterlimit="10"/><path d="M23.781 14.119h-.031v-.41h-3.833v.41h-3v-.41h-3.833v.41h-3v-.41H6.25v9.542h3.833v-5.783c.168-.607.764-1.058 1.479-1.058.81 0 1.467.578 1.521 1.308v5.533h3.833v-5.439h.021c0-.775.686-1.403 1.531-1.403.678 0 1.247.407 1.448.966v5.875h3.833v-5.439h.031v-3.692zM5.803 13.66c-.778-.778-.778-1.051 0-1.828l7.586-7.586a2.005 2.005 0 0 1 2.828 0l7.604 7.604c.778.778.778 1.051 0 1.828L5.803 13.66z" fill="#5d5d5d"/><path fill="none" stroke="#5d5d5d" stroke-miterlimit="10" d="M5.625 22.375h18.75v.438H5.625z"/><path d="M25.914 23.063H4.086c.108.146.213.296.327.438h21.173c.115-.143.219-.292.328-.438z" fill="none" stroke="#5d5d5d" stroke-width=".949" stroke-miterlimit="10"/></svg>