<?xml version="1.0" encoding="iso-8859-1"?>
<!-- Generator: Adobe Illustrator 19.0.0, SVG Export Plug-In . SVG Version: 6.00 Build 0)  -->
<svg version="1.1" xmlns="http://www.w3.org/2000/svg" xmlns:xlink="http://www.w3.org/1999/xlink" x="0px" y="0px"
	 viewBox="0 0 30 30" style="enable-background:new 0 0 30 30;" xml:space="preserve">
<g >
	<path style="fill:none;stroke:#FFFFFF;stroke-miterlimit:10;" d="M3.479,10.479h6c0.55,0,1-0.45,1-1v-6
		c0-0.55-0.45-1-1-1h14.042c2.2,0,4,1.8,4,4v17.042c0,2.2-1.8,4-4,4H6.479c-2.2,0-4-1.8-4-4V9.479
		C2.479,10.029,2.929,10.479,3.479,10.479z"/>
	<path style="fill:none;stroke:#FFFFFF;stroke-miterlimit:10;" d="M3.479,10.479h6c0.55,0,1-0.45,1-1v-6
		c0-0.55-0.45-1-1-1l-7,7C2.479,10.029,2.929,10.479,3.479,10.479z"/>
	<path style="fill:none;stroke:#FFFFFF;stroke-miterlimit:10;" d="M12.825,17.684
		c0.738,0.695,1.726,1.129,2.821,1.129s2.082-0.434,2.821-1.129C21.69,18.449,24,20.481,24,22.875
		c-0.042,0.063-16.667,0.021-16.708,0C7.292,20.481,9.601,18.449,12.825,17.684z"/>
	<ellipse style="fill:none;stroke:#FFFFFF;stroke-miterlimit:10;" cx="15.646" cy="13.021" rx="3.375" ry="3.5"/>
</g>
</svg>
