<?xml version="1.0" encoding="iso-8859-1"?>
<!-- Generator: Adobe Illustrator 19.0.0, SVG Export Plug-In . SVG Version: 6.00 Build 0)  -->
<svg version="1.1" xmlns="http://www.w3.org/2000/svg" xmlns:xlink="http://www.w3.org/1999/xlink" x="0px" y="0px"
	 viewBox="0 0 30 30" style="enable-background:new 0 0 30 30;" xml:space="preserve">
<path style="fill:none;stroke:#FFFFFF;stroke-miterlimit:10;" d="M18.199,8.41l1.329-1.329
	c0.714-0.714,0.836-1.794,0.387-2.646l-2.347,2.347c-0.219,0.219-0.578,0.219-0.797,0l-1.428-1.428
	c-0.219-0.219-0.219-0.578,0-0.797l2.357-2.357c-0.858-0.477-1.963-0.362-2.69,0.364l-1.329,1.329
	c-0.809,0.809-0.862,2.087-0.179,2.969l-6.203,6.203c-0.883-0.683-2.161-0.63-2.969,0.179l-1.329,1.329
	c-0.714,0.714-0.836,1.794-0.387,2.646l2.347-2.347c0.219-0.219,0.578-0.219,0.797,0L7.186,16.3c0.219,0.219,0.219,0.578,0,0.797
	l-2.357,2.357c0.858,0.477,1.963,0.362,2.69-0.364l1.329-1.329c0.809-0.809,0.862-2.087,0.179-2.969l6.203-6.203
	C16.112,9.272,17.39,9.219,18.199,8.41z"/>
<path style="fill:none;stroke:#FFFFFF;stroke-miterlimit:10;" d="M17.186,15.584l5.122-5.122l0.723-0.075
	l0.747-1.545l-0.747-0.747l-1.545,0.747l0.008,0.806l-5.122,5.122c-0.354-0.066-1.531-0.761-1.804-0.488l-6.378,6.378
	c-0.438,0.438-0.438,1.156,0,1.594l1.511,1.511c0.438,0.438,1.156,0.438,1.594,0l6.378-6.378
	C17.947,17.115,17.252,15.937,17.186,15.584z"/>
<polygon style="fill:none;stroke:#FFFFFF;stroke-miterlimit:10;" points="11.962,26.122 13.927,28.088 
	25.236,18.071 27.65,12.453 22.032,14.867 "/>
<polygon style="fill:#FFFFFF;stroke:#FFFFFF;stroke-miterlimit:10;" points="25.841,13.337 27.404,12.633 
	26.699,14.195 "/>
</svg>
