<svg xmlns="http://www.w3.org/2000/svg" viewBox="0 0 30 30"><path d="M20.583 10.25c0 2.899-2.5 6.25-5.583 6.25s-5.583-3.351-5.583-6.25S11.917 5 15 5s5.583 2.35 5.583 5.25zM15 28.583c4.371 0 8.249-2.073 10.733-5.28.005.065.017.133.017.197 0-2.435-3.4-5.884-8.005-6.93-.811.575-1.746.93-2.745.93s-1.934-.355-2.745-.929C7.65 17.616 4.25 21.065 4.25 23.5c0-.064.012-.131.017-.197 2.484 3.207 6.362 5.28 10.733 5.28z" fill="#5d5d5d" stroke="#fff" stroke-miterlimit="10"/><circle cx="15" cy="15" r="13.583" fill="none" stroke="#5d5d5d" stroke-width=".949" stroke-miterlimit="10"/></svg>