<?xml version="1.0" encoding="iso-8859-1"?>
<!-- Generator: Adobe Illustrator 19.0.0, SVG Export Plug-In . SVG Version: 6.00 Build 0)  -->
<svg version="1.1" xmlns="http://www.w3.org/2000/svg" xmlns:xlink="http://www.w3.org/1999/xlink" x="0px" y="0px"
	 viewBox="0 0 30 30" style="enable-background:new 0 0 30 30;" xml:space="preserve">
<g>
	<path style="fill:#58439B;stroke:#58439B;stroke-width:0.5;stroke-miterlimit:10;" d="M19.165,9.551
		c0.603-0.748,1.242-2.079,1.098-3.7c-0.22-2.476-3.482-4.452-3.189-4.03c2.259,3.251-0.892,3.523-0.672,5.999
		c0.076,0.86,0.275,1.411,0.523,1.768c-0.725,0.189-1.266,0.846-1.266,1.627v2.917c0,0.538,0.259,1.013,0.654,1.323
		c-0.019,0.47-0.031,0.971-0.031,1.518c0,4.959,0.831,11.264,1.856,11.264s1.856-6.305,1.856-11.264
		c0-0.547-0.012-1.048-0.031-1.518c0.395-0.31,0.654-0.785,0.654-1.323v-2.917C20.617,10.367,19.982,9.668,19.165,9.551z"/>
	<polygon style="fill:#58439B;stroke:#58439B;stroke-width:0.5;stroke-miterlimit:10;" points="13.226,10.337 
		13.181,10.17 13.221,9.474 12.991,9.474 11.305,3.276 9.618,9.474 9.388,9.474 9.383,10.337 9.438,10.337 10.388,26.724 
		12.221,26.724 13.171,10.337 	"/>
</g>
</svg>
