<?xml version="1.0" encoding="iso-8859-1"?>
<!-- Generator: Adobe Illustrator 19.0.0, SVG Export Plug-In . SVG Version: 6.00 Build 0)  -->
<svg version="1.1" xmlns="http://www.w3.org/2000/svg" xmlns:xlink="http://www.w3.org/1999/xlink" x="0px" y="0px"
	 viewBox="0 0 30 30" style="enable-background:new 0 0 30 30;" xml:space="preserve">
<g id="XMLID_1_">
	<path style="fill:#EE3432;stroke:#EE3432;stroke-width:0.5778;stroke-miterlimit:10;" d="M18.201,3.708H5.347
		c-0.55,0-1,0.45-1,1v4.458c0,0.55,0.45,1,1,1h4.656v5.026c-0.386,0.139-0.667,0.5-0.667,0.932v9.167c0,0.55,0.45,1,1,1h2.875
		c0.55,0,1-0.45,1-1v-9.167c0-0.432-0.281-0.793-0.667-0.932v-5.026h4.656c0.55,0,1-0.45,1-1V4.708
		C19.201,4.158,18.751,3.708,18.201,3.708z"/>
	<path style="fill:#EE3432;stroke:#EE3432;stroke-width:0.2335;stroke-miterlimit:10;" d="M24.609,15.131h-0.925
		v-8.05h0.12l0.746-0.827l-0.746-3.046H22.39l-0.724,3.127l0.724,0.746h0.141v8.05h-0.925c-0.574,0-1.044,0.47-1.044,1.044v9.573
		c0,0.574,0.47,1.044,1.044,1.044h3.002c0.574,0,1.044-0.47,1.044-1.044v-9.573C25.653,15.601,25.183,15.131,24.609,15.131z"/>
</g>
</svg>
