<?xml version="1.0" encoding="iso-8859-1"?>
<!-- Generator: Adobe Illustrator 19.0.0, SVG Export Plug-In . SVG Version: 6.00 Build 0)  -->
<svg version="1.1" xmlns="http://www.w3.org/2000/svg" xmlns:xlink="http://www.w3.org/1999/xlink" x="0px" y="0px"
	 viewBox="0 0 30 30" style="enable-background:new 0 0 30 30;" xml:space="preserve">
<path style="fill:#F26722;stroke:#F26722;stroke-width:0.8946;stroke-miterlimit:10;" d="M12.427,20.198l3.721-3.721
	c0.066-0.066,0.121-0.138,0.168-0.216l0.46-0.46c0.078-0.046,0.151-0.102,0.216-0.168l3.721-3.721
	c2.019,1.206,4.393,1.172,5.818-0.253c1.168-1.168,1.398-2.973,0.781-4.698c-0.667,0.724-2.267,2.45-2.267,2.45
	c-2.625,0.794-2.64,0.74-3.801-0.422c-1.161-1.161-1.123-1.123-0.422-3.801c0,0,1.619-1.519,2.45-2.267
	c-1.725-0.617-3.531-0.387-4.698,0.781c-1.425,1.425-1.459,3.799-0.253,5.818l-3.721,3.721c-0.066,0.066-0.121,0.138-0.168,0.216
	l-0.46,0.46c-0.078,0.046-0.151,0.102-0.216,0.168l-3.721,3.721c-2.019-1.206-4.393-1.172-5.818,0.253
	c-1.168,1.168-1.398,2.973-0.781,4.698c0.667-0.724,2.267-2.45,2.267-2.45c2.625-0.794,2.64-0.74,3.801,0.422
	c1.161,1.161,1.123,1.123,0.422,3.801c0,0-1.619,1.519-2.45,2.267c1.725,0.617,3.531,0.387,4.698-0.781
	C13.599,24.592,13.633,22.217,12.427,20.198z"/>
</svg>
